<svg width="32" height="32" viewBox="0 0 32 32" fill="none" xmlns="http://www.w3.org/2000/svg">
<g clip-path="url(#clip0_1_2468)">
<path d="M32 16C32 7.16352 24.8365 0 16 0C7.16352 0 0 7.16352 0 16C0 23.5034 5.16608 29.7997 12.135 31.529V20.8896H8.83584V16H12.135V13.8931C12.135 8.44736 14.5997 5.9232 19.9462 5.9232C20.96 5.9232 22.7091 6.12224 23.4246 6.32064V10.7526C23.047 10.713 22.391 10.6931 21.5763 10.6931C18.953 10.6931 17.9392 11.687 17.9392 14.2707V16H23.1654L22.2675 20.8896H17.9392V31.8829C25.8618 30.9261 32.0006 24.1805 32.0006 16H32Z" fill="#0866FF"/>
<path d="M22.2668 20.8896L23.1647 16H17.9384V14.2707C17.9384 11.6871 18.9522 10.6931 21.5756 10.6931C22.3903 10.6931 23.0463 10.713 23.4239 10.7527V6.32066C22.7084 6.12162 20.9592 5.92322 19.9455 5.92322C14.5989 5.92322 12.1343 8.44738 12.1343 13.8931V16H8.83508V20.8896H12.1343V31.529C13.372 31.8362 14.6668 32 15.9992 32C16.6552 32 17.3023 31.9597 17.9378 31.8829V20.8896H22.2661H22.2668Z" fill="white"/>
</g>
<defs>
<clipPath id="clip0_1_2468">
<rect width="32" height="32" fill="white"/>
</clipPath>
</defs>
</svg>
