<svg width="154" height="387" viewBox="0 0 154 387" fill="none" xmlns="http://www.w3.org/2000/svg">
<path d="M48.4107 160.259C44.9209 165.784 43.1432 166.312 35.2552 163.932C34.1396 163.595 33.543 163.871 33.114 164.556C30.7384 168.339 28.395 172.148 25.7396 176.442C28.9706 176.828 31.0958 175.981 33.2926 175.427C43.9129 172.755 55.2528 173.156 66.8458 174.69C68.5735 174.92 70.4448 175.555 72.0607 176.432C75.3317 178.216 77.1988 180.996 76.9779 184.201C76.7825 187.153 74.0513 187.583 71.3712 187.598C63.3948 187.643 55.3195 186.829 47.1632 185.028C41.1903 183.705 35.2141 182.243 29.4172 179.76C25.817 178.222 23.2705 178.222 22.0089 181.523C21.5868 182.633 20.2288 183.188 20.2827 185.015C27.119 187.149 33.9969 189.253 40.7583 191.94C48.5631 195.036 55.7072 199.25 61.8284 205.259C62.5026 205.923 63.171 206.598 63.7677 207.308C65.6247 209.524 67.4379 211.975 66.0706 214.321C64.7485 216.593 62.0289 214.935 59.8904 214.239C47.5968 210.269 37.1059 202.981 27.4638 194.195C24.6812 191.66 21.9045 189.113 19.0996 186.55C16.9271 187.676 16.0487 189.654 14.6879 191.201C13.6701 192.365 14.5405 193.508 15.4529 194.768C21.8779 203.596 25.4796 213.168 28.7606 222.822C29.547 225.14 29.0961 227.02 27.251 227.922C25.3473 228.851 23.2919 227.529 21.6854 225.939C14.1053 218.425 10.9714 209.879 10.4992 200.734C10.4424 199.662 11.2134 198.486 9.2794 197.12C6.65011 201.544 2.93607 205.076 -0.426733 208.901C-0.999917 209.549 -0.552986 210.472 -0.311653 211.299C1.91756 218.88 1.47264 226.045 0.49856 233.111C0.36503 234.112 -0.0527018 235.048 -0.476809 235.942C-1.0174 237.091 -1.8213 237.95 -3.52306 237.612C-5.16271 237.294 -6.08768 236.188 -6.71215 234.858C-8.4623 231.129 -8.63393 227.477 -8.34489 223.86C-8.22287 222.371 -8.06686 220.887 -7.91594 219.285C-10.2246 218.33 -11.16 219.656 -12.2302 220.652C-22.2136 229.889 -32.7072 238.588 -44.1588 246.284C-44.7145 246.66 -45.2328 247.087 -45.8219 247.421C-46.9285 248.052 -48.1372 248.762 -49.3736 247.026C-50.4258 245.556 -49.8503 244.611 -48.6281 243.856C-42.7766 240.256 -37.3079 236.206 -32.1334 231.857C-24.6016 225.533 -16.958 219.312 -10.1116 212.311C-9.74751 211.94 -9.47009 211.488 -8.63418 210.418C-12.7219 210.907 -15.9929 211.278 -19.2435 211.699C-25.0035 212.447 -30.8653 212.762 -36.9257 212.237C-40.3627 211.939 -43.6508 210.573 -46.8935 209.042C-48.6788 208.197 -49.4659 206.666 -49.5869 205.029C-49.6981 203.483 -48.493 202.816 -47.1503 202.657C-33.6271 201.053 -20.0347 199.802 -5.49112 204.754C-4.36214 205.137 -3.47441 205.35 -2.79731 204.601C0.930046 200.458 4.95012 196.545 7.99968 191.782C6.17227 190.493 4.7692 191.03 3.37213 191.134C-3.09029 191.624 -9.35684 192.776 -15.9831 192.72C-20.7658 192.678 -25.5294 192.105 -30.3283 190.106C-34.0053 188.577 -36.6976 185.658 -36.4673 183.146C-36.1413 179.528 -33.1072 179.235 -29.9397 179.768C-17.4109 181.855 -4.82024 183.069 7.54357 188.577C10.4595 189.874 12.7635 187.953 13.8666 183.384C9.64942 181.979 5.41514 180.664 1.23395 179.15C-8.10625 175.781 -16.9753 171.422 -24.299 164.101C-25.4419 162.961 -26.5614 161.774 -27.5477 160.518C-29.1727 158.436 -31.3086 156.181 -29.6138 153.94C-27.9131 151.687 -24.9782 152.544 -22.4002 153.685C-14.4818 157.191 -7.29478 162.048 -0.707715 167.791C4.5857 172.406 9.71408 177.209 15.112 182.106C17.4489 180.831 18.565 178.646 19.7715 176.077C11.8348 171.567 5.62223 165.506 0.389576 158.503C-3.76215 152.947 -7.68101 147.305 -10.0895 141.072C-10.5202 139.953 -11.5088 138.665 -10.2173 137.842C-8.96736 137.049 -7.53136 137.158 -5.96238 138.038C-4.50993 138.844 -3.35814 139.966 -2.22692 141.13C6.38556 150.026 13.5413 159.695 18.9222 170.307C19.4878 171.428 19.8052 172.703 21.3962 173.704C24.8225 170.151 27.0063 165.715 29.4424 161.463C29.9986 160.484 29.2207 159.738 28.4043 158.924C22.5706 153.119 22.0985 151.097 25.0696 145.196C31.9062 151.785 39.8067 156.587 48.3944 160.219L48.4107 160.259Z" fill="#8AB979"/>
<path d="M53.776 152.939C45.6673 149.567 38.2051 145.099 31.7437 138.959C27.2437 134.231 22.9162 129.43 19.7928 123.849C16.1769 117.375 14.4161 110.799 13.7338 104.106C13.4209 101.054 15.1502 99.4735 18.524 99.4467C22.4178 104.059 25.5124 108.91 25.8002 114.787C28.6064 113.882 27.1503 110.631 29.5981 110.036C29.7393 110.608 29.9119 110.963 29.8765 111.257C29.6611 113.232 30.1873 114.707 32.7769 115.42C35.5585 116.192 35.8055 114.427 36.3417 112.834C36.7066 111.757 36.5167 110.272 38.3728 109.927C39.4248 114.54 34.2569 118.949 41.0582 123.463C44.0677 120.761 43.5776 116.096 46.5871 113.566C45.8483 118.033 44.5569 122.208 43.2975 126.388C43.0631 127.168 42.6036 128.041 43.602 128.857C44.5291 129.611 45.4284 129.223 46.2734 128.96C47.9205 128.453 49.058 127.465 49.7492 125.988C50.7616 123.83 51.7939 121.684 52.9324 119.597C53.4245 118.692 53.5626 117.301 55.2982 117.558C56.1025 118.628 55.4279 119.301 55.1155 120.015C54.4061 121.631 53.5706 123.176 52.8413 124.781C52.2574 126.077 51.8915 127.481 53.8534 128.601C55.7252 129.663 57.1277 129.203 58.0053 127.796C58.655 126.745 59.1311 125.581 59.7847 124.539C60.4615 123.468 60.5465 121.876 62.6786 121.608C62.9666 124.711 60.9536 126.536 60.0435 128.831C59.468 130.28 58.9383 131.792 60.8975 133.003C63.0769 134.353 63.2182 132.236 64.1174 131.419C65.6061 130.067 65.895 127.584 68.8887 126.935C67.6224 132.345 60.5417 135.312 65.7522 142.669C69.8922 140.038 72.2787 135.799 76.8951 133.973C76.344 136.863 72.9161 137.787 72.6787 140.919C78.446 142.685 80.7467 138.19 84.8045 136.547C85.2871 138.932 83.0864 139.304 83.7173 141.459C87.427 143.085 91.86 143.238 95.5035 146.025C93.6066 150.906 88.8149 152.639 84.021 154.171C75.7185 156.824 66.7435 156.549 57.3114 153.717C56.1504 153.365 54.98 152.673 53.7931 152.956L53.776 152.939Z" fill="#EF7FA0"/>
<path d="M97.1174 143.845C93.4684 141.06 89.0386 140.911 85.3222 139.273C84.6909 137.115 86.9 136.747 86.4104 134.355C82.3561 136.004 80.0467 140.5 74.2751 138.732C74.5127 135.596 77.9433 134.671 78.4949 131.778C73.8749 133.605 71.4864 137.849 67.343 140.483C62.1287 133.117 69.215 130.147 70.4826 124.731C67.4826 125.371 67.1906 127.862 65.7073 129.22C64.8046 130.044 64.6726 132.161 62.4849 130.806C60.5176 129.589 61.0544 128.08 61.6304 126.628C62.5413 124.331 64.5492 122.5 64.2677 119.397C62.1378 119.674 62.0489 121.259 61.3715 122.332C60.7146 123.38 60.2381 124.545 59.5906 125.592C58.7123 127.001 57.3059 127.467 55.4355 126.398C53.4693 125.282 53.8356 123.876 54.4227 122.574C55.1526 120.967 55.9888 119.42 56.6988 117.802C57.0087 117.092 57.6839 116.418 56.8818 115.342C55.1487 115.094 55.0066 116.477 54.514 117.383C53.3746 119.472 52.3414 121.621 51.3281 123.782C50.6364 125.26 49.4979 126.25 47.8496 126.757C47.0067 127.014 46.1039 127.409 45.1761 126.654C44.177 125.837 44.6368 124.962 44.8715 124.181C46.1347 119.992 47.4245 115.817 48.1641 111.344C45.1549 113.872 45.6425 118.548 42.6305 121.253C35.824 116.733 40.9962 112.319 39.9434 107.701C38.0898 108.056 38.2731 109.538 37.9107 110.611C37.374 112.206 37.1334 113.977 34.343 113.2C31.7448 112.483 31.2276 111.004 31.4405 109.032C31.4759 108.738 31.3004 108.388 31.162 107.81C28.7122 108.405 30.1721 111.655 27.3609 112.566C27.0636 106.684 23.9695 101.821 20.0795 97.2068C23.6801 97.2432 26.9582 98.8892 30.1151 100.831C32.0121 102 33.206 102.099 33.9453 100.233C35.974 95.085 40.8653 94.1683 46.5317 95.377C52.3211 96.6125 56.7324 100.109 58.9387 105.696C59.1541 106.239 59.3545 106.796 59.6075 107.332C59.7022 107.536 59.9192 107.716 60.16 108.003C61.975 108.583 63.4993 107.863 65.1394 107.629C68.5966 107.148 72.0937 107.376 75.7044 108.747C82.8018 111.446 86.588 117.487 84.3646 123.353C83.3303 126.087 84.3368 127.386 87.0474 128.632C90.6897 130.299 93.8898 132.565 96.1712 135.823C98.0999 138.575 99.3323 141.374 97.0964 143.819L97.1174 143.845Z" fill="#EF9AB3"/>
<path d="M81.4915 91.2055C80.5882 92.5353 79.2766 92.9187 77.5165 91.8459C75.8597 90.8325 75.0747 89.4671 75.7137 87.9028C76.3572 86.3112 77.6842 86.0938 79.5259 87.019C81.6173 88.0653 81.9084 89.5358 81.4955 91.2153L81.4915 91.2055Z" fill="#EF9AB3"/>
<path d="M76.4609 61.4365C78.0238 62.4566 78.836 63.7582 78.0967 65.1133C77.3891 66.404 76.1529 67.2025 74.2193 65.9991C72.6707 65.0399 71.9517 63.837 72.6123 62.354C73.3248 60.7655 74.687 60.6106 76.4609 61.4365Z" fill="#EF9AB3"/>
<path d="M54.491 85.1469C55.2989 83.8512 56.3705 83.4072 58.0989 84.4401C59.6405 85.3654 60.5419 86.4187 59.5995 87.8251C58.8876 88.8901 58.0654 90.1249 56.2332 89.0323C54.6333 88.0809 53.8005 86.6908 54.491 85.1469Z" fill="#EF9AB3"/>
<path d="M24.4147 206.477C23.4979 203.509 23.7749 200.706 24.0843 197.943C24.6628 192.768 26.2495 188.097 30.0853 184.66C30.893 183.933 31.8119 183.337 32.8346 182.905C35.3955 181.816 38.3457 182.983 40.3842 185.8C40.7383 186.293 40.952 187.071 41.705 187.042C42.35 187.019 42.2362 186.306 42.37 185.839C44.0746 179.755 46.6279 174.196 51.3167 169.976C54.2145 167.369 57.5143 165.283 61.6061 164.3C69.2246 162.463 75.6379 166.215 79.7635 173.387C82.9055 178.848 83.6972 184.312 82.3833 189.623C82.254 190.152 82.2155 190.711 82.1536 191.263C82.1427 191.339 82.2625 191.452 82.3662 191.616C83.4921 191.295 84.1338 190.406 84.9745 189.773C89.06 186.702 93.4427 184.062 99.0395 183.327C103.176 182.786 107.431 183.199 111.392 186.078C116.097 189.497 118.12 195.103 116.839 200.419C115.879 204.408 113.824 207.73 111.251 210.732C110.947 211.078 110.281 211.395 110.691 211.936C111.097 212.467 111.708 212.103 112.209 211.997C116.022 211.204 119.891 210.903 124.118 212.655C130.601 215.34 133.887 220.919 132.284 226.69C130.449 233.287 126.122 237.879 120.151 241.117C118.613 241.952 116.986 242.662 115.403 243.427C114.675 243.352 114.013 243.589 114.191 244.279C114.365 244.96 115.182 244.871 115.764 244.922C115.916 244.935 116.05 244.841 116.188 244.794C120.078 245.519 123.74 246.901 126.931 249.717C129.673 252.142 130.611 255.264 129.51 258.078C127.8 262.447 123.95 264.685 119.79 266.589C114.511 268.996 108.518 269.661 102.303 269.744C102.037 269.747 101.755 269.66 101.479 269.613C101.619 269.098 102.205 269.159 102.591 268.964C105.418 267.552 107.629 265.622 107.591 262.139C107.552 258.283 105.03 255.486 101.614 253.107C99.063 251.328 96.1296 250.803 93.4509 249.442C94.5757 248.697 95.9735 248.413 97.333 248.101C99.0383 247.711 100.7 247.267 102.738 247.895C104.42 248.407 105.569 247.594 106.134 246.273C106.664 245.022 105.92 243.396 104.669 242.812C103.055 242.055 100.921 242.496 100.758 243.839C100.527 245.82 99.0187 245.757 97.3889 245.691C98.0694 244.385 99.4506 243.69 100.306 242.529C102.29 239.814 103.987 237.001 103.146 233.079C103.61 233.368 104.032 233.297 104.411 233.135C106.596 232.203 108.695 231.318 111.614 232.779C112.806 233.375 114.196 232.29 114.402 231.107C114.618 229.869 113.693 227.967 112.574 227.384C111.206 226.664 109.477 226.728 108.958 227.866C107.853 230.298 105.234 230.527 102.929 231.257C102.735 230.974 102.511 230.697 102.352 230.396C100.32 226.587 96.9901 224.658 92.9669 223.544C91.1949 223.054 89.5581 223.483 87.8136 222.92C88.976 221.422 90.8024 220.573 92.0817 219.195C92.8707 218.345 93.8474 218.095 95.2056 218.355C96.8699 218.671 97.9147 217.91 98.0188 216.577C98.1166 215.294 96.9502 213.916 95.289 213.416C93.6581 212.925 92.8588 213.724 92.6281 214.938C92.4445 215.897 91.9249 216.522 91.2734 217.092C90.1809 218.058 88.9794 218.923 87.936 219.931C86.8279 220.999 85.1944 221.563 84.5479 223.067L84.5536 223.056C84.2658 222.98 84.2473 223.088 84.411 223.309C81.0809 223.747 78.0197 224.727 75.0804 225.941C73.9617 226.407 72.8094 226.817 71.7985 227.456C71.5286 227.629 71.1136 227.792 70.7434 227.438C70.4153 227.123 70.7487 226.875 70.7976 226.598C71.033 225.356 71.6771 224.32 72.0866 223.171C72.9257 220.832 73.8818 218.523 73.7987 215.826C74.2793 216.117 74.5094 215.847 74.7542 215.601C77.26 213.11 79.8804 210.709 82.2183 208.078C82.9954 207.199 83.5772 206.983 84.8603 207.43C86.6824 208.068 87.8337 207.553 88.0968 206.149C88.3805 204.667 87.2355 203.905 85.9436 203.244C84.4336 202.473 83.0622 202.667 82.4544 203.844C80.5039 207.613 77.1651 210.205 74.1658 213.089C73.8573 212.272 73.4866 211.456 73.25 210.635C72.5542 208.181 70.7887 206.645 68.2195 206.344C66.4881 206.146 65.0626 206.681 63.6393 207.248C62.9625 207.514 62.4531 208.189 61.4614 207.775C60.9816 206.859 61.6594 206.289 61.883 205.658C62.7278 203.307 62.6523 200.488 64.8815 198.806C65.959 197.996 65.0108 196.64 64.2198 195.642C63.5115 194.744 62.559 194.874 61.7798 195.222C60.6479 195.733 60.0439 196.689 60.7305 197.969C61.2776 198.998 61.2844 199.821 61.0484 200.69C60.4484 202.883 59.7604 205.041 59.2677 207.266C59.097 208.039 58.2413 208.738 59.1477 209.787C58.3522 210.365 57.5105 210.894 56.7778 211.522C55.4892 212.635 54.2712 213.818 53.0071 214.952C52.7331 215.204 52.444 215.611 51.936 215.304C51.5416 215.07 51.6005 214.613 51.6078 214.26C51.6209 213.486 51.6711 212.726 51.7241 211.96C52.1222 206.241 51.6469 200.475 48.7837 194.646C45.6048 188.175 41.4782 186.629 36.4587 188.813C32.5343 190.526 29.72 193.516 27.8101 197.256C26.3225 200.16 25.0135 203.13 24.4233 206.46L24.4147 206.477Z" fill="#EF9AB3"/>
<path d="M22.9499 209.655C23.5338 206.362 24.83 203.425 26.3034 200.553C28.1949 196.854 30.9761 193.892 34.8711 192.202C39.8378 190.036 43.9274 191.562 47.0861 197.964C49.9279 203.72 50.3978 209.427 50.0049 215.082C49.9526 215.839 49.9098 216.595 49.8903 217.356C49.8831 217.705 49.8181 218.154 50.2158 218.389C50.7261 218.696 51.0057 218.29 51.2771 218.04C52.5295 216.918 53.736 215.748 55.0127 214.647C55.7414 214.02 56.5753 213.497 57.3606 212.931C58.2522 212.397 59.0172 211.731 59.6459 210.936C60.6288 211.345 61.1334 210.677 61.8039 210.414C63.2142 209.853 64.6295 209.317 66.3424 209.519C68.8884 209.815 70.6383 211.332 71.3286 213.759C71.5604 214.576 71.9308 215.377 72.2368 216.185C71.7479 216.979 71.9739 217.985 71.8738 218.891C71.9569 221.559 71.0101 223.842 70.1793 226.155C69.7739 227.291 69.1359 228.316 68.903 229.544C68.8546 229.818 68.5242 230.063 68.8494 230.375C69.2164 230.725 69.6305 230.557 69.895 230.392C70.8966 229.759 72.0316 229.35 73.1467 228.892C76.0619 227.685 79.0951 226.715 82.392 226.286C82.4414 226.204 82.4907 226.122 82.5401 226.04L82.5276 226.047C83.6974 226.342 84.7608 226.201 85.7733 225.898C87.4954 226.451 89.124 226.03 90.8801 226.513C94.8604 227.609 98.161 229.515 100.182 233.285C100.34 233.582 100.565 233.85 100.754 234.135C100.382 234.695 100.952 235.338 100.963 235.933C101.798 239.811 100.116 242.593 98.1511 245.279C97.3012 246.433 95.9395 247.124 95.2616 248.406C93.6 249 92.26 250.035 90.7685 250.865C90.3742 251.081 89.5363 251.101 89.8515 251.768C90.1429 252.376 90.8419 252.055 91.3615 252.132C94.0095 253.473 96.9165 253.99 99.4519 255.752C102.837 258.104 105.338 260.868 105.377 264.681C105.413 268.13 103.225 270.034 100.425 271.432C100.042 271.624 99.4617 271.564 99.323 272.073C99.1718 272.097 99.0235 272.115 98.8723 272.139C90.4454 273.919 81.7576 272.51 72.9567 268.918C66.352 266.223 59.9487 263.033 54.1606 258.546C53.4677 258.01 52.8859 257.301 52.019 257.01C51.8185 256.042 50.7829 255.669 50.2164 254.947C47.2779 251.218 43.6723 248.115 39.7822 245.305C38.57 244.426 37.8825 243.068 36.5149 242.38C34.3249 239.551 31.9287 236.839 30.0128 233.843C24.9881 225.982 22.3141 217.967 22.9618 209.684L22.9499 209.655ZM38.4444 227.334C37.5668 229.002 36.6824 230.666 36.482 232.655C36.427 233.242 36.1726 233.95 37.0769 234.306C37.958 234.656 37.9538 233.837 38.1462 233.396C38.863 231.753 39.5119 230.072 40.2219 228.426C40.6652 227.406 41.2227 226.438 41.6388 225.403C41.8148 224.96 41.8194 224.352 41.1371 224.005C40.4779 223.664 40.0994 224.006 39.8628 224.467C39.3783 225.411 38.921 226.37 38.4472 227.328L38.4444 227.334ZM34.7168 224.97C34.8254 224.539 34.9312 224.114 35.033 223.679C35.4693 221.758 35.9085 219.832 36.3312 217.903C36.4541 217.356 36.2746 216.855 35.6188 216.561C35.1141 216.33 34.6961 216.488 34.5768 216.905C33.8591 219.342 33.125 221.777 32.7887 224.358C32.7271 224.853 32.9371 225.326 33.5132 225.553C34.1996 225.821 34.5181 225.459 34.71 224.966L34.7168 224.97ZM47.844 234.735C47.3709 236.061 46.5491 236.929 46.374 238.146C46.3163 238.562 46.2904 238.967 46.8534 239.238C47.3185 239.46 47.6058 239.249 47.8172 238.981C49.2629 237.115 50.4658 235.089 51.3118 232.851C51.5026 232.342 51.5571 231.704 50.8096 231.313C50.1262 230.95 49.8183 231.414 49.5659 231.836C48.9443 232.864 48.3431 233.903 47.844 234.735ZM59.6566 238.81C59.8017 238.164 60.5416 237.69 59.7185 237.064C58.8712 236.417 58.4001 237.052 57.9761 237.486C56.5542 238.916 55.1469 240.369 53.7736 241.841C53.4233 242.214 52.9789 242.725 53.5914 243.319C54.1201 243.835 54.6663 243.471 55.0515 243.221C56.9193 242.017 58.3686 240.427 59.6606 238.819L59.6566 238.81ZM40.6256 235.64C40.0406 237.351 39.6632 239.188 39.459 241.08C39.3904 241.747 39.4048 242.528 40.3335 242.817C41.2757 243.114 41.2818 242.256 41.4097 241.734C41.8317 240.018 42.1568 238.269 42.5516 236.538C42.695 235.913 43.0721 235.327 41.9987 234.837C40.9893 234.377 41.0002 235.2 40.6284 235.634L40.6256 235.64ZM47.3777 248.427C47.5305 248.471 47.6952 248.543 47.8526 248.56C50.4377 248.9 52.8293 248.593 55.134 247.985C55.5044 247.888 55.7719 247.629 55.594 247.196C55.3924 246.706 54.9193 246.552 54.4738 246.555C52.0949 246.59 49.724 246.644 47.3598 246.703C46.8565 246.716 46.6331 247.044 46.6558 247.491C46.6809 247.881 47.0078 248.171 47.3806 248.422L47.3777 248.427ZM71.8341 262.734C71.8264 262.538 71.8789 262.185 71.7955 261.843C71.7041 261.482 71.3707 261.504 71.1255 261.577C69.1219 262.21 66.9374 262.011 64.7192 261.704C64.2063 261.631 63.5433 261.685 63.5935 262.376C63.6353 262.996 64.1654 263.351 64.7608 263.486C66.8255 263.963 68.8469 264.157 70.7241 263.621C71.1704 263.494 71.5725 263.298 71.8409 262.737L71.8341 262.734ZM57.4624 258.319C59.3661 258.997 61.3837 259.005 63.4047 259.059C63.9199 259.075 64.4498 259.025 64.3113 258.372C64.1958 257.813 63.686 257.558 63.1557 257.467C61.268 257.144 59.3826 256.851 57.4921 256.533C56.9686 256.446 56.644 256.592 56.5433 257.042C56.4233 257.584 56.7875 257.939 57.4556 258.315L57.4624 258.319ZM59.8812 252.92C59.7719 252.894 59.6559 252.864 59.5506 252.848C57.4472 252.556 55.3428 252.248 53.2405 251.97C52.8069 251.913 52.5225 252.118 52.5073 252.536C52.4818 253.081 52.8459 253.525 53.3768 253.667C55.5455 254.233 57.6999 254.511 59.7733 254.212C60.1113 254.163 60.3091 253.974 60.2756 253.602C60.2526 253.331 60.1923 253.083 59.884 252.914L59.8812 252.92Z" fill="#EF7FA0"/>
<path d="M33.6591 248.415C35.0566 249.122 35.7625 250.526 36.997 251.418C40.9717 254.305 44.6554 257.492 47.6568 261.321C48.2353 262.062 49.3006 262.449 49.498 263.439C46.0754 263.476 42.7298 262.22 39.4184 260.932C38.1392 260.436 37.0918 260.392 36.0804 260.942C26.196 266.303 15.3983 270.104 4.07887 273.03C3.73959 273.121 3.28656 273.064 2.98876 273.92C4.67582 273.517 6.21705 273.771 7.73051 273.684C15.4842 273.25 22.9334 271.862 30.6779 271.393C37.1051 271.01 43.5684 270.807 50.2599 271.838C52.183 272.13 54.1222 272.462 55.9531 273.555C58.1695 274.877 58.9719 276.699 58.016 278.58C56.4917 281.576 53.4604 282.896 50.2301 283.897C45.0513 285.504 39.3892 285.565 33.6207 285.21C20.835 284.428 8.00488 282.24 -4.71542 277.826C-8.5794 276.483 -11.7869 276.319 -15.1269 277.182C-17.4816 277.781 -19.9267 278.185 -22.3356 278.677C-23.0008 278.815 -23.7827 279.226 -24.345 278.433C-24.9552 277.576 -24.4057 276.752 -23.7675 276.47C-21.8088 275.59 -21.1267 273.74 -20.0557 272.167C-17.8126 268.853 -16.206 265.149 -14.4219 261.555C-11.2922 255.254 -8.37469 248.824 -4.45882 243.007C-1.82 239.09 0.835586 235.175 4.56084 232.126C5.76049 231.14 7.00224 230.232 8.6972 229.94C11.4434 229.468 14.0495 231.03 15.0053 233.786C16.0452 236.786 15.5514 239.5 14.8916 242.171C13.2358 248.898 9.57284 254.347 4.83655 259.064C-0.060897 263.946 -5.34249 268.432 -11.1654 272.373C-11.473 272.581 -12.2037 272.779 -11.8378 273.337C-11.4309 273.957 -10.7791 273.539 -10.3698 273.45C-4.06188 272.1 2.17457 270.588 8.27147 268.799C17.6287 266.057 26.3287 262.264 34.7523 258.002C36.1065 257.317 36.2925 256.525 35.3331 255.112C34.7045 254.183 34.175 253.198 33.7184 252.21C33.0998 250.864 32.8886 249.542 33.6452 248.407L33.6591 248.415Z" fill="#6BB194"/>
<path d="M112.784 243.06C112.645 243.108 112.503 243.198 112.357 243.189C111.779 243.142 110.952 243.22 110.774 242.541C110.596 241.846 111.262 241.607 111.994 241.684C112.037 242.225 112.372 242.658 112.781 243.066L112.784 243.06Z" fill="#FFC1D3"/>
<path d="M73.768 216.097C73.8875 215.126 73.6397 214.047 74.1628 213.205C77.3566 210.164 80.911 207.433 82.9911 203.454C83.6392 202.212 85.0978 202.009 86.7022 202.827C88.0676 203.524 89.2838 204.332 88.9871 205.901C88.7021 207.391 87.4801 207.926 85.5436 207.248C84.18 206.773 83.5609 207 82.7333 207.927C80.243 210.702 77.4528 213.235 74.7844 215.861C74.5236 216.121 74.2786 216.405 73.768 216.097Z" fill="#FFC1D3"/>
<path d="M89.7204 249.664C89.182 249.584 88.4573 249.916 88.1559 249.283C87.83 248.59 88.6954 248.576 89.1072 248.346C90.6538 247.485 92.0436 246.41 93.7663 245.796C95.4371 245.871 96.9858 245.937 97.2277 243.895C97.3885 242.51 99.5854 242.07 101.245 242.843C102.536 243.45 103.295 245.112 102.747 246.404C102.17 247.771 100.982 248.601 99.2583 248.067C97.1628 247.425 95.4586 247.874 93.7071 248.273C92.3106 248.593 90.875 248.883 89.7193 249.648L89.7204 249.664Z" fill="#FFC1D3"/>
<path d="M87.019 222.415C85.9418 222.74 84.8214 222.891 83.5773 222.566C84.2585 220.991 85.9828 220.406 87.1413 219.285C88.239 218.231 89.5025 217.327 90.6517 216.318C91.337 215.721 91.8868 215.061 92.0779 214.063C92.3219 212.791 93.1699 211.96 94.8757 212.473C96.6205 213 97.8472 214.439 97.7398 215.79C97.6358 217.19 96.5371 217.986 94.7816 217.647C93.3549 217.373 92.3283 217.633 91.4982 218.522C90.1522 219.964 88.2351 220.843 87.0088 222.417L87.019 222.415Z" fill="#FFC1D3"/>
<path d="M101.072 231.251C101.061 230.636 100.471 229.975 100.858 229.391C103.221 228.65 105.898 228.418 107.028 225.931C107.559 224.766 109.325 224.703 110.723 225.44C111.859 226.034 112.81 227.985 112.589 229.251C112.373 230.452 110.957 231.571 109.739 230.96C106.76 229.456 104.604 230.362 102.378 231.319C101.991 231.484 101.56 231.555 101.086 231.259L101.072 231.251Z" fill="#FFC1D3"/>
<path d="M62.89 209.855C62.1984 210.715 61.3578 211.433 60.3785 212.009C59.403 210.886 60.3239 210.142 60.5143 209.308C61.0576 206.919 61.8099 204.609 62.4636 202.267C62.7251 201.33 62.7194 200.449 62.1239 199.351C61.3877 197.981 62.0463 196.959 63.2701 196.411C64.1177 196.04 65.1533 195.903 65.9212 196.868C66.7757 197.945 67.8066 199.395 66.6338 200.259C64.2073 202.055 64.2865 205.07 63.3602 207.592C63.1127 208.273 62.3705 208.872 62.8974 209.859L62.89 209.855Z" fill="#FFC1D3"/>
<path d="M83.5916 223.431C83.5393 223.518 83.4871 223.604 83.4349 223.691C83.2605 223.458 83.2794 223.345 83.5916 223.431Z" fill="#FFC1D3"/>
<path d="M38.9847 229.582C39.5197 228.537 40.0471 227.487 40.593 226.44C40.8541 225.929 41.2905 225.558 42.0341 225.936C42.793 226.323 42.7935 226.996 42.5965 227.477C42.1231 228.614 41.4934 229.672 40.9862 230.798C40.1788 232.606 39.4404 234.454 38.6253 236.259C38.4066 236.744 38.4011 237.641 37.4145 237.256C36.3972 236.854 36.6837 236.083 36.7476 235.437C36.9803 233.248 37.977 231.416 38.9814 229.589L38.9847 229.582Z" fill="#C7386C"/>
<path d="M36.1659 227.611C35.9551 228.144 35.6061 228.534 34.8567 228.242C34.2277 227.995 33.9962 227.488 34.0679 226.947C34.4341 224.153 35.242 221.523 36.0394 218.895C36.1739 218.438 36.6279 218.275 37.1789 218.526C37.8875 218.842 38.0898 219.388 37.9542 219.98C37.4877 222.063 37.0032 224.145 36.5219 226.22C36.4127 226.684 36.293 227.149 36.1733 227.615L36.1659 227.611Z" fill="#C7386C"/>
<path d="M47.6788 236.456C48.2332 235.541 48.9179 234.408 49.6178 233.285C49.9019 232.823 50.2561 232.32 51.0136 232.715C51.8471 233.154 51.7873 233.847 51.5719 234.404C50.6169 236.855 49.2623 239.071 47.6362 241.11C47.3984 241.404 47.0833 241.639 46.555 241.389C45.9247 241.089 45.9474 240.642 46.0208 240.19C46.2208 238.857 47.1446 237.908 47.6788 236.456Z" fill="#C7386C"/>
<path d="M59.3632 239.988C57.9622 241.707 56.3843 243.42 54.3567 244.71C53.9385 244.978 53.3456 245.368 52.7735 244.811C52.1108 244.171 52.6011 243.627 52.9743 243.222C54.4664 241.642 55.9952 240.083 57.54 238.548C58.0048 238.093 58.5127 237.4 59.4299 238.1C60.3177 238.782 59.5177 239.283 59.359 239.977L59.3632 239.988Z" fill="#C7386C"/>
<path d="M40.1644 238.298C40.5695 237.831 40.5594 236.944 41.6553 237.443C42.8207 237.974 42.4096 238.605 42.2524 239.277C41.8153 241.131 41.4549 243.021 40.9999 244.873C40.8597 245.436 40.8512 246.36 39.8278 246.037C38.8193 245.722 38.8053 244.881 38.8815 244.162C39.1076 242.124 39.5218 240.146 40.1613 238.304L40.1644 238.298Z" fill="#C7386C"/>
<path d="M45.996 250.864C45.6192 250.61 45.2888 250.315 45.2636 249.92C45.2408 249.467 45.4668 249.134 45.9756 249.121C48.3687 249.057 50.7697 249.013 53.1679 248.975C53.6281 248.971 54.0995 249.122 54.3002 249.626C54.4799 250.065 54.2094 250.327 53.8349 250.425C51.5046 251.04 49.0865 251.35 46.4731 251.004C46.3072 250.983 46.1407 250.909 45.9931 250.869L45.996 250.864Z" fill="#C7386C"/>
<path d="M68.9928 264.41C68.7179 264.985 68.3107 265.184 67.8617 265.307C65.9606 265.85 63.9071 265.648 61.8236 265.167C61.2305 265.027 60.6911 264.672 60.6421 264.039C60.5945 263.331 61.2629 263.282 61.7821 263.357C64.0379 263.668 66.2467 263.877 68.2688 263.232C68.5172 263.158 68.8548 263.135 68.9471 263.502C69.0355 263.86 68.9851 264.212 68.9859 264.406L68.9928 264.41Z" fill="#C7386C"/>
<path d="M55.0386 260.47C54.373 260.096 54.0074 259.748 54.1297 259.203C54.23 258.756 54.556 258.606 55.0747 258.697C56.9576 259.013 58.8355 259.304 60.7156 259.625C61.2438 259.715 61.7516 259.969 61.8666 260.525C61.998 261.171 61.4702 261.221 60.9638 261.209C58.951 261.156 56.9414 261.148 55.0453 260.474L55.0386 260.47Z" fill="#C7386C"/>
<path d="M57.9436 255.181C58.2546 255.344 58.3053 255.594 58.335 255.868C58.3685 256.24 58.1708 256.429 57.833 256.478C55.7604 256.776 53.6099 256.493 51.4393 255.934C50.9086 255.791 50.5447 255.348 50.5702 254.803C50.5921 254.389 50.8764 254.185 51.303 254.238C53.4044 254.515 55.5107 254.817 57.6103 255.115C57.7224 255.135 57.8316 255.161 57.9407 255.186L57.9436 255.181Z" fill="#C7386C"/>
<path d="M94.4716 319.824C96.6571 320.73 98.5987 321.936 99.6244 324.798C92.7547 323.423 85.833 324.759 79.0046 323.981C71.9494 323.174 66.7194 317.932 59.7651 315.661C59.7654 318.28 61.2321 319.04 62.288 319.981C67.0016 324.141 71.3132 328.718 75.546 333.364C76.5576 334.477 77.8405 335.467 77.9754 337.197C77.6186 337.558 77.2656 337.93 76.9088 338.291C75.0338 337.493 73.8943 335.848 72.5785 334.399C56.2096 316.313 37.0807 302.403 13.7914 294.838C10.5434 293.786 7.27899 292.534 2.46746 292.902C13.0717 305.426 24.5238 315.655 36.1225 325.732C35.9197 325.945 35.713 326.146 35.514 326.35C28.0817 323.112 22.6925 317.15 16.9402 311.739C12.6886 307.739 8.18746 303.718 5.07169 298.829C-0.52292 290.056 -8.82217 289.739 -17.6543 290.038C-17.9263 290.045 -18.1977 290.167 -18.473 290.239C-18.9347 290.117 -19.1308 290.179 -18.7653 290.66C-10.9752 296.272 -2.29327 300.61 4.58271 307.543C10.3412 313.352 14.5192 320.244 18.2373 327.323C17.004 328.984 15.9693 328.448 14.9352 328.008C14.7639 325.867 13.5842 324.443 12.0873 323.044C7.81679 319.044 3.71141 314.854 -0.483977 310.775C-4.25376 307.108 -7.24714 302.47 -12.5436 300.692C-16.6381 292.569 -23.4089 289.382 -32.2161 290.078C-38.2511 290.561 -44.2897 291.09 -50.3085 291.754C-51.8831 291.926 -53.6743 291.889 -55.6153 294.006C-42.0732 295.333 -30.5155 299.748 -22.0844 310.265C-29.1021 308.128 -35.8845 305.533 -42.389 302.02C-46.1415 299.999 -49.9179 297.128 -54.768 298.007C-64.7424 292.971 -73.5815 297.879 -82.5188 302.133C-84.9754 303.304 -87.1738 305.338 -90.2575 305.249C-89.9484 303.19 -88.356 302.844 -87.2417 302.157C-81.3612 298.52 -75.2367 295.268 -68.6001 293.635C-61.0089 291.768 -54.377 288.053 -47.8808 283.763C-45.0316 281.882 -44.0943 278.714 -42.0188 276.353C-39.6232 275.721 -37.5977 274.482 -35.9352 272.561C-32.0472 268.08 -27.7099 264.177 -22.5736 261.21C-21.026 260.313 -19.3356 259.272 -18.8527 257.218C-14.9899 256.798 -16.3496 258.804 -17.7123 260.308C-22.0819 265.139 -26.7178 269.671 -32.2515 273.164C-34.8565 274.804 -37.2822 276.73 -39.5739 278.961C-29.4378 276.167 -19.8107 271.632 -9.31457 270.934C-9.25788 271.577 -9.20494 272.228 -9.14825 272.871C-23.4628 275.752 -37.1038 280.714 -50.4107 287.238C-49.3131 289.48 -47.905 288.623 -46.829 288.486C-27.6333 286.146 -8.65307 286.372 10.0545 290.985C17.4861 292.817 25.1591 291.365 32.7304 291.26C34.0641 294.451 37.1084 293.625 39.5474 293.958C48.4564 295.159 57.4487 293.819 66.4107 293.755C69.0064 293.738 71.695 294.757 74.2709 293.296C76.8287 294.551 76.4023 295.938 73.957 296.46C62.0547 298.968 50.1405 302.029 38.267 297.243C34.7864 295.841 31.1307 294.867 27.5014 293.876C25.84 293.429 24.0396 293.099 21.595 294.4C25.2176 296.168 28.2572 297.757 31.3902 299.149C39.6941 302.818 46.6783 308.878 55.1543 312.262C58.9644 313.791 63.031 313.977 66.951 314.922C67.7656 316.587 69.231 317.115 70.93 317.542C76.0612 318.847 81.3765 318.688 86.5978 319.256C89.199 319.54 91.6651 321.889 94.4942 319.815L94.4716 319.824Z" fill="#6BA270"/>
<path d="M78.2405 338.918C78.5856 338.557 78.942 338.193 79.2946 337.836C84.259 336.297 89.2266 334.655 94.182 337.345C95.3768 337.994 96.5793 338.666 97.6631 339.491C99.1257 340.6 100.44 341.962 99.8217 344.077C99.2321 346.072 97.5358 347.155 95.6918 347.237C92.5301 347.371 90.6016 348.345 91.0074 352.008C91.0588 352.499 90.6875 353.494 90.4524 353.525C86.5498 354.024 85.0793 357.991 82.1765 359.628C79.4858 361.145 77.136 359.01 75.852 356.501C73.6843 352.263 73.8341 347.835 75.9144 343.432C76.6374 341.909 77.4577 340.432 78.2368 338.925L78.2405 338.918Z" fill="#EF7FA0"/>
<path d="M36.3373 326.479C36.5338 326.277 36.7414 326.071 36.9379 325.869C40.991 323.886 44.9915 321.822 49.6529 323.109C52.3533 323.86 55.4218 324.415 55.8662 327.722C56.2911 330.896 53.8032 332.088 51.1252 332.639C50.8608 332.695 50.381 332.915 50.3925 332.968C51.3274 337.921 45.8674 339.089 44.6841 342.739C43.3139 346.957 40.6557 347.698 37.6732 344.609C34.049 340.847 33.4003 336.37 34.8924 331.317C35.3678 329.698 36.6089 328.298 36.341 326.471L36.3373 326.479Z" fill="#EF7FA0"/>
<path d="M-9.79692 273.605C-9.84923 272.962 -9.90522 272.326 -9.96122 271.69C-8.89817 265.567 -5.30684 261.787 0.444578 260.008C2.11181 259.49 3.79927 259.239 5.08564 260.703C6.31185 262.1 6.49674 263.701 5.41172 265.388C4.6711 266.542 4.16213 267.692 5.42393 268.782C6.92226 270.07 6.98379 271.66 6.11944 273.385C5.52098 274.568 5.98598 275.501 6.37347 276.598C7.84769 280.816 5.92946 283.157 1.50235 282.629C-4.06146 281.965 -7.73768 278.832 -9.79681 273.624L-9.79692 273.605Z" fill="#EF7FA0"/>
<path d="M-12.4375 300.339C-7.13222 302.12 -4.12999 306.759 -0.357583 310.44C3.84115 314.534 7.9572 318.724 12.2349 322.731C13.7343 324.133 14.9123 325.567 15.0877 327.704C0.455121 324.317 -7.62541 314.05 -12.4299 300.343L-12.4375 300.339Z" fill="#8AB696"/>
<path d="M74.2344 294.537C71.6587 295.998 68.9701 294.979 66.3745 294.996C57.4204 295.064 48.4285 296.404 39.5123 295.199C37.0809 294.87 34.0367 295.696 32.6955 292.502C45.277 289.91 57.8539 287.836 70.2322 292.436C71.6521 292.962 73.1543 293.334 74.2306 294.525L74.2344 294.537Z" fill="#8AB696"/>
<path d="M95.1189 321.005C92.2821 323.084 89.8091 320.729 87.2007 320.444C81.965 319.874 76.6388 320.025 71.4896 318.723C69.7896 318.288 68.3202 317.758 67.4995 316.096C77.4183 314.126 86.973 314.021 95.1152 321.013L95.1189 321.005Z" fill="#8AB696"/>
<path d="M93.8802 266.94C95.2008 265.102 97.3561 264.519 99.0243 264.813C101.149 265.189 101.676 267.373 101.056 269.5C100.378 271.799 98.7764 272.645 96.5105 272.049C93.8496 271.35 94.3858 268.899 93.8802 266.94Z" fill="#EF9AB3"/>
<path d="M61.8387 267.124C61.0244 268.746 60.1832 270.403 58.1269 269.988C56.246 269.605 54.8151 268.567 55.2881 266.227C55.6779 264.293 56.8686 263.125 58.8279 263.427C60.799 263.73 61.9118 265.006 61.8387 267.124Z" fill="#EF9AB3"/>
<path d="M91.4359 298.478C92.1437 296.717 93.2937 295.474 95.2465 295.993C97.1703 296.506 98.2781 297.842 97.6916 300.051C97.18 301.948 96.0158 303.149 94.025 302.385C92.3853 301.754 90.6247 300.942 91.4305 298.472L91.4359 298.478Z" fill="#EF9AB3"/>
</svg>
