<svg width="32" height="32" viewBox="0 0 32 32" fill="none" xmlns="http://www.w3.org/2000/svg">
<mask id="mask0_1_2472" style="mask-type:alpha" maskUnits="userSpaceOnUse" x="0" y="0" width="32" height="32">
<rect width="32" height="32" rx="16" fill="white"/>
</mask>
<g mask="url(#mask0_1_2472)">
<path d="M16.0069 0.00470335C9.32649 0.00470335 7.37411 0.00940728 6.99304 0.0423388C5.62402 0.155247 4.76779 0.371655 3.841 0.8374C3.12591 1.19494 2.56136 1.60423 2.00152 2.18289C0.98534 3.23669 0.369045 4.53514 0.147932 6.07351C0.0397275 6.82152 0.00679545 6.97677 0.00209091 10.7968C-0.00261363 12.0717 0.00209091 13.7465 0.00209091 15.9953C0.00209091 22.671 0.0115001 24.6233 0.0397274 25.0044C0.152636 26.3405 0.359636 27.1779 0.801863 28.0953C1.64868 29.8547 3.26704 31.172 5.17238 31.666C5.83102 31.8353 6.56022 31.9294 7.49643 31.9718C7.89161 31.9906 11.9328 32 15.974 32C20.0152 32 24.0564 31.9953 24.4422 31.9765C25.5242 31.9247 26.1546 31.84 26.8509 31.6613C28.7704 31.1673 30.3558 29.8689 31.2214 28.0859C31.6542 27.192 31.8754 26.317 31.9742 25.0515C31.9977 24.7739 32.0071 20.3799 32.0071 15.9906C32.0071 11.6013 31.9977 7.212 31.9742 6.93443C31.8754 5.6501 31.6542 4.78447 31.2026 3.8718C30.8357 3.12379 30.4264 2.56395 29.8336 1.99471C28.7751 0.983239 27.4813 0.36695 25.9382 0.145838C25.1902 0.0376348 25.0397 0.0047045 21.2149 0H16.0069V0.00470335Z" fill="url(#paint0_radial_1_2472)"/>
<path d="M16.0069 0.00470335C9.32649 0.00470335 7.37411 0.00940728 6.99304 0.0423388C5.62402 0.155247 4.76779 0.371655 3.841 0.8374C3.12591 1.19494 2.56136 1.60423 2.00152 2.18289C0.98534 3.23669 0.369045 4.53514 0.147932 6.07351C0.0397275 6.82152 0.00679545 6.97677 0.00209091 10.7968C-0.00261363 12.0717 0.00209091 13.7465 0.00209091 15.9953C0.00209091 22.671 0.0115001 24.6233 0.0397274 25.0044C0.152636 26.3405 0.359636 27.1779 0.801863 28.0953C1.64868 29.8547 3.26704 31.172 5.17238 31.666C5.83102 31.8353 6.56022 31.9294 7.49643 31.9718C7.89161 31.9906 11.9328 32 15.974 32C20.0152 32 24.0564 31.9953 24.4422 31.9765C25.5242 31.9247 26.1546 31.84 26.8509 31.6613C28.7704 31.1673 30.3558 29.8689 31.2214 28.0859C31.6542 27.192 31.8754 26.317 31.9742 25.0515C31.9977 24.7739 32.0071 20.3799 32.0071 15.9906C32.0071 11.6013 31.9977 7.212 31.9742 6.93443C31.8754 5.6501 31.6542 4.78447 31.2026 3.8718C30.8357 3.12379 30.4264 2.56395 29.8336 1.99471C28.7751 0.983239 27.4813 0.36695 25.9382 0.145838C25.1902 0.0376348 25.0397 0.0047045 21.2149 0H16.0069V0.00470335Z" fill="url(#paint1_radial_1_2472)"/>
<path d="M16.0069 0.00470335C9.32649 0.00470335 7.37411 0.00940728 6.99304 0.0423388C5.62402 0.155247 4.76779 0.371655 3.841 0.8374C3.12591 1.19494 2.56136 1.60423 2.00152 2.18289C0.98534 3.23669 0.369045 4.53514 0.147932 6.07351C0.0397275 6.82152 0.00679545 6.97677 0.00209091 10.7968C-0.00261363 12.0717 0.00209091 13.7465 0.00209091 15.9953C0.00209091 22.671 0.0115001 24.6233 0.0397274 25.0044C0.152636 26.3405 0.359636 27.1779 0.801863 28.0953C1.64868 29.8547 3.26704 31.172 5.17238 31.666C5.83102 31.8353 6.56022 31.9294 7.49643 31.9718C7.89161 31.9906 11.9328 32 15.974 32C20.0152 32 24.0564 31.9953 24.4422 31.9765C25.5242 31.9247 26.1546 31.84 26.8509 31.6613C28.7704 31.1673 30.3558 29.8689 31.2214 28.0859C31.6542 27.192 31.8754 26.317 31.9742 25.0515C31.9977 24.7739 32.0071 20.3799 32.0071 15.9906C32.0071 11.6013 31.9977 7.212 31.9742 6.93443C31.8754 5.6501 31.6542 4.78447 31.2026 3.8718C30.8357 3.12379 30.4264 2.56395 29.8336 1.99471C28.7751 0.983239 27.4813 0.36695 25.9382 0.145838C25.1902 0.0376348 25.0397 0.0047045 21.2149 0H16.0069V0.00470335Z" fill="url(#paint2_radial_1_2472)"/>
<path d="M16.0069 0.00470335C9.32649 0.00470335 7.37411 0.00940728 6.99304 0.0423388C5.62402 0.155247 4.76779 0.371655 3.841 0.8374C3.12591 1.19494 2.56136 1.60423 2.00152 2.18289C0.98534 3.23669 0.369045 4.53514 0.147932 6.07351C0.0397275 6.82152 0.00679545 6.97677 0.00209091 10.7968C-0.00261363 12.0717 0.00209091 13.7465 0.00209091 15.9953C0.00209091 22.671 0.0115001 24.6233 0.0397274 25.0044C0.152636 26.3405 0.359636 27.1779 0.801863 28.0953C1.64868 29.8547 3.26704 31.172 5.17238 31.666C5.83102 31.8353 6.56022 31.9294 7.49643 31.9718C7.89161 31.9906 11.9328 32 15.974 32C20.0152 32 24.0564 31.9953 24.4422 31.9765C25.5242 31.9247 26.1546 31.84 26.8509 31.6613C28.7704 31.1673 30.3558 29.8689 31.2214 28.0859C31.6542 27.192 31.8754 26.317 31.9742 25.0515C31.9977 24.7739 32.0071 20.3799 32.0071 15.9906C32.0071 11.6013 31.9977 7.212 31.9742 6.93443C31.8754 5.6501 31.6542 4.78447 31.2026 3.8718C30.8357 3.12379 30.4264 2.56395 29.8336 1.99471C28.7751 0.983239 27.4813 0.36695 25.9382 0.145838C25.1902 0.0376348 25.0397 0.0047045 21.2149 0H16.0069V0.00470335Z" fill="url(#paint3_radial_1_2472)"/>
<path d="M16 5.33337C13.1025 5.33337 12.7397 5.34604 11.6009 5.3967C10.4664 5.44737 9.6903 5.62891 9.01124 5.89066C8.3111 6.16509 7.7164 6.52818 7.1217 7.11924C6.52699 7.71031 6.16427 8.3056 5.89012 9.01066C5.6244 9.69039 5.44725 10.463 5.39664 11.5987C5.34603 12.7386 5.33337 13.1017 5.33337 15.9979C5.33337 18.8942 5.34603 19.2572 5.39664 20.3972C5.44725 21.5329 5.62862 22.3097 5.89012 22.9852C6.16427 23.686 6.52699 24.2813 7.1217 24.8766C7.7164 25.4719 8.3111 25.835 9.01124 26.1094C9.6903 26.3712 10.4664 26.5527 11.6009 26.6034C12.7397 26.654 13.1025 26.6667 16 26.6667C18.8976 26.6667 19.2604 26.654 20.3991 26.6034C21.5337 26.5527 22.3098 26.3712 22.9888 26.1094C23.689 25.835 24.2837 25.4719 24.8784 24.8766C25.4731 24.2856 25.8358 23.6903 26.11 22.9852C26.3715 22.3055 26.5528 21.5329 26.6034 20.3972C26.6541 19.2572 26.6667 18.8942 26.6667 15.9979C26.6667 13.1017 26.6541 12.7344 26.6034 11.5987C26.5486 10.463 26.3715 9.68617 26.11 9.01066C25.8358 8.30982 25.4731 7.71453 24.8784 7.11924C24.2837 6.52395 23.6932 6.16087 22.9888 5.89066C22.3098 5.62891 21.5337 5.44737 20.3991 5.3967C19.2561 5.34604 18.8976 5.33337 16 5.33337ZM15.0426 7.25435C15.3252 7.25435 15.6415 7.25435 16 7.25435C18.847 7.25435 19.1844 7.26279 20.3106 7.31767C21.3524 7.36412 21.9133 7.53721 22.2929 7.68498C22.7906 7.87919 23.1449 8.11139 23.5203 8.48292C23.8957 8.85445 24.1234 9.21331 24.3174 9.7115C24.465 10.0872 24.638 10.653 24.6844 11.6916C24.735 12.8146 24.7476 13.1524 24.7476 16.0022C24.7476 18.8519 24.735 19.1855 24.6844 20.3127C24.638 21.3513 24.465 21.9171 24.3174 22.2928C24.1234 22.791 23.8914 23.1456 23.5203 23.5172C23.1449 23.8887 22.7906 24.1209 22.2929 24.3151C21.9175 24.4629 21.3524 24.636 20.3106 24.6824C19.1844 24.7331 18.847 24.7457 16 24.7457C13.1531 24.7457 12.8156 24.7331 11.6895 24.6824C10.6477 24.636 10.0868 24.4586 9.70717 24.3151C9.20948 24.1209 8.85519 23.8887 8.47981 23.5172C8.10443 23.1456 7.87667 22.791 7.68266 22.2928C7.53503 21.9171 7.36211 21.3513 7.31571 20.3127C7.2651 19.1897 7.25245 18.8519 7.25245 16.0022C7.25245 13.1524 7.26088 12.8188 7.31571 11.6916C7.36211 10.653 7.53503 10.0872 7.68266 9.7115C7.87667 9.21331 8.10865 8.85867 8.47981 8.48292C8.85519 8.11139 9.20948 7.87919 9.70717 7.68498C10.0826 7.53721 10.6477 7.36412 11.6895 7.31767C12.6765 7.26701 13.0561 7.25435 15.0426 7.25435ZM21.694 9.02755C20.9854 9.02755 20.416 9.60173 20.416 10.3068C20.416 11.0118 20.9896 11.586 21.694 11.586C22.4026 11.586 22.972 11.0118 22.972 10.3068C22.972 9.60173 22.4026 9.02755 21.694 9.02755ZM16 10.5221C12.9759 10.5221 10.5212 12.975 10.5212 16.0022C10.5212 19.0293 12.9759 21.4822 16 21.4822C19.0242 21.4822 21.4789 19.0293 21.4789 16.0022C21.4789 12.975 19.0242 10.5221 16 10.5221ZM16 12.4473C17.9655 12.4473 19.5556 14.039 19.5556 16.0022C19.5556 17.9653 17.9655 19.557 16 19.557C14.0346 19.557 12.4445 17.9653 12.4445 16.0022C12.4445 14.039 14.0388 12.4473 16 12.4473Z" fill="white"/>
</g>
<defs>
<radialGradient id="paint0_radial_1_2472" cx="0" cy="0" r="1" gradientUnits="userSpaceOnUse" gradientTransform="translate(30.9705 15.0038) rotate(164.251) scale(20.4472 14.7312)">
<stop stop-color="#FF005F"/>
<stop offset="1" stop-color="#FC01D8"/>
</radialGradient>
<radialGradient id="paint1_radial_1_2472" cx="0" cy="0" r="1" gradientUnits="userSpaceOnUse" gradientTransform="translate(8.50152 34.4702) rotate(-90) scale(25.5442 27.102)">
<stop stop-color="#FFCC00"/>
<stop offset="0.1242" stop-color="#FFCC00"/>
<stop offset="0.5672" stop-color="#FE4A05"/>
<stop offset="0.6942" stop-color="#FF0F3F"/>
<stop offset="1" stop-color="#FE0657" stop-opacity="0"/>
</radialGradient>
<radialGradient id="paint2_radial_1_2472" cx="0" cy="0" r="1" gradientUnits="userSpaceOnUse" gradientTransform="translate(16.8112 31.5566) rotate(-59.8699) scale(10.5626 13.7515)">
<stop stop-color="#FFCC00"/>
<stop offset="1" stop-color="#FFCC00" stop-opacity="0"/>
</radialGradient>
<radialGradient id="paint3_radial_1_2472" cx="0" cy="0" r="1" gradientUnits="userSpaceOnUse" gradientTransform="translate(4.34046 1.31073) rotate(164.274) scale(20.2206 6.889)">
<stop stop-color="#780CFF"/>
<stop offset="1" stop-color="#820BFF" stop-opacity="0"/>
</radialGradient>
</defs>
</svg>
