<svg width="24" height="24" viewBox="0 0 24 24" fill="none" xmlns="http://www.w3.org/2000/svg">
<path d="M11.9999 4.5C13.5506 4.5 14.8457 3.29156 14.9999 1.78125C15.014 1.64062 14.8593 1.5 14.7187 1.5C14.6426 1.50008 14.5673 1.51438 14.4965 1.54219C14.4871 1.54594 13.5074 1.92188 11.9999 1.92188C10.4924 1.92188 9.51087 1.54688 9.50337 1.54219C9.42348 1.5144 9.33951 1.50014 9.25493 1.5H9.25212C9.21707 1.50186 9.18274 1.51061 9.15109 1.52576C9.11943 1.54091 9.09108 1.56216 9.06765 1.58829C9.04422 1.61441 9.02618 1.64491 9.01456 1.67802C9.00294 1.71113 8.99797 1.74621 8.99993 1.78125C9.15696 3.28875 10.4531 4.5 11.9999 4.5Z" fill="#1A1742" stroke="#1A1742" stroke-width="0.046875"/>
<path d="M22.7479 4.21412L16.6874 2.09256C16.6615 2.08351 16.6339 2.08027 16.6065 2.08307C16.5792 2.08587 16.5528 2.09465 16.5292 2.10878C16.5057 2.12292 16.4855 2.14206 16.4701 2.16485C16.4548 2.18764 16.4446 2.21353 16.4404 2.24068C16.265 3.29118 15.7228 4.24544 14.9101 4.93376C14.0973 5.62207 13.0668 5.99982 12.0018 5.99982C10.9368 5.99982 9.90625 5.62207 9.09352 4.93376C8.2808 4.24544 7.73855 3.29118 7.5632 2.24068C7.55909 2.21308 7.54887 2.18674 7.53328 2.16359C7.51769 2.14044 7.49713 2.12106 7.4731 2.10687C7.44907 2.09268 7.42218 2.08403 7.39438 2.08155C7.36658 2.07907 7.33858 2.08284 7.31242 2.09256L1.25195 4.21412C1.08232 4.2735 0.939659 4.39182 0.849927 4.54754C0.760195 4.70326 0.729364 4.88602 0.763046 5.06256L1.54258 9.18756C1.57258 9.34479 1.65209 9.48829 1.76949 9.59709C1.8869 9.70589 2.03603 9.77427 2.19508 9.79225L4.48633 10.051C4.57986 10.0615 4.666 10.1069 4.72766 10.178C4.78931 10.2491 4.82197 10.3408 4.81914 10.4349L4.47555 21.7271C4.47099 21.8726 4.5089 22.0163 4.58465 22.1407C4.66039 22.2651 4.7707 22.3647 4.90211 22.4274C5.01134 22.4768 5.13007 22.5016 5.24992 22.5001H18.7499C18.8698 22.5016 18.9885 22.4768 19.0977 22.4274C19.2291 22.3647 19.3395 22.2651 19.4152 22.1407C19.4909 22.0163 19.5289 21.8726 19.5243 21.7271L19.1807 10.4349C19.1779 10.3408 19.2105 10.2491 19.2722 10.178C19.3338 10.1069 19.42 10.0615 19.5135 10.051L21.8048 9.79225C21.9638 9.77427 22.1129 9.70589 22.2303 9.59709C22.3478 9.48829 22.4273 9.34479 22.4573 9.18756L23.2368 5.06256C23.2705 4.88602 23.2396 4.70326 23.1499 4.54754C23.0602 4.39182 22.9175 4.2735 22.7479 4.21412Z" fill="#1A1742" stroke="#1A1742" stroke-width="0.046875"/>
</svg>
