<svg width="250" height="65" viewBox="0 0 250 65" fill="none" xmlns="http://www.w3.org/2000/svg">
<path d="M26.9263 44.4109C21.251 44.4109 14.6928 45.1046 10.7201 42.8975C8.07159 41.3841 6.87346 38.105 6.87346 34.1323C6.87346 25.1778 6.87346 23.6644 6.87346 19.5656C6.87346 16.6018 5.92757 8.40408 1.82872 8.40408C1.32425 8.40408 0.693652 8.59326 0 8.90856L6.43205 5.125C10.0264 5.25112 11.9182 9.16079 11.9182 19.5656C11.9182 19.5656 11.9182 24.4842 11.9182 28.4569C11.9813 32.6819 12.4227 35.5196 13.4947 37.4113C15.8279 41.4471 21.1249 40.9427 31.2143 40.9427C33.7998 39.2401 28.9442 36.0871 28.9442 36.0871L34.4304 32.808C35.6285 33.5647 37.5203 35.3304 37.1419 37.096C36.7636 38.6725 32.7278 41.0057 32.7278 41.0057L26.9263 44.4109ZM21.5032 26.7543L25.1607 30.4118L21.5032 34.1323L17.7827 30.4118L21.5032 26.7543Z" fill="#FFFFFF"/>
<path d="M49.9819 44.537C46.1353 44.8523 38.8834 44.0326 39.7032 36.9069C40.6491 28.4569 51.0539 24.295 52.5042 23.7905C52.5042 23.223 52.5042 22.9077 52.5042 22.9077L57.549 19.6286C57.549 19.6286 57.549 30.6009 57.549 34.5737C57.549 36.0871 58.0535 41.321 65.6836 41.321L59.8822 44.537C59.8822 44.537 56.0356 44.8523 53.9546 41.6363L49.9819 44.537ZM44.811 35.5826C44.9371 39.6184 49.4774 41.7624 53.5132 40.9427C52.8826 39.8076 52.5042 38.2311 52.5042 36.1502C52.5042 30.4118 52.5042 26.5651 52.5042 24.6103C50.6755 25.2409 44.6218 29.3398 44.811 35.5826Z" fill="#FFFFFF"/>
<path d="M73.198 44.537C69.3514 44.8523 62.0996 44.2217 62.9194 37.096C63.8653 29.0245 73.3242 24.8625 75.4682 24.0428C75.4682 22.4663 75.4682 21.079 75.4682 19.6286C75.4682 16.6648 74.5223 8.46714 70.4234 8.46714C69.8559 8.46714 69.2884 8.65632 68.5947 8.97161L75.0898 5.18806C78.6211 5.37723 80.576 9.22385 80.576 19.6286C80.576 19.6286 80.576 30.6009 80.576 34.5737C80.576 36.0871 81.0805 41.321 88.6476 41.321L82.8461 44.537C82.8461 44.537 79.1887 44.7893 77.0447 41.8886L73.198 44.537ZM68.0272 35.7718C68.1533 39.7445 72.5675 41.8885 76.6032 41.1318C75.9096 39.9337 75.4682 38.3572 75.4682 36.1502C75.4682 30.9162 75.4682 27.5741 75.4682 24.8625C73.3872 25.7454 67.838 29.7812 68.0272 35.7718Z" fill="#FFFFFF"/>
<path d="M95.7895 62.4459C94.213 63.4548 92.006 64.1485 89.6728 64.1485C87.4026 64.1485 85.0694 63.4548 83.3668 61.5C81.9795 59.9866 83.0515 58.0948 83.0515 58.0948L88.7269 54.5635C88.7269 54.5635 86.772 57.9056 90.2403 59.6713C91.2493 60.1757 92.069 60.3649 92.8257 60.3649C97.3029 60.3649 97.1138 51.915 97.1138 49.0142C97.1138 48.2575 97.1138 47.5639 97.1138 46.8072C97.1138 45.6091 97.1138 43.9064 97.1138 42.2038L92.9519 44.474C92.9519 44.474 85.637 45.7352 85.637 36.1502C85.637 30.2226 85.7631 27.3849 83.493 27.3219L88.6638 23.9797C90.8078 24.6103 90.7448 30.5379 90.7448 34.5737C90.7448 40.3751 93.5194 41.1949 97.1138 41.258C97.1138 38.4834 97.1138 35.7087 97.1138 34.0692C97.1138 32.5558 97.1138 24.232 97.1138 24.232L102.222 20.9529C102.222 20.9529 102.159 23.5383 102.159 32.4927V49.0142C102.159 57.9056 99.8253 59.8604 95.7895 62.4459Z" fill="#FFFFFF"/>
<path d="M137.831 38.7812C137.831 38.4659 137.831 38.1506 137.831 37.8353C137.831 37.7723 137.831 37.7092 137.831 37.7092C138.335 29.0701 137.831 25.6649 137.831 21.6921C137.831 17.0888 137.516 13.5575 135.876 12.1702C134.552 11.0982 133.228 10.7198 131.903 10.7198C129.192 10.7198 126.732 12.3594 125.723 12.9269C125.03 13.3683 118.03 18.7284 125.471 24.7821L120.426 27.7458C115.13 23.9623 115.445 18.2239 123.453 13.2422C127.363 10.7829 133.732 6.93627 137.389 7.69299C138.714 7.94522 139.723 8.4497 140.542 9.33253C138.146 6.05344 137.579 3.08966 137.579 3.08966L142.876 -0.000244141C142.876 -0.000244141 140.795 5.99039 148.677 10.3415C157.127 15.0079 163.307 18.7284 165.703 22.4489C171.441 31.2772 161.73 38.529 160.974 39.3487C160.343 39.9793 158.451 41.1144 156.938 41.9972C157.001 41.9342 157.064 41.9342 157.127 41.9342L150.19 45.7808C147.92 45.7808 141.614 46.0961 138.966 42.3756L134.426 44.961C132.282 45.6547 129.57 45.7808 125.471 45.7808C121.12 45.7808 110.085 44.6457 112.355 36.8894L117.463 33.7365C117.463 33.7365 115.634 40.5469 124.904 42.0603C130.201 42.9431 132.345 43.1954 133.291 43.1954C135.687 43.1954 137.579 41.0513 137.831 38.7812ZM142.876 36.1327C142.876 38.529 145.524 42.4386 152.461 42.4386C153.533 42.4386 154.794 42.3756 156.118 42.1233C158.893 39.664 165.766 32.4753 160.28 24.9712C156.307 19.4851 152.271 18.2869 145.902 14.2512C143.821 12.99 142.245 11.4765 141.047 9.96312C142.371 11.981 142.876 15.5754 142.876 21.6921C142.876 21.6921 142.876 32.2861 142.876 36.1327Z" fill="#FFFFFF"/>
<path d="M176.842 45.7177C176.842 45.7177 169.528 46.9789 169.528 37.3939C169.528 31.4663 169.591 28.6287 167.383 28.5656L172.554 25.2235C174.635 25.8541 174.572 31.7816 174.572 35.8174C174.572 41.9342 177.662 42.5017 181.572 42.5017C180.878 41.3036 180.374 39.664 180.374 37.3939C180.374 28.5025 180.374 28.5025 180.374 28.5025L185.418 25.2235C185.418 25.2235 185.418 31.8447 185.418 35.8174C185.418 37.3308 185.923 42.5648 193.553 42.5648L187.752 45.7808C187.752 45.7808 183.968 46.033 181.824 42.9431L176.842 45.7177Z" fill="#FFFFFF"/>
<path d="M210.172 45.6547C204.496 45.6547 197.938 46.3483 193.965 44.1412C191.317 42.6278 190.119 39.3487 190.119 35.376C190.119 26.4216 190.119 24.9082 190.119 20.8093C190.119 17.8455 189.173 9.64782 185.074 9.64782C184.57 9.64782 183.939 9.837 183.245 10.1523L189.677 6.36874C193.272 6.49486 195.164 10.4045 195.164 20.8093C195.164 20.8093 195.164 25.2865 195.164 29.1962C196.677 27.6828 200.524 25.7279 204.118 25.7279C206.703 25.7279 209.163 26.7999 210.424 29.7007C213.135 35.8805 208.154 41.0513 206.956 42.1864C209.415 42.2495 212.442 42.1864 215.973 42.2495L210.172 45.6547ZM195.164 30.016C195.29 37.2678 196.046 41.4928 204.181 42.0603C205.442 40.5469 207.271 35.2499 204.875 31.8447C203.298 29.7007 201.217 29.0701 199.389 29.0701C197.245 29.0701 195.416 29.8899 195.164 30.016Z" fill="#FFFFFF"/>
<path d="M223.505 45.7808C219.659 46.0961 212.407 45.2763 213.227 38.1506C214.173 29.7007 224.577 25.5388 226.028 25.0343C226.028 24.4668 226.028 24.1515 226.028 24.1515L231.072 20.8724C231.072 20.8724 231.072 31.8447 231.072 35.8174C231.072 37.3308 231.577 42.5648 239.207 42.5648L233.406 45.7808C233.406 45.7808 229.559 46.0961 227.478 42.8801L223.505 45.7808ZM218.334 36.8264C218.461 40.8622 223.001 43.0062 227.037 42.1864C226.406 41.0513 226.028 39.4749 226.028 37.3939C226.028 31.6555 226.028 27.8089 226.028 25.8541C224.199 26.4846 218.145 30.5835 218.334 36.8264Z" fill="#FFFFFF"/>
<path d="M239.47 13.3053L243.127 16.9627L239.47 20.6832L235.749 16.9627L239.47 13.3053ZM250.001 42.6278L244.262 45.8438C244.262 45.8438 236.884 46.4114 236.884 37.52C236.884 28.5656 236.884 28.5025 236.884 28.5025L241.929 25.2235C241.929 25.2235 241.929 31.9077 241.929 35.9435C241.929 37.3939 242.433 42.6278 250.001 42.6278Z" fill="#FFFFFF"/>
</svg>
