<svg width="24" height="24" viewBox="0 0 24 24" fill="none" xmlns="http://www.w3.org/2000/svg">
<path d="M8.74782 21.75H7.50001C7.37463 21.75 7.25126 21.7185 7.14118 21.6585C7.03111 21.5984 6.93783 21.5118 6.8699 21.4064C6.80196 21.301 6.76153 21.1803 6.75229 21.0552C6.74306 20.9302 6.76532 20.8048 6.81704 20.6906L9.8386 14.0227L5.30157 13.9219L3.64688 15.9267C3.33141 16.3233 3.07969 16.5 2.43751 16.5H1.59751C1.46451 16.5043 1.33244 16.4764 1.21249 16.4188C1.09254 16.3612 0.988245 16.2755 0.908444 16.1691C0.796881 16.0186 0.687194 15.7636 0.794069 15.3998L1.72313 12.0717C1.73016 12.0469 1.7386 12.022 1.74798 11.9977C1.74844 11.9953 1.74844 11.9929 1.74798 11.9906C1.73829 11.9663 1.73 11.9414 1.72313 11.9161L0.793132 8.56687C0.69235 8.21016 0.802507 7.96078 0.913132 7.81406C0.987417 7.71549 1.08379 7.63573 1.19451 7.58118C1.30524 7.52664 1.42721 7.49883 1.55063 7.5H2.43751C2.91704 7.5 3.38251 7.71516 3.65626 8.0625L5.27673 10.0336L9.8386 9.96609L6.81798 3.30984C6.76618 3.19568 6.74384 3.07036 6.75298 2.94533C6.76211 2.8203 6.80245 2.69956 6.87029 2.59414C6.93813 2.48872 7.03131 2.40198 7.14132 2.34186C7.25132 2.28175 7.37464 2.25016 7.50001 2.25H8.76141C8.93739 2.25354 9.11032 2.29667 9.26734 2.3762C9.42437 2.45572 9.56146 2.5696 9.66844 2.70937L15.5302 9.83438L18.2381 9.76312C18.4364 9.75234 18.9858 9.74859 19.1128 9.74859C21.7031 9.75 23.25 10.5909 23.25 12C23.25 12.4434 23.0728 13.2656 21.8874 13.7887C21.1875 14.0981 20.2538 14.2547 19.1119 14.2547C18.9863 14.2547 18.4383 14.2509 18.2372 14.2402L15.5297 14.168L9.65344 21.293C9.54637 21.4321 9.4094 21.5454 9.25265 21.6246C9.09589 21.7037 8.92337 21.7465 8.74782 21.75Z" fill="#272223" stroke="#272223" stroke-width="0.046875"/>
</svg>
