<svg width="32" height="32" viewBox="0 0 32 32" fill="none" xmlns="http://www.w3.org/2000/svg">
<rect width="32" height="32" rx="16" fill="white"/>
<path d="M21.1766 12.6635C22.7199 13.7706 24.6106 14.4221 26.6526 14.4221V10.4786C26.2662 10.4787 25.8807 10.4383 25.5026 10.3579V13.4619C23.4608 13.4619 21.5703 12.8105 20.0266 11.7034V19.7509C20.0266 23.7766 16.7747 27.0399 12.7635 27.0399C11.2668 27.0399 9.87568 26.5858 8.72009 25.807C10.039 27.1604 11.8783 28 13.9132 28C17.9247 28 21.1768 24.7367 21.1768 20.7108V12.6635H21.1766ZM22.5952 8.68499C21.8065 7.82023 21.2886 6.70267 21.1766 5.46717V4.95996H20.0868C20.3611 6.53028 21.2968 7.87187 22.5952 8.68499ZM11.2572 22.7178C10.8165 22.1379 10.5784 21.4286 10.5794 20.6992C10.5794 18.858 12.0668 17.3651 13.9019 17.3651C14.2439 17.365 14.5838 17.4176 14.9097 17.5214V13.4898C14.5289 13.4374 14.1445 13.4151 13.7602 13.4233V16.5613C13.4341 16.4575 13.094 16.4048 12.7519 16.4051C10.9168 16.4051 9.42951 17.8979 9.42951 19.7393C9.42951 21.0414 10.173 22.1687 11.2572 22.7178Z" fill="#FF004F"/>
<path d="M20.0265 11.7033C21.5702 12.8104 23.4607 13.4618 25.5025 13.4618V10.3578C24.3628 10.1141 23.3538 9.5164 22.5951 8.68499C21.2966 7.87179 20.361 6.5302 20.0867 4.95996H17.2241V20.7106C17.2176 22.5468 15.7327 24.0336 13.9016 24.0336C12.8226 24.0336 11.8639 23.5174 11.2568 22.7178C10.1727 22.1687 9.42923 21.0413 9.42923 19.7394C9.42923 17.8981 10.9166 16.4052 12.7516 16.4052C13.1032 16.4052 13.4421 16.4602 13.76 16.5614V13.4234C9.81921 13.5051 6.6499 16.7365 6.6499 20.7107C6.6499 22.6946 7.43913 24.4931 8.72006 25.8071C9.87565 26.5858 11.2667 27.04 12.7634 27.04C16.7747 27.04 20.0265 23.7765 20.0265 19.7509V11.7033H20.0265Z" fill="black"/>
<path d="M25.5025 10.3578V9.51848C24.4748 9.52005 23.4672 9.23119 22.5952 8.68493C23.3671 9.53306 24.3835 10.1179 25.5025 10.3578ZM20.0867 4.95998C20.0605 4.80991 20.0404 4.65885 20.0265 4.50721V4H16.074V19.7508C16.0677 21.5868 14.5829 23.0736 12.7516 23.0736C12.214 23.0736 11.7064 22.9455 11.2568 22.7179C11.864 23.5174 12.8226 24.0336 13.9016 24.0336C15.7326 24.0336 17.2177 22.5469 17.2241 20.7107V4.95998H20.0867ZM13.7601 13.4234V12.5299C13.4299 12.4846 13.0969 12.4619 12.7635 12.462C8.75192 12.4619 5.5 15.7254 5.5 19.7508C5.5 22.2745 6.77806 24.4987 8.72017 25.807C7.43924 24.493 6.65001 22.6944 6.65001 20.7106C6.65001 16.7365 9.81924 13.5051 13.7601 13.4234Z" fill="#00F2EA"/>
</svg>
