<svg width="24" height="25" viewBox="0 0 24 25" fill="none" xmlns="http://www.w3.org/2000/svg">
<path d="M3 21.5L4.26525 16.8778C3.4845 15.5247 3.07425 13.991 3.075 12.4183C3.07725 7.50125 7.07849 3.5 11.9947 3.5C14.3805 3.50075 16.62 4.43 18.3045 6.116C19.9882 7.802 20.9152 10.043 20.9145 12.4265C20.9122 17.3443 16.911 21.3455 11.9947 21.3455C10.5022 21.3448 9.03149 20.9705 7.72874 20.2595L3 21.5ZM7.94774 18.6448C9.20474 19.391 10.4047 19.838 11.9917 19.8387C16.0777 19.8387 19.4062 16.5133 19.4085 12.425C19.41 8.3285 16.0972 5.0075 11.9977 5.006C7.90874 5.006 4.5825 8.3315 4.581 12.419C4.58025 14.0878 5.06925 15.3372 5.89049 16.6445L5.14125 19.3805L7.94774 18.6448ZM16.488 14.5468C16.4325 14.4537 16.284 14.3982 16.0605 14.2865C15.8377 14.1748 14.742 13.6355 14.5372 13.5612C14.3332 13.487 14.1847 13.4495 14.0355 13.673C13.887 13.8958 13.4595 14.3982 13.3297 14.5468C13.2 14.6953 13.0695 14.714 12.8467 14.6023C12.624 14.4905 11.9055 14.2557 11.0542 13.496C10.392 12.905 9.94423 12.1753 9.81448 11.9517C9.68473 11.729 9.80098 11.6082 9.91198 11.4973C10.0125 11.3975 10.1347 11.237 10.2465 11.1065C10.3597 10.9775 10.3965 10.8845 10.4715 10.7353C10.5457 10.5868 10.509 10.4563 10.4527 10.3445C10.3965 10.2335 9.95098 9.13625 9.76573 8.69C9.58424 8.25575 9.40049 8.31425 9.26399 8.3075L8.83649 8.3C8.68799 8.3 8.44649 8.3555 8.24249 8.579C8.03849 8.8025 7.46249 9.341 7.46249 10.4383C7.46249 11.5355 8.26124 12.5953 8.37224 12.7437C8.48399 12.8923 9.94348 15.1438 12.1792 16.109C12.711 16.3385 13.1265 16.4757 13.4497 16.5785C13.9837 16.748 14.4697 16.724 14.8537 16.667C15.282 16.6032 16.1722 16.1277 16.3582 15.6073C16.5442 15.086 16.5442 14.6398 16.488 14.5468Z" fill="#1A1742"/>
</svg>
