<svg width="156" height="24" viewBox="0 0 156 24" fill="none" xmlns="http://www.w3.org/2000/svg">
<path d="M76.1283 2.06422C75.5325 1.98595 75.0658 2.52641 75.1403 3.12266L75.9549 9.63979C74.2668 9.7607 72.773 9.86978 71.878 9.93547C71.8326 9.85228 71.7753 9.77524 71.7071 9.70704L69.4004 7.40046C69.152 7.1521 68.7915 7.05226 68.4508 7.13745L68.1276 7.21824C67.5341 7.36661 67.2118 8.00833 67.4471 8.57301L68.5064 11.1153C68.609 11.3615 68.609 11.6384 68.5064 11.8846L67.447 14.4273C67.2117 14.992 67.5341 15.6337 68.1276 15.782L68.4507 15.8628C68.7915 15.948 69.152 15.8481 69.4004 15.5997L71.7071 13.2928C71.7752 13.2247 71.8325 13.1478 71.8778 13.0648C72.7729 13.1305 74.2668 13.2396 75.9551 13.3605L75.1403 19.8786C75.0658 20.4748 75.5325 21.0153 76.1283 20.937C76.8602 20.8409 77.7 20.6007 78 20.0016C78.3903 19.2223 80.6084 15.3943 81.5631 13.7518C83.6886 13.8945 85.4112 14.0001 85.85 14.0001C87.2 14.0001 89 12.5003 89 11.5001C89 10.5 87.2 9.00014 85.85 9.00014C85.4111 9.00014 83.6882 9.10582 81.5625 9.24848C80.6074 7.60538 78.3902 3.77886 78 2.99963C77.7 2.40058 76.8602 2.16037 76.1283 2.06422Z" fill="#272223"/>
<path d="M0 12H156" stroke="#272223" stroke-linecap="round" stroke-dasharray="6 6"/>
</svg>
