<svg width="120" height="350" viewBox="0 0 120 477" fill="none" xmlns="http://www.w3.org/2000/svg">
<path d="M39.5072 142.496C36.8003 146.671 35.4356 147.048 29.4089 145.107C28.5566 144.832 28.098 145.034 27.7651 145.552C25.9224 148.41 24.1041 151.289 22.0438 154.535C24.5161 154.879 26.1489 154.263 27.8348 153.873C35.9853 151.989 44.6678 152.469 53.5373 153.818C54.8591 154.021 56.2883 154.534 57.5205 155.23C60.0147 156.645 61.4276 158.801 61.2386 161.25C61.0707 163.506 58.9763 163.793 56.9236 163.764C50.8143 163.677 44.6346 162.932 38.3989 161.43C33.8325 160.327 29.2645 159.117 24.84 157.13C22.0921 155.898 20.1419 155.86 19.1552 158.367C18.8251 159.209 17.7816 159.614 17.8116 161.013C23.0342 162.749 28.2889 164.463 33.4508 166.622C39.4093 169.109 44.8548 172.442 49.5059 177.133C50.0182 177.651 50.5258 178.178 50.9785 178.731C52.387 180.455 53.7606 182.357 52.6989 184.132C51.6724 185.851 49.5997 184.541 47.9662 183.975C38.5752 180.751 30.5853 175.015 23.2549 168.146C21.1394 166.164 19.0284 164.173 16.896 162.169C15.2252 162.998 14.5402 164.498 13.4885 165.661C12.7018 166.536 13.3614 167.424 14.0524 168.402C18.9187 175.255 21.6181 182.633 24.0714 190.071C24.6594 191.856 24.3024 193.288 22.8837 193.95C21.42 194.632 19.8539 193.59 18.6334 192.348C12.8743 186.484 10.5268 179.897 10.2216 172.892C10.1847 172.071 10.7824 171.182 9.30967 170.108C7.26864 173.453 4.40232 176.099 1.8032 178.976C1.3602 179.463 1.69681 180.176 1.87654 180.812C3.53707 186.647 3.1521 192.123 2.36245 197.515C2.25401 198.279 1.9283 198.989 1.59796 199.667C1.17685 200.537 0.55585 201.183 -0.745412 200.898C-1.99924 200.63 -2.70083 199.77 -3.17089 198.742C-4.48829 195.863 -4.5972 193.065 -4.35351 190.302C-4.25087 189.165 -4.12222 188.031 -3.99674 186.807C-5.75899 186.042 -6.48357 187.042 -7.30941 187.788C-15.0125 194.705 -23.1031 201.202 -31.9212 206.918C-32.3491 207.196 -32.7487 207.516 -33.2019 207.762C-34.0534 208.228 -34.9835 208.753 -35.9197 207.406C-36.7165 206.265 -36.2699 205.551 -35.3291 204.991C-30.8254 202.325 -26.612 199.31 -22.6221 196.06C-16.8146 191.336 -10.9221 186.691 -5.6353 181.438C-5.35419 181.16 -5.13893 180.818 -4.49212 180.012C-7.62587 180.324 -10.1334 180.558 -12.6255 180.831C-17.0416 181.316 -21.5331 181.468 -26.1714 180.975C-28.8019 180.694 -31.3117 179.599 -33.7858 178.378C-35.1479 177.705 -35.7413 176.521 -35.8239 175.267C-35.8995 174.082 -34.9724 173.59 -33.9431 173.489C-23.576 172.467 -13.1581 171.715 -2.04994 175.725C-1.18764 176.035 -0.509058 176.212 0.0141495 175.649C2.89443 172.536 5.99749 169.602 8.36249 166.004C6.97087 164.99 5.89297 165.379 4.82233 165.438C-0.13016 165.714 -4.93671 166.501 -10.0113 166.358C-13.674 166.253 -17.3189 165.743 -20.9819 164.14C-23.7887 162.914 -25.8327 160.64 -25.6407 158.721C-25.3687 155.958 -23.0432 155.779 -20.6205 156.235C-11.0378 158.022 -1.4023 159.142 8.03295 163.545C10.2582 164.581 12.0346 163.146 12.9077 159.667C9.6865 158.528 6.45165 157.457 3.25869 156.235C-3.87402 153.515 -10.6398 150.045 -16.2037 144.332C-17.072 143.443 -17.9221 142.517 -18.6697 141.541C-19.9014 139.923 -21.5234 138.166 -20.2115 136.477C-18.8951 134.778 -16.6526 135.479 -14.6852 136.391C-8.64222 139.194 -3.16778 143.02 1.8417 147.514C5.86736 151.126 9.76546 154.879 13.8694 158.708C15.6671 157.767 16.5354 156.112 17.4753 154.165C11.4245 150.594 6.7038 145.861 2.73942 140.423C-0.406041 136.109 -3.37261 131.732 -5.17874 126.927C-5.50176 126.064 -6.25094 125.063 -5.25668 124.453C-4.29451 123.865 -3.19537 123.97 -1.99915 124.668C-0.89172 125.306 -0.0165003 126.182 0.842696 127.09C7.38396 134.028 12.8047 141.536 16.8604 149.737C17.2867 150.603 17.5219 151.584 18.7343 152.374C21.3803 149.708 23.0802 146.346 24.9722 143.129C25.4042 142.389 24.8131 141.806 24.1928 141.171C19.7607 136.64 19.4116 135.085 21.7236 130.615C26.9189 135.761 32.9402 139.556 39.4949 142.465L39.5072 142.496Z" fill="#8AB979"/>
<path d="M43.285 135.822C37.0712 133.143 31.3633 129.649 26.4385 124.911C23.0121 121.27 19.7191 117.577 17.3586 113.316C14.6261 108.374 13.3219 103.386 12.8485 98.3277C12.6313 96.0211 13.9742 94.8588 16.5707 94.8954C19.5314 98.4387 21.8754 102.149 22.0515 106.585C24.2179 105.95 23.1225 103.474 25.0108 103.066C25.115 103.5 25.245 103.771 25.2156 103.991C25.0345 105.477 25.4281 106.598 27.4153 107.179C29.5499 107.808 29.7536 106.482 30.1785 105.289C30.4677 104.483 30.333 103.361 31.764 103.132C32.5379 106.627 28.527 109.865 33.7259 113.383C36.0627 111.396 35.7216 107.871 38.057 106.013C37.454 109.369 36.4279 112.496 35.4265 115.626C35.2401 116.21 34.8798 116.861 35.6418 117.493C36.3494 118.077 37.0444 117.799 37.6967 117.616C38.9681 117.261 39.8511 116.535 40.3944 115.433C41.1901 113.823 42.0011 112.222 42.8933 110.668C43.279 109.994 43.396 108.947 44.7296 109.17C45.3403 109.99 44.8159 110.486 44.57 111.02C44.0116 112.227 43.3568 113.377 42.7832 114.575C42.3238 115.542 42.0314 116.595 43.5325 117.473C44.9647 118.304 46.0476 117.981 46.7337 116.935C47.2418 116.154 47.6171 115.284 48.1281 114.51C48.6573 113.713 48.7349 112.514 50.3777 112.348C50.5754 114.692 49.0123 116.035 48.2942 117.75C47.8401 118.833 47.4209 119.964 48.9192 120.91C50.5858 121.965 50.7109 120.371 51.4091 119.77C52.5652 118.775 52.8067 116.908 55.1155 116.469C54.0992 120.527 48.6275 122.645 52.5803 128.28C55.7865 126.366 57.6557 123.21 61.2222 121.911C60.7759 124.081 58.1309 124.719 57.924 127.077C62.3484 128.506 64.1536 125.155 67.2889 123.985C67.6418 125.791 65.9455 126.034 66.4143 127.67C69.2565 128.958 72.6666 129.148 75.4489 131.311C73.9514 134.959 70.2507 136.186 66.5498 137.26C60.1403 139.121 53.236 138.762 45.9996 136.469C45.1089 136.184 44.2136 135.642 43.2981 135.835L43.285 135.822Z" fill="#EF7FA0"/>
<path d="M76.5763 129.309C73.7898 127.147 70.3824 126.96 67.5353 125.662C67.0662 124.024 68.7688 123.784 68.4105 121.971C65.2781 123.147 63.4666 126.499 59.0391 125.068C59.2461 122.707 61.8929 122.067 62.3395 119.894C58.7706 121.195 56.9001 124.356 53.6917 126.273C49.736 120.63 55.2115 118.508 56.2285 114.445C53.9152 114.877 53.6714 116.751 52.5196 117.751C51.8187 118.357 51.7008 119.952 50.0279 118.892C48.5234 117.942 48.9481 116.812 49.4025 115.727C50.121 114.01 51.6801 112.662 51.4874 110.318C49.8463 110.491 49.7657 111.685 49.2362 112.482C48.7227 113.262 48.3471 114.133 47.8409 114.911C47.1542 115.959 46.0685 116.287 44.6374 115.45C43.1331 114.575 43.4257 113.521 43.8875 112.548C44.4615 111.348 45.1168 110.196 45.6756 108.987C45.9195 108.457 46.4442 107.96 45.8353 107.135C44.5036 106.919 44.3836 107.96 43.9977 108.635C43.1049 110.191 42.2933 111.795 41.4971 113.407C40.9534 114.511 40.0698 115.238 38.7976 115.593C38.147 115.773 37.4493 116.056 36.7412 115.47C35.9787 114.837 36.3392 114.186 36.5258 113.6C37.53 110.461 38.5545 107.334 39.158 103.973C36.8231 105.829 37.1623 109.364 34.8239 111.354C29.6213 107.831 33.635 104.588 32.8605 101.087C31.4314 101.324 31.5611 102.445 31.274 103.248C30.8487 104.442 30.65 105.774 28.5089 105.141C26.5151 104.556 26.1286 103.432 26.3075 101.949C26.337 101.727 26.2047 101.461 26.1026 101.022C24.213 101.43 25.3114 103.905 23.1412 104.546C22.9577 100.104 20.6143 96.3845 17.6565 92.8388C20.4268 92.9267 22.9365 94.2232 25.3507 95.7405C26.8014 96.6543 27.7193 96.749 28.3025 95.3541C29.9031 91.5052 33.6738 90.8959 38.0247 91.9026C42.4699 92.9317 45.8374 95.6427 47.4922 99.8939C47.6537 100.307 47.8037 100.731 47.9942 101.139C48.0655 101.295 48.2311 101.434 48.4142 101.655C49.8063 102.122 50.9848 101.605 52.2485 101.456C54.9124 101.152 57.6016 101.382 60.3694 102.476C65.8099 104.631 68.6768 109.251 66.9208 113.638C66.104 115.683 66.8684 116.68 68.9447 117.665C71.7345 118.983 74.1794 120.746 75.9098 123.242C77.3728 125.35 78.2996 127.482 76.5603 129.289L76.5763 129.309Z" fill="#EF9AB3"/>
<path d="M64.7089 88.6216C64.0073 89.6211 62.9987 89.8929 61.6556 89.0478C60.3913 88.2496 59.7981 87.1967 60.2984 86.0143C60.8024 84.8113 61.8217 84.6663 63.2284 85.4001C64.8258 86.2302 65.0396 87.3556 64.7119 88.6292L64.7089 88.6216Z" fill="#EF9AB3"/>
<path d="M60.8728 65.7291C62.0648 66.5313 62.6792 67.5366 62.1035 68.5587C61.5525 69.5321 60.5993 70.1219 59.1243 69.1741C57.9429 68.4185 57.3992 67.49 57.9154 66.3691C58.4721 65.1687 59.5177 65.0716 60.8728 65.7291Z" fill="#EF9AB3"/>
<path d="M43.9959 83.9003C44.6237 82.9243 45.4482 82.6021 46.7669 83.4169C47.9432 84.1467 48.6275 84.9642 47.8958 86.0226C47.3431 86.8241 46.7047 87.7534 45.3068 86.8915C44.0862 86.1409 43.4565 85.0675 43.9959 83.9003Z" fill="#EF9AB3"/>
<path d="M27.038 373.89C23.2268 369.865 23.0026 368.419 25.553 363.253C25.9138 362.522 25.7648 362.011 25.2917 361.515C22.6812 358.769 20.0479 356.041 17.0805 352.954C16.4781 355.226 16.9086 357.012 17.1118 358.772C18.0907 367.281 16.6918 375.507 14.4187 383.619C14.0782 384.827 13.4208 386.034 12.6058 386.99C10.9494 388.921 8.68161 389.558 6.2966 388.548C4.09887 387.624 4.04077 385.504 4.28845 383.531C5.02638 377.659 6.41914 371.941 8.56061 366.425C10.132 362.386 11.8083 358.382 14.2334 354.779C15.7369 352.541 15.9827 350.67 13.6262 348.87C12.8339 348.267 12.5483 347.122 11.1713 346.679C8.90782 351.137 6.66245 355.634 3.99094 359.892C0.910749 364.807 -2.94452 368.942 -8.04885 371.851C-8.61223 372.171 -9.18397 372.483 -9.77521 372.734C-11.6187 373.512 -13.6341 374.196 -15.2633 372.572C-16.8418 370.999 -15.3337 369.44 -14.6037 368.053C-10.4334 360.07 -3.94623 354.289 3.58369 349.528C5.75635 348.153 7.93737 346.787 10.1333 345.404C9.49832 343.51 8.0982 342.341 7.06809 340.933C6.2926 339.877 5.34997 340.214 4.31624 340.552C-2.93431 342.938 -10.4697 343.054 -18.0363 342.912C-19.8526 342.877 -21.2207 342.049 -21.7191 340.455C-22.2323 338.81 -21.0413 337.65 -19.6919 336.89C-13.3163 333.307 -6.59653 333.264 0.315635 335.335C1.12615 335.577 1.93467 336.454 3.1475 335.394C0.0801796 332.293 -2.21224 328.63 -4.7594 325.148C-5.19058 324.556 -5.92634 324.64 -6.57051 324.599C-12.4787 324.232 -17.8152 322.011 -23.0267 319.428C-23.7651 319.065 -24.4278 318.51 -25.0583 317.962C-25.8683 317.262 -26.4356 316.444 -26.0171 315.283C-25.6199 314.162 -24.7 313.775 -23.6408 313.668C-20.6717 313.368 -17.9125 314.207 -15.225 315.376C-14.1189 315.859 -13.0194 316.366 -11.8311 316.901C-10.8905 315.457 -11.7957 314.419 -12.4401 313.369C-18.4099 303.592 -23.926 293.583 -28.5967 283.135C-28.8248 282.627 -29.0956 282.133 -29.2888 281.612C-29.6558 280.632 -30.072 279.556 -28.6488 279.107C-27.4435 278.723 -26.7897 279.395 -26.3405 280.493C-24.2037 285.744 -21.6922 290.833 -18.9274 295.784C-14.9082 302.99 -10.9768 310.25 -6.38254 317.131C-6.13908 317.497 -5.82682 317.82 -5.10429 318.717C-5.07573 315.585 -5.03755 313.083 -5.03887 310.584C-5.0435 306.154 -4.71303 301.764 -3.73237 297.45C-3.17597 295.004 -1.83186 292.949 -0.368327 290.972C0.438759 289.883 1.66441 289.71 2.90482 290.053C4.07692 290.381 4.46059 291.442 4.45015 292.471C4.34615 302.83 3.97026 313.148 -1.15543 322.524C-1.55204 323.252 -1.79803 323.848 -1.30134 324.543C1.44885 328.377 3.99822 332.365 7.27925 335.865C8.42421 334.863 8.15676 333.691 8.21322 332.636C8.47129 327.759 8.21252 322.85 8.89585 317.997C9.38973 314.494 10.281 311.146 12.2467 308.148C13.7507 305.851 16.2027 304.645 18.0662 305.478C20.7514 306.674 20.678 308.981 19.9715 311.167C17.1917 319.82 15.0621 328.75 9.72991 336.377C8.4737 338.177 9.69327 340.378 13.0174 342.396C14.4801 339.669 15.8774 336.906 17.4187 334.234C20.8523 328.262 24.9835 322.899 31.189 319.453C32.1554 318.915 33.1552 318.406 34.1936 318.014C35.9143 317.37 37.8136 316.397 39.3326 318.235C40.8599 320.08 39.9323 322.01 38.8262 323.602C35.4277 328.493 31.0849 332.489 26.1357 335.811C22.158 338.48 18.0554 340.978 13.856 343.649C14.5876 345.703 16.1201 347.101 17.932 348.666C22.0862 344.027 27.2389 341.065 33.0034 339.072C37.5762 337.491 42.1922 336.103 47.1049 335.982C47.9871 335.961 49.0496 335.575 49.5425 336.742C50.0173 337.87 49.7968 338.896 48.9837 339.816C48.238 340.67 47.2841 341.22 46.301 341.743C38.788 345.719 30.8351 348.42 22.3467 349.568C21.4506 349.687 20.462 349.583 19.5569 350.487C21.8926 353.944 25.012 356.721 27.9692 359.635C28.6505 360.302 29.2859 359.928 29.9762 359.544C34.8997 356.792 36.4636 356.98 40.6067 360.723C34.9976 364.004 30.6273 368.539 27.0696 373.888L27.038 373.89Z" fill="#8AB979"/>
<path d="M26.8221 374.087C30.3768 368.734 34.7428 364.195 40.3452 360.911C44.6094 358.752 48.9143 356.748 53.7183 355.903C59.2899 354.927 64.7502 355.426 70.1904 356.796C72.6716 357.419 73.7578 359.214 73.4256 361.847C69.3177 363.568 65.1021 364.598 60.3576 363.152C60.7895 365.593 63.5501 365.384 63.7706 367.458C63.2968 367.405 62.9942 367.439 62.7622 367.328C61.2005 366.599 59.9618 366.589 59.1188 368.402C58.2083 370.348 59.5979 371.041 60.8197 371.911C61.6454 372.501 62.8561 372.775 62.9386 374.318C59.1282 373.826 56.1331 368.552 51.7995 372.563C53.6511 375.672 57.4445 376.616 59.1588 379.677C55.6528 377.833 52.4389 375.642 49.2185 373.474C48.6173 373.07 47.9647 372.465 47.2056 373.01C46.5035 373.517 46.7211 374.327 46.8432 375.06C47.0771 376.486 47.7507 377.652 48.863 378.609C50.4878 380.01 52.1015 381.423 53.6557 382.902C54.3301 383.542 55.4315 384.045 55.0437 385.323C54.1013 385.645 53.6321 384.929 53.0917 384.482C51.8695 383.471 50.7178 382.382 49.5067 381.358C48.5289 380.536 47.4406 379.852 46.3367 381.061C45.2889 382.216 45.5109 383.438 46.5474 384.521C47.3224 385.325 48.2061 386.026 48.9732 386.831C49.7616 387.662 51.0301 388.181 51.0211 389.916C48.5024 389.259 47.2488 387.173 45.5038 385.813C44.4012 384.954 43.2442 384.112 42.0674 385.293C40.756 386.605 42.4393 387.317 43.0002 388.248C43.9293 389.791 45.8904 390.722 46.0972 393.236C41.8908 390.714 40.2525 384.36 33.8053 386.325C35.4819 390.295 38.632 393.356 39.6128 397.468C37.352 396.218 36.9706 393.287 34.4828 392.213C32.4618 396.2 35.826 399.267 36.7189 402.892C34.755 402.59 34.6879 400.772 32.8929 400.65C31.1997 403.076 30.6122 406.482 27.9948 408.526C24.2787 405.663 23.3904 401.442 22.6635 397.275C21.4059 390.06 22.5674 383.153 25.8273 376.617C26.2311 375.813 26.9091 375.099 26.8067 374.095L26.8221 374.087Z" fill="#EF7FA0"/>
<path d="M27.9776 408.562C30.591 406.514 31.1747 403.112 32.8758 400.687C34.671 400.808 34.7343 402.63 36.702 402.928C35.8053 399.307 32.4447 396.236 34.4656 392.249C36.9536 393.324 37.3351 396.254 39.596 397.504C38.6151 393.393 35.4647 390.331 33.788 386.362C40.2355 384.396 41.874 390.75 46.0806 393.272C45.8817 390.758 43.9163 389.824 42.9834 388.285C42.4182 387.35 40.7353 386.646 42.0505 385.329C43.2311 384.145 44.3844 384.99 45.487 385.85C47.2322 387.21 48.4896 389.291 51.0048 389.953C51.0058 388.218 49.7451 387.699 48.9567 386.868C48.1853 386.059 47.3016 385.358 46.5307 384.558C45.4941 383.475 45.2679 382.249 46.3199 381.098C47.4197 379.885 48.5081 380.569 49.4901 381.395C50.7013 382.419 51.853 383.508 53.0754 384.519C53.6116 384.962 54.0809 385.678 55.0274 385.36C55.4074 384.082 54.3138 383.579 53.6394 382.939C52.085 381.46 50.4712 380.047 48.8463 378.646C47.7339 377.689 47.0602 376.523 46.8263 375.097C46.7084 374.368 46.4866 373.554 47.1887 373.047C47.9479 372.502 48.6005 373.108 49.2018 373.512C52.4265 375.683 55.6364 377.87 59.1426 379.714C57.4324 376.657 53.6346 375.709 51.7829 372.6C56.1166 368.589 59.112 373.864 62.9226 374.355C62.8321 372.813 61.6251 372.535 60.8035 371.949C59.5816 371.079 58.1882 370.389 59.1024 368.44C59.9492 366.623 61.1884 366.64 62.746 367.365C62.978 367.476 63.2764 367.439 63.7544 367.495C63.5339 365.421 60.7773 365.635 60.3412 363.19C65.0855 364.628 69.3055 363.601 73.4099 361.885C73.0039 364.675 71.3419 366.757 69.4559 368.661C68.3204 369.805 68.1161 370.705 69.5338 371.81C73.4463 374.848 73.6688 378.912 72.1073 382.975C70.5113 387.127 67.2484 389.566 62.5407 389.696C62.0826 389.709 61.6157 389.707 61.1594 389.752C60.9863 389.768 60.8192 389.885 60.5643 389.991C59.9096 391.238 60.3273 392.628 60.3427 393.97C60.366 396.795 59.8176 399.45 58.3416 401.869C55.4359 406.622 50.1994 407.852 45.732 404.459C43.6495 402.879 42.5029 403.293 41.2213 405.047C39.5044 407.407 37.3539 409.253 34.5041 410.102C32.0976 410.821 29.7258 410.986 28.0008 408.553L27.9776 408.562Z" fill="#EF9AB3"/>
<path d="M68.8162 407.872C67.8873 406.835 67.7238 405.748 68.7202 404.718C69.6608 403.749 70.7845 403.53 71.9194 404.432C73.0746 405.344 73.1094 406.398 72.2181 407.529C71.2091 408.815 70.0538 408.635 68.8083 407.872L68.8162 407.872Z" fill="#EF9AB3"/>
<path d="M91.8709 409.927C90.9377 410.821 89.8637 411.077 88.9022 410.16C87.9867 409.283 87.4992 408.144 88.609 407.023C89.4944 406.124 90.4838 405.91 91.5509 406.803C92.6932 407.763 92.6768 408.823 91.8709 409.927Z" fill="#EF9AB3"/>
<path d="M77.9011 389.092C78.8092 390.044 79.042 390.963 78.0841 391.975C77.2266 392.877 76.3348 393.267 75.3556 392.185C74.6139 391.368 73.7537 390.422 74.7673 389.348C75.6504 388.41 76.7923 388.162 77.9011 389.092Z" fill="#EF9AB3"/>
<path d="M20.9538 176.37C20.27 174.099 20.5017 171.972 20.758 169.877C21.2373 165.952 22.4872 162.427 25.4555 159.874C26.0806 159.335 26.7901 158.896 27.5782 158.584C29.5517 157.797 31.8089 158.731 33.3549 160.905C33.6234 161.286 33.7822 161.88 34.3605 161.87C34.8559 161.862 34.7733 161.319 34.8792 160.966C36.2292 156.368 38.2273 152.183 41.8558 149.049C44.0983 147.113 46.6459 145.58 49.7942 144.897C55.6558 143.622 60.5542 146.576 63.6731 152.094C66.0483 156.295 66.619 160.461 65.5742 164.478C65.4714 164.878 65.438 165.302 65.3868 165.721C65.3778 165.778 65.4691 165.866 65.5476 165.992C66.4142 165.766 66.9129 165.101 67.5626 164.633C70.7202 162.363 74.1029 160.426 78.405 159.955C81.5848 159.61 84.8488 159.992 87.8698 162.243C91.4589 164.917 92.9742 169.211 91.9548 173.231C91.191 176.248 89.5907 178.741 87.5942 180.982C87.359 181.241 86.8451 181.471 87.1562 181.889C87.4644 182.299 87.9357 182.032 88.3212 181.959C91.2543 181.417 94.2265 181.25 97.4598 182.649C102.42 184.792 104.904 189.086 103.635 193.447C102.181 198.433 98.8277 201.855 94.2213 204.222C93.0345 204.832 91.781 205.347 90.5605 205.903C90.0023 205.834 89.4921 206.004 89.6239 206.531C89.7528 207.051 90.3812 206.997 90.8273 207.045C90.9438 207.057 91.0477 206.988 91.1537 206.954C94.1355 207.567 96.9375 208.676 99.3681 210.867C101.457 212.754 102.156 215.142 101.292 217.264C99.9494 220.558 96.9781 222.198 93.7714 223.58C89.7018 225.326 85.0964 225.736 80.324 225.7C80.12 225.699 79.904 225.628 79.6926 225.588C79.8036 225.199 80.2527 225.254 80.5508 225.112C82.7304 224.083 84.4412 222.652 84.4357 220.003C84.4322 217.072 82.5141 214.905 79.9081 213.042C77.9615 211.649 75.7128 211.204 73.6655 210.127C74.5341 209.578 75.6092 209.385 76.6552 209.169C77.9671 208.9 79.246 208.588 80.8065 209.098C82.0942 209.514 82.9822 208.914 83.4246 207.919C83.8402 206.977 83.2797 205.729 82.3237 205.264C81.0897 204.664 79.4475 204.965 79.3137 205.983C79.1227 207.486 77.9653 207.414 76.7144 207.338C77.2458 206.356 78.3109 205.85 78.9753 204.981C80.5169 202.948 81.8395 200.836 81.2202 197.841C81.5745 198.068 81.8988 198.022 82.1909 197.905C83.8746 197.23 85.4926 196.591 87.7238 197.748C88.6349 198.22 89.7088 197.418 89.8756 196.521C90.0498 195.583 89.3524 194.123 88.4973 193.662C87.4516 193.093 86.1238 193.114 85.718 193.971C84.8532 195.802 82.8403 195.935 81.0661 196.453C80.9188 196.235 80.749 196.021 80.6285 195.79C79.0948 192.861 76.551 191.342 73.4697 190.432C72.1125 190.031 70.853 190.331 69.5174 189.875C70.42 188.755 71.828 188.139 72.8196 187.111C73.4311 186.478 74.1827 186.304 75.2237 186.523C76.4993 186.79 77.3067 186.227 77.3956 185.216C77.4794 184.242 76.5932 183.176 75.3212 182.769C74.0724 182.37 73.4534 182.965 73.2679 183.884C73.1205 184.611 72.7173 185.077 72.2133 185.501C71.3679 186.217 70.4396 186.855 69.6317 187.605C68.7737 188.399 67.5157 188.803 67.0091 189.936L67.0136 189.927C66.7931 189.865 66.7782 189.947 66.9024 190.117C64.3427 190.398 61.9857 191.094 59.7208 191.97C58.8588 192.307 57.9713 192.6 57.1908 193.07C56.9825 193.197 56.6627 193.314 56.3809 193.039C56.1311 192.794 56.3888 192.612 56.4282 192.402C56.6174 191.462 57.119 190.684 57.4412 189.817C58.1012 188.052 58.851 186.312 58.8055 184.26C59.1725 184.489 59.351 184.288 59.5406 184.104C61.4813 182.251 63.5095 180.467 65.3223 178.504C65.9248 177.848 66.3731 177.693 67.3551 178.053C68.7497 178.567 69.6372 178.194 69.8486 177.131C70.0765 176.009 69.2026 175.411 68.2152 174.889C67.0611 174.278 66.0069 174.404 65.5323 175.289C64.0092 178.124 61.4282 180.041 59.1059 182.186C58.8746 181.559 58.5955 180.933 58.4195 180.305C57.9019 178.429 56.5568 177.233 54.5863 176.964C53.2584 176.786 52.1603 177.17 51.0637 177.578C50.5422 177.77 50.1466 178.275 49.388 177.944C49.0258 177.241 49.5501 176.818 49.7261 176.342C50.3906 174.568 50.3518 172.424 52.0747 171.181C52.9074 170.582 52.1887 169.536 51.5881 168.765C51.0504 168.071 50.3182 168.155 49.7176 168.407C48.8452 168.777 48.3749 169.494 48.8934 170.478C49.3064 171.269 49.3061 171.895 49.119 172.552C48.6434 174.21 48.1006 175.839 47.7072 177.523C47.5709 178.108 46.9092 178.625 47.5979 179.438C46.9833 179.864 46.3335 180.252 45.7667 180.718C44.7698 181.544 43.8266 182.424 42.8484 183.266C42.6363 183.454 42.4116 183.758 42.0237 183.517C41.7224 183.333 41.7708 182.986 41.7788 182.718C41.7941 182.13 41.8378 181.552 41.8837 180.971C42.2282 176.63 41.9024 172.239 39.7436 167.763C37.3469 162.793 34.1892 161.553 30.3205 163.133C27.296 164.373 25.1149 166.601 23.6232 169.414C22.4613 171.598 21.4362 173.835 20.9605 176.357L20.9538 176.37Z" fill="#EF9AB3"/>
<path d="M19.9262 179.267C20.3981 176.779 21.4148 174.573 22.5671 172.419C24.0465 169.644 26.2043 167.443 29.2089 166.224C33.0403 164.662 36.1718 165.885 38.5536 170.791C40.6965 175.202 41.0172 179.537 40.6755 183.819C40.6299 184.392 40.5917 184.964 40.5714 185.542C40.5634 185.806 40.5103 186.145 40.8142 186.33C41.2041 186.571 41.4218 186.267 41.6321 186.083C42.6022 185.252 43.5375 184.384 44.5262 183.57C45.0906 183.106 45.735 182.723 46.3423 182.306C47.0312 181.916 47.6236 181.423 48.1123 180.831C48.8646 181.156 49.257 180.658 49.7741 180.469C50.8616 180.067 51.9529 179.684 53.2675 179.864C55.2217 180.13 56.5555 181.309 57.0687 183.16C57.241 183.783 57.52 184.397 57.7494 185.014C57.3682 185.609 57.5347 186.375 57.4514 187.061C57.4964 189.085 56.7529 190.801 56.0982 192.541C55.7787 193.396 55.2812 194.164 55.0936 195.091C55.0545 195.298 54.799 195.478 55.0466 195.72C55.3262 195.991 55.6454 195.871 55.8499 195.75C56.6239 195.286 57.4988 194.994 58.3589 194.665C60.6072 193.797 62.9446 193.11 65.4809 192.838C65.5193 192.777 65.5578 192.715 65.5963 192.654L65.5867 192.659C66.4835 192.902 67.3015 192.812 68.0816 192.598C69.4008 193.045 70.6551 192.752 72.001 193.147C75.0515 194.043 77.5741 195.541 79.1002 198.433C79.2197 198.66 79.3902 198.867 79.5341 199.087C79.2439 199.505 79.6777 200.002 79.6817 200.453C80.2957 203.407 78.9841 205.49 77.4552 207.495C76.7941 208.356 75.743 208.859 75.213 209.82C73.9321 210.243 72.8953 211.006 71.7434 211.612C71.439 211.769 70.7951 211.771 71.0325 212.282C71.2521 212.748 71.7914 212.516 72.1901 212.583C74.2152 213.642 76.4451 214.081 78.3808 215.458C80.9651 217.296 82.8671 219.433 82.8705 222.324C82.8737 224.941 81.1792 226.349 79.0177 227.364C78.7221 227.504 78.2767 227.449 78.1666 227.833C78.0503 227.848 77.9362 227.86 77.8198 227.875C71.3325 229.089 64.6672 227.881 57.9305 225.014C52.8748 222.864 47.9774 220.341 43.5618 216.846C43.0332 216.427 42.5912 215.881 41.9271 215.646C41.7799 214.909 40.9869 214.609 40.5567 214.053C38.3252 211.177 35.5768 208.766 32.6076 206.572C31.6824 205.886 31.1638 204.845 30.1179 204.302C28.4552 202.121 26.6332 200.025 25.1823 197.722C21.3771 191.68 19.379 185.559 19.9351 179.289L19.9262 179.267ZM31.7066 192.923C31.0205 194.173 30.3292 195.421 30.1612 196.927C30.1149 197.371 29.9144 197.903 30.6067 198.188C31.2811 198.468 31.2837 197.846 31.4347 197.515C31.997 196.281 32.5075 195.016 33.0646 193.779C33.4124 193.014 33.8476 192.288 34.1746 191.511C34.313 191.177 34.3208 190.716 33.799 190.442C33.2949 190.173 33.0017 190.426 32.8166 190.772C32.4377 191.48 32.0795 192.2 31.7088 192.918L31.7066 192.923ZM28.8592 191.07C28.9457 190.745 29.0299 190.424 29.1112 190.096C29.46 188.647 29.811 187.193 30.1495 185.737C30.2477 185.324 30.1134 184.942 29.6116 184.708C29.2254 184.525 28.9031 184.638 28.8085 184.952C28.2399 186.788 27.6587 188.623 27.3821 190.575C27.3312 190.949 27.4893 191.311 27.9303 191.493C28.4558 191.707 28.7031 191.438 28.854 191.067L28.8592 191.07ZM38.8764 198.687C38.5036 199.685 37.8661 200.33 37.7229 201.25C37.6757 201.565 37.6529 201.871 38.0836 202.086C38.4394 202.262 38.6616 202.107 38.8259 201.906C39.9499 200.515 40.8884 198.998 41.5542 197.315C41.7044 196.932 41.7508 196.449 41.1793 196.14C40.6567 195.854 40.4168 196.201 40.2199 196.517C39.7351 197.286 39.2658 198.064 38.8764 198.687ZM47.9239 201.968C48.0399 201.481 48.6117 201.133 47.9838 200.645C47.3373 200.141 46.9708 200.615 46.642 200.937C45.5394 201.998 44.4479 203.077 43.3823 204.172C43.1105 204.449 42.7655 204.829 43.2319 205.289C43.6345 205.689 44.0567 205.422 44.3544 205.238C45.7981 204.356 46.9228 203.173 47.9268 201.975L47.9239 201.968ZM33.3238 199.257C32.8623 200.545 32.5594 201.931 32.3892 203.363C32.3317 203.868 32.3373 204.46 33.0488 204.694C33.7707 204.935 33.7814 204.285 33.8834 203.89C34.2197 202.596 34.4819 201.275 34.7974 199.969C34.9119 199.497 35.2058 199.059 34.3846 198.67C33.6122 198.305 33.6148 198.929 33.3261 199.253L33.3238 199.257ZM38.4216 209.063C38.5387 209.098 38.6647 209.156 38.7855 209.171C40.7693 209.471 42.6091 209.276 44.3842 208.853C44.6695 208.785 44.8768 208.593 44.7432 208.262C44.5918 207.886 44.2294 207.763 43.887 207.757C42.059 207.745 40.2369 207.748 38.42 207.754C38.0332 207.756 37.8592 208.002 37.8735 208.341C37.89 208.637 38.1392 208.863 38.4238 209.058L38.4216 209.063ZM57.1116 220.306C57.107 220.158 57.1498 219.891 57.0882 219.63C57.0206 219.355 56.7642 219.366 56.5753 219.418C55.0313 219.865 53.3543 219.679 51.6521 219.41C51.2586 219.347 50.7488 219.377 50.7825 219.902C50.8102 220.373 51.215 220.651 51.6715 220.763C53.2545 221.157 54.8063 221.337 56.2525 220.961C56.5962 220.872 56.9066 220.73 57.1168 220.309L57.1116 220.306ZM46.1003 216.726C47.5582 217.272 49.1084 217.31 50.6608 217.384C51.0565 217.404 51.4641 217.375 51.3622 216.877C51.2775 216.451 50.8876 216.25 50.4807 216.172C49.0326 215.897 47.5861 215.644 46.1358 215.373C45.7341 215.298 45.4837 215.403 45.4032 215.743C45.3071 216.152 45.5844 216.428 46.0952 216.723L46.1003 216.726ZM47.9968 212.671C47.9131 212.65 47.8242 212.626 47.7434 212.612C46.1293 212.356 44.5145 212.088 42.9012 211.844C42.5685 211.794 42.3485 211.945 42.3339 212.261C42.3105 212.674 42.5871 213.017 42.994 213.133C44.6563 213.597 46.3096 213.842 47.9049 213.649C48.1649 213.618 48.3182 213.478 48.2951 213.195C48.2794 212.989 48.2348 212.8 47.9991 212.667L47.9968 212.671Z" fill="#EF7FA0"/>
<path d="M28.1044 209.818C29.1717 210.379 29.704 211.46 30.6451 212.16C33.6749 214.423 36.4795 216.91 38.7567 219.876C39.1957 220.45 40.0102 220.762 40.1551 221.519C37.5299 221.494 34.972 220.485 32.4405 219.451C31.4626 219.054 30.6596 219.003 29.8803 219.407C22.2643 223.341 13.9579 226.071 5.25715 228.126C4.99633 228.191 4.64923 228.14 4.41528 228.788C5.71183 228.507 6.89229 228.724 8.05366 228.681C14.0034 228.471 19.7259 227.529 25.6688 227.291C30.6008 227.1 35.5594 227.045 40.685 227.935C42.1581 228.188 43.6433 228.471 45.0405 229.333C46.7319 230.375 47.3355 231.777 46.5902 233.196C45.4016 235.457 43.0681 236.416 40.584 237.129C36.6015 238.274 32.2583 238.232 27.8363 237.872C18.0349 237.077 8.2086 235.209 -1.51906 231.646C-4.47396 230.563 -6.93299 230.388 -9.50036 230.993C-11.3102 231.414 -13.1882 231.683 -15.039 232.022C-15.5501 232.116 -16.1525 232.417 -16.5786 231.804C-17.041 231.141 -16.6143 230.522 -16.1229 230.317C-14.6149 229.676 -14.0798 228.276 -13.2481 227.093C-11.5062 224.601 -10.2499 221.802 -8.85823 219.089C-6.41695 214.335 -4.13754 209.477 -1.09639 205.103C0.952946 202.157 3.01514 199.214 5.89214 196.946C6.81864 196.214 7.77694 195.54 9.07884 195.344C11.1882 195.027 13.1769 196.258 13.8921 198.374C14.6702 200.678 14.2739 202.74 13.7506 204.766C12.4369 209.869 9.59213 213.967 5.92887 217.49C2.14093 221.136 -1.93908 224.474 -6.43071 227.388C-6.66802 227.542 -7.22972 227.682 -6.95269 228.113C-6.64462 228.592 -6.14202 228.284 -5.82751 228.222C-0.980661 227.291 3.81242 226.235 8.50025 224.966C15.6949 223.02 22.3923 220.263 28.8807 217.145C29.9238 216.644 30.0716 216.043 29.3449 214.95C28.8688 214.232 28.4691 213.473 28.1253 212.713C27.6596 211.677 27.5061 210.666 28.0938 209.812L28.1044 209.818Z" fill="#6BB194"/>
<path d="M88.7559 205.37C88.6492 205.404 88.5395 205.471 88.4274 205.462C87.9839 205.416 87.3487 205.463 87.2168 204.943C87.0841 204.411 87.5974 204.24 88.159 204.31C88.1879 204.723 88.4422 205.058 88.7536 205.375L88.7559 205.37Z" fill="#FFC1D3"/>
<path d="M58.7836 184.51C58.8806 183.766 58.6976 182.933 59.1023 182.294C61.5613 180.005 64.2939 177.958 65.9071 174.931C66.4098 173.986 67.5258 173.852 68.7471 174.504C69.7866 175.06 70.7114 175.699 70.4753 176.901C70.2487 178.041 69.3116 178.434 67.8356 177.885C66.7962 177.499 66.3217 177.665 65.6837 178.365C63.7641 180.461 61.6166 182.365 59.5618 184.344C59.3609 184.54 59.172 184.755 58.7836 184.51Z" fill="#FFC1D3"/>
<path d="M71.0377 210.331C70.6257 210.261 70.0683 210.504 69.8413 210.015C69.596 209.48 70.2591 209.483 70.576 209.314C71.7664 208.679 72.838 207.879 74.1618 207.435C75.4414 207.518 76.6277 207.593 76.8258 206.035C76.9576 204.979 78.6437 204.676 79.9107 205.292C80.8958 205.775 81.4671 207.058 81.0389 208.037C80.5885 209.073 79.673 209.69 78.3556 209.255C76.754 208.733 75.4455 209.05 74.1009 209.328C73.029 209.551 71.9272 209.751 71.0369 210.319L71.0377 210.331Z" fill="#FFC1D3"/>
<path d="M68.9583 189.416C68.1324 189.649 67.2744 189.749 66.3247 189.481C66.8552 188.283 68.1777 187.86 69.0706 187.017C69.9165 186.225 70.8885 185.55 71.7735 184.793C72.3013 184.345 72.7258 183.847 72.878 183.084C73.0723 182.112 73.7259 181.487 75.0276 181.906C76.3591 182.336 77.2889 183.459 77.1986 184.494C77.1107 185.566 76.2655 186.16 74.9247 185.874C73.835 185.643 73.0482 185.827 72.4079 186.496C71.3697 187.582 69.8979 188.229 68.9504 189.418L68.9583 189.416Z" fill="#FFC1D3"/>
<path d="M79.7587 196.176C79.7546 195.706 79.3061 195.192 79.6069 194.752C81.4221 194.222 83.4755 194.086 84.3577 192.204C84.7717 191.323 86.1262 191.302 87.1929 191.886C88.0599 192.357 88.7766 193.861 88.5988 194.825C88.4257 195.74 87.3332 196.572 86.4037 196.087C84.13 194.893 82.4718 195.551 80.7596 196.248C80.4616 196.368 80.1308 196.416 79.7694 196.182L79.7587 196.176Z" fill="#FFC1D3"/>
<path d="M50.3963 179.842C49.8637 180.494 49.218 181.035 48.4674 181.465C47.7296 180.586 48.4366 180.025 48.5867 179.386C49.0151 177.553 49.6026 175.785 50.115 173.99C50.32 173.272 50.3207 172.593 49.8727 171.739C49.3189 170.673 49.8274 169.895 50.7645 169.491C51.4134 169.217 52.2044 169.127 52.7848 169.881C53.4306 170.724 54.2087 171.855 53.3088 172.504C51.4468 173.852 51.4898 176.176 50.7683 178.105C50.5754 178.627 50.0056 179.077 50.402 179.845L50.3963 179.842Z" fill="#FFC1D3"/>
<path d="M66.3346 190.267C66.2941 190.333 66.2536 190.398 66.2132 190.464C66.0826 190.284 66.098 190.197 66.3346 190.267Z" fill="#FFC1D3"/>
<path d="M32.0856 194.98C32.499 194.18 32.9066 193.376 33.3283 192.575C33.53 192.184 33.8644 191.904 34.4284 192.207C35.004 192.516 35.0004 193.037 34.8477 193.406C34.4807 194.277 33.9951 195.085 33.6024 195.947C32.9773 197.333 32.4044 198.75 31.7734 200.132C31.6041 200.504 31.5947 201.197 30.8457 200.886C30.0735 200.56 30.2961 199.968 30.3485 199.471C30.5383 197.783 31.3078 196.382 32.0831 194.984L32.0856 194.98Z" fill="#C7386C"/>
<path d="M29.88 193.486C29.716 193.893 29.4474 194.189 28.8771 193.953C28.3985 193.753 28.2247 193.36 28.2825 192.944C28.5783 190.798 29.2103 188.785 29.8342 186.772C29.9395 186.423 30.287 186.303 30.7061 186.504C31.245 186.759 31.3963 187.182 31.2894 187.635C30.9212 189.233 30.5393 190.829 30.1598 192.42C30.0738 192.776 29.9797 193.132 29.8857 193.489L29.88 193.486Z" fill="#C7386C"/>
<path d="M38.7599 200.262C39.1875 199.563 39.7156 198.699 40.2553 197.841C40.4745 197.489 40.7472 197.106 41.322 197.422C41.9544 197.773 41.9049 198.307 41.7376 198.734C40.9959 200.612 39.9511 202.304 38.7005 203.855C38.5176 204.078 38.2763 204.254 37.8752 204.054C37.3968 203.814 37.4166 203.468 37.4752 203.121C37.6352 202.094 38.3445 201.375 38.7599 200.262Z" fill="#C7386C"/>
<path d="M47.7191 203.043C46.639 204.345 45.424 205.64 43.8679 206.603C43.547 206.803 43.0919 207.094 42.6582 206.657C42.1558 206.155 42.5334 205.743 42.8208 205.437C43.9696 204.243 45.1463 203.066 46.335 201.909C46.6927 201.565 47.0846 201.04 47.781 201.591C48.4551 202.129 47.8411 202.503 47.7159 203.035L47.7191 203.043Z" fill="#C7386C"/>
<path d="M32.9988 201.688C33.3109 201.335 33.3083 200.652 34.1423 201.052C35.029 201.478 34.7114 201.957 34.5875 202.472C34.2429 203.893 33.9567 205.342 33.5984 206.76C33.4881 207.191 33.4762 207.902 32.6967 207.639C31.9284 207.382 31.9227 206.734 31.985 206.182C32.1695 204.617 32.4973 203.101 32.9964 201.693L32.9988 201.688Z" fill="#C7386C"/>
<path d="M37.4521 211.291C37.1645 211.092 36.9129 210.863 36.8962 210.562C36.8817 210.217 37.0574 209.968 37.4481 209.966C39.2856 209.955 41.1291 209.96 42.9703 209.968C43.3236 209.973 43.6844 210.095 43.8351 210.481C43.9701 210.818 43.7606 211.013 43.4725 211.082C41.6795 211.512 39.8212 211.71 37.8174 211.405C37.6901 211.387 37.5629 211.329 37.4498 211.296L37.4521 211.291Z" fill="#C7386C"/>
<path d="M55.1166 221.838C54.9018 222.271 54.5879 222.416 54.2424 222.502C52.7796 222.885 51.2048 222.699 49.6088 222.3C49.1545 222.185 48.7429 221.906 48.7095 221.424C48.6777 220.885 49.1911 220.858 49.5891 220.923C51.3184 221.195 53.0125 221.389 54.5689 220.93C54.76 220.878 55.0193 220.866 55.0877 221.147C55.1531 221.42 55.112 221.687 55.1114 221.835L55.1166 221.838Z" fill="#C7386C"/>
<path d="M44.3983 218.693C43.8894 218.4 43.6109 218.13 43.7088 217.719C43.7891 217.382 44.0408 217.273 44.4388 217.351C45.8837 217.621 47.325 217.872 48.7678 218.146C49.1731 218.223 49.5616 218.423 49.646 218.846C49.7423 219.338 49.3363 219.367 48.9472 219.35C47.4005 219.276 45.856 219.238 44.4034 218.696L44.3983 218.693Z" fill="#C7386C"/>
<path d="M46.6365 214.739C46.8744 214.868 46.9115 215.058 46.9324 215.266C46.9555 215.549 46.8023 215.689 46.5423 215.72C44.9478 215.913 43.2973 215.664 41.6334 215.204C41.2267 215.088 40.9502 214.746 40.9737 214.333C40.9935 214.02 41.2133 213.869 41.5408 213.916C43.1534 214.16 44.7698 214.423 46.3809 214.683C46.4669 214.7 46.5506 214.722 46.6343 214.743L46.6365 214.739Z" fill="#C7386C"/>
<path d="M23.7636 295.011C24.6253 294.208 25.6884 293.783 26.7439 293.374C28.7212 292.609 30.7379 292.229 32.804 292.726C33.2401 292.83 33.6537 292.99 34.0313 293.21C34.9792 293.76 35.2053 294.83 34.6425 295.932C34.5432 296.124 34.3116 296.326 34.4861 296.541C34.6353 296.724 34.8655 296.562 35.0615 296.517C37.6094 295.916 40.1547 295.657 42.6868 296.261C44.2514 296.635 45.7171 297.22 46.9612 298.234C49.2799 300.122 49.3364 302.667 47.6711 305.163C46.4033 307.064 44.6216 308.28 42.4353 308.856C42.218 308.914 42.0099 309.003 41.7988 309.085C41.7694 309.095 41.7549 309.151 41.7189 309.211C42.0792 309.481 42.5371 309.507 42.947 309.638C44.9365 310.274 46.8365 311.074 48.3204 312.572C49.416 313.679 50.1962 314.993 50.0303 316.667C49.8338 318.654 48.2698 320.255 46.0893 320.841C44.4533 321.281 42.8168 321.282 41.1817 321.074C40.9916 321.048 40.733 320.911 40.6289 321.128C40.5276 321.342 40.7908 321.454 40.9382 321.581C42.0537 322.549 43.0048 323.622 43.3001 325.169C43.7542 327.542 42.475 329.506 40.0615 330.08C37.3016 330.736 34.7154 330.304 32.255 329.149C31.6207 328.851 31.0119 328.506 30.393 328.183C30.2614 327.957 30.0321 327.807 29.8241 327.983C29.6186 328.157 29.8285 328.379 29.937 328.558C29.9655 328.604 30.0284 328.626 30.0754 328.658C30.6647 329.922 30.9689 331.238 30.6576 332.676C30.3885 333.912 29.4765 334.748 28.23 334.936C26.2944 335.226 24.654 334.508 23.0656 333.64C21.0532 332.536 19.5083 330.911 18.1231 329.115C18.0639 329.038 18.0337 328.94 17.9903 328.851C18.205 328.799 18.3109 328.981 18.4648 329.058C19.5865 329.627 20.7591 329.923 21.9966 329.283C23.3672 328.576 23.8174 327.337 23.9236 325.912C24.0034 324.848 23.5512 323.899 23.4537 322.873C23.9657 323.066 24.3719 323.422 24.7803 323.762C25.2916 324.189 25.813 324.592 26.0329 325.299C26.2164 325.882 26.758 326.07 27.3535 325.996C27.9165 325.925 28.3358 325.415 28.2722 324.945C28.1907 324.338 27.5675 323.796 27.0517 323.991C26.2927 324.281 25.9862 323.83 25.6543 323.344C26.2698 323.306 26.8196 323.583 27.4214 323.623C28.8254 323.711 30.2018 323.698 31.4212 322.745C31.419 322.932 31.5361 323.042 31.6767 323.124C32.4868 323.592 33.2613 324.044 33.3751 325.158C33.4221 325.613 34.1131 325.821 34.5816 325.668C35.0715 325.508 35.5497 324.895 35.5144 324.464C35.4732 323.935 35.0735 323.443 34.5531 323.498C33.4424 323.615 32.7892 322.893 32.0255 322.353C32.0843 322.245 32.1347 322.13 32.2072 322.03C33.1269 320.75 33.0904 319.432 32.6112 318.059C32.3999 317.455 31.8895 317.055 31.7105 316.446C32.4999 316.514 33.2017 316.893 33.9738 317.017C34.4496 317.093 34.7521 317.333 34.9555 317.775C35.2054 318.317 35.7057 318.484 36.2048 318.274C36.6853 318.071 36.9236 317.483 36.7403 316.908C36.5601 316.345 36.1001 316.256 35.6153 316.408C35.2323 316.527 34.8957 316.489 34.5494 316.402C33.9659 316.258 33.3944 316.064 32.8063 315.942C32.1827 315.812 31.6244 315.438 30.9454 315.521L30.9508 315.52C30.9152 315.423 30.8724 315.437 30.8292 315.525C29.9461 314.634 28.9279 313.919 27.8527 313.281C27.442 313.04 27.0442 312.778 26.5949 312.599C26.4743 312.551 26.3254 312.46 26.3713 312.288C26.4124 312.136 26.5737 312.188 26.6835 312.152C27.1789 311.997 27.6902 311.998 28.1905 311.91C29.2101 311.732 30.2444 311.594 31.1911 311.083C31.1918 311.275 31.3385 311.294 31.48 311.321C32.9172 311.601 34.3478 311.931 35.7988 312.138C36.2824 312.206 36.4867 312.336 36.6067 312.79C36.776 313.436 37.2111 313.679 37.7708 313.502C38.3627 313.317 38.3856 312.846 38.3401 312.351C38.2866 311.772 37.9179 311.407 37.3645 311.443C35.5909 311.554 33.9356 311.05 32.25 310.696C32.4751 310.459 32.6861 310.204 32.928 309.987C33.6541 309.341 33.8183 308.55 33.3654 307.747C33.0588 307.207 32.5564 306.888 32.0433 306.576C31.8005 306.427 31.448 306.4 31.3797 306.036C31.6026 305.731 31.9545 305.826 32.2289 305.777C33.2538 305.599 34.2459 305.069 35.3335 305.415C35.8582 305.582 36.1365 305.061 36.3209 304.651C36.4877 304.282 36.2335 304.028 35.9388 303.864C35.5093 303.627 35.0358 303.623 34.7276 304.054C34.4789 304.399 34.1862 304.55 33.8238 304.638C32.9084 304.859 31.9866 305.048 31.0832 305.306C30.7696 305.395 30.3329 305.272 30.1552 305.726C29.7752 305.598 29.4026 305.448 29.018 305.348C28.3389 305.174 27.65 305.032 26.9686 304.869C26.8187 304.834 26.6101 304.824 26.609 304.62C26.6067 304.463 26.7832 304.398 26.9111 304.336C27.1908 304.2 27.4736 304.078 27.7591 303.955C29.8913 303.039 31.8501 301.86 33.3104 299.975C34.9317 297.881 34.5844 296.4 32.7083 295.332C31.2401 294.498 29.5568 294.217 27.8023 294.336C26.4392 294.426 25.0916 294.581 23.7717 295.01L23.7636 295.011Z" fill="#EF9AB3"/>
<path d="M23.5143 294.543C24.8314 294.113 26.1762 293.959 27.5364 293.868C29.2872 293.75 30.967 294.029 32.4325 294.868C34.3047 295.937 34.6516 297.421 33.0341 299.523C31.58 301.413 29.6228 302.595 27.4952 303.512C27.2103 303.635 26.9282 303.761 26.649 303.894C26.5214 303.956 26.3452 304.019 26.3476 304.179C26.3488 304.385 26.5569 304.394 26.7065 304.428C27.3865 304.592 28.074 304.734 28.7517 304.909C29.1382 305.009 29.5101 305.16 29.8867 305.288C30.2752 305.453 30.6834 305.557 31.1085 305.597C31.1768 305.962 31.5286 305.988 31.7709 306.138C32.2829 306.451 32.7871 306.771 33.0904 307.312C33.5426 308.117 33.3789 308.911 32.6544 309.558C32.4103 309.775 32.2025 310.031 31.978 310.269C31.5839 310.27 31.2706 310.52 30.9214 310.656C29.9767 311.168 28.9446 311.307 27.9272 311.484C27.4279 311.573 26.9177 311.572 26.4233 311.728C26.3138 311.763 26.1528 311.711 26.1118 311.864C26.066 312.036 26.2174 312.127 26.335 312.175C26.7834 312.355 27.1803 312.615 27.5903 312.86C28.6661 313.499 29.6823 314.216 30.561 315.109C30.6015 315.109 30.642 315.108 30.6825 315.108L30.677 315.106C30.8273 315.505 31.1118 315.792 31.4435 316.035C31.6221 316.644 32.1316 317.047 32.3426 317.654C32.8209 319.027 32.8576 320.349 31.9402 321.634C31.8679 321.735 31.8203 321.85 31.7589 321.958C31.4752 321.951 31.3683 322.236 31.1559 322.348C29.9392 323.303 28.5656 323.316 27.1646 323.227C26.5614 323.188 26.0127 322.913 25.4011 322.947C24.8221 322.566 24.1542 322.36 23.5269 322.072C23.3625 321.995 23.1712 321.752 22.9998 321.966C22.8442 322.163 23.1134 322.311 23.1997 322.478C23.2971 323.504 23.7485 324.456 23.6692 325.525C23.5635 326.953 23.1145 328.196 21.7469 328.904C20.5094 329.545 19.3419 329.248 18.2224 328.678C18.0688 328.6 17.9631 328.418 17.7489 328.47C17.7071 328.43 17.668 328.39 17.6262 328.349C15.1335 326.19 13.7346 323.371 13.0993 320.12C12.6221 317.68 12.368 315.209 12.7168 312.682C12.7584 312.379 12.8865 312.078 12.8011 311.77C13.1067 311.534 13.0138 311.16 13.1501 310.861C13.8512 309.313 14.1799 307.683 14.3403 306.022C14.3913 305.504 14.7306 305.053 14.6786 304.524C15.2193 303.361 15.6723 302.159 16.3333 301.047C18.0678 298.128 20.3742 295.875 23.5065 294.552L23.5143 294.543ZM20.5342 302.343C19.7394 302.389 18.9445 302.432 18.1822 302.737C17.9583 302.828 17.6469 302.882 17.7169 303.214C17.7839 303.538 18.0787 303.387 18.2804 303.363C19.0306 303.274 19.7801 303.158 20.5303 303.067C20.9955 303.011 21.4675 302.998 21.9323 302.932C22.1312 302.903 22.3517 302.793 22.3271 302.528C22.3054 302.272 22.0987 302.223 21.8805 302.237C21.4334 302.267 20.9866 302.307 20.5369 302.343L20.5342 302.343ZM20.5692 300.812C20.7485 300.765 20.9252 300.719 21.1045 300.669C21.8937 300.447 22.6856 300.224 23.4747 299.996C23.6994 299.932 23.8405 299.788 23.803 299.541C23.7753 299.35 23.6265 299.255 23.4497 299.297C22.4125 299.53 21.3724 299.759 20.3667 300.132C20.1746 300.204 20.0498 300.352 20.0943 300.564C20.1482 300.815 20.3488 300.843 20.5691 300.809L20.5692 300.812ZM19.9259 306.467C19.3434 306.57 18.8495 306.487 18.3717 306.657C18.209 306.716 18.0572 306.783 18.083 306.998C18.1048 307.176 18.244 307.222 18.3874 307.235C19.3781 307.321 20.3737 307.305 21.3673 307.145C21.5929 307.109 21.8353 307.008 21.8126 306.716C21.7932 306.448 21.5582 306.442 21.3504 306.445C20.8431 306.45 20.336 306.462 19.9259 306.467ZM21.0484 310.695C21.3133 310.62 21.6468 310.751 21.6921 310.394C21.7398 310.026 21.407 310.003 21.1572 309.958C20.3289 309.8 19.4955 309.65 18.6624 309.514C18.4508 309.479 18.1688 309.442 18.089 309.731C18.0187 309.981 18.27 310.076 18.4449 310.143C19.2895 310.474 20.182 310.611 21.0458 310.698L21.0484 310.695ZM18.0144 304.504C17.2684 304.645 16.5225 304.869 15.7946 305.155C15.5387 305.256 15.26 305.403 15.3595 305.73C15.4591 306.062 15.77 305.907 15.9868 305.849C16.6988 305.66 17.4016 305.436 18.1133 305.236C18.3701 305.164 18.6645 305.169 18.6056 304.762C18.5503 304.381 18.2556 304.534 18.0171 304.504L18.0144 304.504ZM14.8806 308.832C14.8985 308.885 14.9085 308.947 14.9371 308.997C15.3817 309.821 16.0178 310.47 16.7431 311.039C16.8594 311.13 17.0116 311.162 17.1289 311.03C17.2618 310.881 17.2133 310.713 17.1146 310.582C16.5796 309.887 16.0394 309.198 15.4993 308.512C15.384 308.366 15.2164 308.36 15.06 308.449C14.9248 308.527 14.8918 308.677 14.8833 308.832L14.8806 308.832ZM15.0854 318.658C15.1544 318.62 15.2932 318.571 15.3984 318.484C15.5088 318.391 15.4275 318.297 15.3473 318.238C14.679 317.763 14.2713 317.082 13.8951 316.372C13.8089 316.208 13.6437 316.022 13.4053 316.163C13.1906 316.289 13.1788 316.51 13.2607 316.71C13.542 317.406 13.9157 318.038 14.5214 318.493C14.6652 318.602 14.8244 318.684 15.0855 318.661L15.0854 318.658ZM13.5238 313.614C13.6968 314.299 14.1369 314.896 14.5611 315.501C14.6686 315.656 14.8028 315.803 15.0083 315.643C15.1848 315.507 15.165 315.31 15.0813 315.137C14.7836 314.521 14.4754 313.912 14.1751 313.296C14.0914 313.126 13.9677 313.057 13.7831 313.109C13.5611 313.173 13.5126 313.346 13.5238 313.611L13.5238 313.614ZM16.0039 313.34C15.9892 313.303 15.9745 313.264 15.9572 313.23C15.6011 312.556 15.2502 311.879 14.8887 311.209C14.8141 311.07 14.6777 311.024 14.5234 311.096C14.3212 311.188 14.2408 311.376 14.306 311.559C14.578 312.302 14.9508 312.988 15.5137 313.545C15.6057 313.635 15.7171 313.659 15.8442 313.581C15.9369 313.525 16.0132 313.462 16.0066 313.34L16.0039 313.34Z" fill="#EF7FA0"/>
<path d="M14.2078 303.685C14.2598 304.211 13.9161 304.661 13.8674 305.173C13.7057 306.822 13.375 308.441 12.67 309.979C12.533 310.276 12.6263 310.649 12.3191 310.881C11.5666 309.908 11.2876 308.728 11.0276 307.552C10.9264 307.098 10.7158 306.791 10.3029 306.599C6.27222 304.72 2.59598 302.304 -0.883846 299.583C-0.989491 299.502 -1.06718 299.362 -1.43393 299.429C-0.92717 299.84 -0.683832 300.326 -0.326051 300.744C1.50254 302.886 3.60231 304.772 5.44147 306.905C6.96531 308.676 8.43355 310.49 9.51485 312.588C9.82699 313.19 10.1286 313.804 10.138 314.521C10.1494 315.39 9.67885 315.942 8.80742 316.002C7.41906 316.097 6.29768 315.463 5.24591 314.716C3.55867 313.519 2.31393 311.91 1.19333 310.196C-1.2929 306.399 -3.29117 302.339 -4.47921 297.916C-4.83942 296.573 -5.47446 295.626 -6.5009 294.823C-7.22148 294.255 -7.89246 293.627 -8.58701 293.025C-8.77945 292.859 -9.09347 292.708 -8.93493 292.407C-8.76363 292.08 -8.35372 292.091 -8.11623 292.224C-7.38187 292.628 -6.58057 292.496 -5.79313 292.523C-4.13693 292.578 -2.48061 292.381 -0.824751 292.255C2.07843 292.034 4.98165 291.729 7.88389 291.818C9.83865 291.879 11.7963 291.945 13.6791 292.471C14.2866 292.64 14.8759 292.834 15.3454 293.267C16.1055 293.969 16.1164 294.992 15.3488 295.754C14.5128 296.584 13.4468 296.923 12.3602 297.208C9.62475 297.926 6.90717 297.844 4.21633 297.325C1.43274 296.788 -1.29422 296.072 -3.94513 295.104C-4.08509 295.053 -4.31304 294.879 -4.4313 295.083C-4.56241 295.309 -4.27403 295.421 -4.15417 295.523C-2.31413 297.089 -0.432261 298.605 1.51728 300.033C4.5083 302.225 7.72876 304.042 11.0552 305.697C11.5899 305.964 11.9099 305.876 12.2023 305.351C12.3948 305.007 12.6285 304.681 12.8791 304.375C13.2211 303.959 13.643 303.665 14.2076 303.68L14.2078 303.685Z" fill="#6BB194"/>
<path d="M30.0514 328.628C30.0043 328.596 29.9411 328.571 29.9126 328.528C29.804 328.352 29.5962 328.128 29.7995 327.955C30.0081 327.779 30.2379 327.929 30.3698 328.154C30.1862 328.263 30.105 328.437 30.0487 328.628L30.0514 328.628Z" fill="#FFC1D3"/>
<path d="M31.1656 311.147C31.5222 311.018 31.8392 310.774 32.2356 310.773C33.9396 311.116 35.613 311.605 37.4055 311.497C37.9649 311.463 38.3377 311.816 38.3923 312.377C38.4385 312.853 38.4157 313.309 37.8176 313.491C37.2493 313.662 36.8121 313.427 36.6405 312.801C36.519 312.362 36.3124 312.235 35.8235 312.169C34.3568 311.969 32.9106 311.649 31.4578 311.377C31.3147 311.351 31.1665 311.333 31.1656 311.147Z" fill="#FFC1D3"/>
<path d="M23.2962 322.645C23.2093 322.48 22.9381 322.334 23.095 322.14C23.2676 321.928 23.4576 322.168 23.6259 322.244C24.2577 322.528 24.9305 322.73 25.5136 323.107C25.8446 323.588 26.1527 324.034 26.9184 323.747C27.4369 323.551 28.0606 324.091 28.1452 324.691C28.2093 325.158 27.7904 325.66 27.2216 325.731C26.6204 325.807 26.0759 325.618 25.8942 325.042C25.6704 324.343 25.149 323.943 24.6351 323.521C24.2245 323.185 23.8162 322.833 23.3015 322.642L23.2962 322.645Z" fill="#FFC1D3"/>
<path d="M31.7087 316.491C31.3706 316.254 31.083 315.977 30.9336 315.585C31.6187 315.504 32.1822 315.872 32.8113 315.997C33.4048 316.116 33.9815 316.305 34.5703 316.446C34.9197 316.531 35.2621 316.569 35.6458 316.452C36.1349 316.304 36.5991 316.393 36.7811 316.941C36.9662 317.501 36.7287 318.076 36.2413 318.274C35.7378 318.482 35.2329 318.319 34.9805 317.787C34.7751 317.355 34.4699 317.121 33.9898 317.046C33.2106 316.925 32.5051 316.555 31.7059 316.488L31.7087 316.491Z" fill="#FFC1D3"/>
<path d="M31.456 322.828C31.6698 322.717 31.7748 322.434 32.063 322.441C32.8301 322.979 33.4861 323.695 34.6016 323.579C35.1242 323.525 35.5256 324.013 35.5669 324.538C35.6023 324.963 35.122 325.573 34.63 325.732C34.1621 325.882 33.4655 325.678 33.4184 325.226C33.3068 324.121 32.5263 323.67 31.7128 323.209C31.5716 323.128 31.454 323.019 31.4562 322.833L31.456 322.828Z" fill="#FFC1D3"/>
<path d="M31.2991 305.88C30.8673 305.842 30.4525 305.744 30.0576 305.588C30.2371 305.161 30.6771 305.276 30.9976 305.191C31.9157 304.948 32.8499 304.77 33.7747 304.562C34.1446 304.479 34.4412 304.337 34.69 304.011C35.0019 303.606 35.4819 303.61 35.9175 303.832C36.2165 303.987 36.4745 304.228 36.306 304.576C36.1169 304.965 35.8383 305.457 35.3062 305.298C34.2032 304.97 33.2011 305.471 32.1597 305.638C31.8789 305.684 31.5246 305.592 31.2992 305.883L31.2991 305.88Z" fill="#FFC1D3"/>
<path d="M30.8869 315.421C30.8459 315.421 30.8049 315.422 30.7638 315.422C30.8075 315.335 30.8508 315.321 30.8869 315.421Z" fill="#FFC1D3"/>
<path d="M20.4138 302.202C20.8693 302.171 21.3247 302.138 21.783 302.109C22.0053 302.094 22.2162 302.141 22.2389 302.372C22.2619 302.607 22.0375 302.708 21.8376 302.734C21.364 302.793 20.8857 302.803 20.4089 302.853C19.6445 302.934 18.8809 303.037 18.1164 303.116C17.9109 303.137 17.6107 303.27 17.5417 302.981C17.4723 302.683 17.7868 302.634 18.0147 302.553C18.7909 302.28 19.6009 302.24 20.4111 302.202L20.4138 302.202Z" fill="#C7386C"/>
<path d="M20.4568 300.643C20.2332 300.675 20.0295 300.649 19.9745 300.41C19.9291 300.21 20.0529 300.069 20.2506 300.001C21.2712 299.645 22.3269 299.429 23.3798 299.211C23.562 299.172 23.7104 299.262 23.7387 299.443C23.7771 299.675 23.634 299.814 23.4059 299.874C22.6051 300.09 21.8013 300.301 21.0003 300.511C20.821 300.558 20.639 300.602 20.4569 300.646L20.4568 300.643Z" fill="#C7386C"/>
<path d="M19.8124 306.334C20.23 306.327 20.7465 306.319 21.2631 306.316C21.4747 306.313 21.7141 306.322 21.7343 306.564C21.7554 306.83 21.5115 306.922 21.2819 306.955C20.2703 307.099 19.2565 307.112 18.2474 307.033C18.1012 307.021 17.9595 306.981 17.9368 306.816C17.9101 306.62 18.0644 306.557 18.2301 306.505C18.7163 306.35 19.2195 306.427 19.8124 306.334Z" fill="#C7386C"/>
<path d="M20.9659 310.516C20.0924 310.433 19.1844 310.302 18.3275 309.985C18.1501 309.92 17.895 309.83 17.9661 309.59C18.0469 309.314 18.333 309.353 18.5476 309.384C19.3926 309.514 20.238 309.657 21.0783 309.809C21.3291 309.855 21.6692 309.874 21.6212 310.226C21.5728 310.568 21.2371 310.442 20.9686 310.514L20.9659 310.516Z" fill="#C7386C"/>
<path d="M17.8324 304.24C18.0744 304.268 18.3733 304.122 18.4298 304.486C18.4899 304.874 18.1912 304.87 17.9307 304.938C17.2115 305.126 16.496 305.339 15.7739 305.522C15.554 305.577 15.2387 305.725 15.1373 305.408C15.036 305.096 15.3187 304.956 15.5782 304.859C16.3164 304.587 17.073 304.373 17.8297 304.24L17.8324 304.24Z" fill="#C7386C"/>
<path d="M14.6776 308.525C14.6861 308.37 14.7193 308.221 14.8548 308.143C15.0117 308.054 15.1796 308.06 15.2952 308.206C15.8392 308.89 16.378 309.579 16.9141 310.269C17.0157 310.402 17.0642 310.567 16.9283 310.716C16.8107 310.847 16.6581 310.815 16.5416 310.724C15.8146 310.158 15.177 309.511 14.7315 308.689C14.7028 308.637 14.6927 308.576 14.6749 308.525L14.6776 308.525Z" fill="#C7386C"/>
<path d="M14.8765 318.318C14.612 318.341 14.4524 318.259 14.3109 318.151C13.7036 317.697 13.3289 317.065 13.0471 316.375C12.9678 316.178 12.977 315.957 13.1922 315.829C13.4341 315.689 13.5969 315.874 13.6834 316.038C14.0632 316.748 14.4692 317.426 15.1392 317.896C15.2196 317.955 15.3011 318.049 15.1903 318.142C15.0822 318.231 14.9457 318.28 14.8764 318.315L14.8765 318.318Z" fill="#C7386C"/>
<path d="M13.3005 313.259C13.2893 312.993 13.335 312.82 13.5595 312.756C13.7439 312.704 13.8701 312.773 13.9511 312.944C14.2512 313.56 14.5592 314.17 14.8566 314.787C14.9403 314.96 14.9601 315.157 14.7838 315.293C14.5785 315.451 14.4443 315.304 14.337 315.151C13.9132 314.545 13.4735 313.948 13.3006 313.261L13.3005 313.259Z" fill="#C7386C"/>
<path d="M15.7912 313.008C15.8005 313.13 15.7215 313.191 15.6289 313.249C15.5018 313.327 15.3904 313.304 15.2984 313.213C14.7355 312.656 14.3654 311.97 14.0908 311.228C14.0256 311.045 14.1059 310.857 14.3081 310.765C14.4625 310.695 14.5989 310.742 14.6734 310.877C15.0349 311.548 15.3884 312.224 15.7418 312.898C15.7592 312.935 15.7739 312.972 15.7885 313.009L15.7912 313.008Z" fill="#C7386C"/>
<path d="M74.6936 264.387C76.3724 265.083 77.8638 266.01 78.6517 268.211C73.3747 267.154 68.0578 268.181 62.8125 267.583C57.3929 266.962 53.3755 262.932 48.0335 261.185C48.0337 263.199 49.1604 263.783 49.9715 264.507C53.5922 267.706 56.9043 271.226 60.1557 274.798C60.9328 275.654 61.9183 276.415 62.0219 277.745C61.7478 278.023 61.4766 278.309 61.2025 278.587C59.7622 277.973 58.887 276.708 57.8762 275.594C45.3023 261.687 30.6083 250.99 12.7184 245.173C10.2234 244.365 7.71587 243.402 4.01986 243.684C12.1656 253.315 20.9626 261.181 29.8722 268.93C29.7164 269.093 29.5577 269.247 29.4048 269.405C23.6956 266.915 19.5559 262.33 15.1372 258.169C11.8713 255.094 8.41372 252.002 6.02032 248.242C1.72277 241.496 -4.65235 241.253 -11.4368 241.482C-11.6458 241.487 -11.8542 241.581 -12.0658 241.637C-12.4204 241.543 -12.5711 241.591 -12.2902 241.96C-6.30619 246.276 0.362867 249.612 5.64471 254.943C10.0682 259.41 13.2775 264.709 16.1336 270.153C15.1862 271.43 14.3914 271.018 13.5971 270.68C13.4655 269.033 12.5593 267.939 11.4094 266.862C8.12899 263.787 4.97541 260.565 1.75269 257.428C-1.1431 254.609 -3.44249 251.042 -7.51101 249.675C-10.6563 243.428 -15.8573 240.978 -22.6226 241.513C-27.2584 241.884 -31.897 242.292 -36.5204 242.802C-37.73 242.934 -39.1059 242.906 -40.5969 244.533C-30.1944 245.554 -21.3163 248.949 -14.8398 257.036C-20.2306 255.393 -25.4405 253.397 -30.437 250.696C-33.3195 249.142 -36.2204 246.934 -39.946 247.61C-47.608 243.738 -54.3977 247.512 -61.263 250.783C-63.1501 251.683 -64.8388 253.247 -67.2075 253.179C-66.9701 251.596 -65.7469 251.33 -64.8909 250.801C-60.3738 248.005 -55.6692 245.504 -50.5712 244.248C-44.74 242.813 -39.6457 239.956 -34.6555 236.657C-32.4669 235.211 -31.7469 232.775 -30.1526 230.959C-28.3124 230.473 -26.7565 229.521 -25.4795 228.043C-22.4928 224.598 -19.1611 221.596 -15.2156 219.315C-14.0268 218.625 -12.7283 217.824 -12.3574 216.245C-9.39015 215.922 -10.4346 217.464 -11.4814 218.621C-14.838 222.336 -18.399 225.821 -22.6498 228.507C-24.6508 229.768 -26.5142 231.249 -28.2745 232.964C-20.4884 230.816 -13.0933 227.329 -5.0306 226.792C-4.98705 227.287 -4.94638 227.787 -4.90284 228.281C-15.8986 230.497 -26.3771 234.312 -36.5989 239.33C-35.7558 241.053 -34.6742 240.394 -33.8476 240.289C-19.1023 238.49 -4.52247 238.663 9.84794 242.21C15.5566 243.619 21.4506 242.503 27.2666 242.422C28.291 244.876 30.6295 244.241 32.5031 244.497C39.3466 245.42 46.2541 244.39 53.1384 244.34C55.1322 244.327 57.1976 245.111 59.1762 243.987C61.141 244.953 60.8135 246.02 58.9351 246.42C49.7922 248.349 40.6403 250.703 31.5196 247.023C28.8459 245.945 26.0377 245.196 23.2498 244.434C21.9737 244.09 20.5906 243.836 18.7129 244.837C21.4956 246.196 23.8305 247.418 26.2371 248.488C32.6158 251.309 37.9807 255.969 44.4917 258.572C47.4184 259.747 50.5422 259.89 53.5534 260.617C54.1792 261.898 55.3048 262.304 56.6099 262.631C60.5515 263.635 64.6345 263.513 68.6453 263.95C70.6434 264.168 72.5377 265.974 74.7109 264.38L74.6936 264.387Z" fill="#6BA270"/>
<path d="M62.2255 279.068C62.4907 278.791 62.7644 278.511 63.0353 278.237C66.8487 277.053 70.6646 275.791 74.4711 277.859C75.3889 278.358 76.3126 278.875 77.1452 279.51C78.2687 280.362 79.2786 281.41 78.8033 283.036C78.3504 284.57 77.0474 285.403 75.6309 285.465C73.2022 285.569 71.7208 286.318 72.0326 289.135C72.072 289.512 71.7868 290.277 71.6062 290.301C68.6084 290.685 67.4788 293.735 65.249 294.994C63.1821 296.161 61.3771 294.518 60.3908 292.59C58.7256 289.331 58.8407 285.925 60.4387 282.54C60.9941 281.369 61.6242 280.233 62.2227 279.074L62.2255 279.068Z" fill="#EF7FA0"/>
<path d="M30.0369 269.504C30.1879 269.349 30.3474 269.19 30.4983 269.035C33.6118 267.51 36.6848 265.922 40.2654 266.912C42.3398 267.49 44.6969 267.917 45.0382 270.459C45.3646 272.9 43.4535 273.817 41.3964 274.24C41.1933 274.283 40.8247 274.453 40.8336 274.493C41.5517 278.303 37.3576 279.2 36.4486 282.007C35.3961 285.25 33.3542 285.82 31.0631 283.445C28.2792 280.552 27.7809 277.11 28.927 273.224C29.2922 271.979 30.2456 270.903 30.0398 269.498L30.0369 269.504Z" fill="#EF7FA0"/>
<path d="M-5.40143 228.846C-5.44161 228.351 -5.48462 227.862 -5.52763 227.374C-4.71105 222.665 -1.95234 219.759 2.46566 218.39C3.74635 217.992 5.04259 217.799 6.03073 218.925C6.97265 219.999 7.11468 221.23 6.28121 222.527C5.7123 223.415 5.32132 224.299 6.29058 225.137C7.44154 226.127 7.4888 227.35 6.82484 228.676C6.36513 229.587 6.72233 230.304 7.01998 231.147C8.15241 234.391 6.67892 236.191 3.27819 235.785C-0.995689 235.275 -3.81961 232.865 -5.40134 228.861L-5.40143 228.846Z" fill="#EF7FA0"/>
<path d="M-7.42948 249.403C-3.35419 250.773 -1.048 254.34 1.8498 257.17C5.07509 260.319 8.23686 263.541 11.5228 266.622C12.6746 267.7 13.5795 268.802 13.7142 270.446C2.47409 267.841 -3.73304 259.946 -7.42365 249.406L-7.42948 249.403Z" fill="#8AB696"/>
<path d="M59.1482 244.942C57.1696 246.065 55.1043 245.282 53.1105 245.295C46.2324 245.347 39.3252 246.377 32.4761 245.451C30.6084 245.198 28.27 245.833 27.2397 243.377C36.9043 241.384 46.5654 239.789 56.0738 243.326C57.1646 243.731 58.3185 244.017 59.1452 244.933L59.1482 244.942Z" fill="#8AB696"/>
<path d="M75.1908 265.295C73.0117 266.894 71.1121 265.082 69.1084 264.863C65.0865 264.425 60.9952 264.541 57.0398 263.54C55.734 263.205 54.6052 262.798 53.9748 261.52C61.5939 260.005 68.9335 259.924 75.188 265.301L75.1908 265.295Z" fill="#8AB696"/>
<path d="M74.2392 223.721C75.2536 222.307 76.9092 221.859 78.1907 222.085C79.8227 222.375 80.2279 224.054 79.7511 225.689C79.2307 227.457 78.0002 228.108 76.2597 227.65C74.2157 227.112 74.6276 225.227 74.2392 223.721Z" fill="#EF9AB3"/>
<path d="M49.6264 223.863C49.0009 225.11 48.3548 226.384 46.7752 226.065C45.3304 225.77 44.2312 224.972 44.5946 223.173C44.894 221.686 45.8086 220.788 47.3136 221.02C48.8278 221.253 49.6825 222.234 49.6264 223.863Z" fill="#EF9AB3"/>
<path d="M72.3611 247.972C72.9048 246.618 73.7882 245.662 75.2883 246.062C76.766 246.455 77.617 247.483 77.1665 249.181C76.7735 250.641 75.8792 251.564 74.3499 250.977C73.0904 250.491 71.738 249.867 72.3569 247.968L72.3611 247.972Z" fill="#EF9AB3"/>
<path d="M41.3429 100.734C24.4264 74.5889 19.8127 39.6013 51.3399 26.5291" stroke="#EF9AB3" stroke-linecap="round" stroke-linejoin="round" stroke-dasharray="8 8"/>
<path d="M79.7271 9.29225L71.2832 15.4115L68.6167 11.7853V15.4115L65.9502 20.171L72.8386 17.4513L82.1714 14.0517L92.1707 21.5308L89.5042 11.7853C93.6521 9.97217 101.237 5.89265 98.3926 4.07952C95.5483 2.2664 88.9117 4.83499 85.9489 6.34593L76.1718 0L79.7271 9.29225Z" fill="#FFC1D3"/>
</svg>
