<svg width="193" height="471" viewBox="0 0 193 471" fill="none" xmlns="http://www.w3.org/2000/svg">
<path d="M65.628 167.902C64.5096 165.003 64.5804 162.213 64.6864 159.463C64.8834 154.309 66.1114 149.609 69.6468 146.03C70.391 145.274 71.2543 144.642 72.2318 144.168C74.6792 142.973 77.6733 143.996 79.8872 146.694C80.2721 147.167 80.539 147.928 81.2796 147.866C81.9141 147.813 81.7504 147.112 81.8487 146.644C83.0909 140.539 85.2083 134.916 89.5284 130.522C92.1985 127.808 95.3027 125.593 99.2677 124.434C106.65 122.269 113.246 125.697 117.833 132.616C121.326 137.884 122.501 143.262 121.588 148.584C121.499 149.113 121.501 149.668 121.48 150.219C121.475 150.294 121.601 150.401 121.715 150.559C122.803 150.19 123.371 149.28 124.155 148.615C127.963 145.387 132.095 142.574 137.563 141.592C141.604 140.87 145.831 141.087 149.944 143.76C154.832 146.934 157.232 152.397 156.352 157.721C155.694 161.717 153.906 165.101 151.584 168.191C151.31 168.549 150.676 168.892 151.119 169.41C151.558 169.917 152.134 169.53 152.621 169.401C156.325 168.443 160.119 167.971 164.414 169.516C171.003 171.882 174.646 177.261 173.482 183.051C172.148 189.67 168.212 194.415 162.556 197.893C161.099 198.79 159.546 199.567 158.04 200.397C157.316 200.355 156.68 200.619 156.905 201.295C157.126 201.962 157.926 201.837 158.503 201.862C158.654 201.868 158.78 201.768 158.912 201.715C162.801 202.257 166.513 203.461 169.863 206.107C172.743 208.385 173.893 211.436 173.011 214.274C171.64 218.679 168.004 221.071 164.038 223.146C159.004 225.769 153.142 226.699 147.017 227.062C146.756 227.077 146.471 227.003 146.196 226.969C146.297 226.453 146.878 226.487 147.246 226.276C149.931 224.749 151.973 222.737 151.684 219.288C151.368 215.47 148.678 212.813 145.137 210.61C142.493 208.963 139.561 208.576 136.821 207.348C137.877 206.559 139.235 206.215 140.554 205.844C142.207 205.381 143.815 204.865 145.87 205.395C147.566 205.827 148.641 204.969 149.102 203.635C149.535 202.372 148.683 200.795 147.408 200.272C145.762 199.596 143.688 200.128 143.624 201.466C143.539 203.44 142.047 203.446 140.435 203.454C141.012 202.129 142.324 201.378 143.084 200.19C144.844 197.409 146.316 194.546 145.203 190.698C145.682 190.963 146.093 190.875 146.455 190.697C148.542 189.674 150.549 188.702 153.534 190.019C154.753 190.555 156.045 189.417 156.163 188.235C156.287 186.999 155.237 185.157 154.091 184.63C152.69 183.979 150.989 184.12 150.56 185.271C149.646 187.73 147.078 188.075 144.858 188.903C144.646 188.631 144.405 188.367 144.226 188.076C141.948 184.394 138.524 182.633 134.475 181.712C132.692 181.307 131.108 181.806 129.347 181.326C130.385 179.79 132.126 178.866 133.288 177.443C134.005 176.566 134.95 176.274 136.309 176.469C137.973 176.708 138.949 175.906 138.955 174.581C138.959 173.305 137.709 171.993 136.035 171.572C134.39 171.16 133.66 171.987 133.52 173.201C133.408 174.159 132.941 174.801 132.339 175.397C131.331 176.402 130.209 177.314 129.252 178.359C128.236 179.467 126.666 180.101 126.137 181.62L126.141 181.609C125.852 181.546 125.842 181.654 126.019 181.866C122.766 182.45 119.817 183.56 117.006 184.895C115.936 185.407 114.829 185.865 113.878 186.545C113.624 186.728 113.227 186.909 112.836 186.574C112.49 186.277 112.801 186.017 112.829 185.74C112.972 184.499 113.532 183.443 113.853 182.286C114.512 179.931 115.288 177.6 115.012 174.931C115.507 175.198 115.714 174.92 115.938 174.665C118.23 172.085 120.641 169.587 122.757 166.874C123.46 165.969 124.019 165.728 125.316 166.113C127.16 166.663 128.258 166.101 128.416 164.698C128.589 163.217 127.405 162.513 126.083 161.917C124.538 161.222 123.199 161.476 122.685 162.669C121.033 166.492 117.927 169.211 115.176 172.204C114.813 171.408 114.389 170.616 114.096 169.814C113.233 167.413 111.38 165.972 108.825 165.79C107.103 165.672 105.735 166.267 104.372 166.892C103.724 167.187 103.27 167.878 102.262 167.513C101.723 166.628 102.35 166.032 102.525 165.397C103.189 163.03 102.911 160.239 104.988 158.473C105.993 157.622 104.96 156.321 104.107 155.368C103.344 154.51 102.414 154.682 101.67 155.062C100.591 155.62 100.064 156.594 100.834 157.831C101.447 158.826 101.514 159.64 101.344 160.512C100.91 162.712 100.387 164.881 100.062 167.108C99.9491 167.882 99.1556 168.613 100.125 169.612C99.3823 170.22 98.5903 170.781 97.9129 171.437C96.7222 172.598 95.6063 173.825 94.4413 175.006C94.1892 175.268 93.9335 175.685 93.4102 175.404C93.0043 175.189 93.0294 174.734 93.0112 174.383C92.9682 173.616 92.9628 172.861 92.9599 172.099C92.9399 166.416 92.055 160.724 88.8103 155.079C85.2078 148.811 81.0261 147.467 76.2328 149.858C72.4856 151.731 69.9255 154.821 68.3116 158.613C67.0539 161.557 65.9771 164.559 65.6353 167.885L65.628 167.902Z" fill="#EF9AB3"/>
<path d="M64.0833 171.469C64.4206 168.186 65.4858 165.224 66.7303 162.318C68.3271 158.574 70.8542 155.52 74.571 153.673C79.3097 151.307 83.451 152.632 87.0272 158.82C90.2445 164.384 91.1203 170.006 91.142 175.615C91.1452 176.366 91.1577 177.115 91.1935 177.869C91.2117 178.215 91.18 178.661 91.5891 178.876C92.1142 179.156 92.3604 178.742 92.6099 178.483C93.7631 177.317 94.8677 176.105 96.0464 174.959C96.7193 174.306 97.5034 173.751 98.2364 173.156C99.0767 172.588 99.7825 171.895 100.345 171.081C101.343 171.44 101.792 170.758 102.434 170.467C103.783 169.849 105.14 169.255 106.842 169.377C109.373 169.555 111.208 170.977 112.064 173.345C112.351 174.143 112.774 174.918 113.134 175.703C112.71 176.511 113.005 177.494 112.972 178.395C113.247 181.029 112.479 183.33 111.827 185.654C111.51 186.796 110.955 187.839 110.814 189.063C110.787 189.337 110.479 189.594 110.822 189.887C111.209 190.217 111.605 190.032 111.854 189.857C112.795 189.186 113.884 188.73 114.95 188.227C117.736 186.902 120.656 185.806 123.874 185.233C123.917 185.15 123.959 185.067 124.002 184.983L123.99 184.991C125.165 185.23 126.203 185.042 127.179 184.697C128.916 185.166 130.491 184.676 132.257 185.075C136.259 185.979 139.65 187.715 141.915 191.352C142.092 191.638 142.333 191.893 142.54 192.167C142.214 192.737 142.822 193.347 142.876 193.935C143.979 197.732 142.523 200.558 140.78 203.303C140.026 204.482 138.734 205.228 138.158 206.526C136.564 207.188 135.318 208.272 133.908 209.16C133.535 209.391 132.71 209.449 133.069 210.094C133.4 210.682 134.066 210.334 134.584 210.386C137.291 211.592 140.193 211.973 142.82 213.601C146.326 215.773 148.991 218.394 149.306 222.162C149.59 225.572 147.572 227.552 144.913 229.061C144.549 229.269 143.973 229.235 143.873 229.745C143.726 229.776 143.581 229.8 143.434 229.83C135.256 231.971 126.592 230.969 117.657 227.814C110.953 225.447 104.411 222.581 98.3812 218.406C97.6594 217.906 97.0348 217.232 96.1592 216.984C95.8916 216.035 94.844 215.713 94.2335 215.025C91.0674 211.47 87.2892 208.564 83.2518 205.961C81.9934 205.147 81.2176 203.835 79.82 203.216C77.4568 200.517 74.8989 197.944 72.7939 195.067C67.2729 187.521 64.0576 179.716 64.097 171.497L64.0833 171.469ZM80.6336 188.251C79.8892 189.94 79.1378 191.625 79.0843 193.602C79.0725 194.184 78.8729 194.896 79.79 195.207C80.6837 195.514 80.6203 194.704 80.778 194.258C81.3658 192.602 81.8838 190.91 82.4645 189.25C82.8277 188.223 83.3072 187.24 83.6425 186.198C83.7839 185.752 83.7445 185.15 83.0468 184.838C82.3725 184.531 82.0242 184.886 81.8243 185.352C81.415 186.307 81.0336 187.277 80.6359 188.245L80.6336 188.251ZM76.7886 186.082C76.8645 185.651 76.938 185.226 77.0069 184.791C77.2981 182.872 77.5916 180.947 77.8688 179.021C77.9503 178.474 77.7372 177.988 77.0695 177.726C76.5554 177.521 76.1548 177.696 76.0674 178.114C75.5362 180.555 74.9888 182.996 74.844 185.564C74.819 186.055 75.0603 186.514 75.6445 186.713C76.3404 186.947 76.6282 186.575 76.7816 186.078L76.7886 186.082ZM90.4334 195.146C90.063 196.478 89.3158 197.374 89.2312 198.585C89.2044 198.999 89.2082 199.4 89.7827 199.643C90.2572 199.842 90.525 199.62 90.714 199.345C92.004 197.436 93.0432 195.378 93.7152 193.127C93.8664 192.615 93.8739 191.981 93.1089 191.628C92.4091 191.301 92.1392 191.773 91.9209 192.202C91.3826 193.246 90.8651 194.3 90.4334 195.146ZM102.371 198.642C102.467 197.997 103.162 197.495 102.306 196.914C101.424 196.312 101.005 196.961 100.619 197.409C99.3208 198.887 98.0388 200.387 96.7917 201.905C96.4735 202.29 96.0724 202.815 96.719 203.374C97.2775 203.861 97.7894 203.476 98.151 203.212C99.9049 201.937 101.218 200.299 102.376 198.651L102.371 198.642ZM83.3841 196.366C82.9312 198.084 82.6921 199.917 82.6277 201.797C82.6083 202.46 82.679 203.232 83.6152 203.476C84.5654 203.727 84.5094 202.879 84.5977 202.356C84.8895 200.641 85.0835 198.896 85.3474 197.167C85.4436 196.543 85.7729 195.947 84.6795 195.511C83.6512 195.101 83.7216 195.914 83.3865 196.36L83.3841 196.366ZM90.964 208.706C91.1178 208.742 91.2853 208.806 91.4416 208.815C94.0142 209.035 96.3492 208.624 98.5769 207.919C98.9349 207.806 99.1798 207.538 98.9732 207.118C98.7391 206.642 98.2617 206.512 97.8227 206.534C95.4806 206.676 93.1476 206.837 90.8216 207.001C90.3265 207.037 90.1301 207.372 90.1848 207.813C90.2377 208.197 90.5808 208.469 90.9664 208.7L90.964 208.706ZM116.104 221.749C116.082 221.556 116.108 221.205 116.001 220.871C115.885 220.517 115.558 220.555 115.322 220.638C113.392 221.354 111.225 221.255 109.016 221.052C108.506 221.003 107.856 221.086 107.956 221.767C108.042 222.379 108.59 222.706 109.186 222.813C111.256 223.191 113.262 223.291 115.074 222.677C115.504 222.531 115.887 222.319 116.111 221.753L116.104 221.749ZM101.619 218.032C103.545 218.617 105.534 218.534 107.53 218.496C108.038 218.489 108.557 218.416 108.373 217.776C108.219 217.228 107.698 216.999 107.169 216.933C105.285 216.698 103.406 216.494 101.519 216.265C100.997 216.203 100.688 216.361 100.621 216.811C100.542 217.352 100.926 217.687 101.612 218.028L101.619 218.032ZM103.613 212.584C103.503 212.564 103.387 212.54 103.282 212.528C101.187 212.334 99.0909 212.124 96.9988 211.945C96.5673 211.908 96.3018 212.124 96.3171 212.538C96.3313 213.077 96.7223 213.5 97.2558 213.617C99.4343 214.078 101.578 214.256 103.6 213.867C103.929 213.803 104.111 213.608 104.051 213.241C104.009 212.975 103.931 212.732 103.615 212.579L103.613 212.584Z" fill="#EF7FA0"/>
<path d="M76.7535 210.027C78.1845 210.666 78.9828 212.028 80.2663 212.858C84.3995 215.545 88.267 218.542 91.5069 222.208C92.1317 222.918 93.2116 223.254 93.4779 224.228C90.1007 224.42 86.7063 223.325 83.3433 222.195C82.0443 221.761 81.0068 221.765 80.0477 222.357C70.673 228.128 60.2839 232.391 49.3166 235.809C48.9882 235.916 48.5367 235.879 48.3043 236.742C49.9413 236.266 51.4816 236.448 52.9699 236.293C60.5956 235.511 67.8518 233.796 75.4659 232.979C81.7853 232.308 88.1534 231.813 94.8357 232.534C96.7559 232.737 98.6949 232.979 100.582 233.981C102.866 235.193 103.789 236.966 102.981 238.877C101.692 241.921 98.7935 243.369 95.6756 244.509C90.6773 246.34 85.0902 246.657 79.368 246.565C66.6855 246.369 53.8576 244.777 40.9778 240.97C37.0652 239.812 33.8859 239.795 30.6497 240.802C28.3676 241.504 25.9821 242.016 23.6388 242.614C22.9918 242.781 22.2492 243.224 21.6368 242.463C20.9724 241.639 21.4557 240.796 22.0656 240.487C23.9365 239.524 24.4767 237.657 25.4209 236.046C27.3971 232.653 28.7167 228.903 30.2194 225.253C32.8559 218.855 35.2735 212.338 38.7212 206.385C41.0447 202.375 43.3849 198.368 46.8439 195.171C47.9575 194.138 49.1183 193.18 50.7711 192.813C53.449 192.22 56.1352 193.653 57.2777 196.346C58.521 199.279 58.229 201.996 57.77 204.678C56.6197 211.432 53.3953 217.009 49.0581 221.908C44.5737 226.977 39.6814 231.671 34.2152 235.848C33.9263 236.068 33.2191 236.298 33.6207 236.836C34.0672 237.432 34.6807 236.988 35.0785 236.882C41.2104 235.255 47.2601 233.471 53.152 231.419C62.1948 228.272 70.5128 224.111 78.5241 219.497C79.812 218.756 79.9387 217.961 78.8894 216.601C78.2017 215.708 77.6078 214.754 77.0857 213.793C76.3778 212.485 76.0738 211.181 76.7392 210.02L76.7535 210.027Z" fill="#6BB194"/>
<path d="M155.279 199.76C155.146 199.813 155.012 199.91 154.867 199.907C154.293 199.886 153.483 200.002 153.259 199.336C153.032 198.654 153.673 198.388 154.401 198.43C154.481 198.966 154.843 199.38 155.277 199.766L155.279 199.76Z" fill="#FFC1D3"/>
<path d="M114.985 175.258C115.033 174.284 114.708 173.218 115.166 172.354C118.12 169.176 121.455 166.289 123.232 162.224C123.786 160.955 125.221 160.687 126.876 161.432C128.285 162.065 129.553 162.817 129.372 164.397C129.198 165.897 128.022 166.486 126.047 165.896C124.657 165.483 124.058 165.738 123.302 166.7C121.029 169.583 118.44 172.236 115.978 174.977C115.738 175.248 115.515 175.543 114.985 175.258Z" fill="#FFC1D3"/>
<path d="M132.84 207.608C132.301 207.552 131.609 207.915 131.265 207.299C130.893 206.624 131.747 206.571 132.138 206.324C133.606 205.397 134.903 204.265 136.562 203.576C138.22 203.575 139.757 203.571 139.849 201.528C139.908 200.143 142.049 199.605 143.746 200.299C145.067 200.844 145.938 202.464 145.488 203.773C145.017 205.16 143.902 206.04 142.158 205.586C140.039 205.043 138.386 205.567 136.682 206.043C135.324 206.425 133.925 206.778 132.838 207.592L132.84 207.608Z" fill="#FFC1D3"/>
<path d="M128.504 180.768C127.459 181.14 126.358 181.342 125.1 181.074C125.662 179.473 127.33 178.812 128.398 177.642C129.411 176.541 130.599 175.582 131.666 174.524C132.303 173.897 132.8 173.215 132.918 172.211C133.067 170.931 133.848 170.064 135.578 170.499C137.348 170.946 138.669 172.326 138.661 173.678C138.659 175.078 137.627 175.922 135.861 175.663C134.425 175.454 133.425 175.76 132.666 176.683C131.435 178.182 129.597 179.146 128.494 180.77L128.504 180.768Z" fill="#FFC1D3"/>
<path d="M142.989 188.648C142.934 188.036 142.302 187.406 142.643 186.808C144.925 185.964 147.554 185.612 148.492 183.088C148.933 181.906 150.674 181.763 152.109 182.433C153.275 182.972 154.356 184.868 154.228 186.137C154.101 187.341 152.782 188.518 151.535 187.966C148.482 186.606 146.416 187.604 144.285 188.656C143.914 188.837 143.493 188.928 143.003 188.655L142.989 188.648Z" fill="#FFC1D3"/>
<path d="M103.831 169.854C103.204 170.744 102.418 171.499 101.482 172.119C100.426 171.04 101.29 170.255 101.419 169.413C101.785 167.001 102.366 164.659 102.845 162.289C103.037 161.341 102.967 160.46 102.291 159.39C101.455 158.054 102.037 157.003 103.219 156.4C104.037 155.991 105.061 155.809 105.899 156.738C106.832 157.777 107.968 159.18 106.861 160.097C104.571 161.999 104.873 165.009 104.134 167.571C103.937 168.263 103.24 168.895 103.839 169.858L103.831 169.854Z" fill="#FFC1D3"/>
<path d="M125.118 182.029C125.072 182.117 125.027 182.205 124.982 182.293C124.793 182.07 124.803 181.957 125.118 182.029Z" fill="#FFC1D3"/>
<path d="M81.1802 190.802C81.6396 189.732 82.0909 188.658 82.5611 187.586C82.7852 187.064 83.1962 186.674 83.9724 187.019C84.7646 187.373 84.8158 188.047 84.6539 188.537C84.2635 189.695 83.7097 190.781 83.2844 191.93C82.6086 193.775 82.0051 195.657 81.3213 197.498C81.1378 197.994 81.1998 198.892 80.1787 198.55C79.1255 198.193 79.3555 197.408 79.3713 196.759C79.4405 194.558 80.3049 192.681 81.1775 190.808L81.1802 190.802Z" fill="#C7386C"/>
<path d="M78.3552 189.071C78.184 189.613 77.8646 190.019 77.0954 189.76C76.4497 189.541 76.1813 189.045 76.213 188.502C76.3726 185.693 76.985 183.029 77.5871 180.368C77.6877 179.905 78.1286 179.722 78.6968 179.947C79.427 180.232 79.6691 180.768 79.5774 181.366C79.2654 183.469 78.9354 185.571 78.608 187.666C78.5332 188.134 78.448 188.604 78.3629 189.075L78.3552 189.071Z" fill="#C7386C"/>
<path d="M90.2387 197.1C90.7266 196.16 91.329 194.997 91.9472 193.842C92.1979 193.367 92.5157 192.849 93.3055 193.211C94.1748 193.613 94.1667 194.309 93.9922 194.876C93.2172 197.369 92.0236 199.647 90.5443 201.758C90.3276 202.063 90.0289 202.311 89.48 202.085C88.825 201.813 88.8142 201.364 88.8542 200.909C88.9551 199.566 89.8112 198.576 90.2387 197.1Z" fill="#C7386C"/>
<path d="M102.062 199.964C100.792 201.744 99.3459 203.526 97.4206 204.905C97.0237 205.192 96.4617 205.608 95.8509 205.077C95.1438 204.467 95.5923 203.902 95.9344 203.48C97.3049 201.835 98.7135 200.21 100.14 198.608C100.569 198.132 101.025 197.418 101.99 198.075C102.924 198.717 102.164 199.253 102.057 199.954L102.062 199.964Z" fill="#C7386C"/>
<path d="M82.8667 199.377C83.2361 198.893 83.1609 198.007 84.2898 198.457C85.4902 198.935 85.1268 199.583 85.0195 200.262C84.7199 202.133 84.4996 204.037 84.1821 205.908C84.0836 206.476 84.143 207.4 83.0995 207.123C82.0712 206.854 81.9955 206.014 82.0186 205.293C82.0943 203.247 82.3619 201.252 82.864 199.384L82.8667 199.377Z" fill="#C7386C"/>
<path d="M89.4956 211.467C89.1056 211.232 88.7584 210.955 88.7051 210.565C88.6499 210.117 88.8488 209.777 89.3498 209.741C91.706 209.569 94.0714 209.417 96.4344 209.27C96.8881 209.245 97.3641 209.374 97.5984 209.864C97.8073 210.291 97.5593 210.563 97.197 210.677C94.9425 211.392 92.5795 211.809 89.9764 211.584C89.8112 211.571 89.6417 211.505 89.4932 211.472L89.4956 211.467Z" fill="#C7386C"/>
<path d="M113.083 223.644C112.854 224.226 112.466 224.442 112.032 224.584C110.196 225.208 108.155 225.101 106.065 224.718C105.469 224.607 104.912 224.279 104.818 223.653C104.72 222.954 105.376 222.875 105.893 222.926C108.141 223.132 110.336 223.24 112.284 222.508C112.524 222.424 112.855 222.386 112.973 222.746C113.086 223.096 113.061 223.447 113.076 223.641L113.083 223.644Z" fill="#C7386C"/>
<path d="M99.043 220.466C98.3601 220.127 97.9747 219.8 98.0557 219.256C98.1221 218.809 98.4325 218.646 98.9502 218.714C100.828 218.941 102.7 219.144 104.576 219.376C105.103 219.441 105.621 219.669 105.775 220.214C105.951 220.846 105.435 220.918 104.935 220.93C102.948 220.968 100.967 221.051 99.0499 220.47L99.043 220.466Z" fill="#C7386C"/>
<path d="M101.551 215.144C101.869 215.291 101.937 215.536 101.986 215.806C102.046 216.172 101.865 216.367 101.536 216.431C99.5146 216.82 97.3745 216.637 95.1947 216.181C94.6614 216.065 94.2706 215.642 94.2564 215.103C94.248 214.693 94.5134 214.477 94.9377 214.511C97.0288 214.69 99.1267 214.893 101.218 215.093C101.33 215.108 101.439 215.129 101.548 215.149L101.551 215.144Z" fill="#C7386C"/>
<path d="M65.8102 144.737C67.9662 144.416 69.7623 143.327 71.5245 142.228C74.8265 140.17 77.5827 137.58 79.0507 133.837C79.3618 133.048 79.5629 132.224 79.6339 131.382C79.8161 129.27 78.4244 127.614 76.1332 127.114C75.7322 127.028 75.1728 127.131 75.0336 126.603C74.9139 126.152 75.4094 126.001 75.6899 125.76C79.3562 122.635 82.497 119.095 84.3037 114.514C85.4195 111.683 86.106 108.743 85.8967 105.611C85.5114 99.7779 81.6819 96.5671 76.0712 96.0275C71.7993 95.616 68.0185 96.8236 64.7813 99.4314C64.4588 99.6899 64.0975 99.8955 63.745 100.115C63.6974 100.147 63.5971 100.101 63.4669 100.082C63.4425 99.2043 63.8959 98.4775 64.1382 97.6957C65.3112 93.8987 66.1366 90.0355 65.4476 85.9471C64.936 82.9263 63.7688 80.13 61.0327 78.3274C57.7831 76.1853 53.6496 76.5907 50.4027 79.177C47.9657 81.1168 46.1998 83.5968 44.755 86.3311C44.5893 86.6511 44.5199 87.2114 44.076 87.1026C43.6395 86.9935 43.7517 86.4566 43.7169 86.0774C43.4405 83.1982 42.8263 80.4392 40.7796 78.0916C37.6421 74.4895 33.261 74.0177 29.7806 76.9715C25.8022 80.3504 23.6738 84.8015 22.7865 89.9498C22.5572 91.2767 22.429 92.6239 22.2554 93.9589C22.4585 94.4354 22.4408 94.9675 21.9469 95.0664C21.4602 95.165 21.3469 94.5738 21.1908 94.1901C21.1503 94.0896 21.1843 93.967 21.1867 93.857C19.8902 91.4117 18.2065 89.3346 15.6734 88.0416C13.4936 86.9316 11.2317 87.2873 9.60144 88.9471C7.0708 91.5254 6.39896 94.8935 6.01331 98.3675C5.53005 102.773 6.34916 107.111 7.59999 111.416C7.65338 111.6 7.77065 111.766 7.85961 111.941C8.1708 111.679 8.00742 111.296 8.05504 110.967C8.39566 108.569 9.20765 106.428 11.5195 105.337C14.078 104.127 16.4582 104.967 18.7497 106.554C20.4622 107.74 21.4255 109.591 22.8883 110.998C23.1451 109.985 23.039 108.932 22.9603 107.896C22.8598 106.597 22.8045 105.31 21.961 104.109C21.2688 103.116 21.5653 102.064 22.3202 101.252C23.0363 100.486 24.2683 100.476 24.9176 101.15C25.757 102.018 25.9142 103.629 25.0598 104.171C23.798 104.966 24.1564 105.984 24.5422 107.084C25.2632 106.197 25.4327 105.024 26.021 104.063C27.4005 101.826 28.9045 99.7555 31.6757 99.0766C31.387 98.8498 31.3449 98.537 31.3723 98.2243C31.5304 96.4213 31.6747 94.6923 30.0947 93.1519C29.4502 92.5224 29.876 91.2183 30.6156 90.6964C31.3891 90.1507 32.8411 90.1777 33.4621 90.7607C34.2254 91.4719 34.5466 92.6822 33.9025 93.4043C32.526 94.9447 32.925 96.8212 32.9263 98.6416C33.1542 98.6846 33.3847 98.7496 33.6167 98.7632C36.5635 98.9395 38.5389 100.613 40.1207 103.025C40.817 104.088 40.8771 105.352 41.6163 106.372C42.363 105.092 42.5405 103.562 43.1837 102.24C43.5797 101.424 43.5399 100.672 43.0829 99.8201C42.5241 98.776 42.8084 97.8125 43.6677 97.3137C44.4962 96.8347 45.6524 97.1958 46.3325 98.1787C46.9996 99.1439 46.6393 99.9501 45.8843 100.499C45.2886 100.932 44.9847 101.49 44.744 102.122C44.3351 103.183 44.0153 104.288 43.5676 105.329C43.0941 106.434 43.0637 107.74 42.2045 108.667L42.211 108.66C42.3218 108.833 42.2539 108.881 42.0736 108.839C42.4832 111.272 42.4781 113.693 42.2927 116.106C42.2194 117.025 42.1905 117.95 41.9797 118.851C41.9223 119.092 41.9014 119.43 42.2135 119.571C42.4908 119.696 42.5845 119.387 42.7575 119.264C43.5294 118.704 44.0798 117.928 44.7539 117.278C46.1247 115.95 47.451 114.552 49.2528 113.744C48.9593 113.506 49.0894 113.261 49.2009 113.014C50.3217 110.49 51.3599 107.916 52.6092 105.463C53.027 104.647 53.0479 104.177 52.4826 103.437C51.678 102.387 51.7764 101.43 52.6502 100.799C53.5709 100.128 54.3155 100.672 55.0239 101.349C55.8511 102.141 56.0106 103.147 55.36 103.943C53.2764 106.495 52.2633 109.624 50.9859 112.613C51.5914 112.563 52.209 112.557 52.8016 112.457C54.5712 112.148 55.9578 112.871 56.6963 114.543C57.1913 115.671 57.1366 116.824 57.0609 117.986C57.0271 118.537 56.6876 119.104 57.1696 119.654C57.8762 119.69 58.1113 119.041 58.4815 118.684C59.8587 117.349 61.7398 116.497 62.3836 114.423C62.693 113.422 63.7893 113.64 64.6156 113.864C65.3586 114.063 65.4728 114.761 65.4058 115.409C65.3058 116.352 64.8007 117.074 63.8095 117.012C63.014 116.965 62.4684 117.224 61.943 117.666C60.6182 118.782 59.3355 119.948 57.967 121C57.4917 121.366 57.209 122.179 56.3245 121.892C56.1096 122.624 55.9368 123.373 55.675 124.079C55.2096 125.323 54.6828 126.541 54.198 127.775C54.0889 128.044 53.8804 128.374 54.1901 128.625C54.4278 128.821 54.718 128.634 54.95 128.516C55.4593 128.259 55.9515 127.98 56.4471 127.698C60.146 125.59 64.0601 124.068 68.517 124.169C73.4655 124.282 75.3546 126.627 74.9642 130.782C74.6561 134.033 73.2695 136.929 71.1964 139.443C69.5881 141.398 67.8989 143.252 65.8199 144.726L65.8102 144.737Z" fill="#EF9AB3"/>
<path d="M65.0947 145.116C67.167 143.646 68.8508 141.799 70.454 139.85C72.5204 137.343 73.9066 134.46 74.2095 131.217C74.6025 127.078 72.7194 124.741 67.7826 124.625C63.3431 124.521 59.4382 126.042 55.7511 128.143C55.2572 128.425 54.7624 128.699 54.2588 128.959C54.0276 129.077 53.7424 129.267 53.5014 129.067C53.1886 128.814 53.4005 128.489 53.5092 128.22C53.9924 126.99 54.5175 125.776 54.9814 124.536C55.2455 123.829 55.4178 123.082 55.6287 122.356C55.7961 121.566 56.078 120.821 56.4751 120.128C55.9947 119.58 56.333 119.015 56.3667 118.466C56.4422 117.308 56.4999 116.155 56.0032 115.034C55.267 113.368 53.8847 112.647 52.1208 112.955C51.5269 113.058 50.9144 113.061 50.3108 113.111C49.8847 113.706 49.1667 113.875 48.5833 114.238C46.7873 115.043 45.4652 116.437 44.0988 117.761C43.4268 118.409 42.8783 119.182 42.1088 119.741C41.9364 119.863 41.843 120.171 41.5665 120.047C41.2554 119.906 41.2795 119.565 41.3334 119.328C41.5435 118.43 41.5763 117.512 41.6454 116.592C41.8334 114.184 41.8384 111.77 41.4268 109.349C41.4711 109.288 41.5154 109.228 41.5597 109.167L41.5573 109.178C41.1131 108.464 40.9823 107.682 40.97 106.883C40.2372 105.87 40.1732 104.606 39.4791 103.547C37.9062 101.146 35.9371 99.478 32.9956 99.2989C32.7643 99.2853 32.5378 99.2168 32.3073 99.1777C32.0133 99.6165 31.4637 99.4297 31.0648 99.6148C28.3024 100.292 26.8033 102.356 25.4282 104.585C24.8386 105.547 24.6656 106.713 23.9543 107.597C23.9103 108.939 23.5036 110.202 23.2654 111.503C23.2051 111.846 23.3688 112.432 22.8579 112.43C22.3905 112.425 22.4564 111.837 22.2952 111.502C20.841 110.103 19.8808 108.258 18.1696 107.073C15.8853 105.491 13.5126 104.654 10.9624 105.86C8.65466 106.952 7.84854 109.082 7.50907 111.473C7.46162 111.8 7.6245 112.182 7.31431 112.443C7.33045 112.555 7.34981 112.664 7.36596 112.776C7.96234 119.185 10.74 124.744 14.9979 129.674C18.1925 133.374 21.6747 136.774 25.8909 139.329C26.3954 139.635 26.991 139.809 27.3683 140.315C28.0565 140.14 28.524 140.736 29.1252 140.895C32.2337 141.723 35.0659 143.214 37.7628 144.998C38.6051 145.553 39.656 145.59 40.404 146.314C42.7541 146.914 45.0695 147.695 47.4727 148.052C53.7773 148.987 59.6873 148.245 65.0729 145.117L65.0947 145.116ZM50.0285 140.11C49.102 141.257 48.1796 142.408 46.8953 143.19C46.5158 143.418 46.0976 143.823 45.6688 143.312C45.2488 142.816 45.7959 142.554 46.0497 142.278C46.9931 141.25 47.9768 140.257 48.9242 139.233C49.5099 138.596 50.0376 137.897 50.6394 137.274C50.898 137.009 51.3025 136.809 51.6782 137.169C52.0449 137.515 51.8967 137.888 51.6397 138.2C51.1129 138.841 50.5699 139.468 50.0317 140.106L50.0285 140.11ZM52.3934 141.925C52.6576 141.711 52.9187 141.5 53.187 141.289C54.3754 140.365 55.5671 139.438 56.7635 138.522C57.1027 138.259 57.4742 138.222 57.8096 138.58C58.0699 138.855 58.0531 139.196 57.8001 139.413C56.3273 140.698 54.8594 141.994 53.2092 143.062C52.8926 143.265 52.5323 143.273 52.2591 142.947C51.935 142.559 52.109 142.221 52.3974 141.929L52.3934 141.925ZM43.1042 135.998C42.3203 136.754 41.9152 137.604 41.1409 138.119C40.8758 138.294 40.6115 138.442 40.3116 138.14C40.065 137.89 40.1447 137.623 40.2792 137.39C41.2168 135.786 42.3132 134.298 43.6264 132.988C43.9253 132.691 44.3395 132.447 44.7587 132.838C45.1448 133.194 44.9007 133.557 44.6727 133.868C44.1192 134.631 43.5537 135.383 43.1042 135.998ZM37.8877 129.139C38.2873 128.83 38.4467 128.164 39.0383 128.532C39.6492 128.909 39.3254 129.44 39.1257 129.874C38.4733 131.321 37.8024 132.765 37.1113 134.192C36.9365 134.556 36.69 135.028 36.1646 134.797C35.7084 134.598 35.8356 134.102 35.9209 133.754C36.3283 132.072 37.0822 130.554 37.8804 129.139L37.8877 129.139ZM44.0283 141.287C43.0115 142.246 41.8666 143.101 40.6483 143.855C40.2181 144.118 39.6943 144.361 39.3049 143.812C38.9075 143.255 39.478 142.974 39.7995 142.716C40.8541 141.869 41.9515 141.078 43.0223 140.245C43.4082 139.943 43.7192 139.493 44.273 140.077C44.7937 140.627 44.2425 140.886 44.0315 141.284L44.0283 141.287ZM34.0733 140.751C34.012 140.659 33.9289 140.568 33.8846 140.465C33.1105 138.785 32.8095 137.03 32.7268 135.238C32.7131 134.951 32.829 134.682 33.1554 134.665C33.5253 134.645 33.7276 134.923 33.8204 135.233C34.3003 136.891 34.7657 138.55 35.2271 140.205C35.3247 140.558 35.1531 140.819 34.8502 140.947C34.5851 141.056 34.3223 140.924 34.0765 140.747L34.0733 140.751ZM19.3589 128.45C19.4911 128.392 19.7151 128.241 19.9608 128.188C20.2211 128.135 20.2768 128.373 20.2801 128.566C20.2821 130.158 20.8772 131.606 21.5513 133.042C21.7085 133.373 21.8126 133.85 21.3412 134.038C20.919 134.21 20.57 133.958 20.3539 133.59C19.5993 132.315 19.0421 130.978 19.0022 129.505C18.9924 129.155 19.0383 128.813 19.3549 128.446L19.3589 128.45ZM25.3439 136.97C24.4886 135.872 24.0563 134.478 23.5926 133.096C23.4732 132.745 23.3941 132.362 23.8591 132.246C24.2563 132.145 24.5344 132.415 24.707 132.753C25.3222 133.955 25.9164 135.166 26.5284 136.372C26.6969 136.706 26.6688 136.978 26.39 137.193C26.054 137.451 25.7397 137.314 25.3479 136.973L25.3439 136.97ZM28.4319 133.549C28.4722 133.616 28.5166 133.687 28.5496 133.754C29.1898 135.116 29.8405 136.473 30.4703 137.838C30.6001 138.12 30.5236 138.383 30.248 138.529C29.8903 138.723 29.5171 138.615 29.3099 138.293C28.4739 136.975 27.8329 135.573 27.5931 134.042C27.5544 133.792 27.6381 133.594 27.8936 133.497C28.0789 133.425 28.257 133.386 28.4351 133.545L28.4319 133.549Z" fill="#EF7FA0"/>
<path d="M39.0893 146.988C38.3357 146.258 37.2697 146.221 36.4284 145.662C33.7114 143.865 30.8581 142.361 27.7264 141.527C27.1206 141.367 26.6456 140.763 25.9563 140.942C26.6436 143.29 28.1614 145.175 29.6938 147.027C30.2842 147.743 30.5312 148.444 30.3811 149.308C28.9245 157.756 28.6801 166.332 29.1168 174.986C29.1274 175.246 29.259 175.538 28.7606 176.012C28.6735 174.733 28.187 173.762 27.9294 172.701C26.6017 167.271 25.9617 161.746 24.6592 156.311C23.5737 151.803 22.3631 147.327 20.2968 143.086C19.7055 141.867 19.085 140.648 17.9887 139.745C16.6618 138.652 15.3019 138.682 14.2686 139.931C12.6232 141.922 12.389 144.409 12.4049 146.932C12.4284 150.977 13.5658 154.861 14.9979 158.685C18.1675 167.165 22.2684 175.228 27.8037 182.51C29.4864 184.721 30.2606 186.859 30.3901 189.412C30.4871 191.209 30.731 193.006 30.9091 194.807C30.9571 195.305 30.8509 195.969 31.4867 196.101C32.1752 196.246 32.6005 195.609 32.6524 195.084C32.8218 193.468 33.8917 192.416 34.6993 191.186C36.4039 188.603 38.4957 186.332 40.4788 183.974C43.9547 179.839 47.5597 175.808 50.5556 171.29C52.5727 168.246 54.5848 165.192 55.8078 161.682C56.2038 160.55 56.5405 159.415 56.3795 158.165C56.1177 156.141 54.5529 154.858 52.5491 155.079C50.3676 155.321 48.6928 156.519 47.0806 157.817C43.0192 161.081 40.2115 165.31 38.1063 170.039C35.9272 174.93 34.0867 179.958 32.7163 185.183C32.6441 185.459 32.6661 186.02 32.2244 185.948C31.734 185.866 31.872 185.289 31.8451 184.981C31.418 180.248 31.1118 175.511 31.016 170.782C30.8668 163.525 31.5427 156.384 32.583 149.282C32.7501 148.141 33.2299 147.763 34.3552 147.969C35.0941 148.104 35.8492 148.153 36.5913 148.151C37.6013 148.146 38.5114 147.871 39.0974 146.994L39.0893 146.988Z" fill="#6BB194"/>
<path d="M21.5673 94.6924C21.5649 94.8027 21.5349 94.929 21.5714 95.0262C21.7238 95.4073 21.8446 95.9993 22.329 95.9044C22.824 95.8052 22.8417 95.2721 22.6382 94.7946C22.2729 94.9384 21.9181 94.8467 21.564 94.6963L21.5673 94.6924Z" fill="#FFC1D3"/>
<path d="M49.2158 113.764C49.8112 113.386 50.5491 113.218 50.9814 112.614C52.2832 109.573 53.3158 106.389 55.4387 103.794C56.1016 102.985 55.9393 101.961 55.0968 101.155C54.3795 100.469 53.621 99.9156 52.6789 100.594C51.7854 101.24 51.6883 102.21 52.5077 103.279C53.0834 104.031 53.062 104.509 52.6363 105.34C51.3633 107.836 50.3052 110.454 49.1631 113.021C49.0494 113.273 48.9169 113.522 49.2158 113.764Z" fill="#FFC1D3"/>
<path d="M22.8482 111.914C23.0114 112.253 22.9446 112.847 23.4175 112.852C23.9345 112.855 23.7656 112.265 23.83 111.915C24.0712 110.599 24.4828 109.322 24.5275 107.964C24.1351 106.858 23.7737 105.831 25.0497 105.026C25.9156 104.483 25.7499 102.859 24.9066 101.979C24.2476 101.297 23.0123 101.306 22.2866 102.082C21.5178 102.901 21.2228 103.965 21.9242 104.963C22.7716 106.179 22.8305 107.472 22.9318 108.782C23.011 109.826 23.118 110.888 22.8588 111.91L22.8482 111.914Z" fill="#FFC1D3"/>
<path d="M41.7391 106.576C41.7482 107.393 41.8772 108.185 42.3369 108.912C43.2094 107.971 43.2364 106.643 43.7215 105.526C44.1761 104.469 44.5011 103.349 44.9164 102.272C45.1609 101.631 45.4728 101.061 46.0745 100.625C46.8411 100.069 47.2031 99.2475 46.5299 98.2717C45.8394 97.2744 44.6689 96.9039 43.8242 97.3935C42.9476 97.896 42.6587 98.8733 43.2301 99.9362C43.694 100.8 43.7343 101.564 43.3321 102.391C42.6788 103.733 42.5016 105.28 41.74 106.583L41.7391 106.576Z" fill="#FFC1D3"/>
<path d="M32.0945 99.5867C32.4974 99.3999 33.0495 99.5925 33.3498 99.1454C33.3447 97.3091 32.943 95.4195 34.3292 93.8687C34.978 93.1416 34.6546 91.9229 33.8859 91.2068C33.2646 90.6232 31.7983 90.5923 31.0193 91.1417C30.2817 91.6668 29.8455 92.9802 30.4945 93.6141C32.0889 95.1614 31.9442 96.9097 31.7809 98.7216C31.7532 99.0365 31.7956 99.3515 32.0863 99.5798L32.0945 99.5867Z" fill="#FFC1D3"/>
<path d="M56.7049 119.354C56.2967 120.064 56.0069 120.828 55.8346 121.638C56.7364 121.928 57.0271 121.105 57.5173 120.727C58.9226 119.648 60.2368 118.457 61.5908 117.32C62.1324 116.865 62.6913 116.6 63.5029 116.652C64.514 116.712 65.0316 115.974 65.1384 115.014C65.2071 114.351 65.0903 113.638 64.3293 113.434C63.4797 113.208 62.3601 112.982 62.0429 114.005C61.3829 116.125 59.4592 116.991 58.0448 118.36C57.6622 118.728 57.4287 119.391 56.7008 119.35L56.7049 119.354Z" fill="#FFC1D3"/>
<path d="M42.1233 108.9C42.0782 108.962 42.0331 109.023 41.9881 109.085C42.1716 109.128 42.2405 109.08 42.1233 108.9Z" fill="#FFC1D3"/>
<path d="M49.5451 139.951C50.0988 139.297 50.6566 138.648 51.2094 137.987C51.4796 137.668 51.6288 137.28 51.2495 136.923C50.8618 136.559 50.4391 136.761 50.1748 137.031C49.5519 137.673 49.0091 138.39 48.3996 139.05C47.4191 140.105 46.401 141.129 45.4247 142.188C45.162 142.473 44.6001 142.747 45.0302 143.255C45.4771 143.778 45.9065 143.365 46.2992 143.13C47.6282 142.324 48.5871 141.141 49.5418 139.955L49.5451 139.951Z" fill="#C7386C"/>
<path d="M51.8209 141.591C51.5247 141.89 51.346 142.236 51.6786 142.634C51.9591 142.968 52.3256 142.964 52.6541 142.752C54.3526 141.662 55.86 140.334 57.3683 139.015C57.6314 138.788 57.6454 138.443 57.3782 138.161C57.0381 137.797 56.6526 137.832 56.3043 138.1C55.0757 139.039 53.852 139.989 52.6317 140.935C52.3595 141.147 52.0881 141.367 51.8168 141.587L51.8209 141.591Z" fill="#C7386C"/>
<path d="M42.737 136.023C43.2056 135.393 43.7858 134.615 44.3576 133.83C44.5932 133.51 44.8412 133.132 44.4467 132.769C44.0106 132.37 43.5861 132.618 43.2773 132.923C41.9205 134.271 40.7877 135.804 39.8188 137.455C39.6798 137.696 39.5932 137.967 39.8521 138.228C40.1617 138.539 40.4388 138.39 40.7085 138.207C41.5084 137.677 41.9271 136.802 42.737 136.023Z" fill="#C7386C"/>
<path d="M37.6163 129.217C36.8014 130.66 36.0252 132.217 35.6075 133.938C35.5199 134.293 35.3895 134.801 35.8569 135.004C36.3952 135.242 36.6438 134.754 36.8271 134.386C37.5355 132.927 38.2233 131.45 38.8921 129.97C39.0894 129.526 39.4288 128.982 38.8029 128.596C38.1935 128.224 38.0333 128.901 37.6237 129.217L37.6163 129.217Z" fill="#C7386C"/>
<path d="M43.4509 141.376C43.6673 140.968 44.2325 140.704 43.6987 140.141C43.1311 139.542 42.8122 140.004 42.4164 140.312C41.3258 141.164 40.1972 141.977 39.1116 142.84C38.7819 143.104 38.197 143.392 38.6043 143.962C39.0034 144.524 39.5404 144.276 39.9816 144.006C41.2309 143.236 42.4049 142.36 43.4476 141.38L43.4509 141.376Z" fill="#C7386C"/>
<path d="M33.5446 141.095C33.7914 141.273 34.0551 141.406 34.3212 141.297C34.6254 141.167 34.7976 140.905 34.6996 140.551C34.2398 138.886 33.7654 137.221 33.2877 135.56C33.1938 135.242 32.9948 134.966 32.6202 134.99C32.2926 135.007 32.1762 135.276 32.19 135.565C32.2729 137.364 32.575 139.126 33.352 140.812C33.4006 140.919 33.4839 141.01 33.5413 141.099L33.5446 141.095Z" fill="#C7386C"/>
<path d="M18.9872 129.163C18.666 129.535 18.6199 129.879 18.6329 130.226C18.6729 131.706 19.2365 133.051 19.9903 134.329C20.2065 134.691 20.5538 134.948 20.9819 134.78C21.4586 134.586 21.3508 134.111 21.1929 133.778C20.5152 132.329 19.9143 130.878 19.9164 129.283C19.9131 129.089 19.8572 128.85 19.5958 128.904C19.3417 128.957 19.1199 129.105 18.9913 129.166L18.9872 129.163Z" fill="#C7386C"/>
<path d="M24.8729 137.576C25.2641 137.916 25.5747 138.057 25.9135 137.795C26.1918 137.58 26.2231 137.305 26.0516 136.975C25.4405 135.771 24.8471 134.562 24.2328 133.362C24.0605 133.025 23.7828 132.755 23.3861 132.856C22.9259 132.974 23.0048 133.357 23.12 133.704C23.5831 135.084 24.0148 136.476 24.8689 137.572L24.8729 137.576Z" fill="#C7386C"/>
<path d="M27.9366 134.033C27.7617 133.871 27.5844 133.917 27.3951 133.985C27.1397 134.082 27.056 134.28 27.0947 134.53C27.3344 136.061 27.9786 137.459 28.8112 138.781C29.0184 139.102 29.3915 139.21 29.7492 139.017C30.0207 138.867 30.0972 138.604 29.9714 138.326C29.3418 136.961 28.6944 135.6 28.0511 134.243C28.014 134.172 27.9737 134.104 27.9334 134.037L27.9366 134.033Z" fill="#C7386C"/>
<path d="M19.3586 220.478C17.8457 226.683 16.4227 227.673 8.76131 227.586C7.67775 227.574 7.22821 227.999 7.04392 228.768C6.02023 233.011 5.03251 237.271 3.90696 242.077C6.87713 241.553 8.51663 240.164 10.3032 239.034C18.9419 233.574 29.0944 230.833 39.7938 229.096C41.389 228.839 43.2264 228.926 44.907 229.313C48.3115 230.106 50.7573 232.23 51.4759 235.332C52.1452 238.187 49.8501 239.346 47.4821 240.099C40.4343 242.338 33.0539 243.789 25.3203 244.325C19.6557 244.715 13.9485 244.972 8.10887 244.213C4.48309 243.744 2.22924 244.446 2.05416 247.926C1.99705 249.095 0.953439 249.996 1.52232 251.715C8.18231 251.857 14.8708 251.96 21.6224 252.647C29.4144 253.436 36.9404 255.468 44.073 259.484C44.8591 259.928 45.6433 260.385 46.3743 260.895C48.6501 262.486 50.9542 264.312 50.4131 266.915C49.8912 269.435 47.0108 268.611 44.9192 268.539C32.9045 268.157 21.5391 264.13 10.4977 258.448C7.31141 256.809 4.12692 255.157 0.912924 253.497C-0.689063 255.163 -0.902388 257.282 -1.66551 259.125C-2.23439 260.509 -1.13779 261.355 0.0290614 262.298C8.23481 268.906 14.1536 276.997 19.812 285.255C21.1692 287.237 21.3064 289.146 19.9304 290.509C18.5102 291.915 16.3139 291.227 14.4382 290.16C5.58477 285.117 0.372886 277.871 -2.65385 269.324C-3.01004 268.322 -2.66308 266.994 -4.76469 266.23C-5.83008 271.152 -8.1102 275.526 -9.99555 280.082C-10.318 280.854 -9.65931 281.607 -9.20982 282.325C-5.07382 288.905 -3.4238 295.826 -2.27026 302.799C-2.10299 303.785 -2.20564 304.789 -2.32588 305.754C-2.47681 306.993 -2.94331 308.03 -4.54614 308.177C-6.08816 308.327 -7.22242 307.533 -8.15467 306.442C-10.7676 303.386 -11.9615 299.967 -12.7373 296.456C-13.054 295.01 -13.3394 293.558 -13.6628 291.996C-15.9789 291.726 -16.4286 293.242 -17.0918 294.482C-23.2938 305.996 -30.1011 317.139 -38.0424 327.595C-38.4273 328.104 -38.7641 328.653 -39.1905 329.131C-39.9899 330.035 -40.8573 331.042 -42.447 329.734C-43.7976 328.63 -43.5578 327.575 -42.6915 326.521C-38.5388 321.494 -34.8531 316.145 -31.5135 310.594C-26.6503 302.52 -21.659 294.512 -17.5957 285.984C-17.3794 285.531 -17.2626 285.026 -16.8279 283.781C-20.3069 285.37 -23.0966 286.623 -25.854 287.917C-30.7391 290.213 -35.838 292.126 -41.3524 293.297C-44.4798 293.96 -47.7802 293.569 -51.0874 293.009C-52.9087 292.699 -54.0422 291.463 -54.6161 289.943C-55.1558 288.506 -54.2791 287.542 -53.136 287.022C-41.623 281.776 -29.9481 276.846 -15.6616 277.541C-14.553 277.593 -13.7064 277.551 -13.3206 276.654C-11.2031 271.696 -8.76097 266.876 -7.42021 261.517C-9.40563 260.797 -10.4944 261.693 -11.7012 262.177C-17.2821 264.42 -22.5005 267.239 -28.382 269.01C-32.6274 270.288 -37.0076 271.056 -41.8259 270.48C-45.517 270.041 -48.7328 268.013 -49.2454 265.566C-49.989 262.043 -47.3869 260.93 -44.4311 260.563C-32.7452 259.094 -21.2539 256.779 -8.73826 258.602C-5.78702 259.03 -4.29564 256.572 -4.62269 251.933C-8.75636 251.761 -12.8797 251.679 -17.0127 251.394C-26.2417 250.768 -35.3359 249.074 -43.9072 244.144C-45.2441 243.377 -46.5737 242.559 -47.805 241.639C-49.8375 240.11 -52.3712 238.559 -51.5104 235.966C-50.6477 233.359 -47.8053 233.365 -45.1979 233.737C-37.1884 234.884 -29.4408 237.514 -21.9719 241.15C-15.9696 244.072 -10.0598 247.217 -3.88468 250.378C-2.17994 248.524 -1.81521 246.143 -1.47996 243.374C-9.792 241.28 -17.0205 237.238 -23.6502 232.034C-28.9099 227.906 -33.9886 223.631 -37.8984 218.38C-38.5991 217.436 -39.8415 216.487 -38.9329 215.35C-38.0529 214.253 -36.7508 213.961 -35.1107 214.365C-33.5951 214.73 -32.2555 215.477 -30.9222 216.27C-20.7608 222.34 -11.6682 229.545 -3.87784 238.133C-3.05751 239.04 -2.41265 240.163 -0.718877 240.674C1.30064 236.36 1.96826 231.55 2.91161 226.844C3.12464 225.762 2.22329 225.268 1.26837 224.72C-5.55166 220.818 -6.54638 219.029 -5.59972 212.612C2.33167 216.982 10.6951 219.364 19.3327 220.445L19.3586 220.478Z" fill="#8AB979"/>
<path d="M23.4774 213.282C15.2642 212.305 7.31062 210.142 -0.234143 206.163C-5.61947 202.973 -10.8721 199.67 -15.276 195.325C-20.3778 190.284 -23.8542 184.655 -26.4016 178.632C-27.5649 175.886 -26.4793 173.964 -23.4762 173.045C-18.6653 176.288 -14.4985 179.964 -12.5394 185.335C-10.2971 183.752 -12.5384 181.125 -10.5261 179.925C-10.2344 180.418 -9.9776 180.701 -9.92405 180.983C-9.54427 182.87 -8.64733 184.098 -6.12985 184.073C-3.42402 184.051 -3.71468 182.35 -3.69758 180.731C-3.6839 179.636 -4.28333 178.31 -2.72693 177.498C-0.452016 181.495 -3.78703 186.951 3.59008 189.332C5.4934 186.031 3.70484 181.837 5.65777 178.694C6.29229 183.031 6.3491 187.243 6.43568 191.45C6.45245 192.235 6.29541 193.166 7.42277 193.658C8.46853 194.111 9.15846 193.513 9.83658 193.045C11.1596 192.139 11.8886 190.922 12.0776 189.37C12.3561 187.101 12.6556 184.838 13.0674 182.603C13.2444 181.634 12.9647 180.308 14.588 180.086C15.6156 180.864 15.2085 181.667 15.1367 182.412C14.9718 184.098 14.6736 185.751 14.4876 187.432C14.3417 188.787 14.422 190.186 16.4972 190.704C18.4751 191.192 19.5936 190.394 19.9693 188.858C20.2447 187.711 20.3324 186.506 20.614 185.368C20.9077 184.195 20.5223 182.697 22.3476 181.884C23.5032 184.683 22.2356 186.909 22.088 189.276C21.9942 190.773 21.9594 192.314 24.0586 192.917C26.3945 193.591 25.9075 191.592 26.4734 190.596C27.4102 188.948 26.949 186.571 29.4327 185.176C29.8693 190.525 24.4098 195.152 31.1905 200.589C34.1232 197.054 35.0253 192.492 38.6162 189.577C38.9616 192.402 36.1699 194.166 36.8653 197.132C42.5236 197.241 43.2751 192.465 46.4204 189.867C47.542 191.95 45.6855 192.877 46.8728 194.707C50.6545 195.231 54.655 194.199 58.7138 195.816C58.4345 200.842 54.6603 203.719 50.8259 206.409C44.1848 211.068 36.0955 213.191 26.8579 213.066C25.7199 213.048 24.4749 212.716 23.4975 213.293L23.4774 213.282Z" fill="#EF7FA0"/>
<path d="M59.8125 193.262C55.7505 191.647 51.7548 192.683 47.9649 192.151C46.777 190.316 48.6415 189.389 47.5124 187.3C44.3723 189.905 43.6132 194.689 37.9517 194.58C37.256 191.608 40.0493 189.84 39.7038 187.009C36.1108 189.931 35.2081 194.501 32.2737 198.044C25.4893 192.595 30.952 187.959 30.5154 182.599C28.024 183.989 28.4846 186.377 27.5542 188.03C26.9871 189.034 27.4823 191.033 25.138 190.356C23.0306 189.75 23.0726 188.207 23.1664 186.708C23.3142 184.335 24.5755 182.103 23.4264 179.3C21.6062 180.122 21.9856 181.616 21.6917 182.791C21.4091 183.938 21.3213 185.145 21.0465 186.288C20.6706 187.827 19.5506 188.633 17.5725 188.138C15.4952 187.625 15.415 186.223 15.5619 184.859C15.748 183.175 16.0463 181.518 16.2114 179.829C16.2824 179.088 16.6898 178.284 15.6625 177.498C14.0445 177.728 14.3181 179.049 14.1409 180.02C13.7289 182.26 13.4291 184.528 13.1504 186.801C12.9613 188.356 12.2319 189.576 10.9081 190.484C10.2304 190.946 9.53923 191.552 8.49289 191.098C7.36492 190.605 7.52208 189.672 7.50532 188.885C7.41966 184.663 7.36207 180.448 6.7273 176.103C4.77406 179.246 6.56265 183.455 4.65818 186.763C-2.72297 184.376 0.614038 178.909 -1.66204 174.905C-3.21317 175.726 -2.62045 177.052 -2.63332 178.144C-2.65047 179.766 -2.35267 181.472 -5.06703 181.492C-7.59293 181.516 -8.48245 180.281 -8.86325 178.396C-8.91682 178.113 -9.1746 177.836 -9.46557 177.336C-11.479 178.538 -9.23578 181.165 -11.4801 182.757C-13.4481 177.379 -17.6163 173.689 -22.4227 170.441C-19.1996 169.519 -15.7984 170.176 -12.4198 171.14C-10.3887 171.721 -9.29478 171.496 -9.17527 169.569C-8.85541 164.255 -4.75662 162.107 0.648996 161.724C6.17203 161.334 11.1199 163.407 14.7057 168.004C15.0552 168.451 15.3952 168.915 15.7762 169.345C15.9196 169.509 16.1654 169.618 16.4632 169.82C18.2505 169.877 19.402 168.804 20.7977 168.152C23.7432 166.789 26.9293 166.072 30.5475 166.385C37.6614 167.006 42.788 171.605 42.5022 177.637C42.3709 180.447 43.645 181.386 46.4241 181.822C50.1564 182.402 53.6674 183.654 56.6462 186.072C59.1635 188.112 61.0733 190.382 59.7861 193.243L59.8125 193.262Z" fill="#EF9AB3"/>
<path d="M31.1804 148.394C30.7592 149.9 29.7067 150.623 27.8422 150.091C26.0861 149.586 25.0018 148.51 25.1221 146.854C25.2386 145.171 26.352 144.601 28.2468 144.971C30.3971 145.387 31.074 146.699 31.1868 148.402L31.1804 148.394Z" fill="#EF9AB3"/>
<path d="M18.0666 122.325C19.741 122.862 20.8309 123.872 20.5622 125.358C20.3033 126.775 19.4361 127.871 17.3813 127.262C15.7369 126.779 14.7576 125.838 14.9201 124.252C15.0986 122.551 16.2606 122.031 18.0666 122.325Z" fill="#EF9AB3"/>
<path d="M4.79448 150.426C5.14071 148.977 5.96295 148.262 7.78736 148.765C9.41581 149.218 10.5138 149.968 10.08 151.56C9.75306 152.764 9.37678 154.16 7.44351 153.628C5.7561 153.167 4.62283 152.079 4.79448 150.426Z" fill="#EF9AB3"/>
<path d="M40.8062 255.47C37.0427 259.096 36.7223 260.403 38.5969 265.089C38.8622 265.752 38.686 266.214 38.2191 266.661C35.6422 269.135 33.0462 271.593 30.1198 274.373C29.7632 272.315 30.2973 270.701 30.6246 269.108C32.2036 261.412 31.617 253.962 30.2335 246.611C30.0258 245.516 29.5323 244.421 28.8763 243.553C27.5421 241.797 25.5511 241.211 23.3196 242.115C21.2638 242.942 21.0378 244.86 21.0993 246.647C21.2831 251.964 22.0696 257.145 23.5471 262.146C24.632 265.808 25.8144 269.439 27.7041 272.71C28.8754 274.742 28.9436 276.436 26.6731 278.055C25.9098 278.597 25.5587 279.632 24.2817 280.027C22.6076 275.983 20.953 271.903 18.8948 268.039C16.5223 263.577 13.3875 259.819 9.02695 257.165C8.54557 256.873 8.05605 256.587 7.54388 256.358C5.94674 255.646 4.18697 255.018 2.58605 256.481C1.03507 257.897 2.26603 259.315 2.81011 260.573C5.91349 267.816 11.2847 273.075 17.6789 277.416C19.5238 278.669 21.3769 279.916 23.242 281.177C22.5148 282.888 21.1577 283.939 20.1142 285.21C19.329 286.162 18.5073 285.852 17.6036 285.543C11.2666 283.352 4.48687 283.215 -2.34196 283.311C-3.98128 283.335 -5.28179 284.078 -5.86137 285.519C-6.45846 287.005 -5.48048 288.06 -4.32696 288.754C1.12383 292.023 7.17456 292.091 13.5719 290.247C14.3219 290.032 15.1222 289.241 16.1281 290.205C13.1105 292.999 10.7451 296.303 8.16495 299.444C7.72793 299.978 7.07196 299.898 6.4882 299.933C1.13511 300.239 -3.8549 302.227 -8.76191 304.543C-9.45695 304.868 -10.0994 305.367 -10.7124 305.86C-11.4996 306.491 -12.0777 307.228 -11.7957 308.281C-11.5297 309.296 -10.7326 309.651 -9.78704 309.752C-7.1366 310.037 -4.58187 309.289 -2.06475 308.243C-1.02863 307.81 0.00356795 307.356 1.11799 306.877C1.84713 308.188 0.946598 309.123 0.280008 310.07C-5.89952 318.893 -11.6893 327.928 -16.7533 337.363C-17.0004 337.822 -17.2849 338.267 -17.5017 338.738C-17.9126 339.623 -18.3757 340.595 -17.1302 341.008C-16.0758 341.361 -15.4317 340.755 -14.937 339.764C-12.5816 335.021 -9.90202 330.426 -7.00539 325.957C-2.79393 319.454 1.34288 312.9 6.04582 306.692C6.29512 306.362 6.60294 306.071 7.3274 305.262C7.09652 308.097 6.92603 310.361 6.72009 312.623C6.35305 316.632 6.29116 320.606 6.82134 324.515C7.12224 326.731 8.16494 328.596 9.32154 330.392C9.95955 331.38 11.0496 331.543 12.1953 331.237C13.2782 330.946 13.7108 329.987 13.7857 329.056C14.5406 319.68 15.0471 310.342 11.197 301.834C10.8994 301.173 10.7265 300.633 11.231 300.006C14.0229 296.548 16.6465 292.95 19.8893 289.797C20.8388 290.708 20.5018 291.768 20.4663 292.723C20.2993 297.138 19.664 301.579 19.8821 305.974C20.0401 309.146 20.5688 312.181 22.0943 314.901C23.2613 316.987 25.3716 318.089 27.1188 317.343C29.6361 316.272 29.7589 314.184 29.3015 312.203C27.5058 304.36 26.3185 296.269 22.1392 289.344C21.1548 287.71 22.4339 285.723 25.5942 283.911C26.6887 286.385 27.7212 288.892 28.891 291.316C31.4955 296.735 34.7781 301.607 40.0868 304.752C40.9134 305.243 41.7726 305.708 42.676 306.067C44.1736 306.657 45.8051 307.546 47.3242 305.889C48.8514 304.226 48.1737 302.476 47.3076 301.03C44.6463 296.589 41.0609 292.954 36.8739 289.927C33.5088 287.495 30.0171 285.216 26.4524 282.781C27.2798 280.925 28.775 279.667 30.5357 278.258C33.8985 282.474 38.2983 285.176 43.3287 287.005C47.3191 288.456 51.3644 289.731 55.7806 289.862C56.5737 289.885 57.4994 290.238 58.039 289.185C58.5592 288.166 58.4446 287.236 57.7874 286.4C57.1855 285.624 56.3711 285.123 55.5282 284.645C49.0849 281.015 42.1409 278.536 34.5871 277.461C33.7895 277.349 32.8903 277.439 32.1489 276.617C34.5364 273.499 37.5744 270.999 40.4775 268.374C41.1459 267.773 41.6878 268.114 42.2782 268.465C46.4887 270.976 47.9132 270.813 51.9526 267.444C47.1677 264.45 43.6017 260.328 40.8346 255.471L40.8062 255.47Z" fill="#799E6D"/>
<path d="M38.8128 256.981C41.6518 261.952 45.3099 266.17 50.2176 269.233C53.9816 271.247 57.7963 273.119 62.1703 273.919C67.2438 274.842 72.3381 274.401 77.4872 273.151C79.8354 272.583 80.9914 270.924 80.9056 268.484C77.2492 266.877 73.4352 265.907 68.9235 267.229C69.5285 264.97 72.0652 265.174 72.4437 263.254C72.0008 263.301 71.7237 263.269 71.4997 263.371C69.9933 264.04 68.8464 264.044 68.2188 262.362C67.54 260.557 68.8841 259.92 70.0879 259.118C70.9015 258.575 72.0448 258.326 72.2509 256.897C68.6838 257.339 65.4688 262.213 61.7963 258.483C63.7711 255.609 67.3605 254.749 69.2042 251.92C65.805 253.615 62.6469 255.633 59.4848 257.629C58.8945 258.001 58.2397 258.56 57.5831 258.052C56.9762 257.58 57.2457 256.83 57.4202 256.152C57.7566 254.832 58.4779 253.755 59.5876 252.872C61.2089 251.581 62.821 250.277 64.3835 248.914C65.0613 248.323 66.1228 247.862 65.8713 246.677C65.0265 246.375 64.5321 247.037 63.9945 247.448C62.7785 248.38 61.6213 249.385 60.4146 250.328C59.4407 251.086 58.3761 251.716 57.4563 250.592C56.584 249.519 56.8922 248.387 57.9424 247.389C58.7271 246.646 59.6037 246 60.3812 245.258C61.1806 244.491 62.398 244.015 62.5356 242.408C60.1498 243.008 58.8145 244.935 57.0854 246.188C55.9928 246.98 54.8515 247.755 53.8619 246.658C52.7588 245.437 54.3762 244.785 54.9737 243.924C55.9631 242.498 57.856 241.644 58.2588 239.316C54.1545 241.637 52.1041 247.515 46.3038 245.672C48.189 242.002 51.3614 239.177 52.6147 235.373C50.4177 236.523 49.8183 239.235 47.426 240.221C45.8913 236.522 49.2621 233.693 50.3932 230.339C48.5507 230.612 48.3357 232.295 46.6645 232.401C45.3018 230.149 45.0447 226.992 42.7947 225.089C39.1155 227.727 37.9384 231.634 36.9154 235.49C35.1448 242.168 35.6386 248.569 38.1052 254.634C38.4112 255.38 38.9786 256.044 38.7994 256.973L38.8128 256.981Z" fill="#EF7FA0"/>
<path d="M42.2219 225.605C44.4668 227.51 44.7206 230.662 46.09 232.914C47.7605 232.808 47.9722 231.121 49.8171 230.852C48.6834 234.201 45.3171 237.033 46.8511 240.731C49.2424 239.745 49.8416 237.034 52.0377 235.885C50.7849 239.688 47.6138 242.511 45.7294 246.18C51.5272 248.022 53.5767 242.146 57.6793 239.826C57.2839 242.153 55.3877 243.011 54.3955 244.432C53.7942 245.296 52.1786 245.941 53.2843 247.165C54.2765 248.266 55.4142 247.488 56.5063 246.696C58.2347 245.443 59.5726 243.52 61.9543 242.917C61.8095 244.523 60.5999 244.999 59.8008 245.766C59.0195 246.512 58.1432 247.157 57.363 247.896C56.3132 248.894 56.001 250.029 56.8771 251.098C57.7923 252.225 58.8565 251.596 59.8341 250.834C61.0404 249.891 62.1971 248.887 63.4126 247.955C63.9457 247.548 64.4399 246.886 65.2886 247.184C65.5326 248.368 64.4789 248.83 63.8014 249.42C62.2395 250.784 60.6282 252.086 59.0075 253.377C57.8983 254.26 57.1772 255.337 56.841 256.656C56.6707 257.33 56.3972 258.083 57.0038 258.555C57.6601 259.063 58.3147 258.504 58.9047 258.132C62.0696 256.134 65.2222 254.12 68.62 252.426C66.7813 255.25 63.1892 256.114 61.2152 258.986C64.8861 262.715 68.0998 257.842 71.6654 257.401C71.4521 258.829 70.3124 259.082 69.5033 259.621C68.3 260.422 66.9534 261.056 67.635 262.864C68.2654 264.549 69.413 264.538 70.9145 263.872C71.1384 263.77 71.4113 263.806 71.8581 263.755C71.4798 265.675 68.9483 265.467 68.3394 267.729C72.8481 266.415 76.6647 267.381 80.3164 268.984C80.1754 266.4 78.8134 264.466 77.2292 262.696C76.2751 261.634 76.1619 260.799 77.5658 259.782C81.4398 256.983 81.9872 253.221 80.8846 249.454C79.7576 245.604 76.9448 243.335 72.6019 243.197C72.1793 243.183 71.7473 243.183 71.3291 243.14C71.1703 243.125 71.0256 243.015 70.7988 242.916C70.298 241.759 70.8013 240.474 70.9283 239.232C71.1873 236.617 70.9033 234.157 69.7415 231.912C67.4538 227.5 62.7142 226.342 58.2972 229.468C56.2384 230.923 55.2127 230.536 54.1749 228.906C52.7854 226.716 50.9516 224.999 48.3874 224.202C46.2222 223.528 44.0425 223.367 42.2426 225.613L42.2219 225.605Z" fill="#EF9AB3"/>
<path d="M78.8874 227.426C77.9585 228.367 77.7205 229.358 78.5405 230.302C79.3149 231.19 80.3172 231.395 81.4219 230.577C82.546 229.75 82.6644 228.789 81.9481 227.753C81.1377 226.576 80.074 226.735 78.8802 227.426L78.8874 227.426Z" fill="#EF9AB3"/>
<path d="M99.9315 226.412C99.1587 225.594 98.2058 225.355 97.2584 226.187C96.3561 226.982 95.8203 228.017 96.7346 229.044C97.4635 229.867 98.3433 230.066 99.3843 229.257C100.499 228.387 100.572 227.421 99.9315 226.412Z" fill="#EF9AB3"/>
<path d="M86.2265 244.773C87.1277 243.91 87.4143 243.074 86.6293 242.148C85.9263 241.323 85.15 240.965 84.1737 241.945C83.4342 242.686 82.5769 243.544 83.4073 244.526C84.1305 245.384 85.1451 245.615 86.2265 244.773Z" fill="#EF9AB3"/>
<path d="M17.7762 316.371C17.7507 314.784 18.3132 313.366 18.8863 311.971C19.9593 309.357 21.4742 307.073 23.9587 305.578C24.4823 305.262 25.0433 305.021 25.633 304.871C27.1109 304.492 28.4503 305.297 29.0744 306.884C29.1821 307.162 29.1752 307.576 29.566 307.614C29.9007 307.647 29.9492 307.273 30.0878 307.044C31.8751 304.043 34.0194 301.37 37.0591 299.534C38.9375 298.4 40.9442 297.561 43.192 297.344C47.3782 296.935 50.1076 299.309 51.1499 303.276C51.944 306.296 51.531 309.154 50.0601 311.786C49.9145 312.048 49.811 312.332 49.6964 312.611C49.6794 312.649 49.7239 312.715 49.7526 312.807C50.3786 312.721 50.8413 312.31 51.3678 312.044C53.9255 310.755 56.571 309.709 59.5544 309.723C61.759 309.736 63.8812 310.245 65.4824 311.999C67.3849 314.082 67.5828 317.099 66.1283 319.735C65.0376 321.714 63.4845 323.274 61.7132 324.633C61.5055 324.789 61.1159 324.905 61.2453 325.211C61.374 325.512 61.742 325.368 62.0153 325.349C64.0917 325.209 66.1225 325.326 68.0296 326.52C70.9554 328.351 71.8051 331.443 70.1172 334.29C68.186 337.545 65.2762 339.597 61.7256 340.839C60.8106 341.16 59.8693 341.41 58.942 341.692C58.5798 341.602 58.2042 341.677 58.192 342.044C58.1792 342.405 58.6122 342.417 58.903 342.484C58.979 342.501 59.0621 342.462 59.1399 342.448C61.0281 343.092 62.7005 344.057 63.9161 345.725C64.9602 347.16 64.9735 348.827 63.9868 350.193C62.4537 352.314 60.1417 353.192 57.7208 353.878C54.6499 354.742 51.474 354.664 48.2712 354.271C48.1343 354.254 48.0026 354.189 47.868 354.146C48.0172 353.892 48.3085 353.964 48.5361 353.891C50.1988 353.365 51.6233 352.53 52.1261 350.741C52.6844 348.761 51.8087 347.15 50.4124 345.69C49.3695 344.599 47.9424 344.125 46.7714 343.239C47.4606 342.936 48.2206 342.888 48.9654 342.823C49.8992 342.743 50.8189 342.631 51.771 343.096C52.5574 343.477 53.2694 343.14 53.7572 342.502C54.2169 341.898 54.0786 341.012 53.5245 340.624C52.8094 340.123 51.6474 340.2 51.3626 340.877C50.9469 341.877 50.1821 341.739 49.3554 341.591C49.9005 340.969 50.7138 340.71 51.3268 340.174C52.7524 338.92 54.0457 337.597 54.202 335.526C54.3969 335.707 54.6239 335.7 54.8427 335.644C56.1041 335.318 57.3145 335.012 58.5938 335.966C59.1163 336.355 59.9921 335.896 60.2757 335.303C60.5722 334.683 60.3824 333.643 59.8955 333.266C59.301 332.801 58.404 332.712 57.9671 333.26C57.0353 334.43 55.6563 334.364 54.3639 334.577C54.3065 334.418 54.2333 334.26 54.1964 334.095C53.725 331.999 52.3047 330.776 50.4065 329.924C49.5703 329.548 48.6658 329.654 47.8548 329.242C48.6761 328.556 49.7409 328.248 50.6043 327.631C51.1366 327.251 51.6755 327.191 52.3338 327.419C53.1407 327.698 53.7912 327.38 54.0444 326.704C54.287 326.053 53.8949 325.265 53.1172 324.892C52.3536 324.526 51.8236 324.88 51.523 325.486C51.285 325.965 50.9246 326.249 50.5046 326.496C49.7991 326.915 49.0526 327.274 48.3658 327.718C47.6369 328.188 46.7137 328.363 46.1562 329.09L46.1609 329.084C46.0246 329.025 45.9989 329.079 46.0498 329.204C44.2746 329.195 42.5563 329.484 40.8655 329.9C40.2214 330.061 39.5685 330.19 38.9536 330.448C38.7892 330.517 38.5517 330.572 38.4147 330.364C38.2936 330.18 38.5018 330.076 38.5685 329.938C38.8755 329.317 39.3616 328.831 39.7441 328.27C40.5255 327.129 41.3625 326.012 41.7244 324.623C41.9275 324.806 42.086 324.684 42.2486 324.574C43.9083 323.473 45.6135 322.424 47.2082 321.239C47.7388 320.843 48.0699 320.772 48.6615 321.092C49.5012 321.546 50.1693 321.363 50.515 320.661C50.8828 319.921 50.4094 319.45 49.8453 319.021C49.1858 318.52 48.4526 318.523 47.9642 319.084C46.3978 320.881 44.2952 321.976 42.3232 323.245C42.2874 322.804 42.2194 322.36 42.2211 321.922C42.2319 320.615 41.5559 319.704 40.2821 319.37C39.4232 319.147 38.6111 319.321 37.7956 319.512C37.4083 319.601 37.0456 319.912 36.5985 319.63C36.4896 319.127 36.9231 318.882 37.1325 318.574C37.9186 317.428 38.3026 315.976 39.6991 315.27C40.3736 314.93 40.0902 314.168 39.8338 313.601C39.605 313.091 39.0965 313.091 38.6443 313.215C37.9867 313.398 37.5333 313.845 37.6938 314.55C37.8203 315.116 37.7005 315.538 37.449 315.968C36.8121 317.05 36.1354 318.109 35.5488 319.216C35.3453 319.6 34.8012 319.899 35.1091 320.5C34.6142 320.741 34.1028 320.953 33.6325 321.224C32.8041 321.704 32.0015 322.226 31.1825 322.719C31.0041 322.829 30.7947 323.018 30.5799 322.825C30.4125 322.677 30.5114 322.447 30.5681 322.266C30.6909 321.87 30.8306 321.484 30.9727 321.095C32.0345 318.19 32.6552 315.199 32.0595 312.009C31.3981 308.468 29.5115 307.386 26.6074 308.155C24.3362 308.758 22.4432 310.095 20.9019 311.879C19.7028 313.264 18.5856 314.696 17.7832 316.362L17.7762 316.371Z" fill="#EF9AB3"/>
<path d="M17.5044 316.875C18.3041 315.214 19.4177 313.787 20.613 312.407C22.1493 310.628 24.0334 309.293 26.3002 308.694C29.1922 307.925 31.0728 309.003 31.7351 312.536C32.3314 315.712 31.7105 318.696 30.6521 321.592C30.5104 321.98 30.3741 322.367 30.2488 322.76C30.1922 322.94 30.0908 323.167 30.2606 323.316C30.4776 323.511 30.6834 323.321 30.8613 323.211C31.6777 322.719 32.4777 322.2 33.3034 321.721C33.7746 321.448 34.2843 321.236 34.7753 320.999C35.3165 320.786 35.8121 320.496 36.2571 320.129C36.7027 320.41 37.0642 320.101 37.4503 320.012C38.2633 319.822 39.0751 319.645 39.929 319.87C41.1987 320.202 41.8726 321.111 41.8619 322.414C41.8579 322.853 41.928 323.293 41.9637 323.732C41.5911 324.108 41.5557 324.644 41.3668 325.106C41.0062 326.491 40.1718 327.604 39.3929 328.741C39.0117 329.3 38.5271 329.785 38.2211 330.403C38.1546 330.542 37.947 330.645 38.0678 330.829C38.2043 331.036 38.4434 330.978 38.605 330.912C39.2179 330.655 39.8658 330.524 40.5108 330.366C42.1986 329.948 43.9114 329.661 45.6786 329.672C45.7165 329.633 45.7544 329.594 45.7923 329.555L45.7847 329.558C46.3441 329.793 46.9145 329.795 47.4831 329.71C48.2886 330.117 49.1932 330.015 50.0267 330.389C51.916 331.236 53.3318 332.455 53.8048 334.546C53.8415 334.711 53.9168 334.866 53.9717 335.027C53.6947 335.289 53.8919 335.662 53.8075 335.971C53.6517 338.034 52.3625 339.354 50.9415 340.604C50.3281 341.14 49.5204 341.402 48.9764 342.017C48.0287 342.206 47.1803 342.646 46.2845 342.97C46.0483 343.054 45.6126 343.005 45.6746 343.372C45.733 343.707 46.1424 343.591 46.399 343.667C47.5633 344.547 48.9859 345.02 50.0284 346.11C51.4204 347.565 52.2933 349.171 51.7368 351.145C51.2334 352.931 49.8158 353.76 48.1584 354.285C47.9315 354.358 47.6411 354.285 47.4924 354.539C47.4108 354.541 47.3315 354.539 47.2498 354.541C42.6296 354.866 38.3571 353.524 34.3567 351.045C31.3544 349.186 28.531 347.084 26.2213 344.356C25.9448 344.029 25.7517 343.622 25.348 343.41C25.391 342.896 24.9127 342.63 24.7295 342.217C23.7765 340.081 22.3845 338.222 20.8012 336.494C20.3082 335.955 20.1587 335.204 19.5567 334.752C18.8541 333.134 18.0272 331.563 17.4914 329.879C16.0864 325.46 15.9185 321.128 17.5061 316.891L17.5044 316.875ZM22.8295 327.109C22.124 327.91 21.4156 328.707 21.0111 329.722C20.894 330.021 20.6555 330.369 21.0685 330.617C21.4704 330.861 21.5922 330.437 21.7584 330.222C22.377 329.424 22.9664 328.6 23.5821 327.799C23.9651 327.304 24.3995 326.843 24.7709 326.337C24.9289 326.12 25.0233 325.806 24.7234 325.578C24.4347 325.356 24.1874 325.506 23.9956 325.727C23.6026 326.181 23.2213 326.645 22.8319 327.106L22.8295 327.109ZM21.2626 325.624C21.3839 325.409 21.5028 325.197 21.6211 324.979C22.137 324.017 22.6553 323.052 23.1653 322.085C23.3117 321.81 23.2947 321.539 23.0007 321.34C22.7749 321.185 22.5352 321.238 22.4105 321.445C21.6713 322.654 20.9239 323.861 20.3597 325.172C20.253 325.423 20.2898 325.682 20.5529 325.841C20.8667 326.028 21.0859 325.863 21.2597 325.621L21.2626 325.624ZM26.5627 331.6C26.1179 332.252 25.5622 332.643 25.2877 333.259C25.195 333.47 25.1204 333.678 25.3701 333.857C25.5765 334.005 25.7567 333.917 25.9066 333.793C26.9352 332.93 27.8628 331.968 28.6383 330.871C28.8137 330.621 28.9385 330.295 28.6118 330.04C28.3137 329.804 28.0846 330.022 27.8904 330.223C27.414 330.71 26.9464 331.204 26.5627 331.6ZM32.0452 334.54C32.2178 334.217 32.6715 334.024 32.3413 333.642C32.0017 333.248 31.6624 333.543 31.3778 333.738C30.4273 334.376 29.4809 335.028 28.5491 335.692C28.3118 335.86 28.005 336.093 28.2314 336.443C28.4263 336.748 28.7634 336.598 29.0001 336.496C30.1466 336.005 31.1356 335.285 32.0458 334.546L32.0452 334.54ZM22.6989 331.558C22.138 332.401 21.6653 333.324 21.2736 334.287C21.1372 334.627 21.0265 335.032 21.4622 335.247C21.9038 335.467 22.0366 335.024 22.1818 334.763C22.6592 333.906 23.0918 333.025 23.5575 332.158C23.726 331.845 24.0094 331.569 23.5293 331.24C23.0778 330.93 22.9589 331.357 22.7012 331.555L22.6989 331.558ZM24.2503 338.645C24.3226 338.679 24.3967 338.728 24.4755 338.747C25.7587 339.106 27.04 339.116 28.3219 338.965C28.5278 338.941 28.705 338.826 28.6787 338.589C28.6489 338.321 28.4278 338.209 28.1975 338.178C26.9639 338.029 25.7315 337.889 24.502 337.752C24.2402 337.724 24.0752 337.878 24.0192 338.111C23.9732 338.314 24.0981 338.487 24.2527 338.643L24.2503 338.645ZM34.7128 347.769C34.7384 347.667 34.8189 347.489 34.8276 347.306C34.8351 347.112 34.6596 347.1 34.5219 347.121C33.3917 347.307 32.294 347.049 31.1951 346.734C30.9414 346.66 30.5909 346.641 30.5122 347.002C30.44 347.325 30.6599 347.547 30.9469 347.658C31.9408 348.051 32.9551 348.294 34.0055 348.149C34.2551 348.115 34.4924 348.042 34.7157 347.771L34.7128 347.769ZM27.9605 344.471C28.8408 344.957 29.8813 345.103 30.9165 345.274C31.1802 345.318 31.4613 345.33 31.4886 344.983C31.5136 344.685 31.289 344.517 31.0289 344.433C30.1032 344.133 29.1741 343.848 28.2461 343.55C27.9889 343.468 27.7993 343.521 27.6792 343.746C27.5353 344.018 27.6695 344.228 27.9576 344.469L27.9605 344.471ZM30.0262 341.851C29.9737 341.83 29.9183 341.806 29.8664 341.791C28.8247 341.491 27.7847 341.183 26.7413 340.891C26.5261 340.831 26.3482 340.917 26.2771 341.132C26.1815 341.412 26.3023 341.667 26.5549 341.778C27.589 342.224 28.6593 342.519 29.775 342.511C29.957 342.51 30.0876 342.427 30.1267 342.232C30.1558 342.09 30.1622 341.958 30.0286 341.848L30.0262 341.851Z" fill="#EF7FA0"/>
<path d="M19.0556 335.69C19.6621 336.145 19.8132 336.907 20.3093 337.446C21.9043 339.186 23.3067 341.059 24.2666 343.211C24.4512 343.627 24.936 343.898 24.8897 344.414C23.1422 344.196 21.6254 343.327 20.131 342.443C19.5533 342.103 19.0268 342.008 18.4304 342.218C12.6041 344.256 6.54442 345.439 0.348889 346.141C0.162623 346.164 -0.0595033 346.104 -0.337951 346.518C0.580453 346.43 1.32734 346.665 2.11062 346.726C6.12165 347.042 10.1191 346.853 14.1307 347.15C17.4589 347.401 20.7789 347.745 24.032 348.731C24.9675 349.012 25.9054 349.315 26.6753 349.996C27.6074 350.821 27.7456 351.802 26.9802 352.691C25.76 354.106 24.0214 354.567 22.2286 354.851C19.3542 355.31 16.4631 354.949 13.5796 354.369C7.18749 353.088 0.981473 351.089 -4.8387 347.968C-6.60638 347.019 -8.2147 346.714 -10.0427 346.921C-11.3301 347.062 -12.6346 347.098 -13.9337 347.181C-14.2928 347.205 -14.7516 347.36 -14.9204 346.918C-15.1038 346.441 -14.7019 346.061 -14.3353 345.962C-13.2077 345.65 -12.5862 344.758 -11.8078 344.033C-10.1745 342.506 -8.80752 340.736 -7.36644 339.035C-4.83913 336.053 -2.40057 332.99 0.455264 330.307C2.37932 328.501 4.31161 326.697 6.66001 325.406C7.41676 324.989 8.18351 324.614 9.08959 324.582C10.5574 324.533 11.6523 325.506 11.7301 326.972C11.8144 328.567 11.1607 329.911 10.4288 331.221C8.58844 334.522 5.9159 337.035 2.80552 339.103C-0.411198 341.243 -3.76487 343.155 -7.3131 344.753C-7.50052 344.837 -7.90185 344.887 -7.79837 345.196C-7.68314 345.539 -7.28948 345.372 -7.06796 345.355C-3.65698 345.106 -0.25836 344.77 3.11027 344.283C8.27984 343.538 13.2707 342.214 18.1904 340.633C18.9812 340.379 19.1933 339.99 18.9146 339.206C18.7324 338.691 18.6089 338.154 18.523 337.621C18.4077 336.895 18.4963 336.209 19.0497 335.685L19.0556 335.69Z" fill="#6BB194"/>
<path d="M58.5277 342.178C58.4497 342.193 58.3635 342.229 58.2902 342.214C58.0016 342.149 57.567 342.132 57.5773 341.773C57.5894 341.405 57.9659 341.33 58.329 341.42C58.27 341.7 58.3769 341.944 58.5254 342.181L58.5277 342.178Z" fill="#FFC1D3"/>
<path d="M41.7113 324.661C41.9098 324.189 41.9431 323.64 42.3216 323.259C44.3306 321.969 46.4726 320.854 48.0686 319.027C48.5662 318.457 49.313 318.453 49.9848 318.963C50.5564 319.397 51.0385 319.877 50.6667 320.632C50.3121 321.349 49.6339 321.533 48.7786 321.07C48.176 320.745 47.8387 320.816 47.2981 321.219C45.6735 322.425 43.9362 323.491 42.2454 324.611C42.0797 324.723 41.9182 324.847 41.7113 324.661Z" fill="#FFC1D3"/>
<path d="M46.0998 343.273C45.8401 343.196 45.4258 343.313 45.3668 342.974C45.3042 342.603 45.7427 342.655 45.984 342.568C46.8904 342.24 47.749 341.795 48.708 341.603C49.5395 341.755 50.3108 341.895 50.7326 340.884C51.017 340.198 52.1896 340.126 52.9132 340.629C53.4751 341.022 53.6139 341.91 53.1477 342.523C52.6562 343.171 51.9351 343.508 51.1443 343.121C50.1817 342.655 49.2564 342.765 48.3145 342.845C47.5633 342.911 46.7967 342.959 46.1016 343.265L46.0998 343.273Z" fill="#FFC1D3"/>
<path d="M47.707 329.16C47.1254 329.249 46.5474 329.25 45.977 329.005C46.5431 328.268 47.4835 328.093 48.2208 327.614C48.9182 327.164 49.6762 326.799 50.3926 326.375C50.8191 326.124 51.1874 325.834 51.4268 325.351C51.7321 324.735 52.2733 324.379 53.0456 324.748C53.8352 325.126 54.2357 325.923 53.9868 326.587C53.7326 327.275 53.072 327.597 52.2498 327.312C51.5814 327.08 51.0343 327.14 50.4937 327.526C49.6169 328.152 48.5381 328.461 47.7017 329.16L47.707 329.16Z" fill="#FFC1D3"/>
<path d="M53.8268 335.232C53.9122 334.92 53.7106 334.546 53.9928 334.278C55.2973 334.066 56.6862 334.133 57.6246 332.955C58.0647 332.404 58.968 332.493 59.5667 332.961C60.0541 333.339 60.2481 334.389 59.9494 335.013C59.6632 335.604 58.7818 336.071 58.2555 335.68C56.9697 334.716 55.7453 335.025 54.4779 335.355C54.2576 335.412 54.029 335.419 53.8327 335.237L53.8268 335.232Z" fill="#FFC1D3"/>
<path d="M36.8272 319.961C36.37 320.337 35.8605 320.634 35.3044 320.852C34.9921 320.24 35.5441 319.935 35.7551 319.539C36.3586 318.405 37.052 317.324 37.7022 316.22C37.9623 315.778 38.0852 315.346 37.9534 314.771C37.7921 314.053 38.2566 313.595 38.9272 313.406C39.3905 313.279 39.9113 313.28 40.1457 313.801C40.4058 314.384 40.6982 315.16 40.0072 315.507C38.5767 316.229 38.1853 317.71 37.3774 318.884C37.1605 319.201 36.7158 319.446 36.8302 319.964L36.8272 319.961Z" fill="#FFC1D3"/>
<path d="M45.9857 329.147C45.9473 329.187 45.9088 329.226 45.8704 329.266C45.8181 329.139 45.844 329.084 45.9857 329.147Z" fill="#FFC1D3"/>
<path d="M22.9414 327.46C23.3421 326.987 23.7398 326.512 24.1459 326.039C24.3414 325.808 24.6003 325.656 24.8989 325.886C25.2036 326.121 25.1089 326.447 24.9478 326.668C24.5634 327.189 24.1162 327.662 23.7174 328.175C23.0801 329.001 22.47 329.85 21.8298 330.673C21.6578 330.894 21.5287 331.329 21.116 331.08C20.6912 330.821 20.9356 330.465 21.0569 330.157C21.4757 329.111 22.2058 328.286 22.939 327.463L22.9414 327.46Z" fill="#C7386C"/>
<path d="M21.5116 326.037C21.3332 326.284 21.1081 326.453 20.7859 326.261C20.5159 326.099 20.4758 325.836 20.5877 325.575C21.1643 324.23 21.932 322.993 22.6942 321.757C22.8247 321.542 23.0684 321.491 23.3001 321.65C23.5989 321.851 23.6193 322.132 23.469 322.413C22.9451 323.404 22.4128 324.393 21.8829 325.378C21.7637 325.598 21.6392 325.819 21.5146 326.039L21.5116 326.037Z" fill="#C7386C"/>
<path d="M26.5421 331.867C26.9355 331.458 27.4216 330.951 27.9137 330.45C28.1143 330.244 28.3541 330.022 28.6589 330.262C28.9938 330.528 28.8673 330.861 28.686 331.118C27.8848 332.247 26.9264 333.238 25.8637 334.125C25.7089 334.253 25.5258 334.347 25.3096 334.192C25.0518 334.007 25.1259 333.791 25.2247 333.576C25.5084 332.941 26.0825 332.539 26.5421 331.867Z" fill="#C7386C"/>
<path d="M31.9904 334.731C31.06 335.484 30.0441 336.223 28.8692 336.725C28.6266 336.829 28.2812 336.982 28.0816 336.671C27.8497 336.312 28.167 336.077 28.4073 335.902C29.3622 335.223 30.3321 334.557 31.3061 333.904C31.5983 333.71 31.9455 333.403 32.2934 333.807C32.6292 334.2 32.1667 334.395 31.9898 334.725L31.9904 334.731Z" fill="#C7386C"/>
<path d="M22.6307 331.975C22.895 331.772 23.017 331.335 23.4798 331.652C23.9719 331.989 23.6813 332.272 23.5085 332.592C23.0302 333.474 22.5841 334.379 22.0974 335.259C21.9485 335.526 21.8122 335.979 21.3596 335.754C20.9129 335.533 21.0265 335.119 21.1664 334.771C21.5682 333.785 22.0531 332.84 22.6283 331.978L22.6307 331.975Z" fill="#C7386C"/>
<path d="M24.0015 339.027C23.8463 338.871 23.721 338.697 23.7672 338.493C23.8233 338.26 23.989 338.105 24.2518 338.134C25.4883 338.268 26.726 338.414 27.9614 338.562C28.1979 338.592 28.4169 338.702 28.4444 338.974C28.4708 339.211 28.2929 339.327 28.0862 339.351C26.7994 339.503 25.5132 339.493 24.2251 339.133C24.1432 339.11 24.0688 339.061 23.9991 339.03L24.0015 339.027Z" fill="#C7386C"/>
<path d="M34.1969 348.035C33.9702 348.31 33.7319 348.383 33.4835 348.415C32.4286 348.56 31.407 348.313 30.4117 347.922C30.1288 347.809 29.9055 347.59 29.9752 347.262C30.0565 346.897 30.4062 346.919 30.661 346.993C31.7699 347.31 32.87 347.571 34.0023 347.382C34.1405 347.362 34.3168 347.374 34.3092 347.568C34.3011 347.757 34.2226 347.933 34.1939 348.033L34.1969 348.035Z" fill="#C7386C"/>
<path d="M27.5218 344.811C27.234 344.57 27.0977 344.363 27.2438 344.089C27.3637 343.864 27.5553 343.809 27.8098 343.893C28.7364 344.191 29.6643 344.475 30.5886 344.775C30.8483 344.859 31.0726 345.027 31.0476 345.323C31.0175 345.668 30.7367 345.656 30.4764 345.614C29.4426 345.444 28.4036 345.298 27.5247 344.813L27.5218 344.811Z" fill="#C7386C"/>
<path d="M29.676 342.208C29.8119 342.314 29.8002 342.447 29.774 342.591C29.735 342.786 29.6044 342.869 29.4225 342.871C28.3069 342.879 27.2391 342.58 26.2028 342.138C25.9503 342.027 25.8295 341.771 25.9251 341.492C25.9991 341.279 26.1769 341.193 26.3892 341.251C27.4325 341.543 28.4746 341.848 29.5138 342.15C29.5687 342.169 29.6211 342.19 29.6736 342.211L29.676 342.208Z" fill="#C7386C"/>
<path d="M74.6627 431.654C75.7326 432.777 76.577 434.015 76.4328 436.003C72.6789 433.357 68.1751 432.322 64.2875 430.045C60.2719 427.69 58.5264 423.161 54.9595 419.955C54.2652 421.525 54.943 422.369 55.3265 423.214C57.0491 426.958 58.4202 430.845 59.7258 434.753C60.0372 435.688 60.5436 436.622 60.1658 437.695C59.8561 437.817 59.5457 437.947 59.236 438.068C58.3236 437.093 58.0768 435.804 57.6722 434.586C52.6551 419.403 44.876 405.99 32.9197 395.279C31.2514 393.787 29.6263 392.171 26.6444 391.115C29.6802 401.436 33.8333 410.605 38.1145 419.723C37.9367 419.796 37.7595 419.862 37.5859 419.932C33.9889 416.019 32.3391 411.016 30.3254 406.246C28.8372 402.721 27.2051 399.116 26.6336 395.359C25.6063 388.616 20.7147 386.225 15.3404 384.062C15.1756 383.994 14.9805 383.995 14.7963 383.965C14.5517 383.77 14.4178 383.755 14.5095 384.14C17.6915 389.57 21.7459 394.474 24.0296 400.454C25.9415 405.463 26.6185 410.703 26.9702 415.933C25.7902 416.602 25.3122 416.006 24.8089 415.468C25.2741 414.139 24.9443 412.973 24.4181 411.737C22.9184 408.207 21.5685 404.605 20.135 401.047C18.8473 397.849 18.2828 394.275 15.5789 391.804C15.2785 385.848 12.0643 382.143 6.59974 380.224C2.85356 378.913 -0.907042 377.629 -4.69151 376.431C-5.68097 376.116 -6.7451 375.619 -8.4701 376.373C-0.703385 380.76 5.05474 386.473 7.32028 395.014C3.67991 391.871 0.301834 388.517 -2.66607 384.686C-4.37969 382.479 -5.88249 379.756 -9.02317 378.997C-13.6677 373.333 -20.2683 373.931 -26.7546 374.111C-28.5378 374.162 -30.3952 374.798 -32.2205 373.927C-31.4892 372.775 -30.4427 372.99 -29.5924 372.873C-25.1025 372.252 -20.5683 371.927 -16.1563 372.707C-11.1103 373.602 -6.149 373.133 -1.11674 372.284C1.09014 371.912 2.49224 370.261 4.36279 369.396C5.96639 369.653 7.50934 369.447 9.01545 368.736C12.5347 367.081 16.1701 365.891 20.0364 365.474C21.202 365.347 22.4915 365.171 23.3257 364.068C25.753 364.84 24.4058 365.682 23.19 366.223C19.2891 367.96 15.3078 369.448 11.0641 370.074C9.06753 370.367 7.10237 370.878 5.13695 371.608C11.9545 372.621 18.9289 372.455 25.4065 374.82C25.27 375.221 25.1292 375.625 24.9926 376.026C15.6467 373.957 6.15287 373.314 -3.5552 373.697C-3.49161 375.331 -2.42026 375.191 -1.73877 375.394C10.3898 379.082 21.709 384.251 31.7012 391.978C35.6707 395.047 40.6559 396.211 45.2228 398.156C45.1762 400.423 47.2203 400.735 48.5943 401.582C53.6169 404.664 59.3633 406.246 64.7532 408.584C66.3138 409.262 67.6556 410.586 69.5873 410.393C70.7878 411.824 70.1642 412.543 68.56 412.207C60.7591 410.554 52.8046 409.23 46.9554 403.212C45.2405 401.448 43.3073 399.894 41.3942 398.338C40.5168 397.629 39.5249 396.954 37.7142 397.086C39.4172 399.106 40.8182 400.865 42.3273 402.53C46.3326 406.932 48.9127 412.417 53.0967 416.694C54.9755 418.621 57.3641 419.811 59.4636 421.417C59.5104 422.632 60.2489 423.337 61.1544 424.043C63.8846 426.186 67.1131 427.501 70.0929 429.226C71.577 430.086 72.4327 432.148 74.6785 431.655L74.6627 431.654Z" fill="#6BA270"/>
<path d="M59.8683 438.797C60.1708 438.673 60.4811 438.548 60.7872 438.428C64.1715 438.822 67.5851 439.155 69.8426 442.082C70.3867 442.788 70.9294 443.51 71.3604 444.292C71.9432 445.344 72.3702 446.51 71.4384 447.613C70.5558 448.653 69.2516 448.853 68.1245 448.412C66.1933 447.655 64.7789 447.727 64.0507 450.031C63.9515 450.339 63.465 450.837 63.3157 450.793C60.8437 450.057 58.91 452.046 56.7358 452.257C54.7201 452.453 53.8779 450.55 53.7733 448.705C53.5975 445.59 54.8618 442.975 57.2765 440.887C58.1139 440.165 58.9975 439.497 59.8641 438.801L59.8683 438.797Z" fill="#EF7FA0"/>
<path d="M38.0452 420.227C38.2165 420.158 38.3956 420.09 38.5669 420.021C41.5227 419.907 44.4687 419.73 46.9219 421.738C48.3415 422.905 50.0341 424.051 49.4235 426.151C48.8365 428.167 47.0289 428.222 45.2772 427.842C45.1039 427.805 44.7579 427.81 44.7507 427.845C43.9975 431.062 40.4146 430.314 38.7371 432.189C36.7972 434.354 35.007 434.093 34.038 431.451C32.863 428.234 33.6613 425.378 35.8959 422.744C36.6102 421.9 37.7256 421.39 38.0495 420.223L38.0452 420.227Z" fill="#EF7FA0"/>
<path d="M24.4088 376.294C24.5481 375.894 24.6831 375.498 24.8181 375.102C27.0794 371.713 30.2347 370.4 34.1548 370.858C35.2916 370.99 36.3698 371.287 36.7528 372.506C37.1175 373.668 36.8038 374.677 35.7059 375.401C34.9557 375.897 34.3456 376.451 34.813 377.439C35.3698 378.608 34.985 379.578 34.0094 380.383C33.3368 380.934 33.368 381.616 33.3095 382.377C33.0748 385.296 31.304 386.191 28.7897 384.701C25.6302 382.827 24.2573 379.973 24.4038 376.305L24.4088 376.294Z" fill="#EF7FA0"/>
<path d="M15.7361 391.621C18.4444 394.096 19.0141 397.673 20.2996 400.88C21.731 404.448 23.0873 408.052 24.5894 411.588C25.1165 412.827 25.4425 413.999 24.9809 415.326C17.1066 409.415 14.985 401.117 15.7397 391.625L15.7361 391.621Z" fill="#8AB696"/>
<path d="M69.236 411.128C67.3044 411.32 65.9627 409.997 64.4021 409.318C59.016 406.984 53.2698 405.403 48.2438 402.316C46.8735 401.474 44.8294 401.162 44.8724 398.891C53.1026 400.674 61.1928 402.766 67.3937 408.807C68.1056 409.498 68.9075 410.12 69.2367 411.12L69.236 411.128Z" fill="#8AB696"/>
<path d="M-9.00821 378.314C-5.84038 379.084 -4.32654 381.829 -2.60388 384.05C0.382347 387.908 3.78911 391.294 7.45653 394.463C6.30399 395.654 5.41102 394.604 4.47446 394.198C-2.64186 391.131 -6.14232 384.989 -9.00821 378.314Z" fill="#8AB696"/>
<path d="M74.7373 432.535C72.4852 433.029 71.6272 430.961 70.1391 430.098C67.1512 428.368 63.9182 427.046 61.1763 424.9C60.2726 424.188 59.5321 423.481 59.4809 422.267C65.9499 423.716 71.7059 426.187 74.7329 432.538L74.7373 432.535Z" fill="#8AB696"/>
<path d="M22.4911 363.98C21.668 365.066 20.4064 365.235 19.2621 365.36C15.4704 365.774 11.8982 366.937 8.4435 368.562C6.96503 369.26 5.44615 369.465 3.87622 369.21C9.33372 364.471 15.3919 362.147 22.4919 363.972L22.4911 363.98Z" fill="#8AB696"/>
<path d="M88.3328 399.793C89.612 399.041 91.0587 399.263 91.9809 399.882C93.1547 400.671 92.8919 402.12 91.9558 403.23C90.9399 404.429 89.7553 404.511 88.5547 403.554C87.1448 402.429 88.1164 401.101 88.3328 399.793Z" fill="#EF9AB3"/>
<path d="M69.0745 391.406C68.1561 392.162 67.2123 392.933 66.0898 392.138C65.0637 391.41 64.4811 390.408 65.3853 389.131C66.1317 388.075 67.1553 387.69 68.2498 388.391C69.3513 389.095 69.68 390.155 69.0745 391.406Z" fill="#EF9AB3"/>
<path d="M78.5033 418.052C79.3947 417.184 80.4139 416.744 81.4469 417.573C82.4644 418.39 82.7741 419.485 81.8368 420.654C81.0268 421.656 80.0106 422.067 79.0194 421.081C78.2038 420.268 77.3638 419.314 78.5018 418.047L78.5033 418.052Z" fill="#EF9AB3"/>
<path d="M37.1252 31.6364C37.8154 30.2449 38.2561 28.8107 37.5286 26.9519C34.7226 30.5962 30.7215 32.9222 27.6783 36.2532C24.5358 39.697 24.2096 44.5471 21.7487 48.6717C20.6188 47.3757 21.0167 46.3669 21.1331 45.4456C21.6703 41.3534 21.8288 37.2283 21.9186 33.1033C21.939 32.1161 22.1463 31.0723 21.4668 30.1585C21.1345 30.1337 20.799 30.1017 20.4667 30.077C19.8834 31.281 20.0294 32.5867 20.0036 33.8714C19.7082 49.8833 16.2454 65.02 7.98599 78.8121C6.83263 80.7339 5.75761 82.7619 3.21847 84.6564C3.06111 73.8835 4.31388 63.8807 5.70484 53.8901C5.51286 53.8725 5.32391 53.8622 5.13717 53.8469C2.85701 58.6563 2.76287 63.9314 2.25139 69.0909C1.87356 72.9044 1.38155 76.8363 1.94927 80.5996C2.96687 87.3549 -1.00313 91.0924 -5.50219 94.7555C-5.63954 94.8697 -5.82655 94.9263 -5.99397 95.0094C-6.16993 95.2688 -6.29351 95.323 -6.32002 94.9275C-4.88706 88.7892 -2.4633 82.8964 -2.0526 76.499C-1.70966 71.1402 -2.61624 65.9273 -3.83119 60.8202C-5.15824 60.5303 -5.4387 61.2422 -5.76054 61.9061C-4.92135 63.0395 -4.8909 64.2528 -5.02759 65.5914C-5.41507 69.4128 -5.63816 73.2577 -5.95392 77.0864C-6.23717 80.5271 -5.71691 84.1138 -7.5705 87.2788C-6.09124 93.065 -8.06663 97.563 -12.7246 101.019C-15.9191 103.384 -19.1353 105.728 -22.3999 107.996C-23.253 108.591 -24.1234 109.382 -25.9972 109.172C-19.8693 102.672 -16.0558 95.5004 -16.422 86.6586C-18.972 90.7445 -21.2084 94.9548 -22.9109 99.4996C-23.8954 102.119 -24.5254 105.169 -27.3043 106.827C-30.067 113.622 -36.558 115.008 -42.816 116.759C-44.5366 117.24 -46.5019 117.182 -47.9896 118.557C-46.9483 119.442 -46.011 118.926 -45.1631 118.785C-40.6842 118.047 -36.2506 117.014 -32.262 114.958C-27.7004 112.607 -22.8158 111.583 -17.7505 110.903C-15.5292 110.604 -13.6984 111.767 -11.6525 112.04C-10.1948 111.319 -8.65792 111.058 -7.00649 111.291C-3.1492 111.831 0.681021 111.89 4.50289 111.142C5.65557 110.918 6.94121 110.704 8.06641 111.512C10.159 110.053 8.62066 109.647 7.29748 109.491C3.05071 108.986 -1.19879 108.744 -5.44379 109.403C-7.44024 109.716 -9.47174 109.81 -11.5681 109.695C-5.34749 106.703 1.37301 104.793 6.8675 100.61C6.61811 100.267 6.36349 99.9222 6.1141 99.5796C-2.21203 104.33 -11.1024 107.762 -20.502 110.275C-20.9261 108.692 -19.8597 108.508 -19.2681 108.112C-8.7606 100.987 0.533396 92.6855 7.79956 82.331C10.6861 78.2177 15.1094 75.6256 18.9007 72.4103C18.1839 70.2561 20.0465 69.3511 21.1097 68.134C24.9996 63.6957 30.0272 60.4787 34.4893 56.6434C35.7809 55.5318 36.6717 53.8676 38.5766 53.479C39.3005 51.7542 38.4909 51.2516 37.0561 52.0489C30.0845 55.9435 22.8685 59.5696 19.0585 67.0609C17.9413 69.2565 16.553 71.3161 15.1847 73.3724C14.5556 74.3105 13.8071 75.2506 12.036 75.6614C13.0658 73.2237 13.8843 71.1261 14.8338 69.0854C17.3594 63.687 18.2004 57.675 20.934 52.3431C22.1596 49.9427 24.0913 48.0957 25.6231 45.9366C25.3077 44.7613 25.805 43.8677 26.4616 42.9236C28.4375 40.0639 31.1357 37.8487 33.4743 35.3149C34.6387 34.0518 34.8457 31.8259 37.1401 31.6309L37.1252 31.6364Z" fill="#6BA270"/>
<path d="M20.8554 29.1926C21.1817 29.222 21.5153 29.2486 21.8437 29.273C24.9641 27.8923 28.1306 26.5613 29.4218 23.0922C29.7329 22.2553 30.0379 21.404 30.2181 20.528C30.4634 19.3484 30.5262 18.1071 29.3076 17.3277C28.1549 16.5949 26.8482 16.7909 25.9008 17.5464C24.2781 18.8439 22.9038 19.1942 21.5239 17.2065C21.3378 16.9417 20.7248 16.6097 20.5947 16.6954C18.4485 18.1325 16.0091 16.804 13.8667 17.2469C11.8805 17.657 11.6395 19.7277 12.0864 21.5228C12.8424 24.5551 14.8274 26.6817 17.7564 27.9624C18.7714 28.4041 19.8148 28.7812 20.8502 29.1903L20.8554 29.1926Z" fill="#EF7FA0"/>
<path d="M5.4891 53.4279C5.67339 53.443 5.86504 53.4554 6.04933 53.4704C8.91042 52.7027 11.7808 51.9981 13.5318 49.3499C14.5437 47.8128 15.8226 46.2143 14.6156 44.3864C13.4563 42.6325 11.711 43.1163 10.1482 43.9991C9.99328 44.0857 9.6609 44.1837 9.64375 44.1526C7.96883 41.2981 4.76362 43.0765 2.60302 41.7809C0.105141 40.2852 -1.52985 41.0656 -1.67284 43.8808C-1.8428 47.306 -0.232124 49.801 2.6866 51.6575C3.62031 52.2534 4.83851 52.4106 5.49427 53.4302L5.4891 53.4279Z" fill="#EF7FA0"/>
<path d="M5.47631 99.4961C5.72806 99.837 5.97463 100.176 6.2212 100.514C9.38957 103.086 12.7972 103.406 16.4109 101.805C17.4592 101.342 18.4025 100.738 18.4074 99.4585C18.4113 98.2381 17.8121 97.3662 16.5472 96.9997C15.6826 96.7479 14.9347 96.3987 15.0885 95.3148C15.2744 94.0312 14.6187 93.2178 13.4469 92.7375C12.64 92.4101 12.4674 91.7476 12.1859 91.0378C11.0955 88.3148 9.13623 87.9841 7.1733 90.1554C4.70682 92.8846 4.23999 96.0214 5.46813 99.4866L5.47631 99.4961Z" fill="#EF7FA0"/>
<path d="M-7.36561 87.4077C-5.5091 84.2372 -6.02516 80.6466 -5.74686 77.1975C-5.43601 73.3599 -5.2075 69.5105 -4.81956 65.6824C-4.68271 64.3416 -4.71853 63.1239 -5.55391 61.9907C-11.3325 69.9805 -10.9006 78.5473 -7.3634 87.4026L-7.36561 87.4077Z" fill="#8AB696"/>
<path d="M38.0231 52.8806C36.1183 53.2692 35.2275 54.9334 33.9359 56.0449C29.4762 59.875 24.4488 63.0919 20.5568 67.5351C19.4958 68.7471 17.6333 69.6521 18.3479 71.8112C25.6915 67.6649 32.8096 63.2644 36.9492 55.647C37.425 54.7742 38.0077 53.942 38.0261 52.888L38.0231 52.8806Z" fill="#8AB696"/>
<path d="M36.9358 30.7724C34.635 30.9678 34.4277 33.2003 33.2601 34.4669C30.9153 37.0079 28.215 39.2317 26.2287 42.0974C25.5756 43.0465 25.077 43.9426 25.3881 45.1191C31.146 41.8141 35.9188 37.7431 36.9305 30.7701L36.9358 30.7724Z" fill="#8AB696"/>
<path d="M7.29451 111.844C6.18486 111.048 4.92796 111.261 3.79644 111.481C0.0468845 112.21 -3.71517 112.157 -7.50162 111.627C-9.12272 111.398 -10.6366 111.652 -12.0624 112.363C-5.43652 115.277 1.04759 115.703 7.29749 111.851L7.29451 111.844Z" fill="#8AB696"/>
<path d="M59.6515 58.0585C61.0982 58.3984 62.416 57.7567 63.1147 56.8914C64.0033 55.7883 63.3222 54.4803 62.0974 53.6958C60.7701 52.8504 59.6126 53.1232 58.7483 54.3954C57.7334 55.8896 59.0564 56.8711 59.6515 58.0585Z" fill="#EF9AB3"/>
<path d="M43.7179 71.793C42.615 71.3417 41.4838 70.8847 40.6457 71.9777C39.8803 72.9787 39.62 74.1097 40.8639 75.0635C41.8909 75.8519 42.9842 75.9162 43.8233 74.9213C44.668 73.921 44.668 72.8095 43.7179 71.793Z" fill="#EF9AB3"/>
<path d="M44.8335 43.5082C45.9436 44.0742 47.0492 44.1932 47.7912 43.0935C48.5221 42.01 48.4935 40.8706 47.2504 40.031C46.1784 39.3127 45.0845 39.2211 44.4288 40.4579C43.8898 41.4777 43.3692 42.6393 44.8336 43.5137L44.8335 43.5082Z" fill="#EF9AB3"/>
</svg>
