<svg width="198" height="272" viewBox="0 0 198 272" fill="none" xmlns="http://www.w3.org/2000/svg">
<path d="M90.3435 95.9446C92.4919 100.185 93.6954 100.725 99.2612 99.779C100.048 99.6451 100.448 99.896 100.711 100.422C102.173 103.323 103.611 106.24 105.241 109.53C102.989 109.501 101.561 108.702 100.069 108.103C92.8557 105.215 84.9985 104.437 76.9122 104.436C75.707 104.438 74.3833 104.711 73.2245 105.181C70.8784 106.138 69.4551 107.932 69.4548 110.222C69.4488 112.331 71.3161 112.891 73.1679 113.153C78.679 113.933 84.2995 114.113 90.0231 113.602C94.2147 113.225 98.4153 112.75 102.541 111.535C105.103 110.783 106.863 111.022 107.577 113.478C107.816 114.304 108.728 114.824 108.603 116.113C103.776 116.983 98.9219 117.829 94.1202 119.097C88.5776 120.558 83.4384 122.873 78.9206 126.555C78.4229 126.961 77.9287 127.377 77.4823 127.824C76.0929 129.219 74.7226 130.785 75.5557 132.574C76.361 134.308 78.32 133.388 79.8313 133.095C88.5182 131.437 96.1175 127.259 103.202 121.941C105.246 120.407 107.287 118.863 109.348 117.311C110.796 118.312 111.309 119.795 112.175 121.018C112.823 121.938 112.167 122.666 111.476 123.472C106.614 129.122 103.667 135.563 100.938 142.092C100.284 143.66 100.506 145.033 101.738 145.845C103.01 146.681 104.494 145.938 105.68 144.962C111.278 140.352 113.852 134.594 114.615 128.162C114.706 127.408 114.229 126.503 115.631 125.716C117.237 129.096 119.636 131.945 121.777 134.969C122.143 135.482 121.79 136.093 121.583 136.656C119.68 141.816 119.646 146.932 119.982 152.027C120.026 152.748 120.27 153.451 120.521 154.124C120.84 154.988 121.354 155.672 122.547 155.592C123.695 155.52 124.387 154.824 124.882 153.94C126.27 151.464 126.563 148.893 126.536 146.305C126.523 145.239 126.486 144.173 126.458 143.025C128.099 142.565 128.683 143.591 129.375 144.397C135.834 151.875 142.672 159.019 150.22 165.542C150.586 165.86 150.924 166.211 151.315 166.503C152.05 167.054 152.851 167.67 153.789 166.556C154.586 165.614 154.234 164.891 153.425 164.241C149.552 161.143 145.966 157.763 142.597 154.198C137.693 149.014 132.707 143.892 128.309 138.292C128.075 137.995 127.905 137.649 127.378 136.813C130.18 137.542 132.423 138.112 134.65 138.714C138.595 139.784 142.632 140.557 146.846 140.753C149.236 140.864 151.574 140.205 153.888 139.424C155.163 138.994 155.78 137.983 155.942 136.836C156.092 135.751 155.291 135.166 154.371 134.927C145.1 132.524 135.765 130.364 125.476 132.507C124.677 132.673 124.053 132.74 123.621 132.147C121.243 128.863 118.651 125.715 116.77 122.056C118.095 121.314 119.039 121.826 120 122.032C124.443 122.984 128.72 124.387 133.302 124.968C136.61 125.387 139.93 125.428 143.343 124.462C145.957 123.724 147.958 121.909 147.918 120.109C147.866 117.516 145.783 117.024 143.568 117.104C134.808 117.408 126.048 117.088 117.239 119.829C115.161 120.475 113.66 118.898 113.116 115.559C116.098 114.96 119.088 114.425 122.05 113.745C128.667 112.234 135.005 109.979 140.417 105.481C141.261 104.781 142.092 104.045 142.833 103.248C144.056 101.926 145.64 100.53 144.576 98.7836C143.508 97.0284 141.438 97.3604 139.602 97.9266C133.961 99.6671 128.762 102.433 123.934 105.883C120.055 108.655 116.281 111.576 112.316 114.538C110.762 113.415 110.095 111.763 109.384 109.831C115.085 107.382 119.668 103.671 123.62 99.2023C126.754 95.6575 129.733 92.0289 131.695 87.841C132.046 87.0887 132.791 86.2694 131.937 85.5656C131.111 84.8866 130.114 84.829 128.987 85.3056C127.945 85.7402 127.095 86.4267 126.258 87.1446C119.88 92.6373 114.472 98.8143 110.246 105.825C109.802 106.565 109.521 107.439 108.374 107.998C106.175 105.161 104.878 101.815 103.397 98.5755C103.059 97.8301 103.632 97.3747 104.236 96.8747C108.545 93.3103 108.968 91.9226 107.196 87.4654C102.156 91.4909 96.4659 94.1512 90.3567 95.9178L90.3435 95.9446Z" fill="#8AB979"/>
<path d="M86.945 93.4584C92.7466 91.7608 98.1571 89.1921 102.961 85.2926C106.33 82.2437 109.583 79.1238 112.042 75.3118C114.89 70.8893 116.455 66.2098 117.279 61.3399C117.656 59.1192 116.539 57.7854 114.2 57.4372C111.257 60.46 108.857 63.7366 108.349 68.0432C106.45 67.1025 107.63 64.8463 105.963 64.1693C105.836 64.5776 105.697 64.8224 105.706 65.0426C105.752 66.5203 105.31 67.5572 103.476 67.8307C101.506 68.129 101.427 66.8035 101.139 65.5761C100.942 64.7462 101.152 63.6698 99.8821 63.2343C98.9108 66.5341 102.265 70.2892 97.3106 72.9562C95.3643 70.6707 95.9485 67.2777 93.9932 65.1184C94.2719 68.4852 94.9492 71.6905 95.604 74.8955C95.7258 75.4937 95.9988 76.1828 95.2635 76.6874C94.5809 77.1533 93.9774 76.779 93.4049 76.5031C92.2889 75.9689 91.5515 75.1292 91.1494 73.9726C90.56 72.2824 89.9563 70.5987 89.2757 68.9491C88.9817 68.2336 88.9588 67.1941 87.7413 67.2145C87.1274 67.9252 87.5601 68.4873 87.7394 69.0447C88.1469 70.3059 88.6456 71.5267 89.0675 72.7816C89.4048 73.7937 89.5851 74.8653 88.1655 75.5003C86.8114 76.1011 85.8625 75.6252 85.3274 74.5021C84.9317 73.6637 84.6624 72.759 84.2635 71.927C83.8501 71.0709 83.8745 69.8881 82.4095 69.4834C82.0473 71.7434 83.3481 73.286 83.8593 75.0669C84.1827 76.1922 84.471 77.3586 83.0485 78.061C81.4659 78.8447 81.4787 77.2696 80.8977 76.5796C79.9358 75.4369 79.8654 73.5777 77.8225 72.8077C78.4179 76.9206 83.1744 79.7988 79.1747 84.7173C76.4405 82.3737 75.0069 79.0149 71.9001 77.2188C72.131 79.4042 74.4606 80.419 74.4613 82.7525C70.3681 83.4934 69.0073 79.9545 66.2785 78.3474C65.8188 80.0596 67.326 80.5476 66.7756 82.0759C64.117 82.914 61.0337 82.5954 58.3603 84.2962C59.4207 88.0805 62.654 89.8256 65.8993 91.4226C71.52 94.1875 77.7604 94.8583 84.4517 93.6882C85.2755 93.5418 86.1237 93.1451 86.9322 93.4692L86.945 93.4584Z" fill="#EF7FA0"/>
<path d="M57.318 83.5747C59.9949 81.8773 63.0756 82.1979 65.7393 81.3526C66.2899 79.8236 64.7767 79.3377 65.2413 77.6226C67.9676 79.2322 69.3346 82.7703 73.4308 82.0287C73.4298 79.6942 71.0983 78.6792 70.8669 76.4929C73.9763 78.2894 75.4114 81.6495 78.148 83.9938C82.15 79.0728 77.3895 76.1939 76.7932 72.0793C78.8408 72.843 78.9132 74.7073 79.8712 75.8525C80.4543 76.5471 80.4353 78.1206 82.0237 77.3343C83.452 76.6293 83.1585 75.4646 82.8347 74.3388C82.3229 72.5573 81.0257 71.0121 81.3831 68.7531C82.8461 69.1644 82.825 70.3412 83.2389 71.1976C83.6398 72.0342 83.9094 72.9393 84.3039 73.7737C84.8395 74.8972 85.7908 75.3775 87.1441 74.772C88.5664 74.141 88.3858 73.0689 88.0465 72.052C87.6242 70.7967 87.1249 69.5754 86.717 68.3137C86.5391 67.7605 86.1059 67.1982 86.7186 66.4828C87.9338 66.4688 87.9601 67.5022 88.2544 68.2179C88.9357 69.8681 89.5401 71.5525 90.1301 73.2433C90.5327 74.4003 91.2707 75.2403 92.3876 75.7746C92.959 76.0462 93.5646 76.4249 94.2476 75.9588C94.9834 75.4539 94.7101 74.7646 94.5882 74.1661C93.9308 70.9554 93.2542 67.7533 92.9749 64.3851C94.9303 66.5407 94.3477 69.9395 96.2957 72.2258C101.253 69.5572 97.8963 65.8008 98.8679 62.4996C100.135 62.9416 99.9305 64.0163 100.126 64.8422C100.415 66.0701 100.489 67.3982 102.465 67.0975C104.305 66.8216 104.741 65.7819 104.697 64.308C104.688 64.0877 104.828 63.8472 104.954 63.4343C106.622 64.1114 105.44 66.3643 107.342 67.3096C107.856 63.0033 110.256 59.7207 113.196 56.6985C110.696 56.375 108.336 57.2691 106.045 58.3927C104.668 59.07 103.834 59.0268 103.419 57.5797C102.281 53.5883 98.9355 52.4368 94.9416 52.7762C90.861 53.1235 87.6182 55.2708 85.7957 59.1739C85.6179 59.5536 85.4498 59.9442 85.2463 60.3149C85.17 60.4558 85.01 60.5676 84.828 60.7554C83.5386 61.0063 82.5189 60.327 81.3934 59.9953C79.0203 59.3047 76.5824 59.1322 74.0061 59.7909C68.9416 61.0896 65.9996 65.1733 67.2354 69.7128C67.81 71.8285 67.0439 72.6883 65.0985 73.3425C62.4847 74.2166 60.1464 75.5752 58.3936 77.7548C56.9119 79.595 55.9107 81.538 57.334 83.5574L57.318 83.5747Z" fill="#EF9AB3"/>
<path d="M70.8481 48.2503C71.4084 49.2884 72.2977 49.6873 73.5688 49.0855C74.7654 48.5165 75.3756 47.6129 75.0098 46.4318C74.6421 45.2308 73.7341 44.9494 72.4137 45.4377C70.9146 45.9891 70.6411 47.0148 70.8448 48.2569L70.8481 48.2503Z" fill="#EF9AB3"/>
<path d="M75.8891 27.768C74.7576 28.3495 74.132 29.2033 74.5777 30.242C75.0046 31.2317 75.8214 31.9194 77.2184 31.2419C78.337 30.7026 78.8933 29.9106 78.5083 28.7878C78.0925 27.5848 77.1571 27.3452 75.8891 27.768Z" fill="#EF9AB3"/>
<path d="M89.9573 45.6095C89.4612 44.6077 88.7412 44.1893 87.4948 44.7637C86.3828 45.2791 85.7078 45.9463 86.2916 47.0399C86.7325 47.868 87.2415 48.8277 88.5627 48.2203C89.7162 47.6919 90.3602 46.7776 89.9573 45.6095Z" fill="#EF9AB3"/>
<path d="M87.6922 140.01C87.7522 137.813 87.0255 135.896 86.2843 134.013C84.8966 130.483 82.9146 127.446 79.627 125.582C78.9342 125.187 78.1902 124.899 77.4065 124.74C75.4427 124.337 73.6439 125.561 72.786 127.808C72.6379 128.202 72.6404 128.774 72.1187 128.859C71.6721 128.932 71.6135 128.419 71.4325 128.112C69.0989 124.106 66.2841 120.583 62.262 118.292C59.7764 116.876 57.1151 115.88 54.1222 115.763C48.5483 115.541 44.8711 119.05 43.4167 124.625C42.3088 128.87 42.8127 132.792 44.7304 136.313C44.9203 136.664 45.0536 137.048 45.2018 137.425C45.2238 137.476 45.1634 137.572 45.1237 137.701C44.2906 137.634 43.6805 137.103 42.9829 136.778C39.5944 135.204 36.0849 133.972 32.1076 134.237C29.1685 134.435 26.3311 135.315 24.1679 137.873C21.5976 140.911 21.2845 145.103 23.1804 148.632C24.6021 151.281 26.6469 153.312 28.986 155.048C29.2603 155.248 29.7778 155.376 29.6003 155.81C29.4237 156.237 28.9355 156.068 28.5716 156.064C25.8059 156.04 23.0967 156.369 20.5349 158.178C16.6046 160.952 15.4214 165.3 17.625 169.102C20.1462 173.448 23.9916 176.05 28.7044 177.478C29.919 177.846 31.1698 178.116 32.4013 178.429C32.8856 178.275 33.3851 178.349 33.3953 178.855C33.4065 179.354 32.8291 179.406 32.4404 179.522C32.3387 179.552 32.2286 179.505 32.1251 179.492C29.5974 180.538 27.3522 182.011 25.7045 184.419C24.2891 186.491 24.2442 188.798 25.5373 190.608C27.5462 193.418 30.614 194.444 33.8301 195.193C37.9097 196.138 42.1446 195.769 46.4206 194.963C46.6034 194.928 46.78 194.828 46.9601 194.757C46.7655 194.417 46.3758 194.541 46.0736 194.459C43.8658 193.867 41.9805 192.828 41.3395 190.394C40.6276 187.699 41.8212 185.398 43.7065 183.263C45.1146 181.668 47.0248 180.894 48.6002 179.573C47.6865 179.209 46.6741 179.206 45.6823 179.177C44.4388 179.142 43.2146 179.063 41.9379 179.785C40.8833 180.376 39.9397 179.968 39.2998 179.126C38.6968 178.327 38.8956 177.089 39.6407 176.508C40.6022 175.756 42.1499 175.766 42.5184 176.68C43.0564 178.03 44.0781 177.777 45.1826 177.504C44.466 176.688 43.3862 176.395 42.5777 175.704C40.6978 174.086 38.9954 172.36 38.8208 169.508C38.5581 169.774 38.2556 169.783 37.9648 169.723C36.2887 169.376 34.68 169.051 32.9591 170.476C32.2562 171.057 31.0962 170.494 30.7278 169.697C30.3427 168.863 30.6127 167.409 31.2679 166.846C32.0681 166.154 33.2652 165.958 33.8388 166.68C35.0618 168.223 36.9012 168.018 38.6206 168.207C38.6997 167.983 38.7998 167.758 38.8517 167.527C39.5145 164.587 41.4278 162.779 43.9722 161.443C45.093 160.855 46.297 160.926 47.3849 160.291C46.3013 159.408 44.8869 159.07 43.7459 158.286C43.0425 157.804 42.3251 157.765 41.4439 158.135C40.3637 158.587 39.5017 158.201 39.1752 157.286C38.8624 156.404 39.3981 155.282 40.4408 154.701C41.4648 154.133 42.1655 154.578 42.5563 155.394C42.8658 156.037 43.3415 156.4 43.8974 156.708C44.8311 157.229 45.8203 157.665 46.7286 158.223C47.6926 158.814 48.9205 158.981 49.6517 159.94L49.6455 159.933C49.8282 159.84 49.8616 159.913 49.7917 160.089C52.1582 159.932 54.4442 160.19 56.6913 160.628C57.5474 160.798 58.4157 160.923 59.2311 161.229C59.4491 161.312 59.7649 161.368 59.9509 161.069C60.1154 160.804 59.8394 160.678 59.7528 160.491C59.3537 159.658 58.7136 159.025 58.2129 158.28C57.1899 156.765 56.0923 155.288 55.6327 153.395C55.359 153.665 55.1496 153.509 54.9346 153.371C52.7402 151.982 50.4841 150.672 48.3777 149.161C47.6769 148.657 47.2366 148.587 46.4427 149.077C45.3159 149.775 44.4282 149.576 43.979 148.633C43.5007 147.639 44.1395 146.948 44.8985 146.308C45.7859 145.56 46.7631 145.505 47.4051 146.242C49.4639 148.599 52.2488 149.943 54.8569 151.537C54.9118 150.924 55.0097 150.304 55.0147 149.698C55.0216 147.89 55.9376 146.573 57.6412 146.007C58.7899 145.628 59.8695 145.803 60.9536 146C61.4685 146.092 61.9469 146.492 62.5475 146.065C62.7009 145.36 62.127 145.056 61.8529 144.647C60.8238 143.125 60.3355 141.148 58.4855 140.285C57.5919 139.87 57.982 138.792 58.3331 137.986C58.6466 137.261 59.3244 137.22 59.9252 137.355C60.7988 137.553 61.3958 138.136 61.1704 139.124C60.9925 139.918 61.1454 140.493 61.4736 141.066C62.3049 142.513 63.1897 143.922 63.9536 145.405C64.2186 145.921 64.939 146.289 64.5187 147.147C65.1746 147.439 65.8527 147.691 66.4753 148.027C67.5717 148.624 68.6332 149.28 69.7169 149.896C69.9529 150.033 70.229 150.277 70.5185 149.993C70.744 149.774 70.616 149.464 70.5434 149.218C70.3862 148.68 70.2062 148.157 70.0232 147.63C68.6551 143.697 67.8766 139.609 68.7229 135.146C69.6625 130.191 72.1951 128.539 76.054 129.365C79.0717 130.013 81.5734 131.708 83.5989 134.051C85.1748 135.87 86.6407 137.759 87.683 140L87.6922 140.01Z" fill="#EF9AB3"/>
<path d="M88.9094 140.694C87.8753 138.462 86.4211 136.579 84.8578 134.766C82.8485 132.43 80.3708 130.735 77.3736 130.088C73.5498 129.255 71.038 130.893 70.1028 135.827C69.2608 140.264 70.0366 144.337 71.394 148.254C71.5756 148.779 71.7503 149.304 71.9102 149.836C71.9823 150.08 72.1131 150.386 71.8856 150.606C71.5946 150.892 71.3246 150.646 71.0905 150.508C70.0155 149.894 68.9626 149.239 67.875 148.642C67.2544 148.303 66.5817 148.051 65.9342 147.763C65.2198 147.511 64.567 147.15 63.9827 146.678C63.3871 147.101 62.9125 146.702 62.4018 146.61C61.3265 146.412 60.2526 146.232 59.1163 146.61C57.4267 147.171 56.5182 148.479 56.5116 150.279C56.5098 150.885 56.4097 151.499 56.3553 152.109C56.8435 152.599 56.8819 153.337 57.125 153.96C57.5812 155.844 58.6699 157.317 59.6849 158.826C60.1816 159.568 60.8166 160.2 61.2126 161.03C61.2985 161.216 61.5722 161.342 61.4091 161.606C61.2246 161.903 60.9084 161.842 60.6952 161.763C59.8863 161.457 59.029 161.327 58.176 161.16C55.944 160.716 53.6766 160.455 51.3323 160.611C51.2827 160.56 51.233 160.509 51.1834 160.458L51.1934 160.462C50.4476 160.831 49.691 160.879 48.9381 160.806C47.8631 161.433 46.6649 161.363 45.5532 161.946C43.0336 163.267 41.1361 165.063 40.4751 167.991C40.4237 168.221 40.3214 168.441 40.246 168.668C40.6091 169.009 40.3415 169.54 40.4487 169.959C40.6222 172.798 42.311 174.519 44.1758 176.133C44.9808 176.826 46.048 177.123 46.7597 177.93C48.0137 178.116 49.1321 178.657 50.3151 179.034C50.627 179.131 51.2057 179.029 51.1177 179.541C51.0349 180.009 50.4937 179.88 50.152 180.006C48.5935 181.315 46.6989 182.081 45.2985 183.669C43.4288 185.79 42.2452 188.078 42.9516 190.761C43.5907 193.189 45.4578 194.223 47.6478 194.817C47.9475 194.899 48.334 194.776 48.5271 195.115C48.6354 195.11 48.7406 195.103 48.8489 195.098C54.9721 195.181 60.6609 192.988 66.007 189.245C70.0193 186.437 73.7981 183.31 76.9056 179.357C77.2776 178.884 77.5404 178.305 78.0792 177.981C78.0304 177.273 78.6691 176.868 78.9188 176.283C80.2171 173.256 82.0935 170.577 84.2214 168.064C84.884 167.279 85.0943 166.231 85.9001 165.558C86.8581 163.267 87.9801 161.03 88.7179 158.661C90.6524 152.444 90.9447 146.444 88.9068 140.716L88.9094 140.694ZM81.6816 155.257C82.6045 156.307 83.5314 157.353 84.0516 158.723C84.2022 159.128 84.5129 159.589 83.9612 159.965C83.4241 160.333 83.2694 159.757 83.0524 159.473C82.2447 158.419 81.4761 157.328 80.6723 156.27C80.1721 155.616 79.6034 155.013 79.1189 154.344C78.9128 154.057 78.7926 153.631 79.194 153.292C79.5806 152.962 79.9061 153.15 80.157 153.44C80.671 154.036 81.1693 154.647 81.6785 155.254L81.6816 155.257ZM83.7839 153.081C83.6265 152.793 83.4722 152.509 83.3187 152.218C82.6498 150.929 81.9779 149.637 81.3168 148.341C81.1271 147.973 81.154 147.597 81.5472 147.299C81.8491 147.068 82.1662 147.121 82.3284 147.397C83.2895 149.009 84.2615 150.617 84.9888 152.384C85.1263 152.723 85.0733 153.084 84.7218 153.324C84.3025 153.607 84.0144 153.397 83.7878 153.077L83.7839 153.081ZM76.6576 161.758C77.2371 162.624 77.968 163.12 78.3222 163.95C78.4418 164.234 78.5374 164.515 78.2034 164.783C77.9271 165.004 77.6895 164.896 77.4927 164.736C76.1422 163.626 74.9271 162.37 73.9162 160.915C73.6874 160.584 73.5272 160.144 73.9647 159.765C74.3638 159.416 74.6643 159.699 74.9186 159.961C75.5427 160.596 76.155 161.242 76.6576 161.758ZM69.3381 166.256C69.1144 165.823 68.5157 165.593 68.9598 165.039C69.4165 164.467 69.862 164.848 70.2363 165.094C71.4868 165.901 72.7317 166.727 73.9571 167.57C74.2692 167.784 74.6723 168.081 74.3664 168.583C74.103 169.019 73.6583 168.839 73.3459 168.717C71.833 168.13 70.5327 167.214 69.3373 166.264L69.3381 166.256ZM81.7835 161.394C82.5139 162.514 83.1261 163.752 83.6302 165.052C83.8056 165.511 83.946 166.062 83.3646 166.394C82.7753 166.733 82.6062 166.131 82.4179 165.782C81.7983 164.635 81.2388 163.452 80.6349 162.291C80.4164 161.872 80.045 161.513 80.6871 161.02C81.2909 160.557 81.4417 161.136 81.7804 161.39L81.7835 161.394ZM79.6117 171.31C79.5153 171.362 79.4162 171.435 79.3114 171.469C77.6036 172.066 75.9038 172.181 74.2059 172.074C73.9332 172.057 73.6999 171.913 73.7386 171.584C73.7824 171.211 74.0775 171.038 74.3836 170.978C76.0222 170.673 77.6592 170.383 79.2922 170.096C79.64 170.036 79.8564 170.235 79.9269 170.553C79.9846 170.83 79.8163 171.079 79.6087 171.306L79.6117 171.31ZM65.5873 184.746C65.5549 184.608 65.4511 184.367 65.4425 184.116C65.4356 183.849 65.6687 183.819 65.8509 183.836C67.3471 184.003 68.8073 183.56 70.27 183.037C70.6077 182.915 71.073 182.861 71.1715 183.353C71.2621 183.795 70.9668 184.118 70.5844 184.295C69.2597 184.916 67.9104 185.332 66.5195 185.216C66.1889 185.188 65.8752 185.106 65.5834 184.75L65.5873 184.746ZM74.5968 179.654C73.4214 180.395 72.0389 180.68 70.6629 180.998C70.3125 181.08 69.9394 181.119 69.9088 180.641C69.8804 180.232 70.181 179.982 70.5274 179.845C71.76 179.356 72.9971 178.889 74.2328 178.404C74.5753 178.271 74.8259 178.328 74.9815 178.63C75.1682 178.994 74.9868 179.294 74.6007 179.651L74.5968 179.654ZM71.8988 176.198C71.9688 176.164 72.0427 176.127 72.1118 176.102C73.4984 175.605 74.8828 175.097 76.2716 174.611C76.558 174.511 76.7926 174.615 76.8834 174.907C77.0057 175.286 76.8414 175.648 76.5046 175.821C75.1256 176.519 73.7012 177.013 72.2214 177.09C71.9801 177.103 71.8081 176.998 71.7595 176.731C71.7231 176.538 71.7168 176.356 71.8958 176.194L71.8988 176.198Z" fill="#EF7FA0"/>
<path d="M88.2267 166.817C87.4045 167.5 87.1885 168.569 86.5132 169.359C84.3417 171.909 82.4266 174.627 81.1007 177.693C80.8458 178.287 80.1902 178.703 80.2435 179.415C82.5937 178.963 84.6451 177.628 86.6668 176.275C87.4483 175.754 88.1569 175.577 88.954 175.817C96.7418 178.145 104.858 179.267 113.164 179.711C113.414 179.727 113.713 179.624 114.08 180.174C112.848 180.132 111.842 180.522 110.789 180.673C105.398 181.454 100.034 181.534 94.6425 182.29C90.1695 182.922 85.7059 183.683 81.321 185.329C80.0601 185.8 78.7956 186.3 77.7502 187.31C76.4846 188.534 76.2821 189.906 77.2946 191.073C78.9086 192.932 81.2351 193.422 83.6373 193.663C87.4889 194.053 91.3769 193.305 95.2584 192.254C103.863 189.931 112.23 186.627 120.098 181.801C122.488 180.334 124.653 179.773 127.104 179.903C128.83 179.989 130.581 179.927 132.324 179.932C132.805 179.934 133.419 180.109 133.653 179.483C133.907 178.805 133.374 178.312 132.884 178.206C131.375 177.87 130.556 176.686 129.523 175.748C127.356 173.769 125.551 171.432 123.646 169.196C120.303 165.276 117.082 161.236 113.293 157.76C110.741 155.419 108.177 153.083 105.046 151.494C104.038 150.979 103.015 150.525 101.798 150.559C99.8285 150.616 98.3418 152.059 98.2121 154.098C98.0715 156.318 98.9262 158.126 99.8864 159.881C102.301 164.301 105.846 167.558 109.987 170.16C114.269 172.852 118.739 175.218 123.476 177.13C123.726 177.231 124.264 177.266 124.12 177.703C123.959 178.189 123.433 177.991 123.136 177.987C118.561 177.933 114.003 177.757 109.489 177.371C102.56 176.78 95.8819 175.37 89.3035 173.598C88.246 173.314 87.9679 172.792 88.3556 171.681C88.6091 170.951 88.7841 170.196 88.9086 169.449C89.0759 168.432 88.9687 167.488 88.2346 166.809L88.2267 166.817Z" fill="#6BB194"/>
<path d="M34.115 178.395C34.219 178.409 34.3337 178.452 34.432 178.426C34.8189 178.312 35.4003 178.252 35.3922 177.755C35.382 177.247 34.8798 177.175 34.3929 177.33C34.4673 177.712 34.3205 178.059 34.1181 178.399L34.115 178.395Z" fill="#FFC1D3"/>
<path d="M55.6783 153.47C55.4153 152.831 55.3823 152.068 54.8684 151.573C52.1232 149.967 49.1902 148.622 47.0284 146.226C46.3544 145.478 45.3227 145.546 44.3826 146.324C43.5826 146.986 42.905 147.703 43.4009 148.721C43.8738 149.688 44.8065 149.877 45.9992 149.147C46.8394 148.635 47.3038 148.702 48.0411 149.211C50.2571 150.736 52.6322 152.055 54.9417 153.453C55.1679 153.592 55.3881 153.75 55.6783 153.47Z" fill="#FFC1D3"/>
<path d="M50.9696 178.991C51.3224 178.861 51.8809 178.987 51.9671 178.511C52.0586 177.99 51.4643 178.101 51.1393 178.001C49.9188 177.627 48.7651 177.084 47.471 176.903C46.3429 177.189 45.2966 177.451 44.7445 176.083C44.3724 175.156 42.7869 175.161 41.7984 175.923C41.0308 176.52 40.8265 177.767 41.4459 178.576C42.0991 179.434 43.0687 179.837 44.146 179.23C45.4572 178.496 46.7074 178.566 47.9804 178.594C48.9958 178.619 50.0323 178.617 50.9673 178.98L50.9696 178.991Z" fill="#FFC1D3"/>
<path d="M47.8419 160.004C48.6377 160.073 49.4305 160.018 50.2181 159.623C49.4576 158.65 48.1715 158.495 47.1707 157.897C46.2239 157.335 45.1921 156.899 44.2186 156.375C43.639 156.066 43.1401 155.696 42.8223 155.045C42.4168 154.216 41.6823 153.771 40.615 154.358C39.5238 154.961 38.9572 156.11 39.2842 157.011C39.618 157.947 40.5171 158.333 41.651 157.857C42.5728 157.471 43.3219 157.503 44.055 157.99C45.2441 158.78 46.7172 159.107 47.8492 160.003L47.8419 160.004Z" fill="#FFC1D3"/>
<path d="M39.962 168.606C39.8524 168.181 40.1311 167.644 39.7551 167.296C37.9987 167.117 36.1235 167.331 34.8784 165.778C34.2945 165.051 33.0741 165.254 32.2578 165.957C31.5934 166.524 31.3128 167.999 31.7045 168.839C32.0802 169.635 33.2611 170.207 33.9782 169.617C35.7305 168.166 37.377 168.488 39.0812 168.835C39.3775 168.894 39.6859 168.883 39.9539 168.613L39.962 168.606Z" fill="#FFC1D3"/>
<path d="M61.8441 146.926C62.4741 147.405 63.1793 147.769 63.9522 148.017C64.4068 147.127 63.6422 146.758 63.3578 146.226C62.5442 144.701 61.6032 143.259 60.7233 141.781C60.3714 141.19 60.2114 140.599 60.4122 139.78C60.6582 138.758 60.0204 138.166 59.0863 137.971C58.441 137.841 57.7114 137.895 57.3686 138.649C56.9879 139.492 56.5564 140.608 57.5146 141.023C59.4983 141.884 60.0049 143.916 61.1036 145.476C61.3986 145.898 62.0147 146.195 61.8398 146.93L61.8441 146.926Z" fill="#FFC1D3"/>
<path d="M50.2875 159.882C50.3393 159.933 50.3912 159.985 50.4431 160.036C50.5177 159.854 50.4834 159.78 50.2875 159.882Z" fill="#FFC1D3"/>
<path d="M81.5351 156.009C80.9794 155.39 80.4281 154.767 79.8647 154.148C79.5936 153.846 79.2292 153.661 78.7946 154.016C78.3513 154.38 78.4752 154.827 78.6976 155.119C79.2283 155.808 79.8503 156.421 80.402 157.098C81.2832 158.185 82.1248 159.309 83.0104 160.393C83.2482 160.684 83.4175 161.279 84.0156 160.885C84.6312 160.475 84.2946 160.003 84.1322 159.583C83.5706 158.162 82.5567 157.085 81.5384 156.013L81.5351 156.009Z" fill="#C7386C"/>
<path d="M83.1072 154.1C83.3498 154.428 83.6598 154.641 84.1152 154.339C84.497 154.085 84.5603 153.713 84.4109 153.36C83.6418 151.537 82.6028 149.886 81.5714 148.234C81.3948 147.947 81.0556 147.901 80.7275 148.147C80.3045 148.459 80.2684 148.853 80.4707 149.231C81.1759 150.564 81.8928 151.892 82.6064 153.217C82.7669 153.513 82.9349 153.808 83.103 154.104L83.1072 154.1Z" fill="#C7386C"/>
<path d="M76.9105 162.232C76.3652 161.701 75.6913 161.043 75.0086 160.394C74.7304 160.126 74.3971 159.841 73.9562 160.211C73.4716 160.62 73.6403 161.073 73.8895 161.414C74.9904 162.911 76.3193 164.196 77.7997 165.324C78.0155 165.486 78.2725 165.598 78.5849 165.357C78.9573 165.069 78.8591 164.775 78.7258 164.484C78.3437 163.625 77.5414 163.123 76.9105 162.232Z" fill="#C7386C"/>
<path d="M69.6297 166.55C70.9041 167.51 72.2977 168.441 73.9185 169.024C74.2531 169.146 74.7295 169.325 75.015 168.87C75.3466 168.346 74.9114 168.049 74.5819 167.829C73.2715 166.975 71.94 166.141 70.6023 165.326C70.201 165.085 69.7261 164.69 69.2321 165.289C68.755 165.873 69.3932 166.098 69.6306 166.543L69.6297 166.55Z" fill="#C7386C"/>
<path d="M82.3036 162.089C81.9409 161.832 81.7824 161.235 81.1296 161.724C80.4355 162.245 80.8328 162.611 81.0651 163.041C81.7082 164.226 82.3057 165.446 82.9605 166.627C83.1608 166.985 83.3388 167.605 83.9751 167.244C84.6028 166.891 84.4555 166.324 84.2697 165.851C83.7359 164.513 83.0853 163.241 82.3069 162.093L82.3036 162.089Z" fill="#C7386C"/>
<path d="M80.7006 171.778C80.9103 171.548 81.0804 171.297 81.0221 171.019C80.951 170.7 80.7325 170.5 80.3812 170.561C78.729 170.85 77.075 171.153 75.4241 171.459C75.108 171.521 74.8139 171.692 74.7727 172.07C74.7336 172.401 74.9691 172.546 75.2445 172.562C76.9591 172.666 78.6757 172.546 80.4004 171.941C80.5102 171.904 80.6102 171.83 80.7037 171.781L80.7006 171.778Z" fill="#C7386C"/>
<path d="M67.5326 184.742C67.8307 185.103 68.1479 185.185 68.479 185.208C69.8855 185.321 71.254 184.895 72.5897 184.27C72.9695 184.091 73.2712 183.769 73.1836 183.321C73.081 182.822 72.6136 182.881 72.2721 183.005C70.7858 183.536 69.3123 183.989 67.8033 183.821C67.619 183.804 67.3833 183.836 67.3902 184.104C67.398 184.365 67.4999 184.603 67.5365 184.738L67.5326 184.742Z" fill="#C7386C"/>
<path d="M76.319 179.859C76.7037 179.504 76.8875 179.208 76.6985 178.841C76.5434 178.539 76.2907 178.478 75.9525 178.615C74.7212 179.098 73.4887 179.562 72.2605 180.049C71.9153 180.185 71.6158 180.434 71.6441 180.842C71.6785 181.316 72.0503 181.278 72.3955 181.199C73.7665 180.883 75.144 180.6 76.3151 179.862L76.319 179.859Z" fill="#C7386C"/>
<path d="M73.325 176.519C73.143 176.677 73.1563 176.86 73.1888 177.057C73.2374 177.323 73.4092 177.428 73.6505 177.415C75.1297 177.338 76.5505 176.841 77.9319 176.147C78.2686 175.974 78.4329 175.612 78.3106 175.233C78.2159 174.945 77.9815 174.84 77.699 174.937C76.3108 175.423 74.9239 175.927 73.5409 176.427C73.4679 176.456 73.398 176.49 73.328 176.523L73.325 176.519Z" fill="#C7386C"/>
<path d="M60.371 226.918C59.0584 227.926 57.9647 229.091 57.7898 231.209C62.1824 229.037 67.1006 228.685 71.5734 226.924C76.194 225.101 78.7789 220.616 83.0664 217.824C83.5402 219.592 82.6867 220.37 82.1436 221.197C79.7119 224.858 77.6272 228.728 75.6082 232.631C75.1262 233.565 74.4387 234.466 74.6605 235.658C74.967 235.837 75.2729 236.025 75.5793 236.204C76.7017 235.325 77.1738 234.009 77.8005 232.792C85.5865 217.62 95.9931 204.767 110.359 195.444C112.363 194.146 114.342 192.71 117.659 192.086C112.762 202.461 106.875 211.439 100.863 220.341C101.038 220.448 101.214 220.546 101.386 220.648C105.821 217.116 108.383 212.116 111.29 207.422C113.439 203.953 115.752 200.423 116.973 196.559C119.165 189.624 124.715 187.908 130.736 186.51C130.921 186.465 131.126 186.499 131.326 186.497C131.615 186.332 131.759 186.338 131.599 186.728C127.352 191.927 122.271 196.428 118.88 202.352C116.041 207.316 114.465 212.725 113.235 218.176C114.369 219.074 114.97 218.525 115.59 218.041C115.318 216.564 115.857 215.39 116.615 214.174C118.777 210.701 120.792 207.129 122.888 203.616C124.772 200.459 125.955 196.786 129.211 194.627C130.507 188.402 134.505 185.025 140.582 183.9C144.747 183.134 148.922 182.397 153.109 181.756C154.204 181.586 155.407 181.237 157.102 182.315C148.193 185.663 141.183 190.736 137.39 199.361C141.745 196.648 145.857 193.668 149.616 190.119C151.786 188.075 153.818 185.454 157.253 185.169C163.081 179.964 169.941 181.676 176.75 182.929C178.621 183.275 180.475 184.249 182.542 183.632C181.961 182.298 180.822 182.352 179.945 182.09C175.314 180.7 170.587 179.614 165.808 179.713C160.341 179.828 155.188 178.521 150.022 176.801C147.757 176.048 146.55 174.079 144.721 172.861C142.988 172.868 141.395 172.399 139.924 171.403C136.486 169.082 132.849 167.233 128.842 166.16C127.634 165.835 126.304 165.438 125.606 164.139C122.92 164.555 124.202 165.663 125.394 166.431C129.221 168.901 133.174 171.121 137.544 172.477C139.601 173.112 141.589 173.973 143.541 175.064C136.187 175.014 128.862 173.695 121.644 175.125C121.722 175.569 121.804 176.018 121.882 176.462C132.075 175.815 142.189 176.694 152.361 178.689C152.025 180.401 150.918 180.078 150.167 180.18C136.774 182.076 123.991 185.665 112.186 192.166C107.497 194.749 102.05 195.158 96.9157 196.458C96.5921 198.853 94.3858 198.847 92.7981 199.513C86.9963 201.937 80.6783 202.661 74.6116 204.24C72.8548 204.699 71.2226 205.873 69.2179 205.354C67.717 206.664 68.2562 207.524 70.0026 207.433C78.4982 206.971 87.1019 206.88 94.2578 201.499C96.3557 199.923 98.6492 198.603 100.922 197.277C101.964 196.674 103.12 196.126 105.007 196.561C102.88 198.411 101.114 200.033 99.2489 201.54C94.3025 205.52 90.6805 210.875 85.5664 214.695C83.2689 216.416 80.555 217.279 78.0776 218.626C77.8286 219.898 76.9341 220.519 75.8633 221.115C72.6327 222.925 69.0129 223.781 65.5879 225.109C63.8819 225.772 62.6408 227.804 60.3541 226.917L60.371 226.918Z" fill="#6BA270"/>
<path d="M74.7927 236.866C74.4943 236.685 74.1875 236.504 73.8847 236.327C70.2521 236.187 66.5986 235.978 63.7374 238.691C63.0477 239.346 62.3569 240.017 61.774 240.77C60.9864 241.783 60.3447 242.941 61.1455 244.256C61.9049 245.496 63.247 245.92 64.5076 245.641C66.6682 245.16 68.1473 245.468 68.5362 248.014C68.5902 248.355 69.0211 248.959 69.1857 248.938C71.9127 248.568 73.6242 250.979 75.8817 251.558C77.9743 252.096 79.1752 250.228 79.5888 248.303C80.2864 245.05 79.3837 242.087 77.1814 239.492C76.4172 238.595 75.5956 237.746 74.7966 236.871L74.7927 236.866Z" fill="#EF7FA0"/>
<path d="M100.853 220.882C100.684 220.782 100.507 220.68 100.337 220.579C97.24 219.975 94.1634 219.306 91.247 221.018C89.5585 222.015 87.5857 222.945 87.884 225.257C88.1714 227.477 90.068 227.831 91.9771 227.718C92.1658 227.708 92.5298 227.769 92.5316 227.807C92.7966 231.32 96.6968 231.119 98.1569 233.369C99.846 235.968 101.776 235.987 103.232 233.362C105 230.166 104.628 227.027 102.705 223.886C102.091 222.88 100.999 222.159 100.85 220.878L100.853 220.882Z" fill="#EF7FA0"/>
<path d="M122.455 176.839C122.374 176.395 122.296 175.956 122.219 175.517C120.393 171.576 117.282 169.675 113.074 169.515C111.854 169.468 110.669 169.604 110.064 170.825C109.489 171.99 109.654 173.104 110.692 174.046C111.401 174.692 111.953 175.375 111.298 176.34C110.519 177.48 110.765 178.565 111.661 179.572C112.28 180.263 112.135 180.977 112.071 181.787C111.839 184.901 113.558 186.134 116.454 184.977C120.093 183.521 122.009 180.74 122.458 176.852L122.455 176.839Z" fill="#EF7FA0"/>
<path d="M129.075 194.407C125.813 196.57 124.625 200.245 122.742 203.413C120.646 206.937 118.624 210.511 116.459 213.989C115.699 215.207 115.163 216.389 115.431 217.863C124.704 212.927 128.306 204.533 129.071 194.411L129.075 194.407Z" fill="#8AB696"/>
<path d="M69.4678 206.186C71.4725 206.705 73.1046 205.531 74.8613 205.072C80.9233 203.497 87.241 202.773 93.0471 200.346C94.6303 199.683 96.8365 199.689 97.1645 197.29C88.195 197.819 79.3222 198.696 71.7917 204.043C70.9275 204.655 69.9799 205.178 69.4684 206.177L69.4678 206.186Z" fill="#8AB696"/>
<path d="M157.35 184.447C153.884 184.738 151.836 187.381 149.655 189.439C145.873 193.013 141.724 196.022 137.337 198.758C138.356 200.202 139.47 199.242 140.524 198.968C148.531 196.904 153.231 191.008 157.35 184.447Z" fill="#8AB696"/>
<path d="M60.1479 227.833C62.4408 228.723 63.6853 226.685 65.396 226.02C68.8304 224.688 72.4561 223.825 75.6996 222.014C76.7693 221.412 77.6662 220.789 77.9199 219.518C70.8619 219.984 64.3874 221.644 60.1518 227.838L60.1479 227.833Z" fill="#8AB696"/>
<path d="M126.501 164.184C127.19 165.463 128.492 165.848 129.678 166.167C133.607 167.224 137.182 169.036 140.556 171.314C142 172.291 143.568 172.756 145.265 172.744C140.291 166.858 134.286 163.417 126.501 164.175L126.501 164.184Z" fill="#8AB696"/>
<path d="M51.1999 191.115C49.975 190.113 48.4133 190.11 47.3394 190.611C45.9721 191.25 46.0109 192.819 46.8152 194.142C47.689 195.572 48.9243 195.852 50.3475 195.04C52.0188 194.086 51.2128 192.529 51.1999 191.115Z" fill="#EF9AB3"/>
<path d="M72.8812 185.436C73.7249 186.384 74.5932 187.35 75.9073 186.697C77.1087 186.098 77.8877 185.139 77.1445 183.645C76.5313 182.41 75.5154 181.837 74.2463 182.396C72.9693 182.957 72.4485 184.02 72.8812 185.436Z" fill="#EF9AB3"/>
<path d="M158.348 163.546C158.151 162.133 157.281 161.353 155.941 161.453C154.554 161.553 153.492 162.302 153.798 163.922C154.028 165.141 154.65 166.248 156.171 166.019C157.522 165.816 158.578 165.222 158.348 163.546Z" fill="#EF9AB3"/>
<path d="M58.5606 211.959C57.7636 210.898 56.7616 210.267 55.5362 210.972C54.3292 211.666 53.8226 212.768 54.6186 214.153C55.3077 215.341 56.3115 215.941 57.5184 215.065C58.512 214.342 59.5545 213.475 58.5631 211.954L58.5606 211.959Z" fill="#EF9AB3"/>
<path d="M161.739 49.3834C162.502 48.3141 163.396 47.4142 165.073 47.2175C163.473 50.763 163.332 54.676 162.06 58.274C160.744 61.991 157.255 64.1652 155.159 67.6444C156.576 67.972 157.17 67.2734 157.811 66.8198C160.65 64.7897 163.665 63.0292 166.707 61.3201C167.436 60.912 168.132 60.3417 169.084 60.4852C169.235 60.7235 169.393 60.9611 169.544 61.1994C168.878 62.1142 167.846 62.5249 166.897 63.0556C155.068 69.65 145.155 78.2608 138.157 89.9174C137.183 91.5435 136.099 93.1533 135.698 95.8031C143.798 91.6322 150.762 86.7151 157.662 81.6996C157.752 81.8359 157.835 81.9729 157.92 82.1062C155.241 85.723 151.343 87.8932 147.697 90.3289C145.002 92.1291 142.265 94.0616 139.231 95.1358C133.785 97.0652 132.579 101.517 131.639 106.334C131.609 106.482 131.641 106.644 131.646 106.802C131.523 107.037 131.531 107.151 131.837 107.013C135.846 103.5 139.276 99.3444 143.886 96.4911C147.747 94.1019 151.998 92.7036 156.293 91.5776C157.038 92.453 156.619 92.9458 156.252 93.4503C155.072 93.275 154.154 93.7353 153.21 94.3701C150.513 96.1806 147.734 97.8778 145.003 99.6376C142.549 101.219 139.665 102.258 138.043 104.902C133.136 106.101 130.567 109.366 129.846 114.219C129.355 117.546 128.888 120.88 128.497 124.22C128.394 125.094 128.15 126.059 129.054 127.374C131.461 120.211 135.291 114.509 142.034 111.263C140.002 114.793 137.753 118.139 135.04 121.219C133.479 122.997 131.454 124.681 131.325 127.416C127.356 132.184 128.91 137.581 130.099 142.951C130.426 144.426 131.253 145.871 130.82 147.529C129.745 147.104 129.756 146.198 129.523 145.509C128.288 141.872 127.291 138.15 127.234 134.354C127.171 130.013 125.987 125.959 124.475 121.906C123.812 120.129 122.214 119.225 121.195 117.806C121.152 116.431 120.734 115.18 119.902 114.039C117.961 111.374 116.389 108.539 115.424 105.388C115.131 104.438 114.779 103.393 113.727 102.874C113.981 100.731 114.898 101.718 115.542 102.644C117.612 105.613 119.487 108.689 120.687 112.121C121.25 113.736 121.99 115.29 122.911 116.81C122.663 110.975 121.409 105.197 122.34 99.4295C122.695 99.4793 123.054 99.5321 123.409 99.5819C123.184 107.689 124.168 115.692 126.04 123.71C127.39 123.397 127.102 122.528 127.162 121.928C128.289 111.247 130.778 101.004 135.606 91.4573C137.524 87.665 137.695 83.3308 138.582 79.2204C140.475 78.898 140.408 77.1472 140.892 75.8689C142.653 71.1979 143.049 66.1639 144.131 61.3059C144.446 59.8991 145.332 58.5716 144.863 56.9948C145.861 55.7677 146.559 56.1721 146.536 57.5606C146.41 64.3158 146.581 71.1465 142.511 76.9731C141.318 78.6811 140.335 80.5375 139.346 82.3776C138.897 83.2207 138.494 84.1537 138.894 85.6395C140.302 83.9003 141.541 82.4543 142.685 80.9331C145.706 76.8985 149.856 73.8774 152.744 69.7141C154.047 67.8436 154.655 65.6661 155.655 63.6631C156.658 63.4307 157.126 62.7037 157.569 61.8377C158.915 59.2242 159.492 56.3279 160.45 53.5733C160.928 52.2012 162.506 51.1606 161.737 49.3701L161.739 49.3834Z" fill="#6BA270"/>
<path d="M170.05 60.5571C169.898 60.3252 169.745 60.0867 169.596 59.8512C169.382 56.972 169.113 54.0782 171.187 51.7332C171.687 51.1679 172.201 50.6012 172.782 50.118C173.565 49.4653 174.466 48.9243 175.533 49.5238C176.54 50.0926 176.914 51.1462 176.728 52.1543C176.407 53.8822 176.694 55.0477 178.727 55.2866C178.999 55.3202 179.491 55.6457 179.479 55.7769C179.262 57.9513 181.226 59.2436 181.75 61.0194C182.236 62.6655 180.787 63.6697 179.269 64.0506C176.705 64.6933 174.327 64.0579 172.204 62.381C171.47 61.7991 170.772 61.1702 170.054 60.56L170.05 60.5571Z" fill="#EF7FA0"/>
<path d="M158.092 81.6761C158.008 81.5445 157.922 81.4064 157.837 81.2748C157.269 78.8332 156.651 76.4098 157.928 74.0483C158.672 72.681 159.355 71.0898 161.2 71.2633C162.971 71.4307 163.305 72.9262 163.27 74.4444C163.267 74.5945 163.326 74.8817 163.356 74.8821C166.154 74.9962 166.105 78.0971 167.933 79.1944C170.045 80.4639 170.115 81.9952 168.071 83.2226C165.583 84.713 163.08 84.5037 160.531 83.0636C159.714 82.6038 159.111 81.7569 158.089 81.6732L158.092 81.6761Z" fill="#EF7FA0"/>
<path d="M123.726 100.023C123.371 99.9712 123.02 99.922 122.669 99.8727C119.488 98.5309 117.89 96.1143 117.644 92.7791C117.572 91.812 117.646 90.8674 118.599 90.3545C119.508 89.8658 120.397 89.9661 121.175 90.7644C121.707 91.3098 122.266 91.7291 123.014 91.1827C123.897 90.533 124.766 90.6988 125.591 91.3824C126.157 91.8544 126.72 91.7196 127.362 91.6472C129.828 91.3773 130.856 92.7085 130.019 95.0382C128.966 97.9661 126.812 99.5633 123.737 100.026L123.726 100.023Z" fill="#EF7FA0"/>
<path d="M137.865 104.8C139.491 102.152 142.376 101.108 144.838 99.5272C147.577 97.7675 150.358 96.0645 153.06 94.2511C154.006 93.6151 154.929 93.1571 156.107 93.3297C152.45 100.824 145.886 103.912 137.868 104.796L137.865 104.8Z" fill="#8AB696"/>
<path d="M145.532 57.1692C146.001 58.7459 145.115 60.0734 144.8 61.4801C143.721 66.3343 143.325 71.3682 141.561 76.0426C141.08 77.3171 141.148 79.0679 139.252 79.3939C139.417 72.2608 139.863 65.1949 143.896 59.0721C144.357 58.3695 144.746 57.6031 145.525 57.1698L145.532 57.1692Z" fill="#8AB696"/>
<path d="M130.756 127.51C130.889 124.751 132.93 123.054 134.502 121.267C137.234 118.167 139.506 114.792 141.555 111.235C142.73 112.005 142 112.915 141.812 113.759C140.399 120.17 135.85 124.062 130.756 127.51Z" fill="#8AB696"/>
<path d="M162.46 49.1807C163.231 50.9761 161.648 52.0196 161.169 53.3954C160.208 56.1576 159.625 59.0588 158.279 61.6824C157.831 62.5479 157.361 63.2768 156.359 63.5129C156.53 57.8986 157.664 52.7147 162.464 49.1837L162.46 49.1807Z" fill="#8AB696"/>
<path d="M113.788 103.582C114.824 104.094 115.166 105.117 115.453 106.049C116.404 109.139 117.944 111.926 119.849 114.542C120.666 115.661 121.08 116.893 121.118 118.24C116.302 114.453 113.399 109.782 113.781 103.583L113.788 103.582Z" fill="#8AB696"/>
<path d="M133.045 43.0839C132.215 42.1392 132.168 40.8998 132.535 40.0338C133.004 38.9312 134.251 38.9191 135.325 39.5212C136.485 40.1756 136.743 41.1483 136.138 42.3C135.428 43.6525 134.168 43.0555 133.045 43.0839Z" fill="#EF9AB3"/>
<path d="M129.149 60.446C129.926 61.0898 130.718 61.7524 130.236 62.8132C129.794 63.7831 129.054 64.4276 127.847 63.8787C126.849 63.4258 126.365 62.6352 126.773 61.6127C127.183 60.5838 128.012 60.1414 129.149 60.446Z" fill="#EF9AB3"/>
<path d="M114.184 128.874C113.057 128.756 112.413 128.087 112.454 127.021C112.494 125.918 113.059 125.054 114.354 125.252C115.329 125.402 116.226 125.866 116.087 127.078C115.964 128.156 115.522 129.011 114.184 128.874Z" fill="#EF9AB3"/>
<path d="M149.809 48.3559C148.944 47.7524 148.415 46.9744 148.939 45.9826C149.456 45.0057 150.318 44.5735 151.44 45.1673C152.403 45.6817 152.908 46.4619 152.246 47.4438C151.7 48.2521 151.041 49.1032 149.805 48.358L149.809 48.3559Z" fill="#EF9AB3"/>
</svg>
