<svg width="186" height="375" viewBox="0 0 186 375" fill="none" xmlns="http://www.w3.org/2000/svg">
<path d="M14.1697 335.243C54.3923 355.908 90.925 310.888 82.8066 279.153C74.6882 247.418 106.424 221.217 133.362 215.313" stroke="#EF9AB3" stroke-linecap="round" stroke-linejoin="round" stroke-dasharray="8 8"/>
<path d="M68.382 130.33C67.4689 128.067 67.5032 125.956 67.5657 123.877C67.6816 119.982 68.6215 116.491 71.4064 113.984C71.9926 113.454 72.6746 113.026 73.4487 112.723C75.3867 111.96 77.7774 112.91 79.5605 115.085C79.8705 115.466 80.089 116.058 80.6778 116.054C81.1823 116.051 81.0465 115.51 81.1209 115.161C82.0611 110.606 83.7014 106.467 87.1043 103.388C89.2075 101.487 91.6601 99.9882 94.806 99.3409C100.663 98.1308 105.939 101.114 109.644 106.627C112.465 110.824 113.443 114.969 112.759 118.95C112.692 119.346 112.698 119.767 112.686 120.183C112.682 120.239 112.784 120.328 112.876 120.454C113.738 120.238 114.184 119.582 114.802 119.123C117.806 116.899 121.072 115.007 125.415 114.581C128.625 114.27 131.991 114.681 135.285 116.947C139.2 119.638 141.153 123.919 140.495 127.904C140.003 130.894 138.607 133.356 136.784 135.563C136.569 135.818 136.066 136.041 136.423 136.459C136.777 136.87 137.232 136.609 137.618 136.541C140.558 136.03 143.573 135.894 147.004 137.315C152.266 139.493 155.207 143.784 154.327 148.105C153.318 153.044 150.223 156.412 145.75 158.718C144.597 159.313 143.368 159.812 142.176 160.353C141.6 160.278 141.096 160.442 141.281 160.968C141.461 161.486 142.097 161.438 142.557 161.49C142.677 161.503 142.776 161.436 142.881 161.403C145.98 162.041 148.943 163.17 151.63 165.371C153.94 167.266 154.879 169.646 154.2 171.745C153.143 175.005 150.269 176.606 147.13 177.947C143.145 179.642 138.487 180.005 133.617 179.923C133.408 179.92 133.181 179.847 132.962 179.805C133.038 179.419 133.501 179.479 133.792 179.341C135.917 178.34 137.526 176.934 137.269 174.303C136.987 171.39 134.825 169.219 131.99 167.342C129.873 165.939 127.537 165.475 125.347 164.385C126.18 163.848 127.259 163.666 128.305 163.462C129.617 163.207 130.892 162.91 132.532 163.432C133.885 163.858 134.733 163.271 135.09 162.286C135.424 161.354 134.734 160.108 133.715 159.638C132.399 159.029 130.753 159.312 130.714 160.323C130.661 161.813 129.474 161.731 128.191 161.643C128.64 160.673 129.678 160.18 130.273 159.323C131.652 157.318 132.801 155.233 131.885 152.252C132.268 152.481 132.594 152.437 132.881 152.324C134.534 151.67 136.123 151.051 138.509 152.223C139.483 152.7 140.502 151.913 140.586 151.024C140.675 150.094 139.825 148.637 138.909 148.17C137.789 147.595 136.437 147.603 136.104 148.45C135.396 150.261 133.356 150.373 131.596 150.871C131.425 150.653 131.231 150.438 131.086 150.208C129.244 147.283 126.505 145.749 123.276 144.814C121.854 144.403 120.598 144.689 119.193 144.223C120.007 143.118 121.384 142.52 122.298 141.509C122.862 140.886 123.612 140.719 124.694 140.947C126.02 141.225 126.79 140.674 126.785 139.67C126.778 138.703 125.773 137.636 124.437 137.219C123.125 136.81 122.551 137.395 122.449 138.307C122.367 139.027 122.001 139.486 121.527 139.902C120.733 140.606 119.846 141.231 119.094 141.968C118.294 142.749 117.049 143.137 116.64 144.258L116.644 144.25C116.413 144.186 116.406 144.267 116.549 144.437C113.965 144.691 111.627 145.36 109.401 146.208C108.553 146.534 107.676 146.817 106.925 147.276C106.724 147.4 106.409 147.514 106.096 147.238C105.818 146.992 106.063 146.813 106.084 146.605C106.187 145.673 106.625 144.905 106.871 144.046C107.377 142.3 107.976 140.578 107.735 138.539C108.131 138.77 108.294 138.572 108.47 138.391C110.273 136.569 112.172 134.816 113.834 132.883C114.387 132.238 114.829 132.088 115.865 132.455C117.336 132.979 118.206 132.618 118.32 131.563C118.446 130.451 117.498 129.848 116.441 129.319C115.206 128.702 114.143 128.817 113.743 129.691C112.459 132.493 110.009 134.372 107.844 136.481C107.549 135.856 107.205 135.231 106.966 134.606C106.259 132.736 104.774 131.535 102.739 131.249C101.368 131.058 100.284 131.43 99.2046 131.824C98.691 132.01 98.3355 132.507 97.5304 132.172C97.0942 131.469 97.5887 131.054 97.723 130.583C98.2323 128.827 97.989 126.696 99.6281 125.478C100.421 124.891 99.5881 123.845 98.9025 123.073C98.2881 122.378 97.5493 122.454 96.9608 122.699C96.1062 123.058 95.6947 123.766 96.3169 124.749C96.8133 125.539 96.8723 126.16 96.7439 126.811C96.4164 128.454 96.0175 130.067 95.7762 131.737C95.6927 132.316 95.0671 132.824 95.8466 133.638C95.2603 134.056 94.6345 134.435 94.1007 134.893C93.1623 135.703 92.2841 136.569 91.3664 137.396C91.1679 137.58 90.9677 137.88 90.5491 137.637C90.2244 137.451 90.2407 137.107 90.2234 136.84C90.1832 136.256 90.1729 135.683 90.1645 135.106C90.1036 130.796 89.3543 126.43 86.7275 121.962C83.8112 117 80.4729 115.737 76.6776 117.27C73.7106 118.472 71.6979 120.664 70.4438 123.445C69.4662 125.603 68.6332 127.816 68.3876 130.317L68.382 130.33Z" fill="#EF9AB3"/>
<path d="M67.0588 134.875C67.3023 132.428 68.1269 130.265 69.0945 128.153C70.3358 125.434 72.322 123.286 75.2632 122.115C79.013 120.614 82.3155 121.851 85.2054 126.709C87.8053 131.078 88.5439 135.354 88.6034 139.57C88.6116 140.134 88.6272 140.698 88.6613 141.266C88.6784 141.527 88.6565 141.861 88.9834 142.046C89.403 142.287 89.5956 141.99 89.792 141.81C90.7001 141.001 91.5692 140.155 92.4977 139.363C93.0278 138.911 93.647 138.54 94.2254 138.136C94.8891 137.758 95.4451 137.279 95.886 136.7C96.6824 137.028 97.0343 136.541 97.5424 136.36C98.6107 135.975 99.6845 135.608 101.039 135.799C103.053 136.08 104.522 137.255 105.22 139.085C105.455 139.701 105.797 140.308 106.089 140.919C105.758 141.501 106 142.258 105.981 142.933C106.219 144.928 105.626 146.612 105.125 148.32C104.881 149.16 104.448 149.911 104.345 150.823C104.325 151.027 104.082 151.202 104.357 151.442C104.668 151.712 104.981 151.597 105.178 151.48C105.921 151.031 106.783 150.752 107.627 150.436C109.832 149.603 112.145 148.95 114.7 148.707C114.733 148.647 114.766 148.587 114.8 148.526L114.791 148.532C115.726 148.78 116.55 148.699 117.323 148.497C118.708 148.95 119.956 148.674 121.363 149.077C124.552 149.99 127.261 151.492 129.089 154.357C129.232 154.582 129.426 154.788 129.593 155.006C129.337 155.415 129.826 155.909 129.873 156.354C130.779 159.271 129.642 161.311 128.277 163.271C127.687 164.114 126.665 164.598 126.217 165.54C124.954 165.944 123.972 166.686 122.857 167.271C122.562 167.423 121.907 167.419 122.198 167.924C122.465 168.386 122.992 168.162 123.404 168.232C125.565 169.296 127.876 169.752 129.976 171.128C132.781 172.965 134.919 175.09 135.197 177.94C135.45 180.518 133.859 181.889 131.757 182.867C131.469 183.002 131.011 182.944 130.935 183.321C130.818 183.335 130.703 183.345 130.587 183.359C124.101 184.49 117.205 183.233 110.078 180.34C104.729 178.17 99.5063 175.635 94.6811 172.146C94.1035 171.729 93.6018 171.185 92.9038 170.948C92.6839 170.219 91.8485 169.916 91.3579 169.364C88.8139 166.507 85.7881 164.103 82.5585 161.912C81.552 161.227 80.9253 160.196 79.8094 159.649C77.9102 157.483 75.8571 155.4 74.1619 153.116C69.7155 147.123 67.1005 141.071 67.0699 134.897L67.0588 134.875ZM80.3436 148.451C79.7645 149.677 79.1798 150.9 79.1521 152.382C79.1471 152.819 78.9938 153.342 79.7252 153.629C80.4381 153.912 80.3817 153.3 80.5037 152.974C80.9585 151.764 81.3576 150.523 81.8069 149.309C82.0879 148.558 82.4617 147.848 82.7205 147.085C82.8295 146.757 82.7936 146.303 82.2366 146.028C81.6982 145.757 81.4239 146.004 81.2685 146.343C80.9503 147.037 80.6544 147.743 80.3455 148.447L80.3436 148.451ZM77.2703 146.597C77.3274 146.278 77.3826 145.963 77.4342 145.64C77.6512 144.215 77.8701 142.786 78.076 141.355C78.1367 140.948 77.9636 140.57 77.4307 140.335C77.0204 140.151 76.7033 140.259 76.6369 140.568C76.233 142.371 75.8161 144.173 75.7203 146.094C75.7041 146.462 75.8994 146.821 76.3654 147.005C76.9205 147.221 77.1465 146.958 77.2647 146.594L77.2703 146.597ZM88.187 154.204C87.9025 155.184 87.3152 155.813 87.257 156.718C87.2389 157.028 87.2449 157.329 87.7035 157.545C88.0822 157.722 88.2935 157.572 88.4417 157.376C89.453 156.016 90.2637 154.531 90.781 152.878C90.8974 152.503 90.8986 152.027 90.2877 151.717C89.7288 151.43 89.5178 151.769 89.3475 152.079C88.9273 152.832 88.5238 153.594 88.187 154.204ZM97.7044 157.528C97.7761 157.049 98.3249 156.712 97.6396 156.225C96.9338 155.721 96.606 156.185 96.3022 156.499C95.2812 157.534 94.2732 158.586 93.2931 159.654C93.043 159.925 92.7281 160.296 93.2463 160.754C93.6941 161.152 94.0982 160.893 94.3837 160.715C95.7686 159.86 96.8005 158.706 97.7082 157.535L97.7044 157.528ZM82.5916 154.71C82.2444 155.974 82.0681 157.338 82.0311 158.747C82.0206 159.244 82.0826 159.828 82.8288 160.066C83.5862 160.31 83.5352 159.669 83.6015 159.282C83.8206 158.01 83.9617 156.71 84.1585 155.426C84.2303 154.963 84.4876 154.534 83.615 154.143C82.7944 153.775 82.8565 154.39 82.5934 154.706L82.5916 154.71ZM88.7109 164.425C88.8334 164.461 88.9671 164.519 89.0915 164.535C91.1385 164.85 92.9919 164.677 94.7577 164.277C95.0415 164.214 95.2342 164.027 95.0668 163.699C94.877 163.327 94.4965 163.202 94.1477 163.193C92.2866 163.163 90.433 163.148 88.5849 163.135C88.1915 163.133 88.0378 163.373 88.0847 163.708C88.1296 164 88.4045 164.224 88.7128 164.42L88.7109 164.425ZM108.797 175.693C108.778 175.546 108.796 175.284 108.709 175.026C108.614 174.754 108.354 174.763 108.166 174.812C106.638 175.237 104.914 175.037 103.157 174.755C102.75 174.688 102.234 174.713 102.319 175.231C102.392 175.695 102.83 175.973 103.305 176.088C104.953 176.493 106.549 176.686 107.985 176.329C108.326 176.245 108.628 176.108 108.802 175.696L108.797 175.693ZM97.2526 172.054C98.7878 172.606 100.369 172.66 101.955 172.748C102.36 172.772 102.772 172.747 102.621 172.256C102.494 171.835 102.078 171.632 101.657 171.552C100.157 171.266 98.6614 171.002 97.1599 170.72C96.7442 170.643 96.4994 170.744 96.4498 171.078C96.3909 171.48 96.6993 171.755 97.2471 172.051L97.2526 172.054ZM98.7966 168.077C98.7094 168.055 98.6166 168.03 98.5331 168.016C96.8665 167.747 95.198 167.467 93.5333 167.211C93.19 167.158 92.9805 167.304 92.9958 167.616C93.0112 168.023 93.3252 168.363 93.7503 168.482C95.4858 168.956 97.1913 169.214 98.796 169.04C99.0576 169.011 99.2003 168.875 99.1499 168.596C99.1143 168.393 99.051 168.206 98.7985 168.073L98.7966 168.077Z" fill="#EF7FA0"/>
<path d="M77.1516 168.331C78.2973 168.904 78.9448 169.994 79.9745 170.705C83.2905 173.004 86.3974 175.527 89.0099 178.525C89.5137 179.105 90.377 179.426 90.5973 180.188C87.9078 180.138 85.1938 179.101 82.5046 178.039C81.4658 177.631 80.6391 177.573 79.8798 177.97C72.458 181.846 64.2151 184.506 55.5044 186.485C55.2436 186.548 54.8835 186.494 54.7055 187.141C56.006 186.872 57.2349 187.101 58.4196 187.069C64.4895 186.915 70.2573 186.024 76.3177 185.842C81.3478 185.697 86.418 185.689 91.7489 186.631C93.2807 186.899 94.8277 187.197 96.3396 188.075C98.1699 189.137 98.9207 190.549 98.2926 191.967C97.2907 194.224 94.9933 195.164 92.5183 195.856C88.5508 196.967 84.1013 196.884 79.5409 196.48C69.4332 195.59 59.198 193.621 48.9028 189.953C45.7754 188.838 43.2419 188.639 40.6715 189.222C38.8589 189.627 36.9623 189.88 35.1 190.201C34.5859 190.292 33.9978 190.588 33.5035 189.969C32.9672 189.299 33.3452 188.681 33.8287 188.48C35.3114 187.851 35.7262 186.452 36.4652 185.273C38.0115 182.788 39.0316 179.991 40.1985 177.283C42.2458 172.534 44.1177 167.682 46.8151 163.321C48.633 160.385 50.4643 157.45 53.1938 155.202C54.0726 154.476 54.9895 153.809 56.3035 153.625C58.4324 153.327 60.5848 154.581 61.5179 156.712C62.5331 159.031 62.3232 161.096 61.9799 163.124C61.1198 168.232 58.5971 172.318 55.1821 175.818C51.6511 179.441 47.7919 182.752 43.4712 185.634C43.2429 185.786 42.6812 185.921 43.0057 186.356C43.3665 186.839 43.8517 186.535 44.1678 186.476C49.0404 185.588 53.8461 184.574 58.5239 183.345C65.7033 181.461 72.2967 178.758 78.6418 175.69C79.6619 175.197 79.7561 174.596 78.9086 173.493C78.3532 172.768 77.8719 172.002 77.4478 171.236C76.8728 170.192 76.6197 169.175 77.1402 168.325L77.1516 168.331Z" fill="#6BB194"/>
<path d="M139.741 158.909C139.635 158.942 139.529 159.008 139.414 158.998C138.957 158.948 138.313 158.989 138.128 158.468C137.942 157.936 138.45 157.77 139.031 157.845C139.099 158.257 139.391 158.594 139.739 158.914L139.741 158.909Z" fill="#FFC1D3"/>
<path d="M107.714 138.925C107.743 138.159 107.473 137.299 107.833 136.645C110.171 134.31 112.818 132.228 114.206 129.125C114.639 128.156 115.787 128.029 117.121 128.713C118.256 129.296 119.279 129.964 119.149 131.2C119.023 132.373 118.086 132.768 116.497 132.188C115.378 131.78 114.9 131.946 114.304 132.661C112.508 134.802 110.456 136.743 108.508 138.762C108.318 138.961 108.142 139.181 107.714 138.925Z" fill="#FFC1D3"/>
<path d="M121.906 164.701C121.476 164.626 120.926 164.867 120.646 164.37C120.343 163.826 121.025 163.835 121.335 163.667C122.498 163.035 123.523 162.235 124.842 161.799C126.165 161.895 127.391 161.981 127.447 160.406C127.482 159.338 129.186 159.047 130.547 159.683C131.606 160.182 132.315 161.486 131.968 162.473C131.603 163.518 130.721 164.134 129.325 163.681C127.63 163.137 126.315 163.446 124.959 163.715C123.879 163.931 122.765 164.123 121.904 164.689L121.906 164.701Z" fill="#FFC1D3"/>
<path d="M118.467 143.499C117.634 143.73 116.755 143.824 115.745 143.54C116.18 142.317 117.51 141.896 118.354 141.041C119.155 140.237 120.097 139.555 120.941 138.787C121.445 138.333 121.838 137.827 121.922 137.047C122.03 136.052 122.648 135.418 124.036 135.86C125.457 136.314 126.527 137.473 126.533 138.533C126.545 139.631 125.726 140.232 124.309 139.926C123.158 139.678 122.361 139.86 121.762 140.539C120.79 141.643 119.327 142.291 118.459 143.5L118.467 143.499Z" fill="#FFC1D3"/>
<path d="M129.972 149.64C129.923 149.165 129.414 148.643 129.681 148.201C131.493 147.684 133.587 147.566 134.314 145.674C134.655 144.789 136.043 144.78 137.193 145.38C138.128 145.864 139.006 147.389 138.916 148.36C138.825 149.281 137.783 150.111 136.783 149.613C134.336 148.386 132.697 149.035 131.006 149.722C130.711 149.84 130.376 149.886 129.983 149.646L129.972 149.64Z" fill="#FFC1D3"/>
<path d="M98.9028 135.15C98.4068 135.822 97.7815 136.378 97.0352 136.816C96.1753 135.895 96.8631 135.32 96.9586 134.657C97.2306 132.757 97.6757 130.925 98.0394 129.065C98.1849 128.321 98.1198 127.615 97.5665 126.723C96.8816 125.609 97.3399 124.806 98.2844 124.396C98.9392 124.118 99.7608 124.033 100.443 124.823C101.203 125.705 102.13 126.889 101.248 127.555C99.4242 128.936 99.6949 131.351 99.1247 133.349C98.9729 133.889 98.4184 134.351 98.909 135.153L98.9028 135.15Z" fill="#FFC1D3"/>
<path d="M115.758 144.777C115.722 144.843 115.687 144.91 115.651 144.976C115.5 144.791 115.507 144.703 115.758 144.777Z" fill="#FFC1D3"/>
<path d="M80.8051 151.682C81.166 150.847 81.5204 150.009 81.89 149.173C82.0661 148.766 82.3942 148.475 83.0243 148.799C83.6673 149.131 83.715 149.677 83.5889 150.062C83.2845 150.973 82.8475 151.815 82.5149 152.715C81.9865 154.162 81.5168 155.643 80.982 157.086C80.8385 157.474 80.897 158.201 80.0692 157.866C79.2154 157.515 79.3937 156.897 79.4004 156.375C79.4356 154.606 80.116 153.145 80.8029 151.687L80.8051 151.682Z" fill="#C7386C"/>
<path d="M78.6303 150.395C78.4978 150.817 78.2449 151.121 77.6241 150.87C77.1029 150.658 76.8826 150.247 76.903 149.817C77.005 147.592 77.4724 145.509 77.9315 143.427C78.008 143.064 78.3607 142.944 78.8196 143.157C79.4093 143.427 79.6089 143.868 79.5408 144.337C79.3096 145.992 79.064 147.645 78.8204 149.293C78.7646 149.661 78.7006 150.03 78.6365 150.399L78.6303 150.395Z" fill="#C7386C"/>
<path d="M88.0131 156.678C88.3979 155.951 88.8728 155.052 89.3607 154.16C89.5584 153.794 89.8099 153.396 90.4504 153.734C91.1554 154.108 91.1554 154.667 91.0201 155.112C90.4183 157.07 89.4769 158.829 88.3034 160.438C88.1315 160.67 87.8929 160.852 87.448 160.638C86.9171 160.381 86.9042 160.019 86.9321 159.656C87.0009 158.583 87.6822 157.838 88.0131 156.678Z" fill="#C7386C"/>
<path d="M97.4404 159.217C96.4377 160.554 95.2932 161.881 93.7603 162.862C93.4443 163.065 92.9969 163.362 92.5016 162.906C91.9283 162.381 92.2831 161.959 92.5538 161.645C93.6388 160.421 94.7547 159.215 95.8849 158.029C96.2254 157.677 96.5842 157.138 97.3651 157.715C98.1212 158.279 97.5159 158.66 97.4363 159.209L97.4404 159.217Z" fill="#C7386C"/>
<path d="M82.1355 158.529C82.4277 158.166 82.359 157.459 83.27 157.882C84.2388 158.332 83.9529 158.825 83.873 159.358C83.6499 160.825 83.4906 162.324 83.253 163.789C83.1792 164.235 83.2355 164.971 82.3947 164.69C81.5662 164.416 81.4976 163.745 81.5094 163.174C81.5511 161.555 81.7474 159.987 82.1334 158.534L82.1355 158.529Z" fill="#C7386C"/>
<path d="M87.4478 167.926C87.1355 167.725 86.857 167.495 86.8114 167.196C86.7639 166.852 86.9195 166.606 87.318 166.607C89.1919 166.615 91.0733 166.637 92.9528 166.663C93.3137 166.671 93.6936 166.797 93.884 167.182C94.0537 167.519 93.8585 167.711 93.571 167.776C91.7824 168.187 89.905 168.366 87.8314 168.043C87.6998 168.024 87.5644 167.964 87.446 167.931L87.4478 167.926Z" fill="#C7386C"/>
<path d="M106.199 178.097C106.021 178.526 105.714 178.667 105.37 178.75C103.913 179.118 102.288 178.917 100.621 178.504C100.146 178.385 99.6993 178.103 99.6194 177.622C99.5357 177.084 100.057 177.063 100.47 177.131C102.261 177.419 104.009 177.629 105.554 177.187C105.744 177.136 106.007 177.127 106.104 177.408C106.197 177.68 106.18 177.946 106.193 178.094L106.199 178.097Z" fill="#C7386C"/>
<path d="M95.0366 175.143C94.4914 174.85 94.1827 174.582 94.2431 174.18C94.2926 173.85 94.5381 173.746 94.95 173.826C96.4445 174.106 97.9334 174.367 99.426 174.651C99.8453 174.73 100.259 174.931 100.385 175.347C100.53 175.83 100.12 175.854 99.723 175.834C98.1438 175.746 96.5702 175.693 95.0422 175.146L95.0366 175.143Z" fill="#C7386C"/>
<path d="M97.0224 171.323C97.2766 171.453 97.3325 171.64 97.3736 171.846C97.424 172.125 97.2814 172.261 97.02 172.289C95.416 172.463 93.7132 172.201 91.9768 171.732C91.552 171.613 91.2381 171.273 91.2227 170.867C91.213 170.558 91.4224 170.412 91.76 170.462C93.4238 170.718 95.0932 170.994 96.7571 171.266C96.8462 171.284 96.9334 171.306 97.0205 171.327L97.0224 171.323Z" fill="#C7386C"/>
<path d="M68.6785 115.258C70.3915 115.044 71.8171 114.215 73.2157 113.378C75.8365 111.811 78.0226 109.813 79.1829 106.88C79.4287 106.261 79.5871 105.613 79.642 104.948C79.7832 103.282 78.6742 101.946 76.8523 101.509C76.5334 101.434 76.089 101.505 75.9775 101.085C75.8815 100.725 76.2751 100.616 76.4976 100.43C79.4061 98.0256 81.8962 95.283 83.3241 91.6932C84.206 89.4748 84.7465 87.162 84.5747 84.6813C84.2582 80.0609 81.209 77.4513 76.7488 76.9218C73.3529 76.5181 70.3501 77.4039 67.7817 79.4071C67.5259 79.6057 67.239 79.7616 66.9593 79.929C66.9215 79.9533 66.8417 79.915 66.7382 79.8977C66.7173 79.203 67.0763 78.6365 67.2676 78.0226C68.1932 75.0411 68.8425 72.0008 68.2878 68.7547C67.8759 66.3562 66.9434 64.1233 64.7656 62.6476C62.1791 60.8938 58.8946 61.1388 56.3185 63.1248C54.385 64.6143 52.9859 66.5434 51.8423 68.6794C51.7112 68.9294 51.657 69.3713 51.304 69.2772C50.9568 69.1829 51.0451 68.7603 51.0168 68.4598C50.7921 66.1776 50.2991 63.9842 48.6684 62.09C46.1684 59.1837 42.6856 58.7304 39.9245 61.0027C36.7685 63.6022 35.0846 67.0835 34.3884 71.139C34.2085 72.1842 34.1089 73.2474 33.9733 74.3C34.1355 74.6807 34.1224 75.1011 33.73 75.1703C33.3434 75.2393 33.2523 74.7697 33.1275 74.4633C33.0952 74.3832 33.122 74.2868 33.1237 74.1998C32.089 72.2422 30.7472 70.5686 28.7317 69.4995C26.9973 68.5817 25.2002 68.8216 23.9074 70.1045C21.9006 72.0973 21.3725 74.7488 21.072 77.4893C20.6956 80.9649 21.3542 84.4108 22.3558 87.8382C22.3986 87.9847 22.4921 88.1182 22.5631 88.2581C22.81 88.0569 22.6795 87.7507 22.7167 87.4918C22.9833 85.6011 23.6249 83.9227 25.4604 83.1023C27.4917 82.1922 29.385 82.8998 31.2089 84.1974C32.5721 85.1664 33.3409 86.6479 34.506 87.7877C34.7084 86.991 34.6222 86.1562 34.5578 85.3353C34.4757 84.3064 34.4295 83.2879 33.757 82.3223C33.2051 81.524 33.4389 80.6975 34.0375 80.069C34.6053 79.4762 35.5845 79.4915 36.1017 80.0358C36.7703 80.738 36.8981 82.0148 36.22 82.4283C35.2185 83.0335 35.5051 83.8451 35.8137 84.7228C36.3852 84.0343 36.5178 83.1092 36.9837 82.36C38.0762 80.6165 39.268 79.0063 41.4693 78.5201C41.2395 78.3355 41.2055 78.0873 41.2267 77.8405C41.3492 76.4174 41.4609 75.0526 40.2024 73.8053C39.6891 73.2957 40.0252 72.2721 40.6121 71.8729C41.226 71.4554 42.38 71.5034 42.8746 71.9759C43.4825 72.5524 43.7399 73.5155 43.2292 74.0748C42.1379 75.2678 42.4583 76.7593 42.4625 78.199C42.6438 78.2372 42.827 78.2928 43.0114 78.3078C45.3538 78.5012 46.9267 79.8611 48.1882 81.7978C48.7434 82.6509 48.7934 83.6519 49.3827 84.4722C49.9739 83.4731 50.1123 82.2669 50.6212 81.2325C50.9345 80.5949 50.9016 79.999 50.5369 79.3171C50.0909 78.4811 50.3152 77.7243 50.9973 77.3455C51.6549 76.9819 52.5744 77.2886 53.1167 78.0784C53.6487 78.854 53.3636 79.4851 52.7646 79.905C52.2919 80.2372 52.0513 80.6729 51.8611 81.1679C51.538 82 51.2857 82.8676 50.9317 83.6832C50.5573 84.5485 50.5354 85.5805 49.8542 86.2982L49.8593 86.2923C49.9477 86.4317 49.8938 86.468 49.7504 86.4316C50.0802 88.3631 50.0804 90.278 49.9372 92.1826C49.8805 92.9085 49.8592 93.6392 49.6932 94.3479C49.6481 94.5375 49.632 94.8045 49.8803 94.9219C50.1009 95.0257 50.1749 94.7831 50.3121 94.6893C50.9247 94.2604 51.3608 93.6569 51.8954 93.1548C52.9826 92.1299 54.0343 91.0481 55.4649 90.4421C55.2312 90.2489 55.3342 90.0576 55.4224 89.8639C56.3087 87.8888 57.1294 85.8721 58.1181 83.9548C58.4487 83.3167 58.4645 82.9454 58.0139 82.35C57.3726 81.5051 57.4491 80.7496 58.1425 80.2662C58.8731 79.7527 59.4659 80.1963 60.03 80.7451C60.6889 81.3867 60.8174 82.1854 60.3017 82.8028C58.6501 84.7826 57.8504 87.239 56.8403 89.5799C57.3215 89.5516 57.8124 89.5577 58.2832 89.4892C59.6891 89.2779 60.7924 89.8748 61.3823 91.2108C61.7777 92.112 61.7362 93.0229 61.678 93.94C61.6521 94.3753 61.3833 94.8176 61.7673 95.2614C62.329 95.3032 62.5147 94.7938 62.8083 94.5188C63.9006 93.488 65.3941 92.8483 65.9023 91.2201C66.1464 90.4338 67.0181 90.626 67.6752 90.8186C68.2661 90.99 68.358 91.5435 68.3059 92.0549C68.2281 92.7988 67.8279 93.3607 67.04 93.2935C66.4077 93.2422 65.9745 93.4371 65.5577 93.7765C64.5067 94.6352 63.4892 95.5335 62.4035 96.3411C62.0264 96.6213 61.803 97.2593 61.0995 97.0159C60.93 97.5914 60.794 98.1806 60.5872 98.734C60.2195 99.7093 59.8029 100.663 59.4197 101.63C59.3335 101.841 59.1684 102.098 59.4149 102.302C59.6042 102.462 59.8345 102.319 60.0187 102.23C60.423 102.036 60.8138 101.824 61.2071 101.61C64.1433 100.011 67.2515 98.8787 70.794 99.0406C74.7271 99.2203 76.2326 101.109 75.9296 104.389C75.6904 106.954 74.5934 109.219 72.9501 111.169C71.6753 112.686 70.3359 114.121 68.6862 115.249L68.6785 115.258Z" fill="#EF9AB3"/>
<path d="M68.0745 115.757C69.7187 114.635 71.0536 113.208 72.3242 111.699C73.9619 109.759 75.0585 107.509 75.2936 104.955C75.5988 101.696 74.0984 99.8171 70.1753 99.6356C66.6473 99.4715 63.547 100.601 60.6206 102.191C60.2286 102.404 59.836 102.612 59.4362 102.807C59.2527 102.896 59.0264 103.041 58.8345 102.879C58.5856 102.673 58.7533 102.421 58.8393 102.211C59.2211 101.249 59.6363 100.301 60.0028 99.3305C60.2115 98.777 60.3471 98.1911 60.5135 97.6215C60.6452 97.0011 60.8679 96.4185 61.1822 95.8793C60.7995 95.4378 61.0674 94.9979 61.0932 94.565C61.1512 93.6528 61.1951 92.7438 60.7985 91.8504C60.2106 90.5216 59.111 89.9278 57.7098 90.138C57.2381 90.2091 56.7514 90.2 56.2718 90.2281C55.9342 90.6902 55.364 90.8103 54.901 91.0857C53.4752 91.6885 52.427 92.7645 51.3435 93.7839C50.8107 94.2832 50.3761 94.8835 49.7656 95.3102C49.6288 95.4034 49.5551 95.6447 49.3352 95.5415C49.0877 95.4247 49.1063 95.1562 49.1487 94.9705C49.3142 94.2656 49.3386 93.5416 49.3919 92.8168C49.5372 90.9196 49.537 89.0149 49.2058 87.0967C49.2409 87.0496 49.276 87.0025 49.3111 86.9553L49.3092 86.964C48.955 86.3921 48.8497 85.7727 48.8386 85.142C48.2546 84.3289 48.2015 83.3305 47.6481 82.4819C46.3942 80.5585 44.8265 79.2058 42.4888 79.0106C42.305 78.9957 42.1249 78.9375 41.9417 78.9024C41.7088 79.2433 41.2717 79.0858 40.9551 79.2245C38.7612 79.7081 37.5734 81.3096 36.4846 83.0438C36.0177 83.7919 35.8823 84.7092 35.3185 85.3939C35.2859 86.4523 34.9649 87.4412 34.7778 88.4637C34.7305 88.7331 34.8616 89.199 34.4556 89.1876C34.0842 89.1752 34.1355 88.7127 34.0068 88.4455C32.8489 87.3145 32.0827 85.841 30.7209 84.8744C28.9031 83.5837 27.0162 82.8799 24.9917 83.785C23.1598 84.604 22.5229 86.2704 22.2572 88.151C22.2201 88.4085 22.3502 88.7131 22.1041 88.9132C22.1171 89.0022 22.1327 89.0882 22.1457 89.1771C22.6306 94.2462 24.8474 98.6836 28.2393 102.652C30.7842 105.631 33.5572 108.378 36.9118 110.472C37.3133 110.723 37.7869 110.87 38.0875 111.277C38.6341 111.152 39.0066 111.631 39.4847 111.767C41.9562 112.477 44.2093 113.706 46.3554 115.163C47.0257 115.617 47.8608 115.665 48.4564 116.25C50.3249 116.767 52.1662 117.426 54.0765 117.752C59.0879 118.605 63.783 118.128 68.0572 115.758L68.0745 115.757ZM56.0938 111.53C55.3595 112.419 54.6285 113.31 53.6093 113.904C53.3081 114.077 52.9765 114.389 52.6349 113.978C52.3003 113.578 52.7346 113.381 52.9358 113.168C53.6837 112.374 54.4637 111.609 55.2148 110.818C55.6791 110.326 56.0972 109.784 56.5744 109.304C56.7794 109.099 57.1005 108.948 57.3996 109.24C57.6917 109.519 57.5745 109.811 57.3709 110.053C56.9533 110.549 56.5229 111.034 56.0963 111.527L56.0938 111.53ZM57.9761 113.006C58.1857 112.842 58.3928 112.68 58.6057 112.519C59.5484 111.812 60.4938 111.102 61.443 110.4C61.712 110.199 62.0072 110.177 62.2743 110.466C62.4816 110.687 62.4689 110.956 62.2682 111.123C61.1001 112.11 59.9358 113.106 58.6263 113.919C58.3751 114.073 58.0888 114.072 57.8711 113.81C57.613 113.498 57.7506 113.235 57.9793 113.009L57.9761 113.006ZM50.5844 108.158C49.9628 108.741 49.6423 109.404 49.0279 109.796C48.8176 109.929 48.6078 110.042 48.369 109.798C48.1726 109.596 48.2355 109.387 48.342 109.205C49.0843 107.956 49.953 106.802 50.9943 105.792C51.2313 105.564 51.56 105.379 51.8937 105.695C52.2011 105.983 52.0078 106.265 51.8272 106.506C51.3887 107.098 50.9406 107.681 50.5844 108.158ZM46.4274 102.65C46.7445 102.413 46.87 101.891 47.3407 102.191C47.8268 102.5 47.5704 102.914 47.4124 103.253C46.8965 104.383 46.3659 105.51 45.8192 106.624C45.6809 106.907 45.4859 107.276 45.0679 107.083C44.7051 106.918 44.8053 106.529 44.8725 106.256C45.1933 104.936 45.7898 103.752 46.4217 102.65L46.4274 102.65ZM51.3278 112.35C50.5215 113.087 49.6132 113.742 48.6464 114.314C48.3049 114.514 47.8892 114.696 47.5788 114.255C47.262 113.809 47.7149 113.597 47.9699 113.4C48.8065 112.75 49.6772 112.146 50.5266 111.508C50.8328 111.278 51.0791 110.928 51.5202 111.399C51.9349 111.842 51.4974 112.037 51.3304 112.347L51.3278 112.35ZM43.4163 111.744C43.3674 111.67 43.3013 111.597 43.2659 111.514C42.6479 110.175 42.4057 108.784 42.3369 107.369C42.3255 107.141 42.4172 106.931 42.6765 106.924C42.9704 106.915 43.1316 107.138 43.2059 107.384C43.5901 108.702 43.9628 110.019 44.3322 111.334C44.4104 111.614 44.2745 111.817 44.034 111.913C43.8235 111.994 43.6145 111.885 43.4188 111.741L43.4163 111.744ZM31.7027 101.766C31.8076 101.723 31.9853 101.608 32.1805 101.571C32.3872 101.533 32.4319 101.722 32.4348 101.875C32.4392 103.131 32.9145 104.285 33.4526 105.43C33.5782 105.695 33.6617 106.073 33.2874 106.213C32.9522 106.341 32.6744 106.136 32.5021 105.841C31.9003 104.821 31.4552 103.756 31.421 102.593C31.4126 102.316 31.4485 102.047 31.6994 101.764L31.7027 101.766ZM36.4731 108.6C35.7916 107.718 35.4457 106.609 35.0748 105.511C34.9794 105.231 34.9159 104.927 35.2851 104.845C35.6006 104.772 35.8221 104.991 35.9598 105.261C36.4507 106.22 36.925 107.187 37.4133 108.149C37.5478 108.416 37.5259 108.63 37.3048 108.795C37.0382 108.993 36.7882 108.879 36.4763 108.603L36.4731 108.6ZM38.9211 105.957C38.9533 106.01 38.9886 106.067 39.015 106.121C39.5261 107.207 40.0455 108.29 40.5482 109.379C40.6519 109.604 40.5915 109.81 40.3728 109.92C40.0888 110.067 39.7921 109.974 39.627 109.717C38.9604 108.661 38.4486 107.543 38.2554 106.33C38.2242 106.132 38.2904 105.978 38.4932 105.906C38.6404 105.852 38.7818 105.825 38.9237 105.954L38.9211 105.957Z" fill="#EF7FA0"/>
<path d="M47.3473 117.141C46.7469 116.548 45.8994 116.5 45.2296 116.041C43.0664 114.565 40.7953 113.321 38.3041 112.602C37.8223 112.464 37.4435 111.976 36.8959 112.106C37.4465 113.98 38.6565 115.503 39.8781 117C40.3487 117.579 40.5463 118.139 40.4285 118.822C39.2855 125.495 39.1065 132.292 39.4691 139.164C39.478 139.371 39.5832 139.604 39.1878 139.972C39.1162 138.955 38.7277 138.176 38.5211 137.33C37.4559 132.999 36.9373 128.606 35.8921 124.271C35.0211 120.676 34.0507 117.104 32.4005 113.703C31.9282 112.724 31.4327 111.747 30.5596 111.01C29.5028 110.119 28.4217 110.118 27.6024 111.09C26.2979 112.638 26.1162 114.607 26.1333 116.608C26.1591 119.816 27.0703 122.918 28.2156 125.977C30.7506 132.76 34.0251 139.23 38.4386 145.108C39.7803 146.892 40.3996 148.602 40.5071 150.629C40.5874 152.056 40.7845 153.486 40.9293 154.917C40.9684 155.313 40.8851 155.838 41.3907 155.954C41.9384 156.081 42.2754 155.585 42.3157 155.169C42.4475 153.89 43.2962 153.075 43.936 152.115C45.2865 150.098 46.9455 148.334 48.5178 146.501C51.2738 143.285 54.1325 140.154 56.5062 136.625C58.1044 134.248 59.6986 131.863 60.6645 129.101C60.9773 128.211 61.243 127.316 61.1128 126.322C60.9011 124.712 59.6548 123.666 58.0622 123.805C56.3283 123.957 54.999 124.876 53.7196 125.876C50.4966 128.39 48.2721 131.693 46.6069 135.405C44.8832 139.244 43.429 143.199 42.3489 147.317C42.2919 147.535 42.3105 147.981 41.9592 147.915C41.5692 147.841 41.6778 147.386 41.6559 147.142C41.3079 143.379 41.0561 139.617 40.9714 135.865C40.84 130.107 41.3645 124.455 42.179 118.842C42.3097 117.939 42.6905 117.648 43.5855 117.833C44.1731 117.953 44.7735 118.005 45.3635 118.018C46.1664 118.032 46.8894 117.831 47.3538 117.146L47.3473 117.141Z" fill="#6BB194"/>
<path d="M33.4442 75.2963C33.4425 75.3836 33.4189 75.4831 33.4481 75.5608C33.57 75.8656 33.6672 76.3369 34.0523 76.2706C34.4457 76.2012 34.4588 75.7791 34.2961 75.397C34.0058 75.5042 33.7235 75.425 33.4416 75.2993L33.4442 75.2963Z" fill="#FFC1D3"/>
<path d="M55.4347 90.4632C55.9078 90.1722 56.4947 90.0508 56.8375 89.5758C57.8677 87.1667 58.6834 84.6387 60.3678 82.6013C60.8937 81.9659 60.7627 81.1438 60.0907 80.4836C59.5186 79.9218 58.914 79.4653 58.1656 79.9908C57.4558 80.4914 57.3804 81.2658 58.0345 82.1353C58.494 82.748 58.4779 83.1301 58.1407 83.7868C57.1324 85.76 56.2953 87.8354 55.3914 89.8681C55.3014 90.0675 55.1964 90.2644 55.4347 90.4632Z" fill="#FFC1D3"/>
<path d="M34.473 88.9912C34.6033 89.2636 34.5513 89.7351 34.9274 89.7477C35.3385 89.7594 35.2032 89.2874 35.2537 89.0098C35.4431 87.9674 35.7681 86.9593 35.8012 85.8803C35.4871 84.9934 35.1979 84.1704 36.2111 83.5537C36.8987 83.1373 36.764 81.8428 36.0918 81.1278C35.5665 80.5731 34.5842 80.5574 34.0086 81.1615C33.3987 81.7989 33.166 82.6399 33.7256 83.4463C34.4016 84.4284 34.4508 85.4581 34.5338 86.5014C34.5987 87.3338 34.6857 88.1802 34.4814 88.988L34.473 88.9912Z" fill="#FFC1D3"/>
<path d="M49.4869 84.7383C49.4957 85.3909 49.5998 86.0259 49.9669 86.6146C50.6593 85.8794 50.6782 84.8196 51.062 83.936C51.4218 83.1007 51.6783 82.212 52.0066 81.3598C52.2 80.8527 52.4471 80.4034 52.9249 80.0661C53.5338 79.636 53.8202 78.9868 53.2828 78.1952C52.7317 77.3863 51.7997 77.0691 51.1286 77.4446C50.4321 77.8297 50.2041 78.6049 50.6607 79.464C51.0314 80.1625 51.0648 80.7728 50.7464 81.4259C50.2292 82.4854 50.0911 83.7179 49.4876 84.7443L49.4869 84.7383Z" fill="#FFC1D3"/>
<path d="M41.8218 79.1896C42.1419 79.0485 42.5812 79.2116 42.8193 78.8619C42.8119 77.4025 42.489 75.8937 43.5887 74.6867C44.1033 74.1209 43.8439 73.1466 43.2313 72.5634C42.7362 72.0883 41.57 72.0369 40.9515 72.4592C40.3659 72.863 40.0214 73.8987 40.5386 74.4142C41.8093 75.673 41.6975 77.0596 41.5708 78.4964C41.5494 78.7461 41.5837 78.9972 41.8153 79.1839L41.8218 79.1896Z" fill="#FFC1D3"/>
<path d="M61.3759 94.8591C61.0522 95.4214 60.823 96.029 60.6874 96.676C61.4059 96.9256 61.6357 96.2699 62.0252 95.9761C63.1418 95.1353 64.1857 94.2035 65.2614 93.3159C65.6917 92.9608 66.1361 92.7586 66.7823 92.815C67.5873 92.8817 67.9979 92.2989 68.0811 91.5302C68.1345 90.9998 68.0402 90.4256 67.434 90.2479C66.7572 90.0512 65.8655 89.8487 65.6149 90.6643C65.0936 92.3532 63.5639 93.0136 62.4406 94.0859C62.1367 94.3742 61.9521 94.9025 61.3725 94.8562L61.3759 94.8591Z" fill="#FFC1D3"/>
<path d="M49.7859 86.6052C49.7502 86.6535 49.7146 86.7018 49.6789 86.7501C49.8245 86.7877 49.8791 86.7507 49.7859 86.6052Z" fill="#FFC1D3"/>
<path d="M55.6872 111.323C56.1269 110.807 56.57 110.294 57.009 109.771C57.2236 109.519 57.3417 109.21 57.0389 108.915C56.7293 108.615 56.393 108.77 56.183 108.982C55.6881 109.488 55.2572 110.056 54.7729 110.576C53.9939 111.409 53.185 112.215 52.4093 113.05C52.2007 113.275 51.7536 113.485 52.0972 113.903C52.4542 114.332 52.7955 114.007 53.1078 113.825C54.1649 113.199 54.9264 112.264 55.6846 111.326L55.6872 111.323Z" fill="#C7386C"/>
<path d="M57.4935 112.564C57.2582 112.799 57.1166 113.073 57.3822 113.399C57.6061 113.671 57.8979 113.675 58.159 113.511C59.5091 112.667 60.7067 111.63 61.9049 110.599C62.1139 110.422 62.1244 110.145 61.9111 109.914C61.6397 109.616 61.3329 109.637 61.0561 109.846C60.0798 110.577 59.1074 111.316 58.1377 112.053C57.9214 112.218 57.7058 112.39 57.4902 112.561L57.4935 112.564Z" fill="#C7386C"/>
<path d="M50.2756 108.194C50.6476 107.696 51.1081 107.08 51.5621 106.458C51.7491 106.205 51.9459 105.906 51.6309 105.606C51.2828 105.277 50.9452 105.469 50.6998 105.709C49.6219 106.769 48.7226 107.981 47.9541 109.293C47.8439 109.484 47.7755 109.701 47.9821 109.916C48.2294 110.172 48.4498 110.056 48.6642 109.914C49.3003 109.502 49.6321 108.805 50.2756 108.194Z" fill="#C7386C"/>
<path d="M46.1984 102.755C45.5525 103.896 44.9376 105.129 44.6083 106.501C44.5394 106.784 44.4365 107.188 44.8089 107.36C45.2379 107.56 45.4348 107.174 45.58 106.883C46.1412 105.726 46.6858 104.555 47.2154 103.381C47.3716 103.029 47.6407 102.599 47.1417 102.279C46.6559 101.97 46.5297 102.509 46.2043 102.755L46.1984 102.755Z" fill="#C7386C"/>
<path d="M50.842 112.471C51.0135 112.148 51.4629 111.947 51.0369 111.486C50.5839 110.995 50.331 111.359 50.0165 111.599C49.15 112.262 48.2531 112.893 47.3906 113.566C47.1287 113.771 46.6636 113.991 46.9889 114.455C47.3077 114.913 47.7347 114.724 48.0854 114.516C49.0783 113.921 50.0113 113.241 50.8394 112.474L50.842 112.471Z" fill="#C7386C"/>
<path d="M42.9711 112.202C43.1676 112.347 43.3775 112.457 43.5888 112.376C43.8304 112.279 43.9669 112.075 43.8884 111.793C43.5199 110.466 43.1399 109.14 42.7573 107.817C42.6821 107.564 42.5233 107.342 42.2256 107.354C41.9652 107.361 41.8732 107.573 41.8846 107.801C41.9537 109.226 42.197 110.626 42.8175 111.974C42.8563 112.06 42.9227 112.134 42.9686 112.205L42.9711 112.202Z" fill="#C7386C"/>
<path d="M31.3896 102.71C31.1349 102.999 31.0989 103.27 31.1098 103.546C31.1442 104.717 31.5946 105.793 32.1961 106.818C32.3686 107.109 32.6451 107.319 32.9851 107.193C33.3637 107.049 33.2772 106.671 33.1511 106.404C32.6098 105.244 32.1296 104.085 32.1284 102.823C32.1255 102.669 32.0806 102.478 31.8729 102.516C31.671 102.554 31.495 102.667 31.3928 102.713L31.3896 102.71Z" fill="#C7386C"/>
<path d="M36.0766 109.403C36.388 109.679 36.6352 109.795 36.9039 109.595C37.1247 109.431 37.1491 109.214 37.0123 108.951C36.5246 107.99 36.051 107.026 35.5608 106.069C35.4233 105.8 35.2021 105.582 34.887 105.654C34.5215 105.739 34.5849 106.042 34.677 106.318C35.0474 107.414 35.3928 108.52 36.0734 109.4L36.0766 109.403Z" fill="#C7386C"/>
<path d="M38.5044 106.599C38.3652 106.468 38.2244 106.501 38.074 106.551C37.8712 106.623 37.805 106.778 37.8362 106.976C38.0293 108.189 38.5437 109.303 39.2077 110.362C39.3729 110.619 39.6696 110.712 39.9535 110.565C40.1691 110.453 40.2294 110.246 40.129 110.024C39.6262 108.935 39.1094 107.85 38.5958 106.767C38.5662 106.71 38.534 106.656 38.5019 106.602L38.5044 106.599Z" fill="#C7386C"/>
<path d="M31.3027 177.737C30.152 182.453 29.0193 183.155 22.8644 182.759C21.9939 182.703 21.6372 183.011 21.4972 183.596C20.719 186.822 19.97 190.062 19.1159 193.718C21.4962 193.442 22.7987 192.442 24.222 191.648C31.1043 187.812 39.2308 186.136 47.807 185.258C49.0857 185.128 50.5625 185.274 51.9165 185.645C54.6594 186.403 56.646 188.144 57.2556 190.566C57.8228 192.795 55.9913 193.59 54.0971 194.068C48.4592 195.49 42.546 196.291 36.3395 196.372C31.7935 196.428 27.2118 196.381 22.5133 195.544C19.596 195.027 17.7929 195.471 17.6884 198.145C17.6547 199.044 16.8258 199.693 17.3006 201.042C22.6518 201.439 28.0254 201.806 33.4557 202.626C39.7229 203.569 45.7893 205.459 51.5604 208.861C52.1964 209.237 52.8311 209.623 53.4235 210.047C55.2682 211.372 57.1379 212.878 56.7304 214.86C56.3373 216.781 54.0151 216.021 52.3342 215.876C42.6795 215.064 33.5083 211.472 24.5802 206.618C22.0037 205.217 19.4286 203.807 16.8297 202.39C15.5602 203.605 15.4109 205.229 14.8171 206.616C14.3745 207.659 15.2642 208.357 16.2113 209.135C22.8713 214.58 27.7097 221.07 32.3407 227.678C33.4516 229.264 33.5816 230.741 32.4905 231.732C31.3643 232.754 29.593 232.13 28.0752 231.227C20.9112 226.96 16.6494 221.151 14.1293 214.434C13.8328 213.646 14.0976 212.637 12.4016 211.958C11.597 215.706 9.81096 218.978 8.34394 222.409C8.09295 222.99 8.62989 223.598 8.99842 224.171C12.3891 229.42 13.7865 234.825 14.7856 240.249C14.9302 241.016 14.8582 241.785 14.7717 242.524C14.6633 243.472 14.2994 244.251 13.0134 244.295C11.7764 244.345 10.857 243.684 10.0968 242.803C7.96623 240.335 6.97165 237.649 6.31192 234.91C6.04249 233.782 5.79815 232.651 5.52212 231.433C3.65893 231.125 3.31347 232.274 2.79365 233.201C-2.06836 241.807 -7.42044 250.103 -13.6905 257.819C-13.9944 258.195 -14.2592 258.603 -14.5968 258.953C-15.2295 259.616 -15.9158 260.354 -17.2063 259.278C-18.3026 258.369 -18.121 257.566 -17.4361 256.791C-14.1527 253.096 -11.2478 249.132 -8.62299 244.998C-4.80065 238.984 -0.874607 233.028 2.30049 226.63C2.46958 226.291 2.5581 225.907 2.89431 224.966C0.116331 226.041 -2.11147 226.886 -4.31285 227.765C-8.21299 229.324 -12.2888 230.579 -16.7061 231.244C-19.2112 231.621 -21.8663 231.177 -24.5287 230.603C-25.9949 230.286 -26.9182 229.285 -27.395 228.089C-27.8435 226.958 -27.1493 226.253 -26.2365 225.901C-17.0433 222.353 -7.71663 219.057 3.76629 220.207C4.65727 220.295 5.33689 220.299 5.63742 219.624C7.28675 215.894 9.19827 212.285 10.2195 208.212C8.61721 207.572 7.75196 208.215 6.78766 208.537C2.32811 210.025 -1.83425 211.973 -6.54014 213.085C-9.93698 213.887 -13.4474 214.29 -17.3237 213.639C-20.2932 213.142 -22.8973 211.441 -23.3345 209.533C-23.9685 206.786 -21.8899 206.04 -19.5195 205.884C-10.1481 205.255 -0.941693 203.966 9.13044 205.909C11.5055 206.365 12.6779 204.536 12.3669 200.946C9.04475 200.636 5.73183 200.395 2.40901 199.998C-5.0107 199.119 -12.3333 197.422 -19.2694 193.253C-20.3513 192.605 -21.4278 191.917 -22.4264 191.155C-24.0749 189.89 -26.1263 188.585 -25.4618 186.624C-24.796 184.652 -22.5127 184.778 -20.4144 185.178C-13.9689 186.406 -7.71829 188.766 -1.68102 191.89C3.17072 194.4 7.95047 197.078 12.9435 199.78C14.2936 198.424 14.5618 196.605 14.8023 194.485C8.10384 192.514 2.25547 189.088 -3.12393 184.792C-7.39179 181.385 -11.5157 177.871 -14.7109 173.656C-15.2835 172.899 -16.2913 172.114 -15.5734 171.277C-14.8779 170.469 -13.835 170.3 -12.5134 170.682C-11.2922 171.028 -10.2084 171.662 -9.12919 172.33C-0.90384 177.445 6.47476 183.389 12.8217 190.343C13.49 191.078 14.0197 191.971 15.3856 192.438C16.9629 189.2 17.4491 185.521 18.1579 181.935C18.3177 181.11 17.5886 180.691 16.8159 180.228C11.2971 176.927 10.4795 175.506 11.1731 170.601C17.5895 174.31 24.3322 176.505 31.2816 177.71L31.3027 177.737Z" fill="#8AB979"/>
<path d="M35.1277 168.844C28.5824 167.784 22.2332 165.87 16.1932 162.65C11.8789 160.097 7.66918 157.466 4.12566 154.112C0.0204426 150.22 -2.7963 145.969 -4.87725 141.471C-5.82748 139.42 -4.98057 138.064 -2.59864 137.522C1.25899 140.09 4.60787 142.946 6.21481 146.945C7.98525 145.886 6.17819 143.876 7.76905 143.086C8.00557 143.458 8.21244 143.675 8.25756 143.883C8.5766 145.275 9.30136 146.208 11.3047 146.296C13.458 146.395 13.2115 145.143 13.2108 143.963C13.2119 143.166 12.7231 142.174 13.9545 141.648C15.8006 144.658 13.1949 148.494 19.0872 150.542C20.5727 148.216 19.1119 145.083 20.6383 142.875C21.1818 146.063 21.2644 149.136 21.3707 152.207C21.3911 152.78 21.2744 153.452 22.176 153.858C23.0123 154.233 23.556 153.826 24.0916 153.514C25.1365 152.909 25.7058 152.053 25.8425 150.929C26.0439 149.288 26.2622 147.651 26.5701 146.038C26.7023 145.339 26.4679 144.361 27.7579 144.268C28.5827 144.879 28.2658 145.447 28.2152 145.987C28.099 147.209 27.8764 148.402 27.7433 149.619C27.6392 150.601 27.7155 151.624 29.3717 152.089C30.9502 152.529 31.8333 151.995 32.1186 150.891C32.3276 150.067 32.3868 149.192 32.6007 148.374C32.8241 147.532 32.504 146.423 33.9495 145.908C34.8941 147.997 33.905 149.566 33.8086 151.286C33.7472 152.372 33.7332 153.495 35.4092 154.023C37.2743 154.614 36.8689 153.135 37.3105 152.434C38.0414 151.272 37.6532 149.519 39.6175 148.608C40.0125 152.526 35.7086 155.667 41.1535 159.918C43.4561 157.465 44.1335 154.178 46.9654 152.205C47.2655 154.279 45.0593 155.447 45.6391 157.639C50.1434 157.958 50.699 154.508 53.1792 152.747C54.0903 154.313 52.621 154.91 53.5822 156.295C56.5966 156.838 59.7712 156.254 63.0159 157.605C62.8383 161.258 59.8601 163.194 56.8324 164.993C51.5883 168.108 45.1692 169.313 37.8162 168.83C36.9104 168.769 35.9165 168.474 35.1438 168.853L35.1277 168.844Z" fill="#EF7FA0"/>
<path d="M64.0153 154.497C60.7678 153.146 57.5968 153.733 54.5755 153.183C53.6136 151.794 55.0894 151.196 54.172 149.623C51.6959 151.392 51.1345 154.852 46.6274 154.532C46.0471 152.333 48.2545 151.161 47.9542 149.08C45.1205 151.06 44.4429 154.359 42.139 156.82C36.6904 152.555 40.9969 149.402 40.6014 145.471C38.6309 146.38 39.0188 148.143 38.2931 149.31C37.8507 150.019 38.2626 151.499 36.3907 150.906C34.7079 150.374 34.7276 149.249 34.7888 148.159C34.8852 146.433 35.8693 144.858 34.9296 142.763C33.4882 143.286 33.8035 144.392 33.5801 145.237C33.3654 146.062 33.3063 146.94 33.0978 147.763C32.8123 148.871 31.9281 149.411 30.3492 148.966C28.6913 148.503 28.6149 147.477 28.7196 146.487C28.8527 145.266 29.0754 144.069 29.1916 142.843C29.2415 142.305 29.5586 141.735 28.7339 141.118C27.4481 141.217 27.6777 142.193 27.5454 142.895C27.2374 144.512 27.0191 146.155 26.8176 147.802C26.6809 148.93 26.1113 149.789 25.0658 150.396C24.5305 150.705 23.9858 151.118 23.1489 150.742C22.2467 150.334 22.3635 149.66 22.3431 149.085C22.2372 145.999 22.1537 142.92 21.6096 139.721C20.083 141.933 21.5443 145.081 20.058 147.415C14.1617 145.36 16.7689 141.51 14.9215 138.491C13.6943 139.024 14.1779 140.018 14.1774 140.814C14.1782 141.997 14.4305 143.255 12.2703 143.155C10.26 143.066 9.54097 142.126 9.22103 140.734C9.17587 140.526 8.96821 140.312 8.73215 139.935C7.14031 140.727 8.94927 142.74 7.17712 143.806C5.5627 139.797 2.21214 136.927 -1.64251 134.352C0.914613 133.816 3.62764 134.44 6.32542 135.286C7.9472 135.797 8.81589 135.679 8.89379 134.277C9.10089 130.412 12.3441 129.017 16.6432 128.967C21.0356 128.917 24.9923 130.639 27.8875 134.147C28.1697 134.488 28.4444 134.841 28.7515 135.171C28.8671 135.297 29.0638 135.387 29.3026 135.547C30.7257 135.664 31.6326 134.93 32.7377 134.513C35.0699 133.643 37.5994 133.255 40.4821 133.637C46.1498 134.391 50.2714 137.966 50.0978 142.357C50.0184 144.403 51.0409 145.142 53.2568 145.578C56.2326 146.16 59.0384 147.223 61.4309 149.114C63.4527 150.71 64.9931 152.448 63.9941 154.482L64.0153 154.497Z" fill="#EF9AB3"/>
<path d="M41.1113 118.116C40.7896 119.244 39.9548 119.749 38.4575 119.264C37.0471 118.805 36.1686 117.94 36.248 116.685C36.3241 115.41 37.2091 115.024 38.729 115.387C40.4539 115.795 41.0089 116.822 41.1165 118.123L41.1113 118.116Z" fill="#EF9AB3"/>
<path d="M30.6391 97.3783C31.9851 97.8591 32.868 98.6755 32.6681 99.7973C32.4754 100.866 31.7923 101.665 30.141 101.113C28.8196 100.674 28.0259 99.9145 28.1398 98.7122C28.2653 97.4237 29.1903 97.0762 30.6391 97.3783Z" fill="#EF9AB3"/>
<path d="M20.0893 119.543C20.3517 118.452 21.0028 117.941 22.469 118.403C23.7777 118.819 24.6647 119.438 24.3336 120.634C24.0841 121.539 23.7971 122.589 22.2435 122.1C20.8874 121.676 19.9688 120.797 20.0893 119.543Z" fill="#EF9AB3"/>
<path d="M48.8139 202.736C45.8153 205.679 45.5579 206.717 47.0378 210.371C47.2472 210.887 47.1062 211.256 46.7342 211.619C44.6811 213.626 42.6128 215.623 40.2814 217.88C40.0023 216.265 40.4302 214.98 40.6936 213.717C41.9647 207.613 41.5144 201.752 40.4305 195.986C40.2677 195.128 39.8778 194.275 39.3584 193.605C38.3018 192.251 36.7208 191.833 34.9455 192.595C33.31 193.293 33.1263 194.811 33.1714 196.218C33.3062 200.407 33.9203 204.474 35.0839 208.385C35.9383 211.248 36.8702 214.085 38.3651 216.622C39.2917 218.198 39.3423 219.533 37.5344 220.86C36.9267 221.305 36.6455 222.128 35.6298 222.468C34.308 219.316 33.0017 216.137 31.3742 213.135C29.4982 209.67 27.0149 206.776 23.5552 204.78C23.1732 204.561 22.7848 204.347 22.3783 204.177C21.1105 203.651 19.7134 203.195 18.438 204.385C17.2024 205.536 18.1777 206.627 18.6074 207.607C21.0584 213.248 25.3157 217.276 30.3881 220.557C31.8516 221.504 33.3216 222.445 34.8011 223.398C34.2196 224.763 33.1388 225.623 32.3069 226.648C31.6809 227.416 31.0286 227.19 30.311 226.966C25.2796 225.38 19.892 225.423 14.4649 225.65C13.1621 225.706 12.127 226.321 11.6634 227.47C11.1857 228.655 11.9607 229.465 12.8759 229.986C17.2008 232.443 22.0092 232.362 27.097 230.765C27.6935 230.579 28.3312 229.937 29.1286 230.675C26.7246 232.945 24.8378 235.604 22.7807 238.137C22.4322 238.568 21.9111 238.52 21.4471 238.561C17.1923 238.921 13.2226 240.599 9.31803 242.535C8.765 242.807 8.25338 243.214 7.76516 243.617C7.13827 244.132 6.67727 244.726 6.89915 245.55C7.10841 246.345 7.74109 246.607 8.49233 246.666C10.598 246.831 12.6299 246.184 14.6325 245.303C15.4568 244.939 16.278 244.558 17.1647 244.156C17.7414 245.173 17.0237 245.931 16.492 246.692C11.5624 253.787 6.9421 261.04 2.89776 268.592C2.70043 268.959 2.47341 269.317 2.30015 269.693C1.97173 270.4 1.60163 271.177 2.59055 271.475C3.42773 271.73 3.94092 271.238 4.33612 270.445C6.21797 266.652 8.3572 262.97 10.6686 259.381C14.0293 254.159 17.3307 248.9 21.0812 243.9C21.2801 243.634 21.5253 243.398 22.1027 242.744C21.9133 244.985 21.773 246.774 21.6045 248.562C21.3044 251.731 21.2468 254.866 21.6598 257.936C21.8943 259.677 22.719 261.124 23.6343 262.515C24.1393 263.28 25.0052 263.384 25.9163 263.117C26.7775 262.863 27.1233 262.098 27.1848 261.362C27.8046 253.952 28.2269 246.577 25.1852 239.955C24.9501 239.44 24.8139 239.018 25.2161 238.512C27.4421 235.724 29.5347 232.828 32.1185 230.269C32.8711 230.967 32.601 231.811 32.5708 232.564C32.4287 236.049 31.9145 239.565 32.0785 243.026C32.1974 245.524 32.6111 247.904 33.8177 250.016C34.7406 251.634 36.4154 252.456 37.8055 251.829C39.8083 250.929 39.9103 249.28 39.551 247.727C38.1405 241.583 37.2141 235.23 33.9075 229.862C33.1286 228.596 34.1493 227.001 36.6646 225.501C37.5292 227.428 38.3444 229.382 39.269 231.267C41.3273 235.482 43.9257 239.251 48.1379 241.612C48.7937 241.981 49.4756 242.328 50.1927 242.592C51.3816 243.023 52.6763 243.688 53.887 242.348C55.1042 241.002 54.5694 239.637 53.8842 238.516C51.7786 235.074 48.937 232.288 45.6159 229.994C42.9468 228.151 40.1767 226.432 37.349 224.591C38.0105 223.109 39.2015 222.084 40.6036 220.934C43.2672 224.183 46.758 226.216 50.7518 227.546C53.9199 228.601 57.132 229.517 60.6413 229.522C61.2715 229.522 62.0065 229.78 62.4375 228.938C62.853 228.123 62.7639 227.392 62.2434 226.747C61.7667 226.149 61.1206 225.772 60.4518 225.413C55.3389 222.694 49.8257 220.895 43.825 220.215C43.1913 220.145 42.4766 220.236 41.8891 219.604C43.7931 217.092 46.2127 215.053 48.5254 212.919C49.0578 212.43 49.4877 212.687 49.9562 212.951C53.297 214.837 54.4293 214.677 57.6466 211.93C53.8504 209.676 51.0252 206.505 48.8364 202.737L48.8139 202.736Z" fill="#799E6D"/>
<path d="M47.1312 204.734C49.3795 208.651 52.2815 211.948 56.181 214.292C59.1726 215.822 62.2049 217.236 65.685 217.779C69.7215 218.406 73.7778 217.939 77.8796 216.824C79.7503 216.317 80.6744 214.963 80.6118 213.011C77.705 211.804 74.6711 211.113 71.0765 212.271C71.5634 210.449 73.5823 210.556 73.8881 209.01C73.5354 209.057 73.3149 209.038 73.1363 209.124C71.9356 209.694 71.0226 209.723 70.527 208.39C69.9909 206.959 71.0623 206.419 72.0225 205.75C72.6714 205.297 73.5821 205.072 73.7496 203.923C70.9089 204.356 68.3382 208.331 65.4235 205.425C67.0023 203.08 69.8617 202.312 71.3359 200.005C68.626 201.438 66.1073 203.125 63.5854 204.793C63.1147 205.104 62.5921 205.566 62.0706 205.174C61.5886 204.809 61.8049 204.203 61.9454 203.656C62.2163 202.592 62.793 201.713 63.6785 200.981C64.9722 199.911 66.2585 198.832 67.5055 197.705C68.0465 197.217 68.8925 196.823 68.6952 195.88C68.0233 195.657 67.6282 196.198 67.1994 196.539C66.2292 197.313 65.3056 198.143 64.3428 198.926C63.5657 199.554 62.7168 200.082 61.9872 199.203C61.2953 198.362 61.5433 197.45 62.3817 196.626C63.0081 196.015 63.7075 195.478 64.3281 194.866C64.9663 194.234 65.9365 193.826 66.0498 192.536C64.1492 193.069 63.0817 194.642 61.7023 195.684C60.8307 196.343 59.9204 196.989 59.1352 196.132C58.26 195.179 59.549 194.62 60.0266 193.918C60.8176 192.754 62.3264 192.028 62.6525 190.154C59.3799 192.104 57.7339 196.858 53.121 195.51C54.6303 192.529 57.1623 190.197 58.1689 187.122C56.4173 188.092 55.9338 190.277 54.027 191.12C52.8141 188.192 55.504 185.851 56.4123 183.14C54.9449 183.399 54.7698 184.752 53.4393 184.874C52.3598 183.101 52.1626 180.578 50.3759 179.105C47.4409 181.299 46.4947 184.454 45.6713 187.565C44.2461 192.952 44.6241 198.067 46.5734 202.87C46.8153 203.46 47.2653 203.979 47.1205 204.728L47.1312 204.734Z" fill="#EF7FA0"/>
<path d="M49.8879 179.784C51.6704 181.259 51.865 183.778 52.9498 185.55C54.2798 185.428 54.4523 184.073 55.9215 183.817C55.0112 186.523 52.3249 188.865 53.5373 191.792C55.4432 190.95 55.9265 188.765 57.6773 187.797C56.6711 190.869 54.1403 193.2 52.6316 196.179C57.2424 197.526 58.8877 192.775 62.1589 190.827C61.8387 192.699 60.3272 193.428 59.5341 194.588C59.0534 195.293 57.7659 195.845 58.6432 196.801C59.4304 197.66 60.3379 197.011 61.2091 196.353C62.5878 195.311 63.6573 193.743 65.5546 193.207C65.4356 194.496 64.4716 194.904 63.8337 195.535C63.21 196.15 62.511 196.686 61.8882 197.295C61.0502 198.118 60.799 199.033 61.4939 199.87C62.2198 200.752 63.0683 200.224 63.8483 199.593C64.8107 198.811 65.7339 197.981 66.7036 197.208C67.129 196.87 67.5239 196.329 68.1988 196.549C68.3903 197.492 67.5504 197.885 67.0096 198.372C65.7632 199.499 64.4774 200.578 63.1844 201.647C62.2993 202.378 61.7228 203.257 61.4521 204.321C61.3149 204.864 61.0954 205.473 61.5772 205.838C62.0985 206.229 62.6208 205.768 63.0913 205.457C65.6154 203.786 68.1297 202.104 70.8383 200.672C69.368 202.974 66.5066 203.745 64.9285 206.089C67.8419 208.993 70.4115 205.02 73.2509 204.588C73.0777 205.735 72.1699 205.963 71.5245 206.413C70.5648 207.081 69.4914 207.618 70.0297 209.051C70.5276 210.386 71.4411 210.352 72.6379 209.785C72.8163 209.699 73.0335 209.721 73.3893 209.671C73.0836 211.216 71.069 211.106 70.579 212.931C74.1711 211.778 77.2069 212.467 80.11 213.669C80.0038 211.603 78.9242 210.085 77.6673 208.704C76.9103 207.874 76.8221 207.208 77.9421 206.363C81.0324 204.036 81.477 201.012 80.6082 198.02C79.7201 194.962 77.4864 193.208 74.0296 193.194C73.6933 193.192 73.3494 193.202 73.0166 193.177C72.8902 193.168 72.7753 193.084 72.595 193.01C72.1991 192.094 72.6027 191.054 72.7067 190.057C72.9191 187.957 72.6988 185.994 71.7792 184.222C69.9686 180.741 66.1984 179.919 62.6751 182.52C61.0328 183.731 60.2173 183.443 59.395 182.162C58.294 180.439 56.8384 179.105 54.7991 178.524C53.0771 178.032 51.3424 177.952 49.9044 179.79L49.8879 179.784Z" fill="#EF9AB3"/>
<path d="M79.0127 180.906C78.272 181.673 78.0806 182.464 78.7305 183.193C79.3444 183.88 80.1409 184.02 81.0212 183.347C81.9169 182.667 82.0132 181.902 81.4458 181.097C80.8041 180.182 79.9578 180.331 79.007 180.906L79.0127 180.906Z" fill="#EF9AB3"/>
<path d="M95.7411 180.035C95.1284 179.404 94.3712 179.236 93.6161 179.916C92.8969 180.566 92.4686 181.398 93.1934 182.19C93.7712 182.826 94.4702 182.964 95.2998 182.3C96.1882 181.586 96.2478 180.82 95.7411 180.035Z" fill="#EF9AB3"/>
<path d="M84.8412 194.639C85.5596 193.936 85.7893 193.268 85.1672 192.552C84.61 191.915 83.9935 191.648 83.2151 192.446C82.6256 193.049 81.942 193.747 82.6001 194.506C83.1733 195.17 83.9795 195.33 84.8412 194.639Z" fill="#EF9AB3"/>
<path d="M30.4216 251.122C30.3985 249.866 30.8431 248.755 31.2962 247.662C32.1444 245.615 33.3444 243.836 35.3165 242.699C35.7321 242.459 36.1775 242.278 36.646 242.171C37.8199 241.898 38.8859 242.559 39.3846 243.826C39.4707 244.048 39.4659 244.375 39.7766 244.412C40.0427 244.444 40.0806 244.15 40.1903 243.97C41.6056 241.63 43.3052 239.556 45.7179 238.159C47.2089 237.297 48.8023 236.67 50.5885 236.539C53.9149 236.293 56.0883 238.22 56.9236 241.376C57.56 243.78 57.2367 246.033 56.0723 248.087C55.957 248.292 55.8752 248.514 55.7846 248.733C55.7712 248.762 55.8067 248.816 55.8296 248.889C56.327 248.832 56.6941 248.516 57.1121 248.315C59.1426 247.343 61.2434 246.563 63.6146 246.629C65.3668 246.68 67.0544 247.122 68.33 248.538C69.8458 250.22 70.0083 252.61 68.8569 254.668C67.9934 256.213 66.7618 257.418 65.3564 258.461C65.1916 258.581 64.8821 258.665 64.9855 258.91C65.0883 259.15 65.3806 259.043 65.5977 259.033C67.2478 258.96 68.862 259.09 70.3798 260.069C72.7084 261.571 73.3891 264.032 72.0526 266.253C70.5234 268.792 68.2143 270.361 65.3945 271.279C64.6679 271.515 63.9201 271.696 63.1836 271.902C62.8956 271.824 62.5972 271.877 62.5881 272.166C62.5786 272.452 62.9227 272.469 63.154 272.528C63.2145 272.543 63.2804 272.513 63.3422 272.503C64.8441 273.047 66.175 273.841 67.144 275.183C67.9764 276.337 67.9898 277.655 67.2079 278.718C65.9932 280.367 64.1572 281.019 62.2343 281.517C59.7951 282.145 57.2708 282.024 54.7246 281.655C54.6157 281.639 54.511 281.586 54.4039 281.549C54.522 281.351 54.7537 281.413 54.9345 281.36C56.255 280.974 57.3857 280.34 57.7822 278.934C58.2225 277.378 57.5237 276.088 56.4114 274.908C55.5806 274.026 54.4456 273.625 53.5134 272.903C54.0606 272.675 54.6645 272.652 55.2564 272.614C55.9984 272.567 56.7292 272.496 57.4866 272.881C58.1123 273.197 58.6776 272.943 59.0642 272.448C59.4286 271.978 59.3171 271.275 58.876 270.958C58.3068 270.549 57.3834 270.588 57.1583 271.119C56.8295 271.902 56.2215 271.779 55.5642 271.647C55.9964 271.165 56.6422 270.974 57.1285 270.562C58.2594 269.597 59.285 268.573 59.4056 266.939C59.5608 267.085 59.7412 267.084 59.915 267.044C60.917 266.809 61.8785 266.589 62.8969 267.367C63.3129 267.684 64.0081 267.337 64.2325 266.873C64.4671 266.389 64.3144 265.563 63.9268 265.255C63.4534 264.877 62.7404 264.79 62.3941 265.215C61.6556 266.123 60.5594 266.046 59.5326 266.191C59.4867 266.064 59.4283 265.938 59.3987 265.807C59.0203 264.14 57.8893 263.147 56.3792 262.438C55.714 262.126 54.9953 262.193 54.35 261.853C55.0015 261.325 55.8473 261.101 56.5324 260.629C56.9549 260.338 57.383 260.3 57.9066 260.493C58.5484 260.728 59.0649 260.489 59.2649 259.959C59.4567 259.448 59.1436 258.818 58.5249 258.508C57.9173 258.205 57.4967 258.475 57.2588 258.949C57.0705 259.324 56.7846 259.542 56.4512 259.729C55.8912 260.047 55.2985 260.318 54.7534 260.657C54.1749 261.015 53.4415 261.137 52.9997 261.701L53.0034 261.696C52.895 261.647 52.8746 261.69 52.9153 261.789C51.5044 261.75 50.1393 261.946 48.7962 262.245C48.2845 262.36 47.7658 262.451 47.2775 262.643C47.147 262.695 46.9583 262.734 46.8491 262.567C46.7525 262.419 46.9178 262.341 46.9706 262.232C47.2135 261.747 47.599 261.371 47.902 260.935C48.5211 260.047 49.1844 259.179 49.4696 258.087C49.6313 258.235 49.7571 258.142 49.8861 258.058C51.2033 257.217 52.5568 256.419 53.8221 255.511C54.2431 255.207 54.5062 255.158 54.9769 255.421C55.6451 255.796 56.1758 255.663 56.4493 255.115C56.7403 254.536 56.3632 254.155 55.9141 253.805C55.3891 253.397 54.8064 253.386 54.4192 253.821C53.1774 255.213 51.5082 256.041 49.9431 257.008C49.9139 256.659 49.8591 256.306 49.8596 255.96C49.866 254.926 49.3271 254.193 48.3141 253.906C47.6311 253.714 46.986 253.837 46.3381 253.973C46.0304 254.036 45.7427 254.275 45.3869 254.044C45.2994 253.644 45.6436 253.458 45.8094 253.219C46.4322 252.327 46.7349 251.186 47.8436 250.653C48.3791 250.396 48.1525 249.788 47.9478 249.335C47.765 248.927 47.3609 248.918 47.0017 249.008C46.4793 249.14 46.1198 249.486 46.2486 250.047C46.3501 250.496 46.2556 250.828 46.0565 251.163C45.5521 252.008 45.0162 252.833 44.5519 253.697C44.3908 253.997 43.9589 254.224 44.2047 254.705C43.8117 254.886 43.4057 255.045 43.0323 255.25C42.3748 255.615 41.7378 256.013 41.0877 256.388C40.9461 256.472 40.78 256.617 40.609 256.461C40.4757 256.341 40.5538 256.16 40.5986 256.019C40.6955 255.708 40.8059 255.405 40.9181 255.099C41.757 252.821 42.2451 250.468 41.7661 247.934C41.2342 245.121 39.7329 244.231 37.4261 244.786C35.6221 245.221 34.1198 246.243 32.898 247.627C31.9473 248.7 31.0619 249.812 30.4271 251.115L30.4216 251.122Z" fill="#EF9AB3"/>
<path d="M30.1928 251.788C30.8255 250.492 31.7079 249.386 32.6554 248.318C33.8731 246.943 35.368 245.924 37.1683 245.493C39.4651 244.939 40.9613 245.824 41.4936 248.624C41.9729 251.142 41.4846 253.485 40.6485 255.751C40.5367 256.055 40.429 256.358 40.3301 256.665C40.2855 256.806 40.2053 256.984 40.3404 257.105C40.5132 257.263 40.6764 257.116 40.8176 257.033C41.4654 256.66 42.1003 256.264 42.7556 255.901C43.1296 255.695 43.5342 255.537 43.924 255.359C44.3537 255.201 44.747 254.981 45.1 254.7C45.4546 254.929 45.7413 254.692 46.0479 254.629C46.6936 254.494 47.3384 254.369 48.0173 254.562C49.0269 254.848 49.5639 255.577 49.5576 256.605C49.5552 256.952 49.6117 257.3 49.6408 257.648C49.3454 257.938 49.3182 258.36 49.1689 258.721C48.8847 259.807 48.2236 260.67 47.6066 261.554C47.3046 261.988 46.9204 262.362 46.6783 262.844C46.6257 262.952 46.4609 263.029 46.5572 263.177C46.666 263.343 46.8559 263.302 46.9842 263.252C47.4708 263.061 47.9854 262.969 48.4977 262.856C49.8381 262.557 51.1987 262.362 52.603 262.403C52.6331 262.373 52.6631 262.343 52.6932 262.313L52.6871 262.315C53.132 262.511 53.5853 262.523 54.037 262.466C54.6778 262.802 55.3964 262.738 56.0594 263.049C57.5622 263.752 58.6893 264.74 59.0687 266.399C59.0982 266.53 59.1583 266.653 59.2022 266.781C58.9825 266.983 59.1399 267.281 59.0733 267.523C58.9531 269.149 57.9309 270.167 56.8039 271.127C56.3173 271.539 55.676 271.731 55.2447 272.206C54.492 272.338 53.8185 272.67 53.1073 272.909C52.9198 272.971 52.5735 272.925 52.6233 273.215C52.6703 273.481 52.9954 273.396 53.1995 273.462C54.1262 274.177 55.2575 274.577 56.0877 275.456C57.1963 276.629 57.8927 277.913 57.4539 279.46C57.0569 280.861 55.9319 281.489 54.6158 281.873C54.4356 281.926 54.2047 281.864 54.087 282.061C54.0221 282.061 53.9591 282.059 53.8942 282.058C50.2234 282.23 46.826 281.093 43.6429 279.063C41.2539 277.541 39.0068 275.83 37.1668 273.635C36.9465 273.372 36.7923 273.047 36.4712 272.873C36.5045 272.467 36.1239 272.249 35.9776 271.92C35.2167 270.217 34.1073 268.724 32.8462 267.332C32.4536 266.897 32.3335 266.302 31.8543 265.934C31.2932 264.644 30.6335 263.389 30.2048 262.05C29.0808 258.537 28.9399 255.115 30.1942 251.801L30.1928 251.788ZM34.4419 259.962C33.8827 260.581 33.3211 261.197 33.0014 261.991C32.9089 262.225 32.72 262.495 33.0486 262.698C33.3684 262.898 33.4644 262.566 33.5961 262.399C34.0863 261.78 34.5532 261.141 35.0411 260.52C35.3446 260.136 35.689 259.78 35.9833 259.388C36.1085 259.22 36.1829 258.974 35.9443 258.789C35.7144 258.608 35.5182 258.722 35.3662 258.893C35.0547 259.244 34.7525 259.603 34.4438 259.96L34.4419 259.962ZM33.1942 258.761C33.2902 258.594 33.3844 258.428 33.478 258.259C33.8863 257.509 34.2965 256.757 34.7002 256.003C34.816 255.789 34.802 255.575 34.568 255.412C34.3884 255.286 34.198 255.323 34.0992 255.484C33.5139 256.425 32.9221 257.363 32.476 258.388C32.3916 258.584 32.4213 258.79 32.6306 258.919C32.8803 259.073 33.0543 258.947 33.1919 258.759L33.1942 258.761ZM37.4162 263.574C37.0638 264.081 36.6229 264.379 36.4058 264.861C36.3325 265.025 36.2736 265.188 36.4723 265.334C36.6366 265.455 36.7797 265.388 36.8985 265.293C37.7144 264.631 38.4499 263.889 39.0642 263.037C39.2032 262.843 39.3018 262.588 39.0417 262.381C38.8045 262.189 38.6228 262.357 38.4688 262.512C38.0911 262.888 37.7204 263.269 37.4162 263.574ZM41.7778 265.996C41.9144 265.744 42.2746 265.6 42.0115 265.292C41.741 264.975 41.4719 265.201 41.2461 265.35C40.4919 265.836 39.7409 266.333 39.0016 266.84C38.8133 266.969 38.57 267.147 38.7505 267.427C38.9059 267.671 39.1734 267.559 39.3614 267.483C40.2716 267.117 41.0562 266.567 41.7783 266L41.7778 265.996ZM34.3457 263.47C33.9015 264.125 33.5274 264.845 33.2178 265.599C33.11 265.864 33.0228 266.182 33.3694 266.359C33.7206 266.541 33.8254 266.194 33.9403 265.991C34.3183 265.323 34.6605 264.635 35.0291 263.96C35.1624 263.716 35.3871 263.503 35.0051 263.235C34.6458 262.982 34.552 263.316 34.3476 263.468L34.3457 263.47ZM35.5907 269.092C35.6483 269.12 35.7072 269.16 35.7698 269.177C36.7901 269.483 37.8083 269.515 38.8267 269.419C38.9902 269.404 39.1309 269.316 39.1096 269.129C39.0855 268.917 38.9096 268.824 38.7265 268.796C37.746 268.655 36.7664 268.523 35.7892 268.392C35.5811 268.365 35.4502 268.483 35.4062 268.666C35.3699 268.826 35.4695 268.964 35.5926 269.09L35.5907 269.092ZM43.9202 276.484C43.9404 276.404 44.004 276.265 44.0106 276.121C44.0163 275.968 43.8768 275.956 43.7674 275.969C42.8696 276.095 41.9969 275.872 41.1232 275.603C40.9214 275.54 40.6429 275.519 40.581 275.802C40.5241 276.056 40.6993 276.234 40.9275 276.328C41.718 276.656 42.5244 276.866 43.3588 276.771C43.5571 276.749 43.7456 276.696 43.9226 276.486L43.9202 276.484ZM38.549 273.758C39.2493 274.157 40.0764 274.292 40.8993 274.446C41.1089 274.486 41.3323 274.5 41.3534 274.226C41.3728 273.992 41.194 273.855 40.9871 273.784C40.2511 273.53 39.5122 273.288 38.7743 273.036C38.5698 272.967 38.4193 273.005 38.3242 273.181C38.2103 273.392 38.3173 273.56 38.5467 273.756L38.549 273.758ZM40.186 271.728C40.1442 271.71 40.1002 271.691 40.0589 271.677C39.2306 271.422 38.4037 271.16 37.574 270.91C37.4028 270.859 37.2617 270.923 37.2055 271.092C37.1301 271.311 37.2265 271.515 37.4274 271.607C38.2499 271.977 39.1009 272.23 39.9875 272.245C40.1321 272.247 40.2357 272.183 40.2664 272.03C40.2893 271.919 40.2942 271.815 40.1878 271.726L40.186 271.728Z" fill="#EF7FA0"/>
<path d="M31.4317 267.18C31.9147 267.552 32.0362 268.159 32.4315 268.595C33.7027 270.005 34.8209 271.516 35.5879 273.24C35.7353 273.574 36.1212 273.797 36.0853 274.206C34.6957 274.001 33.4883 273.284 32.2987 272.556C31.8388 272.276 31.4201 272.191 30.9463 272.346C26.3181 273.856 21.5028 274.683 16.5786 275.127C16.4306 275.141 16.2539 275.089 16.0333 275.413C16.7632 275.36 17.3574 275.56 17.9802 275.622C21.1695 275.947 24.3471 275.87 27.5368 276.179C30.1832 276.439 32.8232 276.772 35.4112 277.614C36.1554 277.854 36.9015 278.112 37.5148 278.666C38.2573 279.337 38.3689 280.118 37.762 280.809C36.7945 281.909 35.4131 282.242 33.9884 282.435C31.704 282.746 29.405 282.407 27.1116 281.894C22.0276 280.761 17.0903 279.062 12.4578 276.48C11.0508 275.695 9.77166 275.424 8.31879 275.554C7.29557 275.643 6.25859 275.648 5.22591 275.69C4.94053 275.702 4.57599 275.816 4.44107 275.463C4.29441 275.081 4.6132 274.787 4.9045 274.715C5.80034 274.489 6.29285 273.793 6.91041 273.232C8.20611 272.051 9.28973 270.672 10.4323 269.349C12.4362 267.03 14.3694 264.646 16.635 262.57C18.1614 261.173 19.6943 259.777 21.559 258.797C22.1599 258.48 22.7688 258.196 23.489 258.188C24.6558 258.176 25.528 258.968 25.5925 260.131C25.6624 261.398 25.145 262.452 24.5655 263.478C23.1083 266.062 20.9881 268.006 18.5191 269.589C15.9656 271.227 13.3029 272.683 10.4849 273.885C10.3361 273.949 10.0171 273.981 10.0999 274.228C10.1922 274.502 10.5048 274.377 10.6809 274.367C13.3922 274.232 16.0934 274.028 18.7706 273.704C22.879 273.207 26.8444 272.249 30.7527 271.085C31.381 270.898 31.5488 270.593 31.3259 269.966C31.1801 269.554 31.081 269.126 31.0117 268.702C30.9188 268.124 30.988 267.581 31.427 267.176L31.4317 267.18Z" fill="#6BB194"/>
<path d="M62.826 272.145C62.7641 272.155 62.6956 272.182 62.6373 272.169C62.4078 272.112 62.0622 272.091 62.0699 271.806C62.0789 271.516 62.3781 271.463 62.6669 271.541C62.6204 271.761 62.7057 271.957 62.8242 272.147L62.826 272.145Z" fill="#FFC1D3"/>
<path d="M49.4587 258.134C49.6158 257.76 49.6413 257.322 49.9417 257.024C51.538 256.028 53.2403 255.176 54.5069 253.743C54.9018 253.296 55.4961 253.307 56.0316 253.727C56.4872 254.085 56.8718 254.477 56.5774 255.075C56.2965 255.642 55.7572 255.776 55.0757 255.39C54.5956 255.119 54.3273 255.17 53.8979 255.483C52.6074 256.418 51.2269 257.239 49.8836 258.104C49.752 258.19 49.6237 258.287 49.4587 258.134Z" fill="#FFC1D3"/>
<path d="M52.9472 272.946C52.7405 272.879 52.4112 272.965 52.3636 272.695C52.3132 272.398 52.662 272.448 52.8538 272.383C53.5741 272.139 54.2562 271.8 55.0185 271.665C55.6801 271.802 56.2938 271.926 56.6274 271.13C56.8524 270.59 57.7848 270.554 58.3612 270.967C58.8088 271.29 58.9208 271.999 58.5512 272.478C58.1615 272.984 57.5886 273.239 56.9589 272.917C56.1925 272.529 55.4568 272.599 54.7078 272.646C54.1105 272.685 53.5009 272.709 52.9486 272.939L52.9472 272.946Z" fill="#FFC1D3"/>
<path d="M54.2255 261.744C53.7629 261.804 53.303 261.794 52.8487 261.588C53.2977 261.01 54.0457 260.888 54.6314 260.518C55.1855 260.172 55.7879 259.894 56.3572 259.569C56.6961 259.376 56.9886 259.151 57.1781 258.769C57.4199 258.283 57.8499 258.009 58.4651 258.318C59.094 258.634 59.4142 259.278 59.2174 259.804C59.0164 260.348 58.4914 260.593 57.8366 260.35C57.3044 260.153 56.8691 260.192 56.4397 260.49C55.7433 260.974 54.8854 261.201 54.2212 261.744L54.2255 261.744Z" fill="#FFC1D3"/>
<path d="M59.0895 266.553C59.1568 266.307 58.9959 266.006 59.2198 265.799C60.2568 265.654 61.3614 265.732 62.1056 264.814C62.4545 264.384 63.173 264.471 63.65 264.854C64.0383 265.163 64.1944 266.001 63.9581 266.491C63.7315 266.956 63.0314 267.311 62.6122 266.99C61.5879 266.201 60.6148 266.424 59.6075 266.663C59.4324 266.704 59.2506 266.705 59.0942 266.557L59.0895 266.553Z" fill="#FFC1D3"/>
<path d="M45.5803 254.48C45.217 254.773 44.8119 255.003 44.3696 255.168C44.1198 254.67 44.5587 254.436 44.7259 254.122C45.2042 253.223 45.7542 252.367 46.2698 251.493C46.476 251.144 46.573 250.799 46.4669 250.335C46.3372 249.756 46.7061 249.397 47.2396 249.257C47.6082 249.164 48.0229 249.174 48.2105 249.597C48.4187 250.069 48.653 250.698 48.1035 250.964C46.966 251.517 46.6572 252.698 46.0163 253.626C45.8441 253.876 45.4906 254.065 45.5827 254.482L45.5803 254.48Z" fill="#FFC1D3"/>
<path d="M52.8562 261.777C52.8255 261.808 52.7948 261.839 52.7641 261.87C52.7218 261.767 52.7424 261.724 52.8562 261.777Z" fill="#FFC1D3"/>
<path d="M34.5354 260.423C34.8537 260.05 35.1695 259.674 35.4921 259.3C35.6474 259.118 35.8533 259 36.0916 259.191C36.3348 259.385 36.26 259.647 36.1321 259.822C35.8269 260.234 35.4717 260.607 35.1549 261.013C34.6489 261.667 34.1646 262.34 33.6563 262.991C33.5197 263.166 33.4177 263.514 33.0884 263.306C32.7496 263.09 32.9435 262.807 33.0396 262.561C33.3711 261.726 33.9511 261.075 34.5335 260.426L34.5354 260.423Z" fill="#C7386C"/>
<path d="M33.4046 259.307C33.263 259.502 33.0841 259.633 32.8271 259.473C32.6117 259.338 32.5792 259.126 32.6678 258.919C33.1243 257.85 33.7331 256.872 34.3377 255.894C34.4412 255.724 34.6352 255.688 34.8201 255.819C35.0585 255.986 35.0752 256.212 34.9561 256.435C34.5409 257.22 34.119 258.004 33.6989 258.785C33.6045 258.96 33.5058 259.134 33.407 259.309L33.4046 259.307Z" fill="#C7386C"/>
<path d="M37.3984 263.926C37.7109 263.604 38.0971 263.205 38.4881 262.811C38.6474 262.648 38.8379 262.474 39.0812 262.673C39.3484 262.893 39.2483 263.159 39.1044 263.362C38.4685 264.257 37.7071 265.037 36.8625 265.731C36.7394 265.831 36.5938 265.903 36.4212 265.775C36.2155 265.621 36.2741 265.448 36.3524 265.277C36.5771 264.772 37.0336 264.458 37.3984 263.926Z" fill="#C7386C"/>
<path d="M41.7325 266.246C40.9931 266.833 40.1856 267.407 39.251 267.787C39.058 267.866 38.7833 267.982 38.6237 267.729C38.4383 267.437 38.6905 267.255 38.8815 267.119C39.6405 266.592 40.4115 266.076 41.1859 265.57C41.4182 265.421 41.694 265.181 41.9718 265.511C42.2401 265.833 41.8722 265.98 41.732 266.242L41.7325 266.246Z" fill="#C7386C"/>
<path d="M34.2876 264.018C34.4977 263.86 34.5939 263.512 34.9631 263.775C35.3557 264.054 35.1249 264.276 34.9879 264.529C34.6088 265.228 34.2554 265.945 33.8696 266.641C33.7516 266.853 33.644 267.214 33.283 267.025C32.9268 266.84 33.0165 266.51 33.1272 266.233C33.4451 265.45 33.8294 264.701 34.2857 264.02L34.2876 264.018Z" fill="#C7386C"/>
<path d="M35.3809 269.594C35.2573 269.468 35.1573 269.328 35.1937 269.167C35.2379 268.983 35.3694 268.864 35.5784 268.892C36.5615 269.021 37.5457 269.158 38.5279 269.298C38.716 269.326 38.8903 269.418 38.9127 269.633C38.9341 269.822 38.7928 269.91 38.6286 269.925C37.6059 270.022 36.5834 269.99 35.5589 269.682C35.4937 269.662 35.4345 269.622 35.379 269.596L35.3809 269.594Z" fill="#C7386C"/>
<path d="M43.4859 276.833C43.3062 277.046 43.1168 277.1 42.9194 277.121C42.0811 277.216 41.2685 277.002 40.4766 276.674C40.2515 276.58 40.0737 276.402 40.1284 276.144C40.1925 275.856 40.4705 275.88 40.6732 275.943C41.5553 276.214 42.4303 276.441 43.33 276.313C43.4399 276.299 43.58 276.312 43.5744 276.465C43.5682 276.615 43.5061 276.753 43.4835 276.831L43.4859 276.833Z" fill="#C7386C"/>
<path d="M38.1792 274.203C37.9501 274.008 37.8414 273.843 37.957 273.629C38.0519 273.454 38.2041 273.414 38.4065 273.485C39.1434 273.737 39.8812 273.978 40.6163 274.231C40.8229 274.302 41.0014 274.439 40.982 274.672C40.9586 274.943 40.7355 274.929 40.5286 274.891C39.7067 274.738 38.8808 274.603 38.1815 274.205L38.1792 274.203Z" fill="#C7386C"/>
<path d="M39.891 272.196C39.9991 272.282 39.9901 272.387 39.9696 272.5C39.9389 272.653 39.8352 272.717 39.6906 272.715C38.8041 272.7 37.9549 272.445 37.1306 272.077C36.9297 271.985 36.8332 271.781 36.9087 271.562C36.9672 271.396 37.1083 271.331 37.2772 271.38C38.1068 271.63 38.9356 271.89 39.762 272.147C39.8056 272.163 39.8474 272.18 39.8891 272.198L39.891 272.196Z" fill="#C7386C"/>
<path d="M75.652 343.302C76.5025 344.195 77.1737 345.18 77.0591 346.761C74.075 344.656 70.4949 343.833 67.4046 342.022C64.2125 340.149 62.825 336.547 59.9896 333.997C59.4377 335.246 59.9765 335.917 60.2813 336.589C61.6506 339.567 62.7406 342.658 63.7784 345.766C64.0259 346.51 64.4285 347.253 64.1282 348.106C63.882 348.203 63.6352 348.306 63.3891 348.403C62.6638 347.627 62.4676 346.602 62.1459 345.634C58.1578 333.558 51.974 322.891 42.4698 314.371C41.1436 313.185 39.8518 311.899 37.4814 311.06C39.8947 319.268 43.196 326.561 46.5992 333.812C46.4578 333.871 46.317 333.923 46.179 333.979C43.3197 330.867 42.0082 326.888 40.4075 323.094C39.2245 320.29 37.9271 317.424 37.4728 314.435C36.6562 309.072 32.7677 307.171 28.4956 305.45C28.3647 305.396 28.2096 305.397 28.0631 305.373C27.8687 305.218 27.7623 305.206 27.8352 305.512C30.3646 309.831 33.5875 313.731 35.4028 318.487C36.9226 322.471 37.4608 326.639 37.7404 330.799C36.8024 331.331 36.4224 330.856 36.0223 330.429C36.3921 329.371 36.13 328.444 35.7116 327.461C34.5195 324.653 33.4465 321.789 32.307 318.959C31.2834 316.416 30.8346 313.573 28.6853 311.608C28.4465 306.871 25.8914 303.924 21.5475 302.398C18.5696 301.355 15.5803 300.334 12.5719 299.381C11.7854 299.131 10.9395 298.735 9.56827 299.335C15.7422 302.825 20.3194 307.368 22.1203 314.161C19.2265 311.661 16.5412 308.993 14.182 305.946C12.8198 304.191 11.6252 302.026 9.12863 301.422C5.43661 296.917 0.189685 297.393 -4.96644 297.536C-6.38394 297.576 -7.86036 298.082 -9.31134 297.39C-8.73001 296.473 -7.89816 296.644 -7.22223 296.551C-3.65311 296.058 -0.0487894 295.799 3.45836 296.42C7.46956 297.131 11.4134 296.758 15.4136 296.083C17.1679 295.787 18.2824 294.474 19.7694 293.786C21.0441 293.99 22.2706 293.826 23.4678 293.261C26.2654 291.945 29.1552 290.998 32.2286 290.667C33.1552 290.566 34.1802 290.426 34.8433 289.548C36.7728 290.163 35.7019 290.832 34.7355 291.262C31.6345 292.644 28.4698 293.827 25.0964 294.325C23.5092 294.558 21.9471 294.965 20.3848 295.545C25.8041 296.351 31.3482 296.219 36.4974 298.1C36.3889 298.419 36.2769 298.74 36.1684 299.059C28.7391 297.413 21.1923 296.902 13.4752 297.206C13.5258 298.507 14.3774 298.395 14.9191 298.557C24.5604 301.49 33.5581 305.601 41.5012 311.746C44.6566 314.187 48.6194 315.113 52.2497 316.66C52.2127 318.463 53.8375 318.711 54.9298 319.384C58.9223 321.836 63.4902 323.094 67.7748 324.953C69.0153 325.493 70.0819 326.546 71.6174 326.392C72.5718 327.53 72.0761 328.102 70.8009 327.835C64.5998 326.52 58.2766 325.467 53.6269 320.681C52.2638 319.278 50.727 318.042 49.2063 316.804C48.5088 316.241 47.7203 315.704 46.281 315.809C47.6348 317.416 48.7484 318.814 49.948 320.139C53.1319 323.64 55.1829 328.002 58.5088 331.404C60.0023 332.936 61.9011 333.883 63.57 335.16C63.6072 336.126 64.1942 336.687 64.914 337.249C67.0843 338.953 69.6507 339.999 72.0194 341.371C73.1991 342.055 73.8793 343.695 75.6646 343.303L75.652 343.302Z" fill="#6BA270"/>
<path d="M63.8915 348.983C64.132 348.884 64.3787 348.785 64.6219 348.689C67.3122 349.003 70.0258 349.267 71.8203 351.595C72.2528 352.157 72.6842 352.731 73.0268 353.353C73.4901 354.19 73.8295 355.117 73.0888 355.995C72.3872 356.822 71.3505 356.98 70.4546 356.63C68.9193 356.028 67.7951 356.085 67.2162 357.917C67.1373 358.162 66.7506 358.558 66.6319 358.524C64.6669 357.938 63.1298 359.52 61.4014 359.688C59.7992 359.844 59.1296 358.33 59.0465 356.863C58.9068 354.385 59.9118 352.305 61.8312 350.645C62.4969 350.071 63.1993 349.54 63.8881 348.986L63.8915 348.983Z" fill="#EF7FA0"/>
<path d="M46.544 334.214C46.6801 334.159 46.8225 334.104 46.9587 334.05C49.3083 333.959 51.6501 333.818 53.6002 335.415C54.7287 336.343 56.0741 337.255 55.5888 338.925C55.1221 340.528 53.6852 340.572 52.2928 340.27C52.1551 340.241 51.88 340.244 51.8743 340.272C51.2756 342.831 48.4275 342.236 47.094 343.727C45.5519 345.449 44.1288 345.242 43.3586 343.14C42.4245 340.582 43.0591 338.311 44.8355 336.216C45.4033 335.544 46.2899 335.138 46.5474 334.211L46.544 334.214Z" fill="#EF7FA0"/>
<path d="M35.7041 299.272C35.8148 298.954 35.9221 298.639 36.0294 298.325C37.827 295.629 40.3352 294.584 43.4513 294.949C44.355 295.054 45.2121 295.29 45.5166 296.259C45.8064 297.184 45.5571 297.986 44.6844 298.562C44.088 298.956 43.6031 299.397 43.9746 300.183C44.4172 301.113 44.1113 301.884 43.3358 302.524C42.8011 302.962 42.8259 303.505 42.7794 304.11C42.5929 306.432 41.1852 307.144 39.1866 305.958C36.675 304.468 35.5837 302.199 35.7001 299.281L35.7041 299.272Z" fill="#EF7FA0"/>
<path d="M28.8102 311.462C30.9631 313.43 31.416 316.275 32.4378 318.826C33.5756 321.664 34.6538 324.53 35.8479 327.343C36.2669 328.328 36.526 329.26 36.159 330.316C29.8997 325.614 28.2132 319.015 28.8131 311.465L28.8102 311.462Z" fill="#8AB696"/>
<path d="M71.3382 326.976C69.8027 327.13 68.7362 326.077 67.4957 325.538C63.2141 323.681 58.6464 322.424 54.6511 319.969C53.5618 319.299 51.937 319.051 51.9712 317.245C58.5135 318.663 64.9445 320.326 69.8737 325.131C70.4396 325.681 71.077 326.175 71.3388 326.97L71.3382 326.976Z" fill="#8AB696"/>
<path d="M9.14043 300.879C11.6586 301.491 12.862 303.674 14.2313 305.441C16.6051 308.509 19.3132 311.202 22.2285 313.722C21.3124 314.67 20.6025 313.835 19.858 313.512C14.2012 311.073 11.4186 306.188 9.14043 300.879Z" fill="#8AB696"/>
<path d="M75.7113 344.002C73.9211 344.395 73.2391 342.75 72.0562 342.064C69.6811 340.688 67.1111 339.637 64.9315 337.93C64.2132 337.364 63.6245 336.801 63.5838 335.836C68.7261 336.988 73.3016 338.954 75.7079 344.005L75.7113 344.002Z" fill="#8AB696"/>
<path d="M34.1801 289.478C33.5257 290.343 32.5229 290.477 31.6133 290.576C28.5991 290.905 25.7595 291.831 23.0133 293.123C21.8381 293.678 20.6307 293.841 19.3827 293.638C23.721 289.869 28.5368 288.02 34.1806 289.472L34.1801 289.478Z" fill="#8AB696"/>
<path d="M86.5185 317.961C87.5354 317.363 88.6854 317.54 89.4185 318.032C90.3516 318.66 90.1427 319.812 89.3985 320.695C88.591 321.649 87.6493 321.714 86.6949 320.953C85.5743 320.058 86.3466 319.002 86.5185 317.961Z" fill="#EF9AB3"/>
<path d="M71.2096 311.291C70.4796 311.893 69.7294 312.506 68.837 311.874C68.0214 311.294 67.5582 310.498 68.277 309.482C68.8703 308.642 69.684 308.336 70.5541 308.893C71.4296 309.454 71.691 310.297 71.2096 311.291Z" fill="#EF9AB3"/>
<path d="M10.8093 285.358C11.1165 284.339 11.8465 283.864 12.8216 284.091C13.8307 284.323 14.5265 284.997 14.1155 286.157C13.8061 287.029 13.2204 287.773 12.1275 287.431C11.1564 287.126 10.4469 286.567 10.8093 285.358Z" fill="#EF9AB3"/>
<path d="M78.7049 332.484C79.4135 331.793 80.2237 331.443 81.0448 332.103C81.8536 332.753 82.0998 333.624 81.3548 334.553C80.7109 335.35 79.903 335.677 79.1152 334.893C78.4668 334.246 77.7991 333.487 78.7037 332.48L78.7049 332.484Z" fill="#EF9AB3"/>
<path d="M45.8126 25.1551C46.3613 24.0484 46.7116 22.9078 46.1332 21.4294C43.9027 24.3278 40.7222 26.1777 38.3031 28.827C35.805 31.566 35.5458 35.4234 33.5896 38.7038C32.6914 37.6731 33.0077 36.8708 33.1002 36.138C33.5272 32.8833 33.6532 29.6025 33.7246 26.3218C33.7408 25.5366 33.9056 24.7065 33.3655 23.9797C33.1013 23.96 32.8346 23.9345 32.5704 23.9148C32.1068 24.8725 32.2229 25.9109 32.2023 26.9327C31.9675 39.6674 29.2149 51.7061 22.6493 62.6754C21.7325 64.2039 20.8779 65.8168 18.8595 67.3236C18.7345 58.7556 19.7303 50.8001 20.836 42.8542C20.6834 42.8402 20.5332 42.832 20.3848 42.8198C18.5722 46.6449 18.4974 50.8404 18.0908 54.9438C17.7904 57.9769 17.3993 61.104 17.8506 64.0971C18.6595 69.4698 15.5037 72.4424 11.9273 75.3558C11.8182 75.4466 11.6695 75.4916 11.5364 75.5577C11.3965 75.764 11.2983 75.8071 11.2772 75.4925C12.4163 70.6106 14.343 65.9238 14.6695 60.8358C14.9421 56.5737 14.2214 52.4278 13.2556 48.3659C12.2007 48.1354 11.9778 48.7016 11.722 49.2296C12.3891 50.131 12.4133 51.096 12.3046 52.1606C11.9966 55.1998 11.8192 58.2579 11.5682 61.3029C11.3431 64.0395 11.7566 66.892 10.2832 69.4092C11.4591 74.0112 9.88881 77.5887 6.18612 80.3373C3.64677 82.2183 1.09009 84.0823 -1.50496 85.8866C-2.1831 86.3595 -2.87504 86.9886 -4.36451 86.8217C0.50664 81.6521 3.53811 75.9482 3.24696 68.916C1.21993 72.1656 -0.557781 75.5143 -1.9112 79.1289C-2.69379 81.2122 -3.19458 83.6378 -5.40355 84.9565C-7.59966 90.361 -12.7595 91.4631 -17.7341 92.8559C-19.1018 93.2384 -20.6641 93.1924 -21.8467 94.2854C-21.0189 94.9897 -20.2739 94.5793 -19.5999 94.4673C-16.0395 93.8805 -12.5151 93.0585 -9.34447 91.4238C-5.71845 89.5533 -1.83557 88.7395 2.19095 88.1983C3.95666 87.9606 5.412 88.8857 7.0383 89.1027C8.19706 88.529 9.41879 88.3216 10.7315 88.507C13.7978 88.9361 16.8425 88.9836 19.8805 88.3888C20.7968 88.2105 21.8188 88.0401 22.7133 88.6827C24.3767 87.5224 23.1538 87.1997 22.102 87.0755C18.7262 86.6737 15.3482 86.481 11.9738 87.0057C10.3867 87.2544 8.77187 87.3287 7.10545 87.2374C12.0503 84.8582 17.3925 83.3392 21.7602 80.0117C21.562 79.7393 21.3596 79.465 21.1613 79.1925C14.5427 82.971 7.47565 85.6998 0.00374626 87.6988C-0.333375 86.44 0.514286 86.2939 0.984582 85.9786C9.33717 80.3118 16.7251 73.7094 22.5011 65.4741C24.7957 62.2027 28.3118 60.1411 31.3256 57.5839C30.7558 55.8706 32.2364 55.1508 33.0816 54.1828C36.1738 50.6529 40.1703 48.0943 43.7173 45.044C44.744 44.1599 45.4521 42.8363 46.9663 42.5272C47.5418 41.1554 46.8982 40.7557 45.7577 41.3898C40.2158 44.4873 34.4797 47.3713 31.4511 53.3293C30.563 55.0756 29.4594 56.7136 28.3717 58.349C27.8717 59.0952 27.2766 59.8429 25.8688 60.1696C26.6873 58.2308 27.338 56.5625 28.0927 54.9395C30.1004 50.6459 30.7689 45.8644 32.9419 41.6238C33.9161 39.7146 35.4517 38.2457 36.6694 36.5285C36.4187 35.5937 36.814 34.8831 37.336 34.1322C38.9066 31.8577 41.0515 30.0959 42.9104 28.0807C43.8361 27.0762 44.0006 25.3058 45.8244 25.1507L45.8126 25.1551Z" fill="#6BA270"/>
<path d="M32.8792 23.2113C33.1386 23.2346 33.4038 23.2558 33.6648 23.2752C36.1453 22.1771 38.6624 21.1185 39.6888 18.3594C39.9361 17.6938 40.1785 17.0168 40.3218 16.3201C40.5168 15.3819 40.5667 14.3946 39.598 13.7748C38.6817 13.1919 37.643 13.3478 36.8898 13.9486C35.6 14.9806 34.5075 15.2592 33.4106 13.6783C33.2626 13.4677 32.7754 13.2037 32.672 13.2718C30.9659 14.4148 29.0268 13.3582 27.3238 13.7105C25.7449 14.0366 25.5533 15.6835 25.9086 17.1112C26.5095 19.5229 28.0875 21.2142 30.4157 22.2328C31.2226 22.5842 32.052 22.884 32.8751 23.2095L32.8792 23.2113Z" fill="#EF7FA0"/>
<path d="M20.6645 42.4865C20.811 42.4985 20.9633 42.5083 21.1098 42.5203C23.3841 41.9097 25.6658 41.3494 27.0577 39.2431C27.8621 38.0206 28.8788 36.7493 27.9193 35.2955C26.9977 33.9006 25.6104 34.2853 24.3681 34.9875C24.2449 35.0563 23.9807 35.1343 23.9671 35.1095C22.6357 32.8392 20.0878 34.2537 18.3703 33.2232C16.3847 32.0337 15.085 32.6543 14.9713 34.8934C14.8362 37.6175 16.1166 39.6019 18.4367 41.0784C19.1789 41.5524 20.1473 41.6774 20.6686 42.4883L20.6645 42.4865Z" fill="#EF7FA0"/>
<path d="M20.654 79.126C20.8541 79.3972 21.0501 79.6665 21.2461 79.9359C23.7647 81.981 26.4735 82.2358 29.3461 80.9624C30.1794 80.5939 30.9292 80.1136 30.9331 79.0961C30.9362 78.1255 30.4599 77.4321 29.4544 77.1406C28.7671 76.9403 28.1726 76.6626 28.2949 75.8005C28.4426 74.7796 27.9214 74.1327 26.9899 73.7507C26.3485 73.4903 26.2113 72.9634 25.9876 72.3989C25.1208 70.2332 23.5633 69.9702 22.0029 71.6971C20.0423 73.8677 19.6712 76.3625 20.6475 79.1185L20.654 79.126Z" fill="#EF7FA0"/>
<path d="M10.4462 69.5118C11.922 66.9902 11.5118 64.1345 11.733 61.3913C11.9801 58.3391 12.1617 55.2776 12.4701 52.233C12.5789 51.1666 12.5504 50.1981 11.8864 49.2968C7.29284 55.6514 7.63619 62.4649 10.448 69.5078L10.4462 69.5118Z" fill="#8AB696"/>
<path d="M46.5264 42.0513C45.0122 42.3604 44.3041 43.6839 43.2774 44.568C39.7323 47.6142 35.736 50.1726 32.6421 53.7065C31.7987 54.6704 30.3182 55.3902 30.8862 57.1074C36.7238 53.8097 42.382 50.3099 45.6728 44.2515C46.0509 43.5573 46.5141 42.8954 46.5288 42.0571L46.5264 42.0513Z" fill="#8AB696"/>
<path d="M-5.23099 85.4718C-3.00377 84.1389 -2.49987 81.6937 -1.7137 79.5976C-0.352792 75.9579 1.43926 72.5784 3.4808 69.3029C2.3235 68.6682 1.89217 69.6779 1.27573 70.2076C-3.41215 74.2196 -4.62563 79.7179 -5.23099 85.4718Z" fill="#8AB696"/>
<path d="M45.6618 24.4679C43.833 24.6233 43.6681 26.3988 42.74 27.4062C40.8761 29.4272 38.7295 31.1958 37.1506 33.475C36.6314 34.2298 36.2351 34.9425 36.4824 35.8782C41.0595 33.2497 44.8535 30.0119 45.6576 24.466L45.6618 24.4679Z" fill="#8AB696"/>
<path d="M22.0993 88.9465C21.2173 88.314 20.2181 88.4831 19.3187 88.658C16.3381 89.2381 13.3476 89.1954 10.3376 88.7743C9.04899 88.5924 7.8456 88.7943 6.71219 89.3592C11.9792 91.677 17.1336 92.0158 22.1017 88.9522L22.0993 88.9465Z" fill="#8AB696"/>
<path d="M63.7191 46.1694C64.8691 46.4397 65.9167 45.9293 66.4721 45.2412C67.1785 44.3638 66.637 43.3236 65.6634 42.6996C64.6083 42.0272 63.6882 42.2442 63.0012 43.256C62.1944 44.4444 63.2461 45.225 63.7191 46.1694Z" fill="#EF9AB3"/>
<path d="M51.0532 57.0929C50.1765 56.7339 49.2772 56.3705 48.611 57.2398C48.0026 58.036 47.7957 58.9354 48.7845 59.694C49.6009 60.321 50.47 60.3722 51.137 59.5809C51.8084 58.7853 51.8084 57.9014 51.0532 57.0929Z" fill="#EF9AB3"/>
<path d="M0.965898 99.8235C1.56172 100.707 2.40078 100.945 3.26614 100.438C4.16255 99.9161 4.62837 99.0652 3.89141 98.078C3.33706 97.3357 2.556 96.7972 1.61224 97.4494C0.773803 98.0294 0.26086 98.7747 0.965898 99.8235Z" fill="#EF9AB3"/>
<path d="M51.9402 34.5971C52.8226 35.0473 53.7014 35.1419 54.2913 34.2673C54.8723 33.4055 54.8496 32.4994 53.8614 31.8316C53.0093 31.2603 52.1397 31.1875 51.6184 32.1711C51.19 32.9822 50.7762 33.9061 51.9402 34.6015L51.9402 34.5971Z" fill="#EF9AB3"/>
<path d="M163.07 204.736L152.474 208.675L150.638 204.199L149.653 207.93L145.54 212.083L153.566 211.208L164.363 210.316L172.911 220.804L172.737 210.031C177.617 209.324 186.75 207.244 184.233 204.584C181.716 201.924 173.997 202.714 170.452 203.441L161.832 194.181L163.07 204.736Z" fill="#FFC1D3"/>
</svg>
