<svg width="154" height="387" viewBox="0 0 154 387" fill="none" xmlns="http://www.w3.org/2000/svg">
<path d="M48.4108 160.259C44.921 165.784 43.1434 166.312 35.2553 163.932C34.1398 163.595 33.5431 163.87 33.1141 164.556C30.7385 168.339 28.3951 172.148 25.7397 176.442C28.9707 176.828 31.0959 175.981 33.2927 175.427C43.9131 172.755 55.2529 173.156 66.8459 174.69C68.5737 174.92 70.4449 175.555 72.0608 176.432C75.3318 178.216 77.199 180.996 76.978 184.201C76.7827 187.153 74.0515 187.582 71.3714 187.598C63.3949 187.643 55.3197 186.829 47.1634 185.028C41.1904 183.705 35.2142 182.243 29.4173 179.76C25.8171 178.221 23.2706 178.222 22.009 181.523C21.5869 182.633 20.229 183.188 20.2828 185.015C27.1191 187.149 33.997 189.253 40.7584 191.94C48.5633 195.036 55.7074 199.25 61.8285 205.259C62.5028 205.922 63.1711 206.598 63.7678 207.308C65.6248 209.524 67.438 211.975 66.0707 214.321C64.7486 216.593 62.029 214.935 59.8906 214.239C47.5969 210.269 37.106 202.981 27.464 194.195C24.6813 191.66 21.9046 189.113 19.0997 186.55C16.9272 187.676 16.0488 189.654 14.688 191.201C13.6703 192.365 14.5407 193.508 15.4531 194.768C21.878 203.596 25.4797 213.168 28.7607 222.822C29.5471 225.14 29.0962 227.02 27.2511 227.922C25.3474 228.85 23.292 227.529 21.6855 225.939C14.1054 218.425 10.9715 209.879 10.4993 200.734C10.4425 199.662 11.2135 198.486 9.27952 197.12C6.65024 201.544 2.9362 205.075 -0.42661 208.901C-0.999795 209.549 -0.552863 210.472 -0.31153 211.298C1.91768 218.88 1.47276 226.044 0.498682 233.111C0.365152 234.111 -0.0525797 235.048 -0.476687 235.942C-1.01728 237.091 -1.82118 237.95 -3.52294 237.612C-5.16258 237.294 -6.08756 236.188 -6.71203 234.858C-8.46217 231.129 -8.63381 227.477 -8.34477 223.86C-8.22275 222.371 -8.06674 220.887 -7.91581 219.285C-10.2244 218.329 -11.1598 219.656 -12.2301 220.652C-22.2134 229.889 -32.7071 238.588 -44.1587 246.284C-44.7144 246.66 -45.2327 247.087 -45.8218 247.421C-46.9284 248.052 -48.1371 248.762 -49.3735 247.026C-50.4256 245.556 -49.8502 244.611 -48.6279 243.856C-42.7765 240.256 -37.3077 236.206 -32.1333 231.857C-24.6015 225.533 -16.9579 219.312 -10.1114 212.311C-9.74739 211.94 -9.46997 211.488 -8.63406 210.418C-12.7218 210.907 -15.9928 211.278 -19.2433 211.698C-25.0033 212.447 -30.8652 212.762 -36.9256 212.237C-40.3626 211.939 -43.6507 210.573 -46.8933 209.041C-48.6787 208.197 -49.4658 206.666 -49.5868 205.029C-49.698 203.483 -48.4928 202.816 -47.1502 202.657C-33.627 201.053 -20.0346 199.802 -5.49099 204.754C-4.36202 205.137 -3.47429 205.35 -2.79718 204.601C0.930168 200.458 4.95024 196.545 7.9998 191.782C6.17239 190.492 4.76933 191.029 3.37225 191.134C-3.09017 191.624 -9.35672 192.776 -15.983 192.72C-20.7657 192.678 -25.5293 192.105 -30.3282 190.106C-34.0052 188.576 -36.6975 185.658 -36.4671 183.146C-36.1412 179.528 -33.1071 179.235 -29.9396 179.767C-17.4108 181.855 -4.82012 183.069 7.54369 188.577C10.4596 189.874 12.7636 187.953 13.8667 183.384C9.64954 181.979 5.41526 180.664 1.23407 179.15C-8.10613 175.781 -16.9752 171.422 -24.2988 164.101C-25.4418 162.961 -26.5613 161.774 -27.5475 160.518C-29.1726 158.436 -31.3085 156.181 -29.6137 153.94C-27.913 151.687 -24.9781 152.544 -22.4001 153.685C-14.4817 157.19 -7.29466 162.048 -0.707593 167.791C4.58582 172.406 9.7142 177.209 15.1121 182.106C17.449 180.831 18.5652 178.646 19.7716 176.077C11.8349 171.567 5.62235 165.506 0.389698 158.502C-3.76203 152.947 -7.68089 147.305 -10.0893 141.072C-10.5201 139.953 -11.5087 138.665 -10.2171 137.842C-8.96724 137.049 -7.53123 137.157 -5.96226 138.038C-4.50981 138.844 -3.35801 139.966 -2.2268 141.13C6.38568 150.026 13.5414 159.695 18.9223 170.307C19.4879 171.428 19.8053 172.703 21.3963 173.704C24.8226 170.151 27.0064 165.715 29.4425 161.463C29.9987 160.484 29.2208 159.738 28.4044 158.924C22.5707 153.118 22.0986 151.096 25.0697 145.196C31.9063 151.785 39.8068 156.587 48.3945 160.219L48.4108 160.259Z" fill="#8AB979"/>
<path d="M53.776 152.939C45.6673 149.567 38.2051 145.099 31.7437 138.959C27.2437 134.231 22.9162 129.43 19.7928 123.849C16.1769 117.375 14.4161 110.798 13.7338 104.106C13.4209 101.053 15.1502 99.4733 18.524 99.4466C22.4178 104.059 25.5124 108.91 25.8002 114.787C28.6064 113.882 27.1503 110.631 29.5981 110.036C29.7393 110.608 29.9119 110.963 29.8765 111.257C29.6611 113.232 30.1873 114.707 32.7769 115.42C35.5585 116.192 35.8055 114.427 36.3417 112.834C36.7066 111.757 36.5167 110.272 38.3728 109.927C39.4248 114.54 34.2569 118.949 41.0582 123.462C44.0677 120.761 43.5776 116.096 46.5871 113.566C45.8483 118.033 44.5569 122.208 43.2975 126.387C43.0631 127.168 42.6036 128.041 43.602 128.857C44.5291 129.611 45.4284 129.222 46.2734 128.96C47.9205 128.453 49.058 127.465 49.7492 125.988C50.7616 123.83 51.7939 121.683 52.9324 119.597C53.4245 118.692 53.5626 117.301 55.2982 117.558C56.1025 118.627 55.4279 119.3 55.1155 120.015C54.4061 121.631 53.5706 123.176 52.8413 124.781C52.2574 126.076 51.8915 127.481 53.8534 128.601C55.7252 129.663 57.1277 129.203 58.0053 127.796C58.655 126.745 59.1311 125.581 59.7847 124.539C60.4615 123.468 60.5465 121.875 62.6786 121.608C62.9666 124.71 60.9536 126.536 60.0435 128.831C59.468 130.28 58.9383 131.792 60.8975 133.003C63.0769 134.353 63.2182 132.236 64.1174 131.419C65.6061 130.067 65.895 127.584 68.8887 126.935C67.6224 132.344 60.5417 135.312 65.7522 142.668C69.8922 140.037 72.2787 135.799 76.8951 133.973C76.344 136.863 72.9161 137.786 72.6787 140.919C78.446 142.685 80.7467 138.19 84.8045 136.547C85.2871 138.932 83.0864 139.303 83.7173 141.459C87.427 143.085 91.86 143.238 95.5035 146.025C93.6066 150.905 88.8149 152.639 84.021 154.171C75.7185 156.824 66.7435 156.549 57.3114 153.717C56.1504 153.365 54.98 152.673 53.7931 152.956L53.776 152.939Z" fill="#EF7FA0"/>
<path d="M97.1174 143.845C93.4684 141.06 89.0386 140.911 85.3222 139.273C84.6909 137.115 86.9 136.747 86.4104 134.355C82.3561 136.004 80.0467 140.5 74.2751 138.732C74.5127 135.596 77.9433 134.671 78.4949 131.778C73.8749 133.605 71.4864 137.849 67.343 140.483C62.1287 133.117 69.215 130.147 70.4826 124.731C67.4826 125.371 67.1906 127.862 65.7073 129.22C64.8046 130.044 64.6726 132.161 62.4849 130.806C60.5176 129.589 61.0544 128.08 61.6304 126.628C62.5413 124.331 64.5492 122.5 64.2677 119.397C62.1378 119.674 62.0489 121.259 61.3715 122.332C60.7146 123.38 60.2381 124.545 59.5906 125.592C58.7123 127.001 57.3059 127.467 55.4355 126.398C53.4693 125.282 53.8356 123.876 54.4227 122.574C55.1526 120.967 55.9888 119.42 56.6988 117.802C57.0087 117.092 57.6839 116.418 56.8818 115.342C55.1487 115.094 55.0066 116.477 54.514 117.383C53.3746 119.472 52.3414 121.621 51.3281 123.782C50.6364 125.26 49.4979 126.25 47.8496 126.757C47.0067 127.014 46.1039 127.409 45.1761 126.654C44.177 125.837 44.6368 124.962 44.8715 124.181C46.1347 119.992 47.4245 115.817 48.1641 111.344C45.1549 113.872 45.6425 118.548 42.6305 121.253C35.824 116.733 40.9962 112.319 39.9434 107.701C38.0898 108.056 38.2731 109.538 37.9107 110.611C37.374 112.206 37.1334 113.977 34.343 113.2C31.7448 112.483 31.2276 111.004 31.4405 109.032C31.4759 108.738 31.3004 108.388 31.162 107.81C28.7122 108.405 30.1721 111.655 27.3609 112.566C27.0636 106.684 23.9695 101.821 20.0795 97.2068C23.6801 97.2432 26.9582 98.8892 30.1151 100.831C32.0121 102 33.206 102.099 33.9453 100.233C35.974 95.085 40.8653 94.1683 46.5317 95.377C52.3211 96.6125 56.7324 100.109 58.9387 105.696C59.1541 106.239 59.3545 106.796 59.6075 107.332C59.7022 107.536 59.9192 107.716 60.16 108.003C61.975 108.583 63.4993 107.863 65.1394 107.629C68.5966 107.148 72.0937 107.376 75.7044 108.747C82.8018 111.446 86.588 117.487 84.3646 123.353C83.3303 126.087 84.3368 127.386 87.0474 128.632C90.6897 130.299 93.8898 132.565 96.1712 135.823C98.0999 138.575 99.3323 141.374 97.0964 143.819L97.1174 143.845Z" fill="#EF9AB3"/>
<path d="M81.4916 91.2055C80.5883 92.5353 79.2767 92.9187 77.5166 91.8459C75.8598 90.8325 75.0748 89.4671 75.7137 87.9028C76.3573 86.3112 77.6842 86.0938 79.526 87.019C81.6173 88.0653 81.9085 89.5358 81.4956 91.2153L81.4916 91.2055Z" fill="#EF9AB3"/>
<path d="M76.4611 61.4367C78.024 62.4567 78.8362 63.7583 78.0968 65.1134C77.3892 66.4041 76.153 67.2026 74.2195 65.9992C72.6709 65.04 71.9518 63.8371 72.6124 62.3541C73.3249 60.7657 74.6871 60.6107 76.4611 61.4367Z" fill="#EF9AB3"/>
<path d="M54.4911 85.1469C55.299 83.8512 56.3706 83.4072 58.099 84.4401C59.6407 85.3654 60.542 86.4187 59.5996 87.8251C58.8877 88.8901 58.0655 90.1249 56.2333 89.0323C54.6335 88.0809 53.8006 86.6908 54.4911 85.1469Z" fill="#EF9AB3"/>
<path d="M24.4147 206.477C23.4979 203.509 23.7748 200.706 24.0843 197.943C24.6628 192.768 26.2495 188.097 30.0853 184.659C30.893 183.933 31.8119 183.337 32.8345 182.905C35.3954 181.816 38.3457 182.983 40.3842 185.799C40.7383 186.293 40.952 187.071 41.705 187.042C42.35 187.019 42.2362 186.306 42.3699 185.839C44.0745 179.755 46.6279 174.196 51.3167 169.976C54.2144 167.368 57.5143 165.283 61.6061 164.3C69.2246 162.463 75.6378 166.215 79.7635 173.387C82.9055 178.848 83.6972 184.312 82.3833 189.623C82.254 190.152 82.2155 190.71 82.1536 191.263C82.1427 191.338 82.2625 191.452 82.3662 191.616C83.4921 191.295 84.1338 190.406 84.9744 189.773C89.06 186.702 93.4426 184.062 99.0395 183.326C103.176 182.786 107.431 183.199 111.392 186.078C116.097 189.497 118.12 195.103 116.839 200.419C115.879 204.408 113.824 207.73 111.251 210.732C110.947 211.078 110.281 211.395 110.691 211.936C111.097 212.467 111.707 212.103 112.209 211.997C116.022 211.203 119.891 210.903 124.117 212.655C130.601 215.339 133.887 220.919 132.284 226.69C130.449 233.287 126.122 237.879 120.151 241.117C118.612 241.952 116.986 242.662 115.403 243.427C114.675 243.352 114.013 243.589 114.191 244.279C114.365 244.959 115.182 244.871 115.764 244.922C115.916 244.935 116.05 244.841 116.188 244.794C120.078 245.519 123.74 246.901 126.931 249.717C129.673 252.142 130.611 255.264 129.51 258.078C127.8 262.446 123.95 264.685 119.79 266.589C114.511 268.996 108.518 269.661 102.303 269.744C102.037 269.747 101.755 269.66 101.479 269.613C101.619 269.098 102.205 269.159 102.591 268.964C105.418 267.552 107.629 265.622 107.591 262.139C107.552 258.283 105.029 255.486 101.614 253.106C99.063 251.328 96.1295 250.803 93.4509 249.442C94.5757 248.697 95.9734 248.413 97.333 248.1C99.0383 247.711 100.7 247.267 102.738 247.895C104.42 248.407 105.569 247.594 106.134 246.273C106.664 245.022 105.92 243.396 104.669 242.811C103.055 242.055 100.92 242.495 100.758 243.839C100.527 245.82 99.0187 245.757 97.3889 245.691C98.0694 244.385 99.4506 243.69 100.306 242.529C102.29 239.814 103.987 237.001 103.146 233.078C103.61 233.367 104.032 233.297 104.411 233.135C106.596 232.203 108.695 231.318 111.614 232.779C112.806 233.375 114.195 232.29 114.402 231.106C114.618 229.868 113.693 227.967 112.574 227.384C111.206 226.664 109.477 226.728 108.958 227.866C107.853 230.298 105.234 230.527 102.929 231.257C102.735 230.974 102.511 230.696 102.352 230.396C100.32 226.586 96.9901 224.658 92.9669 223.544C91.1948 223.054 89.5581 223.483 87.8136 222.92C88.9759 221.422 90.8024 220.573 92.0817 219.194C92.8707 218.345 93.8474 218.095 95.2056 218.355C96.8699 218.671 97.9147 217.909 98.0188 216.577C98.1166 215.294 96.9502 213.916 95.289 213.416C93.658 212.925 92.8588 213.724 92.628 214.938C92.4445 215.897 91.9249 216.521 91.2734 217.092C90.1809 218.057 88.9794 218.923 87.9359 219.931C86.8279 220.998 85.1943 221.563 84.5478 223.067L84.5536 223.056C84.2657 222.98 84.2473 223.088 84.411 223.309C81.0809 223.747 78.0196 224.727 75.0804 225.941C73.9617 226.407 72.8094 226.816 71.7985 227.456C71.5286 227.629 71.1136 227.792 70.7433 227.438C70.4153 227.123 70.7487 226.875 70.7976 226.598C71.033 225.356 71.6771 224.32 72.0866 223.171C72.9257 220.832 73.8818 218.523 73.7987 215.825C74.2793 216.117 74.5094 215.847 74.7542 215.6C77.2599 213.11 79.8803 210.709 82.2183 208.077C82.9953 207.199 83.5772 206.983 84.8603 207.43C86.6824 208.068 87.8337 207.553 88.0967 206.149C88.3804 204.667 87.2355 203.904 85.9435 203.244C84.4335 202.473 83.0622 202.667 82.4544 203.844C80.5039 207.613 77.1651 210.205 74.1658 213.089C73.8573 212.271 73.4865 211.455 73.25 210.635C72.5542 208.18 70.7887 206.645 68.2194 206.344C66.4881 206.146 65.0626 206.681 63.6392 207.248C62.9625 207.514 62.4531 208.189 61.4613 207.775C60.9816 206.859 61.6593 206.288 61.883 205.658C62.7278 203.307 62.6523 200.488 64.8815 198.806C65.959 197.996 65.0108 196.64 64.2198 195.642C63.5115 194.744 62.5589 194.874 61.7798 195.222C60.6479 195.733 60.0439 196.688 60.7305 197.969C61.2775 198.998 61.2844 199.821 61.0484 200.69C60.4483 202.883 59.7604 205.041 59.2677 207.266C59.0969 208.039 58.2413 208.738 59.1476 209.787C58.3522 210.365 57.5105 210.893 56.7778 211.522C55.4891 212.635 54.2712 213.818 53.0071 214.952C52.7331 215.204 52.444 215.611 51.936 215.304C51.5415 215.07 51.6005 214.613 51.6078 214.26C51.6209 213.486 51.6711 212.726 51.7241 211.96C52.1222 206.241 51.6469 200.475 48.7836 194.646C45.6048 188.175 41.4782 186.629 36.4586 188.813C32.5343 190.525 29.72 193.515 27.8101 197.256C26.3224 200.16 25.0135 203.129 24.4233 206.46L24.4147 206.477Z" fill="#EF9AB3"/>
<path d="M22.9499 209.655C23.5338 206.362 24.83 203.425 26.3033 200.553C28.1948 196.854 30.976 193.892 34.8711 192.201C39.8377 190.036 43.9274 191.562 47.0861 197.964C49.9279 203.72 50.3977 209.427 50.0049 215.082C49.9525 215.839 49.9098 216.595 49.8903 217.356C49.8831 217.705 49.8181 218.154 50.2158 218.389C50.7261 218.696 51.0056 218.289 51.2771 218.04C52.5294 216.918 53.736 215.748 55.0126 214.647C55.7413 214.019 56.5752 213.496 57.3605 212.931C58.2522 212.397 59.0171 211.731 59.6458 210.936C60.6287 211.345 61.1333 210.677 61.8039 210.414C63.2141 209.853 64.6294 209.317 66.3423 209.518C68.8884 209.815 70.6383 211.332 71.3285 213.759C71.5603 214.576 71.9308 215.377 72.2367 216.185C71.7479 216.979 71.9738 217.984 71.8737 218.891C71.9568 221.558 71.0101 223.842 70.1793 226.155C69.7738 227.291 69.1358 228.316 68.9029 229.544C68.8545 229.818 68.5242 230.063 68.8494 230.374C69.2164 230.725 69.6304 230.557 69.895 230.392C70.8965 229.759 72.0315 229.35 73.1467 228.892C76.0618 227.685 79.095 226.715 82.392 226.286C82.4413 226.204 82.4907 226.122 82.54 226.04L82.5275 226.047C83.6974 226.342 84.7607 226.201 85.7732 225.898C87.4953 226.45 89.1239 226.029 90.8801 226.513C94.8604 227.609 98.161 229.514 100.182 233.285C100.34 233.581 100.564 233.85 100.754 234.135C100.382 234.694 100.952 235.338 100.963 235.932C101.798 239.81 100.116 242.592 98.151 245.278C97.3012 246.432 95.9395 247.124 95.2615 248.406C93.5999 248.999 92.2599 250.035 90.7684 250.865C90.3742 251.081 89.5363 251.101 89.8514 251.767C90.1429 252.376 90.8418 252.055 91.3614 252.132C94.0094 253.473 96.9164 253.99 99.4518 255.752C102.837 258.103 105.338 260.868 105.377 264.68C105.413 268.13 103.225 270.033 100.425 271.431C100.042 271.624 99.4616 271.564 99.3229 272.073C99.1717 272.097 99.0234 272.115 98.8722 272.139C90.4453 273.919 81.7575 272.51 72.9567 268.918C66.3519 266.223 59.9487 263.032 54.1605 258.546C53.4676 258.009 52.8859 257.301 52.0189 257.01C51.8184 256.042 50.7828 255.669 50.2164 254.947C47.2778 251.218 43.6722 248.114 39.7821 245.304C38.5699 244.426 37.8824 243.068 36.5149 242.38C34.3248 239.551 31.9286 236.839 30.0128 233.842C24.9881 225.982 22.314 217.967 22.9617 209.684L22.9499 209.655ZM38.4443 227.333C37.5667 229.001 36.6823 230.665 36.482 232.655C36.427 233.242 36.1726 233.95 37.0768 234.306C37.9579 234.656 37.9537 233.837 38.1461 233.395C38.8629 231.753 39.5118 230.072 40.2219 228.425C40.6651 227.406 41.2227 226.438 41.6388 225.403C41.8148 224.96 41.8194 224.351 41.137 224.005C40.4779 223.664 40.0993 224.006 39.8628 224.467C39.3783 225.411 38.9209 226.37 38.4472 227.328L38.4443 227.333ZM34.7168 224.97C34.8254 224.539 34.9311 224.114 35.0329 223.679C35.4693 221.758 35.9084 219.832 36.3312 217.903C36.4541 217.355 36.2746 216.855 35.6188 216.56C35.114 216.33 34.6961 216.488 34.5767 216.905C33.859 219.342 33.125 221.776 32.7887 224.358C32.727 224.852 32.9371 225.326 33.5131 225.553C34.1995 225.821 34.5181 225.459 34.71 224.966L34.7168 224.97ZM47.8439 234.735C47.3709 236.061 46.5491 236.929 46.3739 238.146C46.3163 238.562 46.2904 238.966 46.8534 239.238C47.3185 239.46 47.6057 239.249 47.8172 238.98C49.2628 237.115 50.4658 235.089 51.3117 232.851C51.5025 232.342 51.557 231.704 50.8096 231.312C50.1261 230.95 49.8182 231.414 49.5658 231.836C48.9442 232.863 48.343 233.902 47.8439 234.735ZM59.6565 238.809C59.8016 238.164 60.5415 237.69 59.7185 237.064C58.8712 236.417 58.4 237.052 57.9761 237.486C56.5541 238.916 55.1468 240.369 53.7735 241.841C53.4233 242.214 52.9789 242.725 53.5913 243.319C54.1201 243.835 54.6662 243.471 55.0514 243.221C56.9192 242.017 58.3686 240.426 59.6605 238.819L59.6565 238.809ZM40.6255 235.64C40.0405 237.351 39.6632 239.187 39.459 241.079C39.3903 241.746 39.4047 242.527 40.3334 242.817C41.2757 243.114 41.2817 242.256 41.4097 241.733C41.8316 240.018 42.1568 238.269 42.5516 236.537C42.6949 235.913 43.072 235.327 41.9986 234.837C40.9892 234.377 41.0002 235.2 40.6283 235.634L40.6255 235.64ZM47.3777 248.427C47.5305 248.471 47.6951 248.543 47.8525 248.559C50.4376 248.9 52.8292 248.592 55.134 247.985C55.5043 247.888 55.7718 247.629 55.5939 247.196C55.3924 246.705 54.9193 246.552 54.4737 246.554C52.0949 246.59 49.7239 246.644 47.3597 246.702C46.8565 246.716 46.6331 247.044 46.6558 247.491C46.6808 247.881 47.0077 248.171 47.3805 248.421L47.3777 248.427ZM71.834 262.733C71.8263 262.538 71.8788 262.185 71.7954 261.843C71.7041 261.481 71.3706 261.504 71.1254 261.577C69.1218 262.21 66.9374 262.01 64.7191 261.703C64.2063 261.63 63.5433 261.685 63.5935 262.376C63.6353 262.996 64.1653 263.351 64.7607 263.486C66.8254 263.963 68.8468 264.157 70.7241 263.621C71.1703 263.494 71.5725 263.297 71.8408 262.737L71.834 262.733ZM57.4624 258.319C59.366 258.997 61.3837 259.005 63.4047 259.059C63.9198 259.075 64.4497 259.025 64.3112 258.372C64.1958 257.813 63.686 257.557 63.1556 257.467C61.268 257.143 59.3826 256.85 57.4921 256.533C56.9685 256.446 56.644 256.591 56.5433 257.041C56.4232 257.583 56.7874 257.939 57.4556 258.315L57.4624 258.319ZM59.8811 252.92C59.7719 252.894 59.6558 252.864 59.5506 252.848C57.4472 252.555 55.3427 252.247 53.2405 251.97C52.8069 251.913 52.5224 252.118 52.5073 252.536C52.4818 253.081 52.8459 253.525 53.3767 253.667C55.5455 254.233 57.6998 254.51 59.7732 254.212C60.1113 254.163 60.3091 253.974 60.2755 253.602C60.2526 253.331 60.1923 253.083 59.8839 252.914L59.8811 252.92Z" fill="#EF7FA0"/>
<path d="M33.6592 248.415C35.0567 249.122 35.7626 250.525 36.9971 251.418C40.9718 254.305 44.6555 257.492 47.6569 261.321C48.2354 262.062 49.3007 262.449 49.4981 263.439C46.0755 263.476 42.7299 262.22 39.4185 260.932C38.1393 260.436 37.0919 260.392 36.0805 260.942C26.1961 266.303 15.3984 270.104 4.07897 273.03C3.73968 273.121 3.28665 273.064 2.98886 273.92C4.67591 273.517 6.21714 273.771 7.7306 273.684C15.4843 273.25 22.9335 271.862 30.678 271.393C37.1051 271.01 43.5685 270.807 50.26 271.838C52.1831 272.13 54.1223 272.462 55.9532 273.555C58.1696 274.877 58.972 276.699 58.0161 278.58C56.4918 281.576 53.4605 282.895 50.2302 283.896C45.0514 285.504 39.3892 285.565 33.6208 285.209C20.8351 284.428 8.00497 282.24 -4.71533 277.826C-8.57931 276.483 -11.7868 276.319 -15.1268 277.182C-17.4815 277.781 -19.9267 278.185 -22.3355 278.677C-23.0007 278.815 -23.7826 279.226 -24.3449 278.433C-24.9551 277.576 -24.4056 276.752 -23.7674 276.47C-21.8087 275.59 -21.1266 273.74 -20.0556 272.167C-17.8125 268.852 -16.2059 265.149 -14.4218 261.555C-11.2921 255.254 -8.3746 248.824 -4.45872 243.007C-1.81991 239.09 0.835677 235.175 4.56094 232.126C5.76058 231.14 7.00233 230.232 8.69729 229.94C11.4435 229.468 14.0496 231.03 15.0054 233.786C16.0453 236.786 15.5515 239.5 14.8917 242.171C13.2359 248.897 9.57293 254.347 4.83665 259.064C-0.0608055 263.946 -5.3424 268.432 -11.1653 272.373C-11.4729 272.581 -12.2036 272.779 -11.8377 273.337C-11.4308 273.957 -10.779 273.539 -10.3697 273.45C-4.06179 272.1 2.17466 270.588 8.27156 268.799C17.6288 266.057 26.3288 262.264 34.7524 258.002C36.1066 257.317 36.2925 256.525 35.3332 255.111C34.7046 254.183 34.1751 253.198 33.7185 252.21C33.0999 250.864 32.8887 249.542 33.6453 248.407L33.6592 248.415Z" fill="#6BB194"/>
<path d="M112.784 243.06C112.645 243.108 112.503 243.198 112.357 243.189C111.779 243.142 110.952 243.22 110.775 242.541C110.596 241.846 111.262 241.607 111.994 241.684C112.037 242.225 112.372 242.658 112.781 243.066L112.784 243.06Z" fill="#FFC1D3"/>
<path d="M73.7681 216.096C73.8876 215.126 73.6398 214.047 74.1629 213.205C77.3567 210.164 80.9111 207.433 82.9912 203.453C83.6393 202.211 85.0979 202.009 86.7023 202.827C88.0677 203.524 89.2839 204.332 88.9872 205.901C88.7022 207.391 87.4802 207.926 85.5437 207.248C84.1801 206.773 83.561 207 82.7334 207.927C80.2431 210.702 77.4529 213.235 74.7845 215.861C74.5237 216.121 74.2787 216.405 73.7681 216.096Z" fill="#FFC1D3"/>
<path d="M89.7205 249.664C89.1821 249.583 88.4574 249.916 88.156 249.283C87.83 248.589 88.6955 248.576 89.1072 248.346C90.6538 247.485 92.0436 246.41 93.7663 245.796C95.4371 245.871 96.9858 245.937 97.2277 243.895C97.3885 242.51 99.5855 242.07 101.245 242.843C102.536 243.449 103.295 245.112 102.747 246.404C102.17 247.771 100.982 248.601 99.2583 248.067C97.1628 247.425 95.4587 247.874 93.7071 248.273C92.3107 248.593 90.875 248.883 89.7194 249.648L89.7205 249.664Z" fill="#FFC1D3"/>
<path d="M87.019 222.415C85.9419 222.74 84.8214 222.891 83.5773 222.566C84.2586 220.991 85.9829 220.406 87.1414 219.285C88.239 218.231 89.5026 217.327 90.6517 216.318C91.337 215.721 91.8868 215.061 92.0779 214.063C92.322 212.791 93.17 211.96 94.8758 212.473C96.6205 213 97.8473 214.439 97.7398 215.79C97.6359 217.19 96.5371 217.986 94.7817 217.647C93.355 217.373 92.3284 217.633 91.4983 218.522C90.1523 219.964 88.2351 220.843 87.0088 222.417L87.019 222.415Z" fill="#FFC1D3"/>
<path d="M101.072 231.251C101.062 230.635 100.471 229.975 100.859 229.391C103.221 228.65 105.898 228.418 107.028 225.931C107.559 224.766 109.325 224.703 110.723 225.44C111.859 226.034 112.81 227.984 112.589 229.251C112.373 230.452 110.957 231.571 109.739 230.96C106.76 229.456 104.604 230.362 102.378 231.318C101.991 231.484 101.56 231.555 101.086 231.259L101.072 231.251Z" fill="#FFC1D3"/>
<path d="M62.89 209.855C62.1985 210.714 61.3578 211.433 60.3785 212.009C59.4031 210.886 60.3239 210.141 60.5143 209.308C61.0576 206.919 61.8099 204.609 62.4636 202.267C62.7251 201.33 62.7194 200.448 62.1239 199.351C61.3877 197.981 62.0463 196.959 63.2701 196.411C64.1177 196.039 65.1533 195.903 65.9213 196.867C66.7758 197.945 67.8066 199.394 66.6338 200.259C64.2073 202.054 64.2865 205.07 63.3603 207.592C63.1127 208.273 62.3705 208.872 62.8974 209.859L62.89 209.855Z" fill="#FFC1D3"/>
<path d="M83.5916 223.431C83.5394 223.518 83.4872 223.604 83.4349 223.69C83.2606 223.458 83.2794 223.345 83.5916 223.431Z" fill="#FFC1D3"/>
<path d="M38.9846 229.582C39.5196 228.537 40.047 227.487 40.5929 226.439C40.854 225.929 41.2904 225.558 42.034 225.936C42.7929 226.323 42.7934 226.996 42.5964 227.477C42.123 228.614 41.4933 229.671 40.9861 230.797C40.1787 232.606 39.4403 234.454 38.6252 236.258C38.4065 236.744 38.401 237.641 37.4144 237.256C36.3971 236.854 36.6836 236.083 36.7476 235.437C36.9802 233.248 37.9769 231.416 38.9814 229.588L38.9846 229.582Z" fill="#C7386C"/>
<path d="M36.166 227.611C35.9551 228.143 35.6062 228.534 34.8567 228.242C34.2278 227.994 33.9962 227.488 34.0679 226.947C34.4341 224.153 35.242 221.523 36.0395 218.895C36.174 218.438 36.628 218.275 37.179 218.525C37.8875 218.842 38.0898 219.388 37.9542 219.979C37.4877 222.063 37.0033 224.145 36.5219 226.22C36.4128 226.684 36.2931 227.149 36.1734 227.615L36.166 227.611Z" fill="#C7386C"/>
<path d="M47.6788 236.456C48.2332 235.541 48.9179 234.408 49.6178 233.284C49.9019 232.823 50.2561 232.32 51.0136 232.715C51.8471 233.153 51.7873 233.847 51.5719 234.404C50.6169 236.854 49.2623 239.071 47.6362 241.11C47.3984 241.404 47.0833 241.638 46.555 241.389C45.9247 241.089 45.9474 240.641 46.0208 240.19C46.2208 238.857 47.1446 237.908 47.6788 236.456Z" fill="#C7386C"/>
<path d="M59.3633 239.988C57.9622 241.707 56.3844 243.42 54.3567 244.71C53.9385 244.978 53.3457 245.368 52.7735 244.811C52.1108 244.171 52.6011 243.627 52.9743 243.222C54.4664 241.642 55.9953 240.082 57.54 238.548C58.0048 238.093 58.5127 237.4 59.43 238.099C60.3178 238.782 59.5177 239.283 59.359 239.977L59.3633 239.988Z" fill="#C7386C"/>
<path d="M40.1645 238.298C40.5695 237.831 40.5594 236.944 41.6554 237.443C42.8208 237.974 42.4097 238.605 42.2525 239.277C41.8153 241.131 41.4549 243.021 40.9999 244.872C40.8597 245.435 40.8512 246.359 39.8279 246.037C38.8193 245.722 38.8054 244.88 38.8815 244.162C39.1076 242.124 39.5218 240.145 40.1614 238.304L40.1645 238.298Z" fill="#C7386C"/>
<path d="M45.9961 250.863C45.6193 250.609 45.2889 250.315 45.2637 249.92C45.2409 249.467 45.4669 249.134 45.9757 249.121C48.3688 249.057 50.7699 249.013 53.1681 248.975C53.6282 248.971 54.0996 249.122 54.3004 249.626C54.48 250.065 54.2095 250.327 53.835 250.425C51.5047 251.039 49.0867 251.35 46.4733 251.003C46.3073 250.983 46.1409 250.909 45.9933 250.869L45.9961 250.863Z" fill="#C7386C"/>
<path d="M68.9927 264.41C68.7179 264.985 68.3106 265.184 67.8616 265.307C65.9606 265.85 63.907 265.648 61.8235 265.167C61.2305 265.027 60.691 264.672 60.6421 264.039C60.5944 263.331 61.2629 263.282 61.7821 263.357C64.0378 263.668 66.2467 263.877 68.2688 263.232C68.5171 263.158 68.8548 263.135 68.9471 263.502C69.0354 263.86 68.985 264.212 68.9859 264.406L68.9927 264.41Z" fill="#C7386C"/>
<path d="M55.0386 260.47C54.373 260.096 54.0074 259.748 54.1297 259.203C54.23 258.756 54.556 258.605 55.0747 258.697C56.9576 259.013 58.8355 259.304 60.7156 259.625C61.2438 259.715 61.7516 259.969 61.8666 260.525C61.998 261.171 61.4702 261.22 60.9638 261.209C58.951 261.156 56.9414 261.148 55.0453 260.473L55.0386 260.47Z" fill="#C7386C"/>
<path d="M57.9436 255.181C58.2547 255.344 58.3053 255.594 58.335 255.868C58.3686 256.24 58.1709 256.429 57.833 256.478C55.7605 256.776 53.6099 256.493 51.4393 255.934C50.9087 255.791 50.5447 255.348 50.5702 254.803C50.5922 254.389 50.8765 254.185 51.3031 254.238C53.4044 254.515 55.5108 254.817 57.6104 255.115C57.7224 255.135 57.8316 255.161 57.9408 255.186L57.9436 255.181Z" fill="#C7386C"/>
<path d="M94.4717 319.824C96.6571 320.73 98.5988 321.936 99.6245 324.798C92.7548 323.423 85.8331 324.759 79.0047 323.981C71.9494 323.174 66.7194 317.932 59.7651 315.661C59.7654 318.28 61.2322 319.04 62.2881 319.981C67.0016 324.141 71.3133 328.718 75.546 333.364C76.5576 334.477 77.8406 335.467 77.9755 337.197C77.6186 337.558 77.2657 337.93 76.9088 338.291C75.0338 337.493 73.8944 335.848 72.5785 334.399C56.2097 316.313 37.0808 302.403 13.7915 294.838C10.5434 293.786 7.27905 292.534 2.46752 292.902C13.0717 305.426 24.5239 315.655 36.1225 325.732C35.9197 325.945 35.7131 326.146 35.5141 326.35C28.0817 323.112 22.6926 317.15 16.9402 311.739C12.6886 307.739 8.18752 303.718 5.07176 298.829C-0.522859 290.056 -8.8221 289.739 -17.6543 290.038C-17.9263 290.045 -18.1976 290.167 -18.473 290.239C-18.9347 290.117 -19.1308 290.179 -18.7652 290.66C-10.9751 296.272 -2.29321 300.61 4.58277 307.543C10.3413 313.352 14.5192 320.244 18.2373 327.323C17.004 328.984 15.9694 328.448 14.9353 328.008C14.764 325.867 13.5843 324.443 12.0873 323.044C7.81685 319.044 3.71147 314.854 -0.483916 310.775C-4.2537 307.108 -7.24708 302.47 -12.5435 300.692C-16.6381 292.569 -23.4089 289.382 -32.216 290.078C-38.2511 290.561 -44.2896 291.09 -50.3085 291.754C-51.8831 291.926 -53.6743 291.889 -55.6152 294.006C-42.0731 295.333 -30.5154 299.748 -22.0843 310.265C-29.1021 308.128 -35.8845 305.533 -42.3889 302.02C-46.1415 299.999 -49.9179 297.128 -54.768 298.007C-64.7424 292.971 -73.5814 297.879 -82.5187 302.133C-84.9753 303.304 -87.1737 305.338 -90.2574 305.249C-89.9484 303.19 -88.356 302.844 -87.2416 302.157C-81.3611 298.52 -75.2366 295.268 -68.6 293.635C-61.0089 291.768 -54.377 288.053 -47.8807 283.763C-45.0315 281.882 -44.0943 278.714 -42.0187 276.353C-39.6231 275.721 -37.5977 274.482 -35.9351 272.561C-32.0471 268.08 -27.7098 264.177 -22.5736 261.21C-21.0259 260.313 -19.3355 259.272 -18.8527 257.218C-14.9898 256.798 -16.3496 258.804 -17.7123 260.308C-22.0819 265.139 -26.7177 269.671 -32.2514 273.164C-34.8564 274.804 -37.2821 276.73 -39.5738 278.961C-29.4377 276.167 -19.8106 271.632 -9.31451 270.934C-9.25782 271.577 -9.20487 272.228 -9.14819 272.871C-23.4627 275.752 -37.1038 280.714 -50.4107 287.238C-49.313 289.48 -47.905 288.623 -46.8289 288.486C-27.6333 286.146 -8.65301 286.372 10.0546 290.985C17.4862 292.817 25.1591 291.365 32.7305 291.26C34.0641 294.451 37.1084 293.625 39.5475 293.958C48.4565 295.159 57.4487 293.819 66.4108 293.755C69.0064 293.738 71.6951 294.757 74.2709 293.296C76.8287 294.551 76.4024 295.938 73.9571 296.46C62.0547 298.968 50.1406 302.029 38.2671 297.243C34.7864 295.841 31.1308 294.867 27.5014 293.876C25.8401 293.429 24.0396 293.099 21.5951 294.4C25.2177 296.168 28.2573 297.757 31.3902 299.149C39.6941 302.818 46.6783 308.878 55.1543 312.262C58.9644 313.791 63.0311 313.977 66.9511 314.922C67.7657 316.587 69.2311 317.115 70.9301 317.542C76.0613 318.847 81.3766 318.688 86.5979 319.256C89.1991 319.54 91.6651 321.889 94.4943 319.815L94.4717 319.824Z" fill="#6BA270"/>
<path d="M78.2405 338.918C78.5857 338.557 78.942 338.193 79.2946 337.836C84.2591 336.297 89.2267 334.655 94.182 337.345C95.3769 337.994 96.5793 338.666 97.6631 339.491C99.1257 340.6 100.44 341.962 99.8217 344.077C99.2321 346.072 97.5358 347.155 95.6918 347.237C92.5301 347.371 90.6017 348.345 91.0075 352.008C91.0589 352.499 90.6875 353.494 90.4525 353.525C86.5499 354.024 85.0794 357.991 82.1765 359.628C79.4858 361.145 77.1361 359.01 75.8521 356.501C73.6843 352.263 73.8341 347.835 75.9144 343.432C76.6374 341.909 77.4577 340.432 78.2368 338.925L78.2405 338.918Z" fill="#EF7FA0"/>
<path d="M36.3373 326.479C36.5338 326.277 36.7414 326.071 36.9379 325.869C40.991 323.886 44.9915 321.822 49.6529 323.109C52.3533 323.86 55.4218 324.415 55.8662 327.722C56.2911 330.896 53.8032 332.088 51.1252 332.639C50.8608 332.695 50.381 332.915 50.3925 332.968C51.3274 337.921 45.8674 339.089 44.6841 342.739C43.3139 346.957 40.6557 347.698 37.6732 344.609C34.049 340.847 33.4003 336.37 34.8924 331.317C35.3678 329.698 36.6089 328.298 36.341 326.471L36.3373 326.479Z" fill="#EF7FA0"/>
<path d="M-9.79695 273.605C-9.84926 272.962 -9.90525 272.326 -9.96125 271.69C-8.8982 265.566 -5.30687 261.787 0.444548 260.008C2.11178 259.49 3.79924 259.239 5.08561 260.703C6.31182 262.1 6.49671 263.7 5.41169 265.388C4.67107 266.542 4.1621 267.692 5.42389 268.782C6.92223 270.07 6.98376 271.66 6.11941 273.384C5.52095 274.568 5.98595 275.501 6.37344 276.598C7.84766 280.816 5.92943 283.157 1.50232 282.629C-4.06149 281.965 -7.73771 278.832 -9.79684 273.624L-9.79695 273.605Z" fill="#EF7FA0"/>
<path d="M-12.4376 300.339C-7.13231 302.12 -4.13008 306.759 -0.357674 310.44C3.84106 314.534 7.9571 318.724 12.2348 322.731C13.7343 324.133 14.9122 325.567 15.0876 327.704C0.45503 324.317 -7.6255 314.05 -12.43 300.343L-12.4376 300.339Z" fill="#8AB696"/>
<path d="M74.2343 294.537C71.6586 295.998 68.97 294.979 66.3744 294.996C57.4204 295.064 48.4284 296.404 39.5122 295.199C37.0808 294.87 34.0366 295.696 32.6954 292.502C45.2769 289.91 57.8538 287.836 70.2321 292.436C71.652 292.962 73.1542 293.334 74.2305 294.525L74.2343 294.537Z" fill="#8AB696"/>
<path d="M95.1189 321.005C92.2821 323.084 89.8091 320.729 87.2007 320.444C81.9649 319.874 76.6387 320.025 71.4896 318.723C69.7896 318.288 68.3202 317.758 67.4994 316.096C77.4182 314.126 86.973 314.021 95.1151 321.013L95.1189 321.005Z" fill="#8AB696"/>
<path d="M93.8801 266.94C95.2007 265.102 97.356 264.519 99.0242 264.813C101.149 265.189 101.676 267.373 101.056 269.5C100.378 271.799 98.7763 272.645 96.5104 272.049C93.8495 271.35 94.3857 268.899 93.8801 266.94Z" fill="#EF9AB3"/>
<path d="M61.8388 267.124C61.0245 268.746 60.1833 270.403 58.1269 269.988C56.2461 269.605 54.8151 268.567 55.2882 266.227C55.678 264.293 56.8686 263.125 58.8279 263.427C60.7991 263.73 61.9118 265.006 61.8388 267.124Z" fill="#EF9AB3"/>
<path d="M91.4357 298.478C92.1435 296.717 93.2936 295.474 95.2464 295.993C97.1701 296.506 98.278 297.842 97.6915 300.051C97.1799 301.948 96.0157 303.149 94.0248 302.385C92.3852 301.754 90.6246 300.942 91.4303 298.472L91.4357 298.478Z" fill="#EF9AB3"/>
</svg>
