<svg width="179" height="407" viewBox="0 0 179 407" fill="none" xmlns="http://www.w3.org/2000/svg">
<path d="M186.944 364.148C143.255 386.594 103.573 337.693 112.391 303.222C121.209 268.752 86.7384 240.293 57.4782 233.88" stroke="#EF9AB3" stroke-linecap="round" stroke-linejoin="round" stroke-dasharray="8 8"/>
<path d="M125.897 144.055C126.839 141.564 126.757 139.187 126.645 136.845C126.436 132.456 125.342 128.473 122.267 125.486C121.62 124.855 120.87 124.332 120.024 123.945C117.905 122.971 115.331 123.897 113.443 126.237C113.114 126.648 112.89 127.301 112.251 127.261C111.703 127.228 111.839 126.627 111.751 126.23C110.634 121.049 108.766 116.295 105.008 112.628C102.686 110.363 99.9926 108.531 96.5653 107.615C90.1844 105.904 84.5227 108.945 80.62 114.926C77.6479 119.479 76.6752 124.084 77.5022 128.603C77.5832 129.052 77.5853 129.526 77.6077 129.994C77.6129 130.058 77.5048 130.152 77.4075 130.288C76.4672 129.994 75.97 129.229 75.2895 128.675C71.9818 125.994 68.3978 123.671 63.6765 122.933C60.1866 122.39 56.544 122.652 53.0172 125.005C48.8271 127.799 46.7989 132.498 47.5974 137.02C48.1954 140.414 49.7617 143.266 51.7871 145.858C52.0261 146.157 52.5758 146.439 52.1974 146.888C51.8229 147.328 51.3233 147.008 50.9027 146.908C47.7019 146.158 44.4271 145.824 40.7351 147.219C35.0719 149.355 31.9714 154.006 33.0187 158.919C34.2186 164.537 37.6484 168.51 42.5511 171.371C43.8142 172.11 45.159 172.744 46.4638 173.424C47.0871 173.375 47.6377 173.589 47.4485 174.169C47.2634 174.741 46.5726 174.649 46.0751 174.681C45.9451 174.688 45.8359 174.606 45.7213 174.563C42.3721 175.096 39.1811 176.189 36.3123 178.505C33.8465 180.499 32.8777 183.12 33.6597 185.522C34.8754 189.253 38.0284 191.225 41.4633 192.922C45.8228 195.067 50.8847 195.753 56.1678 195.951C56.3936 195.96 56.6384 195.892 56.8757 195.858C56.7847 195.419 56.2833 195.459 55.9651 195.286C53.6379 194.033 51.8623 192.355 52.0853 189.41C52.3294 186.15 54.629 183.837 57.6649 181.895C59.9328 180.443 62.4571 180.06 64.8105 178.965C63.8944 178.311 62.7208 178.042 61.5813 177.75C60.1518 177.385 58.7623 176.975 56.994 177.464C55.5351 177.862 54.6018 177.151 54.1938 176.022C53.8112 174.953 54.5336 173.593 55.6294 173.125C57.0439 172.519 58.8361 172.935 58.9007 174.075C58.989 175.755 60.2755 175.733 61.6657 175.711C61.1582 174.592 60.0212 173.976 59.3573 172.976C57.8182 170.639 56.5278 168.225 57.4583 164.925C57.0477 165.16 56.6927 165.092 56.3792 164.947C54.5715 164.113 52.8337 163.321 50.2703 164.497C49.2236 164.976 48.1011 164.03 47.9901 163.024C47.8741 161.973 48.7653 160.384 49.7492 159.914C50.9528 159.334 52.4201 159.423 52.799 160.396C53.6058 162.476 55.822 162.724 57.7425 163.389C57.9234 163.153 58.1288 162.923 58.281 162.673C60.2179 159.493 63.1567 157.93 66.6405 157.072C68.1749 156.694 69.5439 157.091 71.0589 156.65C70.1521 155.359 68.6447 154.604 67.6318 153.411C67.007 152.677 66.1898 152.445 65.0201 152.637C63.5869 152.87 62.7397 152.204 62.724 151.075C62.7112 149.988 63.7789 148.847 65.2196 148.458C66.634 148.077 67.2702 148.769 67.4 149.801C67.5037 150.615 67.9116 151.154 68.4346 151.65C69.3112 152.489 70.286 153.246 71.1185 154.12C72.0027 155.046 73.3616 155.557 73.8292 156.843L73.825 156.833C74.074 156.774 74.0837 156.867 73.9324 157.05C76.7415 157.489 79.2922 158.381 81.7264 159.468C82.6526 159.886 83.6105 160.256 84.4355 160.818C84.6557 160.969 84.9998 161.116 85.3342 160.824C85.6305 160.565 85.3604 160.348 85.334 160.113C85.2017 159.058 84.7105 158.168 84.425 157.188C83.8393 155.192 83.1523 153.22 83.3707 150.94C82.9459 151.176 82.7649 150.944 82.5701 150.73C80.5747 148.572 78.4769 146.487 76.6319 144.213C76.019 143.454 75.5358 143.259 74.4197 143.611C72.8346 144.113 71.8833 143.654 71.7364 142.461C71.5762 141.201 72.592 140.58 73.7273 140.048C75.0542 139.428 76.2103 139.62 76.6629 140.628C78.1159 143.856 80.8145 146.117 83.2082 148.618C83.5155 147.933 83.8756 147.251 84.1217 146.562C84.8482 144.5 86.4342 143.238 88.6365 143.037C90.1203 142.905 91.3038 143.387 92.4837 143.896C93.0449 144.135 93.4413 144.716 94.3077 144.387C94.766 143.622 94.2206 143.125 94.0649 142.587C93.4749 140.582 93.6935 138.199 91.8891 136.731C91.0168 136.024 91.8977 134.896 92.6253 134.069C93.2771 133.323 94.0804 133.453 94.7241 133.764C95.6591 134.219 96.1207 135.04 95.4664 136.109C94.9447 136.967 94.8938 137.663 95.047 138.403C95.4374 140.271 95.9045 142.11 96.2018 144.002C96.3048 144.659 96.9944 145.268 96.1659 146.137C96.811 146.641 97.4981 147.106 98.087 147.653C99.1225 148.62 100.094 149.646 101.107 150.632C101.326 150.85 101.55 151.201 101.999 150.952C102.348 150.762 102.322 150.374 102.336 150.075C102.367 149.42 102.366 148.776 102.363 148.127C102.337 143.283 103.057 138.416 105.812 133.545C108.871 128.138 112.466 126.916 116.617 128.867C119.862 130.396 122.093 132.983 123.513 136.186C124.619 138.673 125.57 141.212 125.89 144.04L125.897 144.055Z" fill="#EF9AB3"/>
<path d="M127.121 147.657C126.804 144.873 125.861 142.375 124.765 139.928C123.357 136.775 121.153 134.226 117.931 132.725C113.824 130.802 110.261 132.005 107.224 137.33C104.492 142.119 103.781 146.914 103.806 151.681C103.81 152.32 103.805 152.957 103.78 153.598C103.767 153.892 103.798 154.271 103.446 154.461C102.996 154.709 102.78 154.362 102.563 154.146C101.558 153.177 100.596 152.167 99.5695 151.215C98.9838 150.672 98.3029 150.215 97.6656 149.723C96.9362 149.255 96.3216 148.68 95.8302 147.998C94.9716 148.322 94.5787 147.75 94.0226 147.515C92.8534 147.014 91.6785 146.535 90.2102 146.67C88.0278 146.868 86.4562 148.11 85.7365 150.139C85.4947 150.822 85.1358 151.489 84.8313 152.163C85.2039 152.842 84.9568 153.683 84.9925 154.448C84.7762 156.692 85.4571 158.633 86.0377 160.597C86.3206 161.562 86.8075 162.438 86.9386 163.476C86.9648 163.708 87.2325 163.92 86.9388 164.176C86.6074 164.463 86.2644 164.314 86.0483 164.17C85.2307 163.617 84.2874 163.25 83.3636 162.842C80.9493 161.767 78.4216 160.89 75.64 160.462C75.6025 160.392 75.565 160.322 75.5275 160.252L75.5377 160.258C74.5263 160.483 73.6293 160.343 72.7844 160.067C71.289 160.498 69.9264 160.111 68.4059 160.483C64.9597 161.325 62.0475 162.863 60.1224 165.996C59.9716 166.242 59.766 166.464 59.5888 166.7C59.8753 167.179 59.3547 167.709 59.3132 168.209C58.3914 171.457 59.6702 173.833 61.1955 176.133C61.8556 177.122 62.9764 177.731 63.4832 178.824C64.8645 179.357 65.9481 180.255 67.1717 180.985C67.4954 181.174 68.2071 181.208 67.9026 181.763C67.6214 182.269 67.0443 181.985 66.598 182.039C64.272 183.114 61.7704 183.492 59.5172 184.924C56.5088 186.835 54.2302 189.112 53.9886 192.321C53.7698 195.224 55.5273 196.87 57.8336 198.103C58.1489 198.273 58.6458 198.234 58.736 198.666C58.8633 198.689 58.9885 198.707 59.1159 198.73C66.1883 200.398 73.6567 199.387 81.3406 196.54C87.107 194.404 92.729 191.847 97.8984 188.187C98.5172 187.749 99.0509 187.164 99.8043 186.937C100.028 186.125 100.929 185.833 101.451 185.236C104.154 182.156 107.391 179.616 110.854 177.329C111.934 176.614 112.593 175.484 113.794 174.933C115.811 172.595 117.998 170.36 119.792 167.876C124.496 161.36 127.208 154.667 127.109 147.681L127.121 147.657ZM112.973 162.227C113.629 163.649 114.291 165.068 114.352 166.747C114.367 167.242 114.545 167.843 113.756 168.124C112.988 168.402 113.036 167.712 112.896 167.336C112.376 165.939 111.916 164.511 111.401 163.111C111.08 162.244 110.658 161.418 110.361 160.538C110.235 160.161 110.265 159.649 110.864 159.371C111.444 159.097 111.747 159.393 111.923 159.786C112.284 160.59 112.62 161.407 112.971 162.223L112.973 162.227ZM116.274 160.313C116.205 159.948 116.138 159.588 116.075 159.22C115.809 157.594 115.54 155.963 115.286 154.331C115.211 153.868 115.391 153.45 115.965 153.215C116.407 153.032 116.754 153.173 116.833 153.527C117.311 155.592 117.802 157.656 117.948 159.836C117.973 160.254 117.768 160.648 117.266 160.828C116.667 161.04 116.416 160.729 116.28 160.309L116.274 160.313ZM104.572 168.269C104.902 169.395 105.554 170.142 105.637 171.17C105.663 171.521 105.663 171.863 105.169 172.079C104.761 172.257 104.528 172.074 104.363 171.843C103.235 170.244 102.322 168.515 101.725 166.614C101.59 166.181 101.579 165.643 102.236 165.328C102.837 165.037 103.074 165.434 103.265 165.794C103.738 166.672 104.193 167.558 104.572 168.269ZM94.2997 171.462C94.2115 170.915 93.6078 170.502 94.3422 169.991C95.0985 169.463 95.4646 170.007 95.8016 170.381C96.9334 171.614 98.0514 172.865 99.1395 174.132C99.4171 174.453 99.7673 174.892 99.2138 175.379C98.7358 175.804 98.291 175.486 97.9769 175.268C96.4535 174.217 95.3072 172.849 94.2958 171.47L94.2997 171.462ZM110.664 169.176C111.069 170.628 111.289 172.182 111.36 173.779C111.382 174.341 111.327 174.999 110.521 175.223C109.703 175.454 109.745 174.732 109.664 174.29C109.399 172.837 109.218 171.358 108.977 169.893C108.889 169.365 108.6 168.864 109.54 168.473C110.424 168.105 110.369 168.798 110.662 169.171L110.664 169.176ZM104.222 179.805C104.089 179.838 103.945 179.896 103.81 179.907C101.592 180.141 99.5744 179.834 97.6467 179.277C97.3368 179.188 97.1234 178.964 97.2984 178.603C97.4966 178.194 97.9075 178.075 98.2865 178.086C100.308 178.163 102.323 178.257 104.331 178.353C104.758 178.375 104.931 178.655 104.887 179.031C104.844 179.359 104.55 179.597 104.219 179.8L104.222 179.805ZM82.6333 191.356C82.6505 191.192 82.6251 190.894 82.7147 190.607C82.8121 190.305 83.0946 190.33 83.2993 190.397C84.9694 190.97 86.8388 190.846 88.7429 190.632C89.1831 190.581 89.7443 190.64 89.6638 191.221C89.5944 191.742 89.1241 192.03 88.6101 192.132C86.8275 192.492 85.0971 192.614 83.5292 192.125C83.1565 192.01 82.825 191.836 82.6273 191.359L82.6333 191.356ZM95.1016 187.929C93.4449 188.462 91.7279 188.428 90.0055 188.433C89.5664 188.435 89.1182 188.383 89.2717 187.836C89.4005 187.367 89.8481 187.163 90.3043 187.097C91.928 186.863 93.548 186.654 95.1738 186.425C95.624 186.362 95.8922 186.491 95.9533 186.872C96.0259 187.331 95.6966 187.623 95.1076 187.926L95.1016 187.929ZM93.3385 183.335C93.4328 183.316 93.5331 183.293 93.6236 183.282C95.4291 183.077 97.2364 182.861 99.0401 182.669C99.4121 182.63 99.6429 182.808 99.633 183.161C99.625 183.62 99.291 183.986 98.8316 184.095C96.9555 184.528 95.1075 184.718 93.3597 184.425C93.0748 184.377 92.9168 184.214 92.9657 183.902C92.9999 183.674 93.0648 183.467 93.3363 183.33L93.3385 183.335Z" fill="#EF7FA0"/>
<path d="M116.241 181.833C115.013 182.405 114.335 183.583 113.235 184.316C109.694 186.686 106.384 189.318 103.62 192.51C103.087 193.127 102.159 193.434 101.936 194.271C104.847 194.376 107.763 193.379 110.651 192.354C111.767 191.96 112.661 191.944 113.491 192.434C121.607 197.203 130.586 200.665 140.057 203.394C140.341 203.479 140.729 203.44 140.936 204.174C139.522 203.795 138.197 203.978 136.914 203.872C130.34 203.338 124.077 202 117.513 201.436C112.065 200.973 106.577 200.663 100.826 201.397C99.1735 201.605 97.5051 201.846 95.8871 202.736C93.9283 203.813 93.1453 205.345 93.8551 206.965C94.9874 209.545 97.4942 210.732 100.188 211.652C104.506 213.129 109.321 213.301 114.249 213.122C125.172 212.73 136.21 211.142 147.276 207.659C150.638 206.6 153.377 206.529 156.171 207.333C158.142 207.893 160.2 208.288 162.223 208.758C162.782 208.89 163.424 209.255 163.946 208.594C164.513 207.877 164.091 207.165 163.563 206.912C161.945 206.122 161.466 204.534 160.641 203.174C158.915 200.308 157.752 197.124 156.431 194.03C154.115 188.606 151.986 183.076 148.974 178.046C146.944 174.659 144.9 171.273 141.898 168.601C140.931 167.738 139.924 166.939 138.498 166.654C136.187 166.194 133.884 167.467 132.919 169.79C131.869 172.32 132.14 174.638 132.554 176.923C133.593 182.678 136.41 187.39 140.181 191.502C144.08 195.757 148.327 199.685 153.065 203.159C153.315 203.343 153.926 203.527 153.584 203.994C153.204 204.512 152.672 204.143 152.329 204.059C147.035 202.777 141.812 201.358 136.722 199.707C128.911 197.176 121.716 193.765 114.783 189.962C113.669 189.351 113.554 188.674 114.448 187.492C115.034 186.716 115.539 185.89 115.982 185.059C116.582 183.928 116.834 182.808 116.253 181.827L116.241 181.833Z" fill="#6BB194"/>
<path d="M48.6167 172.582C48.732 172.626 48.8479 172.706 48.9726 172.701C49.4671 172.672 50.1661 172.757 50.3546 172.184C50.5449 171.599 49.9909 171.382 49.3638 171.432C49.2981 171.89 48.9893 172.25 48.6188 172.587L48.6167 172.582Z" fill="#FFC1D3"/>
<path d="M83.3926 151.272C83.3452 150.433 83.6174 149.509 83.2182 148.772C80.6629 146.082 77.7825 143.649 76.2306 140.174C75.7472 139.09 74.5136 138.883 73.0982 139.553C71.8935 140.123 70.81 140.792 70.9751 142.151C71.1346 143.441 72.1476 143.929 73.8386 143.388C75.0293 143.008 75.5449 143.218 76.1993 144.035C78.1689 146.481 80.4083 148.725 82.5383 151.047C82.7463 151.276 82.9395 151.527 83.3926 151.272Z" fill="#FFC1D3"/>
<path d="M67.9832 179.228C68.4461 179.171 69.0447 179.471 69.3363 178.936C69.6521 178.351 68.9161 178.321 68.5782 178.115C67.3092 177.346 66.1854 176.398 64.7527 175.836C63.3261 175.864 62.0039 175.887 61.9109 174.137C61.8507 172.95 60.0047 172.526 58.5487 173.151C57.4163 173.641 56.678 175.044 57.0734 176.16C57.4887 177.34 58.4542 178.076 59.9514 177.656C61.7709 177.154 63.1969 177.574 64.6661 177.953C65.8373 178.257 67.0435 178.536 67.985 179.215L67.9832 179.228Z" fill="#FFC1D3"/>
<path d="M71.7296 156.087C72.6299 156.389 73.5768 156.544 74.6557 156.292C74.1629 154.924 72.7253 154.383 71.8002 153.394C70.9232 152.464 69.8964 151.659 68.9729 150.766C68.422 150.238 67.99 149.659 67.8829 148.797C67.7459 147.698 67.0693 146.965 65.5862 147.368C64.069 147.783 62.9426 148.993 62.9588 150.156C62.9692 151.361 63.8615 152.07 65.3773 151.818C66.6091 151.613 67.4698 151.86 68.128 152.641C69.195 153.911 70.7806 154.709 71.7382 156.088L71.7296 156.087Z" fill="#FFC1D3"/>
<path d="M59.2233 162.854C59.2662 162.329 59.8054 161.778 59.5077 161.272C57.538 160.589 55.2722 160.333 54.4474 158.187C54.06 157.183 52.5599 157.09 51.3294 157.689C50.3296 158.171 49.4124 159.814 49.5309 160.899C49.6485 161.929 50.792 162.913 51.8622 162.419C54.4808 161.2 56.2658 162.019 58.1077 162.883C58.4283 163.033 58.7911 163.103 59.211 162.86L59.2233 162.854Z" fill="#FFC1D3"/>
<path d="M93.0551 146.753C93.598 147.512 94.2765 148.152 95.0818 148.672C95.9803 147.722 95.2346 147.058 95.1191 146.332C94.79 144.254 94.2775 142.239 93.8513 140.199C93.6808 139.383 93.7358 138.62 94.3078 137.684C95.0155 136.516 94.5101 135.617 93.494 135.116C92.7898 134.776 91.9114 134.635 91.1995 135.453C90.407 136.366 89.4426 137.597 90.397 138.371C92.3713 139.977 92.1321 142.583 92.7813 144.786C92.9545 145.38 93.5555 145.915 93.0485 146.757L93.0551 146.753Z" fill="#FFC1D3"/>
<path d="M74.6402 157.256C74.6798 157.331 74.7194 157.406 74.7589 157.481C74.9203 157.286 74.9106 157.188 74.6402 157.256Z" fill="#FFC1D3"/>
<path d="M112.54 164.814C112.141 163.894 111.748 162.971 111.339 162.05C111.145 161.601 110.791 161.269 110.13 161.582C109.455 161.901 109.416 162.486 109.557 162.908C109.899 163.906 110.379 164.838 110.75 165.827C111.339 167.415 111.867 169.036 112.463 170.621C112.623 171.047 112.576 171.827 113.446 171.514C114.343 171.186 114.142 170.51 114.124 169.948C114.051 168.042 113.3 166.429 112.542 164.82L112.54 164.814Z" fill="#C7386C"/>
<path d="M115.026 163.344C115.176 163.809 115.452 164.154 116.11 163.918C116.662 163.718 116.889 163.286 116.858 162.817C116.703 160.393 116.161 158.102 115.628 155.812C115.539 155.414 115.16 155.263 114.675 155.468C114.051 155.726 113.847 156.193 113.929 156.708C114.21 158.519 114.506 160.329 114.8 162.134C114.867 162.537 114.943 162.942 115.019 163.347L115.026 163.344Z" fill="#C7386C"/>
<path d="M104.727 170.252C104.304 169.445 103.782 168.448 103.246 167.458C103.028 167.051 102.753 166.607 102.08 166.933C101.34 167.296 101.351 167.899 101.504 168.387C102.183 170.534 103.218 172.487 104.496 174.291C104.683 174.551 104.94 174.762 105.408 174.556C105.967 174.31 105.973 173.921 105.936 173.528C105.841 172.366 105.102 171.523 104.727 170.252Z" fill="#C7386C"/>
<path d="M94.5442 172.8C95.6443 174.315 96.8958 175.829 98.5555 176.987C98.8977 177.228 99.3823 177.578 99.9026 177.109C100.505 176.571 100.117 176.09 99.8209 175.733C98.6351 174.336 97.4168 172.956 96.1835 171.597C95.812 171.194 95.4171 170.585 94.5939 171.168C93.7967 171.737 94.452 172.188 94.5484 172.791L94.5442 172.8Z" fill="#C7386C"/>
<path d="M111.077 172.23C110.757 171.818 110.816 171.052 109.851 171.459C108.825 171.892 109.141 172.445 109.237 173.029C109.506 174.64 109.707 176.281 109.991 177.89C110.079 178.379 110.034 179.177 110.927 178.921C111.807 178.672 111.866 177.945 111.842 177.323C111.764 175.558 111.522 173.84 111.079 172.235L111.077 172.23Z" fill="#C7386C"/>
<path d="M105.387 182.605C105.722 182.398 106.019 182.156 106.062 181.822C106.106 181.439 105.932 181.153 105.5 181.131C103.467 181.027 101.427 180.94 99.3889 180.857C98.9976 180.845 98.5883 180.963 98.3899 181.385C98.213 181.753 98.4288 181.98 98.742 182.071C100.691 182.64 102.731 182.953 104.973 182.714C105.116 182.7 105.261 182.641 105.389 182.61L105.387 182.605Z" fill="#C7386C"/>
<path d="M85.032 193.275C85.2344 193.767 85.57 193.945 85.9452 194.058C87.5328 194.558 89.291 194.429 91.09 194.065C91.6022 193.96 92.0806 193.67 92.157 193.135C92.2363 192.536 91.6703 192.481 91.2245 192.533C89.2883 192.75 87.3976 192.881 85.7126 192.292C85.5054 192.224 85.2193 192.198 85.1206 192.507C85.0259 192.808 85.0495 193.107 85.0381 193.272L85.032 193.275Z" fill="#C7386C"/>
<path d="M97.1476 190.396C97.7342 190.096 98.0643 189.811 97.9899 189.351C97.929 188.973 97.6598 188.84 97.2135 188.907C95.5942 189.135 93.9805 189.342 92.3633 189.574C91.9089 189.639 91.463 189.842 91.3348 190.307C91.1879 190.847 91.6343 190.899 92.0657 190.9C93.7813 190.895 95.4915 190.928 97.1416 190.399L97.1476 190.396Z" fill="#C7386C"/>
<path d="M94.976 185.93C94.7024 186.061 94.6457 186.27 94.6055 186.501C94.5566 186.813 94.7145 186.976 94.9993 187.024C96.7463 187.316 98.5915 187.121 100.469 186.694C100.928 186.585 101.262 186.219 101.27 185.76C101.274 185.411 101.043 185.233 100.677 185.269C98.8743 185.46 97.0657 185.672 95.2631 185.881C95.1667 185.896 95.0724 185.915 94.9781 185.935L94.976 185.93Z" fill="#C7386C"/>
<path d="M125.927 125.092C124.065 124.83 122.512 123.903 120.988 122.967C118.131 121.215 115.745 119 114.467 115.783C114.196 115.104 114.02 114.396 113.956 113.67C113.793 111.85 114.989 110.412 116.966 109.966C117.311 109.89 117.795 109.974 117.913 109.518C118.015 109.128 117.587 109.002 117.344 108.795C114.17 106.126 111.449 103.094 109.876 99.1566C108.905 96.7233 108.304 94.1927 108.475 91.4909C108.791 86.4587 112.088 83.6644 116.929 83.1612C120.616 82.7776 123.883 83.7934 126.685 86.0201C126.964 86.2408 127.276 86.4157 127.581 86.6028C127.622 86.6299 127.709 86.5895 127.821 86.5723C127.84 85.8153 127.446 85.1917 127.235 84.5192C126.211 81.2531 125.488 77.9276 126.07 74.3977C126.503 71.7896 127.503 69.3706 129.859 67.7979C132.658 65.9289 136.228 66.2506 139.038 68.4588C141.147 70.1149 142.679 72.2414 143.934 74.5893C144.078 74.8641 144.139 75.3468 144.522 75.25C144.899 75.1529 144.8 74.6907 144.829 74.3636C145.059 71.8791 145.582 69.496 147.341 67.4579C150.039 64.3308 153.82 63.8946 156.833 66.4179C160.277 69.3046 162.127 73.1282 162.908 77.5614C163.109 78.7039 163.224 79.8647 163.378 81.0146C163.204 81.4269 163.221 81.8855 163.647 81.9675C164.068 82.0492 164.164 81.5388 164.297 81.2068C164.332 81.1199 164.302 81.0144 164.3 80.9195C165.412 78.8024 166.859 77 169.042 75.868C170.921 74.8962 172.874 75.1877 174.286 76.6079C176.478 78.814 177.068 81.7136 177.411 84.7065C177.841 88.5021 177.146 92.2481 176.079 95.9682C176.033 96.1273 175.933 96.2712 175.856 96.4226C175.587 96.1991 175.727 95.8674 175.685 95.5845C175.384 93.5187 174.677 91.6781 172.678 90.7531C170.466 89.7271 168.414 90.467 166.44 91.8514C164.965 92.8852 164.139 94.4876 162.881 95.711C162.656 94.839 162.745 93.9303 162.809 93.0364C162.892 91.9159 162.936 90.8063 163.661 89.7646C164.256 88.9035 163.997 87.9985 163.343 87.3033C162.722 86.6476 161.659 86.648 161.1 87.2328C160.378 87.9872 160.247 89.3771 160.986 89.8392C162.078 90.5158 161.771 91.3959 161.442 92.3476C160.817 91.5874 160.667 90.5766 160.156 89.752C158.959 87.833 157.655 86.0576 155.261 85.4909C155.509 85.2934 155.545 85.0234 155.52 84.7539C155.378 83.2004 155.249 81.7105 156.608 80.3716C157.163 79.8246 156.792 78.703 156.152 78.2579C155.482 77.7926 154.229 77.8257 153.695 78.3326C153.038 78.951 152.764 79.9967 153.322 80.615C154.515 81.9339 154.176 83.5547 154.18 85.1243C153.983 85.1629 153.785 85.2205 153.584 85.2338C151.041 85.4057 149.341 86.8622 147.982 88.9526C147.384 89.8736 147.336 90.964 146.701 91.8486C146.053 90.7495 145.895 89.4321 145.336 88.2959C144.992 87.5955 145.024 86.9464 145.416 86.209C145.895 85.3049 145.647 84.4761 144.904 84.0517C144.187 83.6443 143.19 83.9635 142.606 84.8155C142.033 85.6523 142.347 86.3451 143 86.8128C143.515 87.1829 143.779 87.6619 143.989 88.2048C144.345 89.1173 144.624 90.0675 145.014 90.9626C145.425 91.9123 145.456 93.0378 146.2 93.8316L146.194 93.8251C146.099 93.9756 146.158 94.0161 146.313 93.9787C145.967 96.0791 145.978 98.1669 146.145 100.246C146.211 101.038 146.239 101.835 146.423 102.611C146.474 102.818 146.493 103.109 146.224 103.233C145.985 103.343 145.903 103.077 145.753 102.973C145.085 102.495 144.608 101.829 144.024 101.273C142.837 100.138 141.688 98.9407 140.13 98.2562C140.383 98.0495 140.27 97.8392 140.173 97.6265C139.198 95.4583 138.295 93.2459 137.209 91.1392C136.846 90.4379 136.827 90.0328 137.313 89.3912C138.004 88.4807 137.916 87.6558 137.16 87.1172C136.364 86.5452 135.722 87.019 135.113 87.6078C134.401 88.2964 134.266 89.1651 134.83 89.8468C136.636 92.0328 137.52 94.7243 138.631 97.2932C138.108 97.2544 137.575 97.2529 137.063 97.1703C135.535 96.9166 134.34 97.5491 133.707 98.9958C133.283 99.9718 133.334 100.966 133.403 101.966C133.433 102.441 133.728 102.928 133.314 103.406C132.704 103.442 132.499 102.883 132.178 102.579C130.986 101.437 129.359 100.714 128.798 98.9307C128.528 98.0693 127.582 98.2644 126.869 98.4635C126.229 98.6405 126.132 99.2425 126.192 99.8009C126.281 100.613 126.719 101.233 127.574 101.172C128.261 101.127 128.733 101.347 129.187 101.724C130.334 102.677 131.445 103.674 132.629 104.572C133.04 104.884 133.287 105.583 134.05 105.33C134.237 105.96 134.389 106.604 134.617 107.211C135.022 108.281 135.48 109.327 135.902 110.388C135.997 110.62 136.178 110.902 135.911 111.121C135.707 111.292 135.456 111.132 135.255 111.032C134.815 110.814 134.389 110.577 133.961 110.337C130.761 108.544 127.378 107.258 123.531 107.376C119.26 107.506 117.636 109.541 117.985 113.121C118.261 115.922 119.466 118.41 121.263 120.563C122.657 122.239 124.12 123.825 125.919 125.082L125.927 125.092Z" fill="#EF9AB3"/>
<path d="M126.488 125.493C124.695 124.241 123.235 122.66 121.845 120.992C120.054 118.846 118.849 116.371 118.577 113.579C118.226 110.016 119.845 107.989 124.108 107.856C127.941 107.736 131.317 109.02 134.507 110.806C134.934 111.045 135.362 111.278 135.798 111.498C135.998 111.598 136.245 111.76 136.452 111.587C136.721 111.366 136.538 111.087 136.443 110.857C136.022 109.8 135.565 108.758 135.161 107.693C134.931 107.085 134.78 106.443 134.596 105.818C134.449 105.139 134.203 104.499 133.858 103.905C134.272 103.429 133.978 102.945 133.947 102.471C133.878 101.474 133.825 100.481 134.251 99.5125C134.882 98.0715 136.073 97.4415 137.597 97.6943C138.11 97.7798 138.639 97.778 139.16 97.8167C139.53 98.3268 140.151 98.4674 140.655 98.7758C142.209 99.4577 143.354 100.65 144.538 101.781C145.12 102.335 145.596 102.998 146.262 103.474C146.411 103.578 146.493 103.842 146.731 103.733C146.999 103.61 146.978 103.316 146.93 103.113C146.746 102.341 146.715 101.55 146.653 100.758C146.484 98.6837 146.472 96.6042 146.821 94.5154C146.782 94.4633 146.744 94.4113 146.705 94.3593L146.707 94.3688C147.089 93.7503 147.2 93.0758 147.208 92.3874C147.838 91.5093 147.889 90.4202 148.485 89.5029C149.837 87.4237 151.532 85.973 154.071 85.7987C154.271 85.7855 154.466 85.7249 154.665 85.6896C154.92 86.0657 155.395 85.9011 155.739 86.0578C158.127 86.6223 159.427 88.3907 160.621 90.3021C161.133 91.1268 161.286 92.1305 161.902 92.8874C161.944 94.0436 162.299 95.1286 162.509 96.2481C162.562 96.543 162.422 97.0495 162.863 97.0438C163.267 97.0364 163.208 96.5306 163.346 96.2411C164.598 95.0255 165.422 93.4295 166.896 92.3968C168.864 91.0178 170.91 90.2809 173.115 91.3028C175.111 92.2275 175.814 94.0575 176.114 96.1152C176.156 96.3969 176.016 96.7273 176.285 96.9499C176.271 97.0468 176.255 97.1404 176.241 97.2373C175.745 102.764 173.363 107.572 169.7 111.848C166.953 115.058 163.956 118.011 160.323 120.241C159.888 120.508 159.374 120.662 159.05 121.101C158.455 120.955 158.053 121.472 157.535 121.612C154.853 122.347 152.412 123.651 150.088 125.206C149.363 125.69 148.455 125.729 147.812 126.358C145.784 126.891 143.787 127.58 141.713 127.904C136.272 128.752 131.167 128.153 126.507 125.494L126.488 125.493ZM139.483 121.078C140.286 122.06 141.086 123.045 142.197 123.71C142.526 123.904 142.888 124.25 143.257 123.807C143.618 123.377 143.145 123.154 142.925 122.918C142.107 122.039 141.255 121.19 140.434 120.314C139.926 119.77 139.469 119.171 138.947 118.638C138.723 118.411 138.373 118.242 138.05 118.555C137.734 118.855 137.863 119.176 138.086 119.443C138.543 119.992 139.014 120.528 139.48 121.074L139.483 121.078ZM137.446 122.658C137.218 122.475 136.991 122.295 136.759 122.115C135.73 121.327 134.699 120.536 133.663 119.755C133.369 119.531 133.048 119.501 132.76 119.812C132.536 120.051 132.551 120.344 132.77 120.53C134.046 121.627 135.317 122.734 136.745 123.643C137.019 123.815 137.33 123.82 137.565 123.538C137.844 123.201 137.693 122.911 137.443 122.661L137.446 122.658ZM145.45 117.488C146.129 118.134 146.481 118.864 147.151 119.302C147.381 119.451 147.609 119.577 147.868 119.315C148.08 119.098 148.01 118.868 147.893 118.668C147.079 117.292 146.128 116.017 144.99 114.898C144.731 114.644 144.373 114.436 144.012 114.776C143.68 115.085 143.892 115.397 144.089 115.663C144.57 116.317 145.06 116.961 145.45 117.488ZM149.934 111.543C149.588 111.279 149.449 110.707 148.939 111.027C148.413 111.356 148.694 111.812 148.867 112.184C149.435 113.427 150.018 114.667 150.619 115.891C150.771 116.203 150.986 116.609 151.439 116.406C151.832 116.231 151.721 115.805 151.646 115.506C151.289 114.059 150.634 112.756 149.941 111.543L149.934 111.543ZM144.667 122.052C145.548 122.87 146.539 123.6 147.593 124.241C147.966 124.465 148.419 124.67 148.753 124.194C149.095 123.712 148.601 123.474 148.323 123.254C147.41 122.531 146.46 121.857 145.533 121.146C145.199 120.889 144.929 120.503 144.453 121.01C144.005 121.488 144.481 121.707 144.665 122.048L144.667 122.052ZM153.262 121.522C153.314 121.442 153.386 121.363 153.424 121.274C154.087 119.822 154.342 118.308 154.408 116.763C154.419 116.515 154.318 116.284 154.037 116.272C153.717 116.258 153.543 116.498 153.464 116.765C153.054 118.197 152.657 119.63 152.264 121.059C152.181 121.364 152.33 121.587 152.592 121.696C152.821 121.788 153.047 121.672 153.259 121.518L153.262 121.522ZM165.931 110.823C165.817 110.774 165.623 110.646 165.411 110.602C165.186 110.558 165.138 110.763 165.136 110.93C165.139 112.301 164.629 113.553 164.052 114.795C163.917 115.081 163.828 115.492 164.236 115.652C164.601 115.797 164.902 115.578 165.087 115.259C165.735 114.155 166.212 113 166.242 111.73C166.25 111.429 166.209 111.134 165.935 110.82L165.931 110.823ZM160.788 118.205C161.524 117.253 161.893 116.049 162.289 114.855C162.391 114.552 162.458 114.221 162.057 114.125C161.713 114.04 161.474 114.275 161.326 114.567C160.798 115.607 160.289 116.654 159.764 117.697C159.619 117.987 159.644 118.22 159.886 118.404C160.177 118.625 160.448 118.504 160.785 118.208L160.788 118.205ZM158.112 115.278C158.077 115.336 158.039 115.398 158.011 115.456C157.462 116.633 156.904 117.807 156.364 118.988C156.253 119.232 156.32 119.458 156.558 119.582C156.868 119.746 157.19 119.65 157.368 119.372C158.086 118.23 158.635 117.019 158.838 115.697C158.87 115.481 158.797 115.312 158.577 115.229C158.416 115.169 158.262 115.137 158.109 115.275L158.112 115.278Z" fill="#EF7FA0"/>
<path d="M148.839 127.07C149.487 126.436 150.407 126.397 151.131 125.908C153.471 124.339 155.929 123.022 158.628 122.281C159.151 122.139 159.559 121.615 160.154 121.765C159.568 123.796 158.263 125.433 156.946 127.041C156.439 127.663 156.228 128.27 156.36 129.015C157.641 136.296 157.876 143.696 157.524 151.168C157.516 151.393 157.403 151.645 157.835 152.052C157.906 150.947 158.323 150.105 158.542 149.188C159.672 144.493 160.209 139.72 161.317 135.021C162.241 131.122 163.273 127.251 165.044 123.577C165.55 122.521 166.082 121.465 167.026 120.678C168.167 119.726 169.341 119.742 170.236 120.814C171.662 122.521 171.871 124.666 171.864 126.844C171.856 130.335 170.885 133.695 169.66 137.005C166.95 144.345 163.434 151.331 158.679 157.653C157.233 159.573 156.571 161.423 156.467 163.628C156.388 165.18 156.183 166.732 156.034 168.287C155.994 168.717 156.088 169.29 155.54 169.408C154.946 169.538 154.577 168.991 154.531 168.538C154.38 167.145 153.454 166.244 152.754 165.187C151.275 162.97 149.464 161.023 147.746 159.002C144.735 155.457 141.613 152.002 139.015 148.122C137.266 145.509 135.521 142.886 134.455 139.865C134.11 138.891 133.817 137.913 133.952 136.833C134.172 135.085 135.519 133.966 137.248 134.144C139.131 134.339 140.58 135.361 141.975 136.47C145.489 139.26 147.923 142.891 149.753 146.959C151.648 151.166 153.25 155.493 154.447 159.993C154.511 160.231 154.493 160.716 154.874 160.65C155.297 160.577 155.176 160.079 155.199 159.814C155.554 155.725 155.804 151.635 155.873 147.553C155.981 141.289 155.378 135.13 154.46 129.007C154.312 128.023 153.897 127.7 152.927 127.886C152.29 128.007 151.638 128.054 150.998 128.058C150.127 128.06 149.34 127.829 148.832 127.076L148.839 127.07Z" fill="#6BB194"/>
<path d="M164.004 81.8005C164.006 81.8956 164.032 82.0045 164.001 82.0886C163.871 82.4186 163.768 82.9304 163.349 82.8518C162.921 82.7697 162.905 82.3097 163.079 81.8961C163.395 82.0176 163.701 81.9361 164.007 81.8038L164.004 81.8005Z" fill="#FFC1D3"/>
<path d="M140.159 98.2755C139.645 97.9528 139.009 97.8118 138.634 97.2921C137.504 94.6684 136.606 91.9195 134.769 89.687C134.195 88.9908 134.332 88.1035 135.056 87.4003C135.673 86.8019 136.325 86.318 137.138 86.8991C137.91 87.4525 137.997 88.2916 137.293 89.2215C136.799 89.8769 136.819 90.2906 137.188 91.0068C138.292 93.1585 139.211 95.418 140.203 97.6324C140.301 97.8497 140.416 98.0644 140.159 98.2755Z" fill="#FFC1D3"/>
<path d="M162.912 96.6776C162.772 96.9713 162.831 97.4843 162.424 97.4918C161.978 97.4976 162.122 96.9872 162.065 96.6848C161.853 95.5493 161.495 94.4488 161.452 93.2761C161.788 92.3179 162.096 91.4288 160.994 90.742C160.245 90.2782 160.384 88.8743 161.108 88.1088C161.675 87.5149 162.74 87.5142 163.369 88.18C164.034 88.8826 164.291 89.8 163.689 90.6666C162.962 91.7223 162.915 92.8399 162.831 93.9719C162.766 94.875 162.676 95.793 162.903 96.674L162.912 96.6776Z" fill="#FFC1D3"/>
<path d="M146.605 92.0635C146.6 92.7703 146.491 93.4564 146.096 94.0882C145.342 93.2802 145.315 92.1317 144.894 91.1681C144.499 90.2572 144.215 89.2901 143.854 88.3614C143.642 87.8088 143.371 87.318 142.852 86.9446C142.189 86.4686 141.875 85.7605 142.453 84.9118C143.045 84.0446 144.053 83.7164 144.782 84.1344C145.539 84.5632 145.791 85.4067 145.302 86.33C144.904 87.0805 144.872 87.7411 145.22 88.454C145.787 89.6104 145.944 90.9479 146.605 92.0699L146.605 92.0635Z" fill="#FFC1D3"/>
<path d="M154.933 86.0288C154.584 85.8701 154.109 86.0402 153.848 85.6561C153.848 84.0702 154.189 82.4357 152.989 81.1057C152.427 80.4821 152.702 79.4275 153.363 78.8039C153.898 78.2958 155.163 78.2593 155.836 78.7286C156.474 79.1771 156.854 80.3085 156.296 80.8602C154.925 82.2071 155.055 83.7159 155.201 85.2796C155.225 85.5514 155.19 85.8236 154.94 86.0228L154.933 86.0288Z" fill="#FFC1D3"/>
<path d="M133.678 103.087C134.031 103.7 134.283 104.359 134.433 105.06C133.658 105.318 133.405 104.606 132.982 104.282C131.768 103.356 130.633 102.333 129.464 101.356C128.996 100.966 128.514 100.74 127.815 100.79C126.944 100.849 126.496 100.213 126.402 99.3815C126.341 98.8079 126.439 98.1895 127.094 98.0076C127.825 97.8065 128.789 97.6027 129.065 98.4874C129.639 100.32 131.299 101.058 132.521 102.235C132.851 102.551 133.054 103.124 133.681 103.084L133.678 103.087Z" fill="#FFC1D3"/>
<path d="M146.264 94.0779C146.303 94.1308 146.342 94.1838 146.38 94.2368C146.223 94.275 146.163 94.234 146.264 94.0779Z" fill="#FFC1D3"/>
<path d="M139.862 120.91C139.383 120.347 138.901 119.787 138.424 119.217C138.19 118.942 138.061 118.607 138.386 118.294C138.719 117.976 139.083 118.149 139.312 118.381C139.85 118.934 140.319 119.552 140.845 120.121C141.692 121.031 142.571 121.912 143.415 122.825C143.642 123.07 144.126 123.303 143.757 123.748C143.374 124.204 143.003 123.848 142.664 123.647C141.518 122.956 140.69 121.936 139.865 120.914L139.862 120.91Z" fill="#C7386C"/>
<path d="M137.894 122.304C138.15 122.562 138.305 122.86 138.02 123.207C137.779 123.498 137.463 123.497 137.18 123.316C135.714 122.382 134.412 121.242 133.109 120.109C132.881 119.914 132.868 119.615 133.098 119.369C133.39 119.052 133.722 119.079 134.023 119.31C135.084 120.115 136.14 120.93 137.194 121.742C137.429 121.924 137.664 122.112 137.898 122.301L137.894 122.304Z" fill="#C7386C"/>
<path d="M145.737 117.515C145.332 116.972 144.83 116.301 144.336 115.624C144.132 115.348 143.918 115.022 144.256 114.704C144.631 114.356 144.997 114.568 145.264 114.83C146.435 115.991 147.415 117.312 148.254 118.738C148.374 118.946 148.449 119.18 148.227 119.409C147.961 119.68 147.722 119.552 147.49 119.395C146.8 118.941 146.437 118.185 145.737 117.515Z" fill="#C7386C"/>
<path d="M150.147 111.626C150.853 112.871 151.526 114.213 151.891 115.701C151.967 116.008 152.081 116.447 151.679 116.626C151.216 116.835 151 116.415 150.841 116.098C150.227 114.838 149.63 113.563 149.05 112.286C148.879 111.903 148.585 111.434 149.123 111.096C149.647 110.77 149.787 111.355 150.141 111.626L150.147 111.626Z" fill="#C7386C"/>
<path d="M145.12 122.146C144.932 121.795 144.445 121.57 144.903 121.079C145.39 120.556 145.666 120.954 146.008 121.218C146.95 121.949 147.925 122.646 148.862 123.387C149.147 123.613 149.652 123.858 149.302 124.354C148.96 124.844 148.497 124.632 148.116 124.402C147.038 123.743 146.024 122.992 145.123 122.15L145.12 122.146Z" fill="#C7386C"/>
<path d="M153.676 121.888C153.464 122.043 153.236 122.159 153.006 122.067C152.744 121.957 152.594 121.732 152.678 121.426C153.07 119.987 153.474 118.548 153.882 117.112C153.962 116.838 154.133 116.599 154.456 116.616C154.739 116.629 154.841 116.861 154.83 117.11C154.763 118.662 154.507 120.183 153.842 121.642C153.8 121.735 153.728 121.814 153.679 121.891L153.676 121.888Z" fill="#C7386C"/>
<path d="M166.223 111.579C166.501 111.898 166.542 112.194 166.532 112.494C166.501 113.77 166.019 114.934 165.372 116.041C165.186 116.355 164.887 116.579 164.517 116.436C164.105 116.273 164.197 115.863 164.332 115.574C164.913 114.319 165.427 113.065 165.421 111.689C165.423 111.521 165.471 111.315 165.697 111.359C165.916 111.404 166.108 111.529 166.219 111.582L166.223 111.579Z" fill="#C7386C"/>
<path d="M161.158 118.847C160.821 119.143 160.553 119.266 160.26 119.043C160.019 118.86 159.991 118.623 160.138 118.337C160.662 117.296 161.171 116.251 161.698 115.213C161.846 114.922 162.085 114.687 162.428 114.771C162.826 114.871 162.758 115.2 162.66 115.501C162.264 116.692 161.895 117.894 161.161 118.844L161.158 118.847Z" fill="#C7386C"/>
<path d="M158.5 115.793C158.651 115.651 158.804 115.69 158.968 115.747C159.188 115.829 159.261 115.999 159.229 116.215C159.026 117.536 158.474 118.744 157.759 119.889C157.581 120.167 157.259 120.263 156.95 120.098C156.715 119.972 156.648 119.745 156.756 119.505C157.295 118.324 157.85 117.148 158.402 115.974C158.434 115.912 158.468 115.854 158.503 115.796L158.5 115.793Z" fill="#C7386C"/>
<path d="M165.857 190.93C167.169 196.248 168.397 197.087 175 196.949C175.934 196.929 176.322 197.291 176.482 197.95C177.37 201.587 178.227 205.238 179.204 209.358C176.644 208.933 175.229 207.753 173.687 206.797C166.234 202.178 157.48 199.907 148.257 198.504C146.881 198.297 145.298 198.386 143.85 198.733C140.917 199.443 138.812 201.287 138.197 203.958C137.625 206.417 139.604 207.394 141.646 208.02C147.724 209.886 154.086 211.071 160.752 211.467C165.635 211.755 170.554 211.929 175.586 211.228C178.71 210.795 180.654 211.379 180.809 214.367C180.86 215.371 181.761 216.136 181.273 217.618C175.533 217.795 169.769 217.939 163.951 218.586C157.237 219.329 150.753 221.137 144.612 224.647C143.935 225.035 143.26 225.434 142.631 225.878C140.671 227.264 138.688 228.852 139.158 231.083C139.612 233.244 142.093 232.512 143.896 232.433C154.25 232.005 164.039 228.451 173.547 223.477C176.291 222.042 179.033 220.597 181.801 219.144C183.184 220.562 183.371 222.381 184.031 223.957C184.523 225.142 183.579 225.878 182.575 226.698C175.512 232.443 170.423 239.444 165.558 246.585C164.391 248.3 164.275 249.94 165.463 251.1C166.689 252.296 168.581 251.687 170.196 250.755C177.819 246.348 182.301 240.08 184.897 232.711C185.203 231.848 184.902 230.71 186.712 230.036C187.637 234.256 189.609 237.994 191.24 241.893C191.519 242.554 190.953 243.206 190.566 243.826C187.011 249.514 185.599 255.474 184.614 261.474C184.472 262.323 184.562 263.184 184.667 264.013C184.798 265.075 185.202 265.962 186.584 266.076C187.913 266.192 188.889 265.5 189.691 264.555C191.939 261.908 192.963 258.961 193.627 255.938C193.897 254.692 194.141 253.443 194.418 252.099C196.414 251.847 196.803 253.145 197.377 254.205C202.738 264.045 208.621 273.563 215.48 282.48C215.812 282.914 216.103 283.382 216.472 283.79C217.162 284.559 217.911 285.417 219.279 284.281C220.442 283.321 220.233 282.416 219.485 281.518C215.899 277.234 212.715 272.669 209.829 267.928C205.626 261.031 201.313 254.193 197.799 246.9C197.612 246.513 197.51 246.081 197.134 245.014C200.135 246.351 202.541 247.403 204.919 248.492C209.132 250.424 213.53 252.026 218.284 252.985C220.98 253.529 223.824 253.166 226.674 252.657C228.243 252.376 229.218 251.304 229.71 249.994C230.173 248.755 229.417 247.934 228.431 247.496C218.501 243.085 208.432 238.947 196.12 239.663C195.165 239.717 194.435 239.688 194.101 238.921C192.269 234.679 190.157 230.558 188.994 225.965C190.704 225.33 191.644 226.09 192.685 226.496C197.498 228.377 201.999 230.756 207.071 232.228C210.731 233.291 214.508 233.914 218.659 233.379C221.84 232.971 224.609 231.202 225.047 229.096C225.683 226.063 223.439 225.128 220.891 224.838C210.817 223.673 200.91 221.78 190.126 223.449C187.583 223.842 186.294 221.743 186.57 217.754C190.132 217.572 193.685 217.467 197.247 217.188C205.2 216.574 213.036 215.043 220.416 210.736C221.567 210.066 222.712 209.352 223.772 208.551C225.521 207.221 227.703 205.868 226.957 203.647C226.21 201.415 223.76 201.443 221.513 201.785C214.612 202.836 207.939 205.161 201.507 208.346C196.338 210.906 191.249 213.658 185.931 216.424C184.459 214.846 184.142 212.804 183.849 210.427C191.01 208.559 197.234 205.027 202.94 200.501C207.467 196.91 211.838 193.195 215.2 188.652C215.803 187.835 216.872 187.009 216.088 186.04C215.328 185.105 214.205 184.865 212.792 185.225C211.486 185.551 210.333 186.204 209.185 186.896C200.436 192.196 192.61 198.462 185.908 205.904C185.202 206.691 184.648 207.661 183.189 208.114C181.442 204.425 180.86 200.298 180.04 196.262C179.855 195.335 180.631 194.903 181.454 194.424C187.326 191.015 188.181 189.47 187.356 183.965C180.526 187.785 173.322 189.901 165.879 190.902L165.857 190.93Z" fill="#8AB979"/>
<path d="M162.406 184.074C169.489 183.166 176.345 181.252 182.842 177.803C187.479 175.043 192.001 172.189 195.788 168.459C200.176 164.13 203.159 159.319 205.34 154.183C206.336 151.841 205.394 150.219 202.8 149.468C198.659 152.267 195.075 155.428 193.4 160.005C191.461 158.684 193.387 156.432 191.648 155.433C191.397 155.854 191.177 156.097 191.131 156.337C190.809 157.942 190.038 158.993 187.867 158.996C185.532 159.003 185.778 157.557 185.759 156.183C185.744 155.254 186.257 154.123 184.913 153.449C182.961 156.863 185.854 161.462 179.496 163.554C177.845 160.77 179.376 157.193 177.682 154.545C177.147 158.231 177.11 161.807 177.047 165.379C177.035 166.045 177.173 166.834 176.202 167.263C175.301 167.657 174.704 167.156 174.118 166.766C172.974 166.01 172.341 164.983 172.174 163.668C171.927 161.745 171.663 159.827 171.301 157.934C171.146 157.113 171.383 155.985 169.982 155.812C169.098 156.483 169.451 157.16 169.516 157.792C169.662 159.221 169.924 160.621 170.089 162.046C170.219 163.195 170.154 164.383 168.365 164.843C166.66 165.276 165.693 164.61 165.364 163.309C165.124 162.339 165.045 161.317 164.799 160.353C164.542 159.361 164.87 158.086 163.293 157.413C162.304 159.8 163.404 161.677 163.538 163.685C163.623 164.954 163.657 166.262 161.848 166.795C159.835 167.389 160.249 165.687 159.758 164.848C158.946 163.458 159.337 161.436 157.19 160.276C156.828 164.82 161.551 168.694 155.717 173.375C153.177 170.403 152.386 166.54 149.28 164.1C148.99 166.501 151.403 167.971 150.812 170.496C145.93 170.642 145.269 166.596 142.548 164.421C141.586 166.2 143.191 166.969 142.171 168.534C138.91 169.016 135.456 168.178 131.959 169.59C132.214 173.853 135.478 176.258 138.794 178.505C144.536 182.395 151.521 184.119 159.49 183.923C160.471 183.897 161.544 183.603 162.389 184.083L162.406 184.074Z" fill="#EF7FA0"/>
<path d="M131.05 167.137C134.55 165.727 137.999 166.569 141.267 166.08C142.287 164.511 140.676 163.741 141.644 161.957C144.36 164.139 145.028 168.193 149.912 168.046C150.504 165.516 148.09 164.042 148.38 161.635C151.488 164.081 152.279 167.953 154.82 170.933C160.658 166.241 155.932 162.357 156.294 157.802C158.447 158.958 158.057 160.99 158.864 162.385C159.356 163.231 158.934 164.934 160.955 164.336C162.771 163.801 162.731 162.492 162.646 161.22C162.512 159.207 161.417 157.324 162.401 154.933C163.973 155.613 163.65 156.885 163.907 157.88C164.154 158.851 164.233 159.875 164.473 160.843C164.802 162.147 165.77 162.82 167.475 162.381C169.266 161.925 169.331 160.734 169.201 159.577C169.036 158.149 168.774 156.745 168.627 155.312C168.563 154.684 168.21 154.005 169.094 153.328C170.49 153.508 170.258 154.632 170.413 155.455C170.775 157.353 171.04 159.275 171.286 161.203C171.454 162.521 172.086 163.55 173.231 164.308C173.817 164.694 174.415 165.202 175.316 164.806C176.288 164.377 176.15 163.586 176.162 162.918C176.224 159.333 176.262 155.753 176.798 152.058C178.492 154.708 176.96 158.298 178.612 161.089C184.973 158.992 182.079 154.382 184.032 150.96C185.372 151.642 184.865 152.774 184.879 153.7C184.898 155.078 184.646 156.529 186.987 156.52C189.167 156.516 189.931 155.459 190.254 153.855C190.299 153.614 190.521 153.376 190.771 152.949C192.511 153.95 190.583 156.202 192.523 157.532C194.206 152.947 197.792 149.774 201.929 146.97C199.146 146.219 196.214 146.809 193.302 147.659C191.552 148.173 190.607 147.992 190.499 146.357C190.208 141.848 186.666 140.064 182.002 139.791C177.236 139.513 172.974 141.32 169.893 145.258C169.593 145.641 169.301 146.038 168.973 146.407C168.85 146.547 168.638 146.643 168.382 146.817C166.84 146.882 165.844 145.982 164.638 145.442C162.093 144.313 159.343 143.735 156.222 144.036C150.087 144.631 145.677 148.585 145.94 153.704C146.061 156.089 144.964 156.898 142.568 157.295C139.35 157.823 136.325 158.921 133.762 161.002C131.596 162.759 129.954 164.704 131.073 167.121L131.05 167.137Z" fill="#EF9AB3"/>
<path d="M155.711 128.216C156.076 129.503 156.985 130.114 158.592 129.642C160.105 129.194 161.038 128.262 160.932 126.844C160.829 125.403 159.868 124.924 158.235 125.257C156.381 125.632 155.8 126.762 155.705 128.223L155.711 128.216Z" fill="#EF9AB3"/>
<path d="M167.021 105.694C165.578 106.168 164.64 107.043 164.874 108.315C165.1 109.528 165.849 110.46 167.62 109.921C169.036 109.493 169.879 108.678 169.737 107.319C169.58 105.863 168.578 105.426 167.021 105.694Z" fill="#EF9AB3"/>
<path d="M178.475 129.934C178.174 128.694 177.465 128.088 175.892 128.535C174.489 128.937 173.544 129.589 173.92 130.95C174.204 131.98 174.53 133.174 176.196 132.702C177.65 132.292 178.626 131.349 178.475 129.934Z" fill="#EF9AB3"/>
<path d="M147.526 220.536C150.762 223.69 151.034 224.819 149.399 228.84C149.168 229.409 149.319 229.808 149.72 230.197C151.936 232.349 154.169 234.487 156.685 236.906C157.001 235.136 156.545 233.741 156.268 232.367C154.932 225.724 155.465 219.312 156.685 212.991C156.868 212.05 157.298 211.11 157.868 210.368C159.026 208.867 160.747 208.379 162.67 209.175C164.442 209.904 164.63 211.559 164.571 213.097C164.394 217.676 163.696 222.132 162.403 226.428C161.453 229.573 160.42 232.691 158.777 235.493C157.758 237.234 157.694 238.693 159.648 240.106C160.305 240.579 160.605 241.473 161.706 241.824C163.165 238.354 164.608 234.854 166.399 231.542C168.463 227.718 171.182 224.506 174.956 222.256C175.373 222.008 175.797 221.766 176.24 221.573C177.621 220.973 179.143 220.446 180.52 221.72C181.854 222.952 180.786 224.164 180.312 225.243C177.607 231.456 172.951 235.942 167.416 239.63C165.818 240.694 164.214 241.752 162.599 242.823C163.221 244.303 164.389 245.22 165.286 246.323C165.96 247.149 166.671 246.889 167.452 246.63C172.931 244.795 178.784 244.732 184.68 244.871C186.095 244.905 187.215 245.556 187.71 246.801C188.221 248.086 187.373 248.987 186.374 249.575C181.657 252.347 176.433 252.356 170.916 250.715C170.269 250.523 169.581 249.836 168.709 250.658C171.305 253.089 173.335 255.955 175.552 258.681C175.927 259.145 176.494 259.082 176.998 259.117C181.618 259.424 185.919 261.177 190.147 263.212C190.746 263.498 191.299 263.933 191.827 264.363C192.504 264.912 193.001 265.552 192.754 266.457C192.52 267.33 191.831 267.628 191.014 267.708C188.725 267.931 186.522 267.266 184.352 266.344C183.459 265.963 182.57 265.564 181.609 265.142C180.975 266.265 181.75 267.078 182.322 267.9C187.626 275.55 192.592 283.38 196.931 291.549C197.143 291.945 197.387 292.332 197.572 292.739C197.924 293.505 198.32 294.346 197.244 294.691C196.332 294.987 195.778 294.459 195.355 293.601C193.338 289.497 191.041 285.517 188.556 281.644C184.943 276.007 181.394 270.328 177.356 264.942C177.142 264.656 176.877 264.403 176.254 263.7C176.444 266.144 176.583 268.096 176.753 270.046C177.055 273.502 177.095 276.926 176.623 280.288C176.356 282.195 175.449 283.793 174.444 285.33C173.89 286.176 172.948 286.307 171.96 286.035C171.026 285.775 170.656 284.945 170.595 284.143C169.976 276.06 169.572 268.012 172.926 260.716C173.185 260.149 173.336 259.685 172.903 259.141C170.504 256.139 168.252 253.018 165.464 250.276C164.641 251.053 164.928 251.969 164.955 252.791C165.084 256.596 165.617 260.426 165.413 264.211C165.265 266.942 164.798 269.551 163.471 271.882C162.457 273.669 160.631 274.601 159.125 273.944C156.955 273.001 156.857 271.202 157.259 269.499C158.837 262.757 159.89 255.798 163.523 249.867C164.378 248.468 163.281 246.746 160.559 245.159C159.605 247.281 158.705 249.432 157.687 251.511C155.419 256.157 152.568 260.327 147.973 262.992C147.258 263.409 146.515 263.802 145.733 264.104C144.438 264.6 143.027 265.352 141.721 263.913C140.408 262.468 141 260.966 141.752 259.727C144.066 255.924 147.174 252.822 150.8 250.249C153.713 248.181 156.736 246.247 159.822 244.179C159.114 242.573 157.828 241.477 156.313 240.249C153.395 243.853 149.587 246.145 145.237 247.679C141.787 248.896 138.29 249.961 134.477 250.038C133.792 250.051 132.991 250.348 132.529 249.436C132.084 248.554 132.186 247.754 132.756 247.04C133.279 246.376 133.984 245.951 134.713 245.546C140.289 242.472 146.292 240.394 152.818 239.529C153.507 239.44 154.283 239.524 154.926 238.822C152.875 236.117 150.261 233.938 147.764 231.654C147.189 231.131 146.72 231.42 146.209 231.718C142.565 233.846 141.336 233.694 137.861 230.758C142.002 228.219 145.095 224.697 147.502 220.537L147.526 220.536Z" fill="#799E6D"/>
<path d="M149.088 222.13C146.626 226.411 143.461 230.035 139.223 232.647C135.974 234.362 132.682 235.952 128.911 236.611C124.538 237.37 120.151 236.947 115.72 235.824C113.699 235.313 112.709 233.868 112.791 231.756C115.946 230.393 119.234 229.584 123.116 230.764C122.603 228.803 120.417 228.96 120.097 227.294C120.479 227.339 120.717 227.313 120.91 227.403C122.205 227.995 123.193 228.007 123.74 226.556C124.33 224.998 123.174 224.436 122.14 223.732C121.441 223.255 120.457 223.031 120.284 221.792C123.356 222.203 126.109 226.449 129.285 223.248C127.593 220.744 124.504 219.971 122.925 217.507C125.848 219.002 128.561 220.774 131.279 222.527C131.786 222.854 132.348 223.343 132.915 222.908C133.44 222.504 133.21 221.853 133.062 221.265C132.777 220.119 132.159 219.181 131.206 218.407C129.814 217.276 128.429 216.135 127.088 214.942C126.506 214.425 125.593 214.017 125.814 212.993C126.542 212.739 126.966 213.316 127.428 213.676C128.472 214.493 129.466 215.372 130.502 216.198C131.338 216.862 132.253 217.416 133.049 216.45C133.804 215.528 133.543 214.546 132.641 213.672C131.968 213.024 131.215 212.457 130.547 211.808C129.861 211.138 128.814 210.716 128.701 209.324C130.754 209.862 131.898 211.541 133.383 212.64C134.322 213.334 135.302 214.015 136.159 213.072C137.113 212.024 135.722 211.446 135.21 210.696C134.362 209.454 132.735 208.699 132.395 206.68C135.923 208.722 137.67 213.828 142.672 212.278C141.061 209.085 138.337 206.615 137.27 203.311C139.159 204.324 139.666 206.677 141.724 207.55C143.058 204.359 140.164 201.883 139.2 198.97C140.787 199.22 140.966 200.68 142.406 200.785C143.587 198.846 143.819 196.114 145.763 194.485C148.924 196.798 149.925 200.19 150.793 203.537C152.296 209.333 151.85 214.871 149.705 220.103C149.439 220.746 148.948 221.317 149.099 222.123L149.088 222.13Z" fill="#EF7FA0"/>
<path d="M146.213 195.025C144.272 196.657 144.043 199.384 142.856 201.323C141.418 201.218 141.241 199.756 139.652 199.509C140.618 202.417 143.508 204.895 142.175 208.085C140.118 207.212 139.611 204.86 137.723 203.848C138.79 207.15 141.512 209.62 143.123 212.811C138.122 214.361 136.376 209.257 132.85 207.215C133.183 209.234 134.813 209.991 135.663 211.229C136.179 211.982 137.568 212.554 136.612 213.605C135.753 214.55 134.776 213.867 133.838 213.172C132.353 212.074 131.207 210.399 129.157 209.858C129.276 211.25 130.317 211.671 131.003 212.341C131.673 212.993 132.426 213.559 133.096 214.205C133.997 215.078 134.262 216.062 133.504 216.981C132.711 217.949 131.797 217.396 130.957 216.729C129.921 215.903 128.928 215.025 127.884 214.208C127.426 213.851 127.003 213.274 126.271 213.526C126.056 214.549 126.963 214.957 127.544 215.474C128.885 216.666 130.269 217.807 131.661 218.938C132.613 219.71 133.231 220.649 133.516 221.794C133.661 222.379 133.894 223.033 133.37 223.437C132.803 223.871 132.241 223.382 131.734 223.055C129.014 221.3 126.305 219.532 123.383 218.038C124.958 220.497 128.05 221.274 129.741 223.776C126.566 226.975 123.814 222.731 120.744 222.321C120.923 223.559 121.904 223.787 122.599 224.26C123.633 224.964 124.791 225.522 124.197 227.083C123.649 228.537 122.66 228.518 121.369 227.929C121.177 227.839 120.941 227.868 120.557 227.821C120.876 229.486 123.058 229.326 123.575 231.289C119.695 230.116 116.404 230.922 113.253 232.281C113.383 230.045 114.563 228.381 115.933 226.861C116.759 225.949 116.859 225.227 115.653 224.336C112.325 221.882 111.866 218.621 112.828 215.367C113.812 212.043 116.242 210.101 119.984 210.016C120.348 210.007 120.72 210.01 121.081 209.977C121.217 209.965 121.342 209.871 121.538 209.787C121.973 208.79 121.544 207.673 121.439 206.596C121.224 204.33 121.477 202.202 122.485 200.268C124.471 196.467 128.557 195.502 132.352 198.243C134.121 199.519 135.005 199.192 135.905 197.789C137.109 195.904 138.694 194.432 140.906 193.762C142.773 193.196 144.652 193.074 146.195 195.032L146.213 195.025Z" fill="#EF9AB3"/>
<path d="M114.542 196.483C115.34 197.303 115.542 198.16 114.832 198.968C114.161 199.727 113.295 199.896 112.345 199.182C111.378 198.459 111.279 197.628 111.901 196.741C112.604 195.732 113.521 195.877 114.549 196.483L114.542 196.483Z" fill="#EF9AB3"/>
<path d="M96.3809 195.583C97.0506 194.884 97.8736 194.686 98.6881 195.411C99.4639 196.104 99.9226 197.001 99.1302 197.879C98.4984 198.584 97.7387 198.748 96.8432 198.042C95.8843 197.282 95.8251 196.449 96.3809 195.583Z" fill="#EF9AB3"/>
<path d="M108.198 211.446C107.424 210.695 107.179 209.971 107.86 209.179C108.469 208.473 109.14 208.17 109.98 209.024C110.615 209.669 111.352 210.415 110.632 211.256C110.005 211.99 109.129 212.181 108.198 211.446Z" fill="#EF9AB3"/>
<path d="M167.258 273.128C167.276 271.76 166.786 270.541 166.287 269.342C165.353 267.095 164.039 265.136 161.89 263.864C161.437 263.595 160.952 263.391 160.443 263.266C159.166 262.949 158.012 263.652 157.478 265.025C157.386 265.265 157.393 265.622 157.056 265.657C156.767 265.688 156.724 265.366 156.604 265.169C155.052 262.594 153.193 260.304 150.564 258.741C148.939 257.776 147.205 257.066 145.264 256.894C141.649 256.57 139.3 258.635 138.412 262.062C137.735 264.672 138.1 267.134 139.377 269.393C139.503 269.618 139.594 269.862 139.693 270.102C139.708 270.134 139.67 270.192 139.645 270.271C139.105 270.201 138.704 269.85 138.249 269.624C136.037 268.53 133.751 267.645 131.175 267.678C129.272 267.704 127.442 268.158 126.065 269.681C124.429 271.489 124.267 274.092 125.53 276.355C126.477 278.054 127.822 279.389 129.355 280.549C129.535 280.682 129.871 280.779 129.761 281.044C129.65 281.305 129.332 281.183 129.096 281.168C127.304 281.062 125.551 281.176 123.908 282.219C121.388 283.817 120.663 286.489 122.129 288.932C123.805 291.726 126.323 293.476 129.391 294.523C130.182 294.793 130.995 295.003 131.796 295.239C132.109 295.159 132.433 295.222 132.445 295.537C132.457 295.849 132.083 295.862 131.832 295.922C131.767 295.937 131.695 295.904 131.628 295.892C130 296.46 128.559 297.304 127.514 298.75C126.617 299.995 126.611 301.432 127.466 302.603C128.796 304.422 130.794 305.164 132.886 305.738C135.539 306.463 138.28 306.374 141.044 306.014C141.162 305.998 141.276 305.942 141.392 305.903C141.262 305.685 141.011 305.749 140.814 305.688C139.377 305.245 138.145 304.535 137.706 302.996C137.219 301.292 137.97 299.897 139.171 298.629C140.068 297.682 141.298 297.263 142.307 296.492C141.711 296.234 141.055 296.199 140.412 296.147C139.605 296.084 138.811 295.994 137.991 296.402C137.313 296.735 136.697 296.45 136.274 295.903C135.876 295.385 135.993 294.62 136.47 294.282C137.086 293.845 138.089 293.903 138.337 294.486C138.698 295.345 139.358 295.221 140.071 295.088C139.599 294.555 138.896 294.337 138.366 293.879C137.131 292.808 136.011 291.675 135.87 289.891C135.703 290.048 135.507 290.044 135.318 289.997C134.228 289.725 133.182 289.468 132.081 290.299C131.631 290.638 130.873 290.248 130.627 289.739C130.369 289.207 130.53 288.309 130.949 287.98C131.461 287.575 132.235 287.493 132.614 287.962C133.421 288.965 134.612 288.898 135.728 289.073C135.777 288.936 135.84 288.799 135.871 288.657C136.272 286.846 137.494 285.783 139.13 285.034C139.851 284.705 140.632 284.79 141.331 284.43C140.62 283.843 139.7 283.585 138.953 283.059C138.492 282.735 138.027 282.687 137.46 282.888C136.764 283.134 136.201 282.864 135.981 282.283C135.769 281.723 136.106 281.041 136.776 280.714C137.434 280.393 137.893 280.695 138.154 281.216C138.361 281.627 138.673 281.87 139.036 282.08C139.646 282.436 140.291 282.741 140.886 283.119C141.516 283.519 142.314 283.664 142.797 284.287L142.793 284.282C142.91 284.23 142.933 284.277 142.889 284.384C144.421 284.365 145.906 284.602 147.366 284.95C147.923 285.084 148.487 285.191 149.018 285.409C149.16 285.468 149.366 285.514 149.483 285.334C149.587 285.174 149.407 285.086 149.349 284.967C149.082 284.434 148.661 284.018 148.33 283.537C147.652 282.558 146.926 281.601 146.61 280.405C146.435 280.564 146.298 280.46 146.157 280.367C144.721 279.428 143.246 278.536 141.866 277.524C141.407 277.186 141.121 277.128 140.611 277.407C139.888 277.805 139.31 277.652 139.01 277.049C138.69 276.413 139.098 276.004 139.583 275.63C140.151 275.193 140.784 275.191 141.207 275.672C142.565 277.21 144.383 278.141 146.089 279.221C146.118 278.841 146.176 278.457 146.173 278.08C146.16 276.953 146.741 276.163 147.839 275.866C148.58 275.668 149.282 275.813 149.986 275.972C150.321 276.046 150.635 276.312 151.02 276.066C151.112 275.631 150.738 275.423 150.556 275.159C149.874 274.176 149.538 272.927 148.331 272.327C147.748 272.039 147.99 271.38 148.21 270.889C148.406 270.447 148.845 270.444 149.235 270.548C149.804 270.701 150.196 271.084 150.06 271.693C149.952 272.182 150.057 272.545 150.275 272.913C150.828 273.843 151.415 274.751 151.925 275.701C152.102 276.031 152.572 276.285 152.308 276.806C152.736 277.01 153.178 277.189 153.585 277.42C154.301 277.829 154.996 278.273 155.704 278.693C155.858 278.786 156.04 278.948 156.224 278.78C156.368 278.651 156.283 278.453 156.233 278.298C156.126 277.957 156.004 277.625 155.88 277.29C154.955 274.793 154.411 272.218 154.916 269.464C155.477 266.406 157.102 265.461 159.611 266.104C161.573 266.609 163.211 267.748 164.547 269.277C165.586 270.463 166.555 271.689 167.252 273.121L167.258 273.128Z" fill="#EF9AB3"/>
<path d="M167.471 273.662C166.776 272.236 165.81 271.014 164.774 269.832C163.442 268.31 161.811 267.173 159.852 266.672C157.353 266.029 155.732 266.971 155.171 270.019C154.665 272.76 155.21 275.327 156.132 277.814C156.256 278.148 156.374 278.481 156.484 278.818C156.533 278.973 156.621 279.168 156.475 279.298C156.288 279.467 156.11 279.304 155.956 279.211C155.25 278.793 154.557 278.351 153.843 277.943C153.435 277.712 152.995 277.533 152.57 277.332C152.102 277.152 151.673 276.905 151.288 276.593C150.904 276.837 150.591 276.573 150.257 276.499C149.555 276.341 148.853 276.194 148.117 276.393C147.021 276.689 146.442 277.476 146.455 278.599C146.46 278.977 146.401 279.357 146.371 279.736C146.694 280.057 146.726 280.518 146.89 280.915C147.206 282.106 147.93 283.059 148.605 284.034C148.936 284.513 149.356 284.927 149.622 285.458C149.68 285.577 149.86 285.664 149.756 285.824C149.638 286.003 149.432 285.955 149.292 285.899C148.762 285.682 148.202 285.573 147.645 285.441C146.186 285.093 144.707 284.857 143.181 284.878C143.148 284.845 143.115 284.812 143.082 284.778L143.089 284.781C142.606 284.987 142.114 284.993 141.623 284.923C140.928 285.28 140.147 285.197 139.428 285.525C137.799 286.268 136.581 287.328 136.178 289.133C136.147 289.275 136.082 289.409 136.036 289.548C136.275 289.773 136.106 290.095 136.18 290.36C136.321 292.138 137.438 293.266 138.668 294.333C139.199 294.791 139.898 295.011 140.369 295.537C141.188 295.694 141.922 296.068 142.696 296.341C142.901 296.411 143.277 296.366 143.224 296.683C143.175 296.972 142.821 296.874 142.6 296.942C141.597 297.708 140.37 298.125 139.473 299.071C138.275 300.334 137.526 301.724 138.012 303.421C138.452 304.956 139.679 305.661 141.111 306.102C141.307 306.163 141.558 306.099 141.687 306.316C141.758 306.317 141.826 306.316 141.897 306.317C145.887 306.565 149.572 305.38 153.019 303.217C155.606 301.595 158.038 299.765 160.024 297.398C160.262 297.115 160.428 296.763 160.776 296.578C160.737 296.135 161.149 295.902 161.306 295.545C162.123 293.699 163.319 292.087 164.682 290.588C165.106 290.12 165.233 289.472 165.751 289.078C166.353 287.68 167.062 286.32 167.52 284.865C168.72 281.049 168.853 277.315 167.469 273.675L167.471 273.662ZM162.903 282.515C163.514 283.2 164.128 283.883 164.48 284.754C164.583 285.011 164.789 285.31 164.434 285.526C164.087 285.738 163.981 285.374 163.837 285.19C163.3 284.506 162.789 283.801 162.255 283.115C161.923 282.691 161.546 282.296 161.224 281.863C161.087 281.677 161.005 281.407 161.263 281.209C161.512 281.015 161.726 281.143 161.892 281.333C162.232 281.721 162.563 282.118 162.901 282.513L162.903 282.515ZM164.251 281.225C164.146 281.041 164.043 280.858 163.94 280.672C163.492 279.846 163.041 279.018 162.598 278.188C162.471 277.953 162.485 277.719 162.738 277.546C162.933 277.411 163.14 277.454 163.248 277.632C163.89 278.669 164.539 279.703 165.03 280.829C165.123 281.045 165.092 281.269 164.865 281.407C164.594 281.57 164.405 281.43 164.254 281.223L164.251 281.225ZM159.692 286.41C160.078 286.968 160.559 287.302 160.798 287.831C160.879 288.012 160.944 288.19 160.729 288.347C160.551 288.476 160.395 288.401 160.265 288.295C159.375 287.559 158.571 286.736 157.898 285.796C157.746 285.582 157.637 285.302 157.918 285.08C158.175 284.875 158.374 285.061 158.542 285.232C158.955 285.649 159.36 286.072 159.692 286.41ZM154.967 288.981C154.817 288.703 154.425 288.54 154.709 288.209C155.001 287.867 155.295 288.119 155.541 288.284C156.363 288.828 157.183 289.383 157.989 289.949C158.195 290.093 158.46 290.291 158.266 290.594C158.098 290.858 157.807 290.731 157.602 290.645C156.611 290.23 155.755 289.616 154.966 288.985L154.967 288.981ZM163.029 286.347C163.515 287.07 163.926 287.862 164.267 288.69C164.386 288.982 164.483 289.33 164.107 289.518C163.726 289.711 163.61 289.33 163.484 289.106C163.07 288.371 162.694 287.614 162.289 286.87C162.142 286.602 161.897 286.366 162.311 286.079C162.699 285.809 162.803 286.176 163.026 286.345L163.029 286.347ZM161.71 292.465C161.647 292.494 161.583 292.537 161.515 292.554C160.409 292.872 159.302 292.889 158.195 292.767C158.017 292.748 157.864 292.65 157.886 292.446C157.911 292.215 158.101 292.117 158.3 292.089C159.365 291.952 160.428 291.823 161.49 291.697C161.716 291.671 161.859 291.802 161.908 292.002C161.948 292.177 161.841 292.327 161.708 292.462L161.71 292.465ZM152.702 300.397C152.68 300.309 152.61 300.156 152.602 299.998C152.595 299.832 152.746 299.82 152.865 299.837C153.842 299.989 154.789 299.76 155.737 299.481C155.955 299.416 156.258 299.397 156.327 299.707C156.39 299.986 156.201 300.178 155.954 300.276C155.097 300.621 154.221 300.837 153.314 300.72C153.098 300.692 152.893 300.63 152.7 300.399L152.702 300.397ZM158.523 297.51C157.764 297.934 156.866 298.067 155.973 298.221C155.745 298.261 155.503 298.273 155.478 297.974C155.456 297.718 155.649 297.572 155.873 297.498C156.672 297.232 157.473 296.981 158.274 296.718C158.496 296.646 158.659 296.689 158.764 296.883C158.889 297.116 158.774 297.298 158.525 297.508L158.523 297.51ZM156.732 295.266C156.777 295.247 156.825 295.227 156.869 295.213C157.768 294.947 158.665 294.675 159.565 294.417C159.751 294.363 159.905 294.436 159.967 294.621C160.05 294.861 159.947 295.082 159.729 295.18C158.837 295.57 157.914 295.833 156.95 295.833C156.793 295.833 156.68 295.762 156.646 295.595C156.62 295.473 156.615 295.359 156.73 295.264L156.732 295.266Z" fill="#EF7FA0"/>
<path d="M166.144 290.073C165.622 290.47 165.493 291.128 165.067 291.597C163.695 293.11 162.491 294.736 161.669 296.599C161.51 296.96 161.093 297.196 161.134 297.641C162.642 297.441 163.948 296.681 165.235 295.909C165.732 295.612 166.186 295.526 166.702 295.703C171.735 297.423 176.967 298.403 182.315 298.968C182.476 298.986 182.667 298.933 182.909 299.288C182.116 299.219 181.472 299.427 180.796 299.484C177.336 299.784 173.886 299.647 170.426 299.931C167.555 300.169 164.691 300.489 161.887 301.362C161.08 301.611 160.272 301.878 159.61 302.472C158.808 303.19 158.691 304.037 159.354 304.799C160.411 306.013 161.913 306.398 163.46 306.632C165.942 307.008 168.436 306.677 170.922 306.158C176.434 305.009 181.783 303.242 186.796 300.51C188.319 299.679 189.706 299.405 191.284 299.571C192.395 299.684 193.521 299.706 194.642 299.77C194.952 299.788 195.348 299.918 195.492 299.536C195.649 299.123 195.301 298.797 194.985 298.714C194.011 298.453 193.472 297.687 192.798 297.067C191.385 295.76 190.2 294.242 188.952 292.783C186.763 290.226 184.65 287.599 182.178 285.302C180.512 283.756 178.84 282.212 176.81 281.114C176.156 280.759 175.493 280.44 174.711 280.419C173.445 280.386 172.503 281.234 172.44 282.499C172.371 283.877 172.939 285.032 173.575 286.158C175.172 288.995 177.485 291.146 180.175 292.91C182.957 294.735 185.856 296.363 188.922 297.718C189.084 297.79 189.431 297.83 189.342 298.097C189.244 298.394 188.904 298.253 188.712 298.24C185.768 298.048 182.835 297.78 179.927 297.383C175.464 296.774 171.154 295.665 166.904 294.333C166.221 294.119 166.037 293.785 166.275 293.106C166.431 292.661 166.536 292.197 166.609 291.736C166.706 291.108 166.628 290.517 166.149 290.068L166.144 290.073Z" fill="#6BB194"/>
<path d="M132.108 295.606C132.175 295.618 132.25 295.649 132.313 295.636C132.562 295.578 132.937 295.56 132.927 295.25C132.916 294.933 132.59 294.871 132.277 294.951C132.329 295.192 132.237 295.403 132.11 295.609L132.108 295.606Z" fill="#FFC1D3"/>
<path d="M146.621 280.445C146.448 280.038 146.418 279.563 146.091 279.236C144.356 278.132 142.507 277.182 141.127 275.61C140.696 275.12 140.053 275.122 139.475 275.568C138.984 275.947 138.57 276.365 138.892 277.017C139.2 277.635 139.785 277.789 140.52 277.383C141.039 277.098 141.33 277.157 141.797 277.503C143.2 278.536 144.7 279.447 146.16 280.406C146.303 280.501 146.443 280.607 146.621 280.445Z" fill="#FFC1D3"/>
<path d="M142.833 296.526C143.057 296.458 143.414 296.557 143.464 296.263C143.517 295.943 143.139 295.991 142.931 295.917C142.148 295.64 141.406 295.26 140.579 295.102C139.862 295.238 139.197 295.364 138.83 294.493C138.583 293.903 137.572 293.849 136.949 294.288C136.465 294.631 136.348 295.399 136.752 295.925C137.178 296.482 137.801 296.768 138.482 296.429C139.311 296.02 140.109 296.108 140.922 296.172C141.57 296.224 142.231 296.26 142.832 296.519L142.833 296.526Z" fill="#FFC1D3"/>
<path d="M141.447 284.343C141.949 284.416 142.447 284.413 142.938 284.197C142.448 283.564 141.637 283.419 141 283.009C140.398 282.624 139.743 282.314 139.125 281.951C138.756 281.737 138.438 281.488 138.23 281.072C137.965 280.542 137.498 280.237 136.833 280.561C136.154 280.894 135.811 281.586 136.027 282.159C136.248 282.752 136.818 283.026 137.526 282.774C138.102 282.569 138.574 282.618 139.041 282.948C139.798 283.484 140.729 283.744 141.452 284.343L141.447 284.343Z" fill="#FFC1D3"/>
<path d="M136.165 289.581C136.09 289.312 136.263 288.988 136.019 288.759C134.893 288.584 133.695 288.651 132.882 287.64C132.501 287.167 131.722 287.25 131.207 287.658C130.788 287.988 130.623 288.896 130.883 289.433C131.131 289.941 131.893 290.339 132.346 289.997C133.452 289.157 134.509 289.415 135.603 289.692C135.794 289.74 135.991 289.744 136.16 289.585L136.165 289.581Z" fill="#FFC1D3"/>
<path d="M150.842 276.414C151.236 276.737 151.676 276.991 152.156 277.177C152.423 276.644 151.947 276.383 151.764 276.042C151.241 275.063 150.641 274.131 150.078 273.178C149.852 272.798 149.745 272.424 149.857 271.924C149.994 271.301 149.593 270.908 149.015 270.749C148.615 270.642 148.167 270.645 147.966 271.099C147.744 271.606 147.494 272.28 148.09 272.576C149.324 273.192 149.666 274.472 150.365 275.485C150.552 275.758 150.936 275.968 150.839 276.417L150.842 276.414Z" fill="#FFC1D3"/>
<path d="M142.931 284.348C142.964 284.382 142.997 284.415 143.031 284.449C143.075 284.339 143.053 284.292 142.931 284.348Z" fill="#FFC1D3"/>
<path d="M162.815 282.886C162.469 282.478 162.125 282.068 161.774 281.66C161.605 281.461 161.382 281.331 161.126 281.532C160.864 281.738 160.946 282.021 161.086 282.211C161.418 282.661 161.804 283.068 162.149 283.511C162.7 284.223 163.227 284.955 163.781 285.665C163.929 285.856 164.042 286.232 164.396 286.014C164.761 285.787 164.55 285.48 164.445 285.213C164.081 284.308 163.45 283.597 162.817 282.888L162.815 282.886Z" fill="#C7386C"/>
<path d="M164.057 281.661C164.211 281.874 164.405 282.019 164.682 281.851C164.915 281.709 164.948 281.48 164.851 281.255C164.351 280.093 163.686 279.027 163.026 277.961C162.913 277.776 162.703 277.734 162.504 277.873C162.247 278.049 162.23 278.292 162.361 278.535C162.815 279.39 163.276 280.243 163.735 281.093C163.838 281.283 163.946 281.473 164.054 281.663L164.057 281.661Z" fill="#C7386C"/>
<path d="M159.708 286.693C159.369 286.34 158.949 285.904 158.524 285.472C158.35 285.295 158.143 285.104 157.881 285.314C157.594 285.547 157.704 285.835 157.86 286.056C158.553 287.031 159.381 287.884 160.298 288.646C160.432 288.756 160.59 288.836 160.776 288.701C160.997 288.538 160.933 288.351 160.847 288.166C160.601 287.617 160.106 287.272 159.708 286.693Z" fill="#C7386C"/>
<path d="M155.009 289.182C155.813 289.828 156.69 290.462 157.704 290.888C157.914 290.977 158.212 291.107 158.383 290.836C158.582 290.524 158.308 290.322 158.1 290.173C157.276 289.591 156.438 289.02 155.597 288.461C155.344 288.295 155.044 288.031 154.745 288.383C154.457 288.727 154.856 288.892 155.009 289.177L155.009 289.182Z" fill="#C7386C"/>
<path d="M163.082 286.787C162.853 286.613 162.747 286.236 162.349 286.514C161.926 286.809 162.177 287.052 162.327 287.328C162.741 288.089 163.128 288.87 163.55 289.629C163.679 289.86 163.798 290.251 164.187 290.053C164.572 289.859 164.473 289.501 164.351 289.2C164.002 288.349 163.582 287.533 163.084 286.79L163.082 286.787Z" fill="#C7386C"/>
<path d="M161.904 292.868C162.037 292.732 162.145 292.581 162.105 292.405C162.055 292.204 161.912 292.072 161.685 292.099C160.618 292.223 159.55 292.357 158.484 292.493C158.28 292.52 158.092 292.617 158.069 292.852C158.047 293.057 158.2 293.155 158.379 293.174C159.49 293.296 160.6 293.279 161.711 292.96C161.782 292.94 161.846 292.897 161.906 292.87L161.904 292.868Z" fill="#C7386C"/>
<path d="M153.106 300.677C153.302 300.912 153.508 300.974 153.722 300.999C154.633 301.117 155.514 300.898 156.372 300.553C156.616 300.454 156.808 300.264 156.747 299.982C156.676 299.667 156.374 299.688 156.154 299.754C155.198 300.035 154.249 300.267 153.272 300.112C153.152 300.095 153 300.107 153.007 300.274C153.015 300.437 153.083 300.589 153.108 300.675L153.106 300.677Z" fill="#C7386C"/>
<path d="M158.866 297.867C159.114 297.658 159.231 297.479 159.104 297.244C159 297.051 158.834 297.005 158.615 297.079C157.815 297.341 157.015 297.592 156.217 297.857C155.993 297.931 155.8 298.077 155.823 298.333C155.85 298.629 156.092 298.617 156.317 298.58C157.209 298.426 158.106 298.293 158.864 297.869L158.866 297.867Z" fill="#C7386C"/>
<path d="M157.005 295.642C156.888 295.735 156.898 295.849 156.922 295.973C156.956 296.141 157.069 296.212 157.226 296.212C158.189 296.211 159.11 295.947 160.004 295.558C160.222 295.461 160.325 295.24 160.242 295C160.177 294.817 160.023 294.744 159.84 294.795C158.94 295.054 158.041 295.324 157.145 295.591C157.098 295.608 157.052 295.626 157.007 295.644L157.005 295.642Z" fill="#C7386C"/>
<path d="M118.183 372.902C117.26 373.872 116.531 374.941 116.656 376.658C119.895 374.373 123.782 373.478 127.137 371.511C130.603 369.477 132.109 365.564 135.187 362.794C135.786 364.151 135.201 364.88 134.87 365.61C133.384 368.844 132.2 372.203 131.074 375.578C130.805 376.386 130.368 377.193 130.694 378.12C130.961 378.225 131.229 378.337 131.496 378.443C132.284 377.6 132.497 376.487 132.846 375.435C137.176 362.318 143.889 350.731 154.207 341.477C155.647 340.188 157.049 338.792 159.623 337.88C157.003 346.796 153.419 354.718 149.724 362.594C149.878 362.657 150.03 362.714 150.18 362.774C153.284 359.395 154.708 355.072 156.446 350.952C157.73 347.906 159.139 344.792 159.632 341.547C160.518 335.721 164.74 333.656 169.378 331.787C169.52 331.728 169.688 331.729 169.847 331.704C170.059 331.535 170.174 331.522 170.095 331.854C167.349 336.546 163.85 340.782 161.879 345.948C160.229 350.275 159.645 354.802 159.342 359.32C160.36 359.898 160.772 359.383 161.207 358.919C160.805 357.77 161.09 356.763 161.544 355.695C162.838 352.645 164.003 349.534 165.24 346.461C166.351 343.698 166.839 340.61 169.172 338.476C169.431 333.33 172.205 330.129 176.921 328.472C180.154 327.339 183.399 326.23 186.665 325.195C187.519 324.923 188.437 324.493 189.926 325.145C183.224 328.935 178.254 333.87 176.299 341.248C179.441 338.533 182.356 335.636 184.917 332.326C186.396 330.419 187.693 328.067 190.403 327.411C194.412 322.518 200.108 323.035 205.705 323.191C207.244 323.234 208.847 323.784 210.422 323.032C209.791 322.036 208.888 322.222 208.154 322.121C204.28 321.585 200.367 321.304 196.559 321.978C192.205 322.751 187.923 322.346 183.58 321.612C181.676 321.291 180.466 319.865 178.851 319.117C177.468 319.339 176.136 319.161 174.836 318.547C171.799 317.117 168.662 316.09 165.325 315.729C164.319 315.619 163.207 315.468 162.487 314.514C160.392 315.182 161.555 315.909 162.604 316.376C165.97 317.877 169.406 319.162 173.068 319.703C174.791 319.956 176.487 320.398 178.183 321.028C172.3 321.904 166.281 321.76 160.691 323.803C160.809 324.149 160.93 324.499 161.048 324.845C169.114 323.057 177.307 322.502 185.685 322.833C185.63 324.245 184.705 324.124 184.117 324.299C173.65 327.485 163.882 331.951 155.259 338.626C151.833 341.277 147.531 342.283 143.59 343.963C143.63 345.921 141.866 346.191 140.68 346.922C136.346 349.585 131.387 350.951 126.735 352.971C125.388 353.557 124.23 354.701 122.563 354.534C121.527 355.77 122.065 356.391 123.45 356.101C130.182 354.673 137.047 353.529 142.095 348.33C143.574 346.807 145.243 345.465 146.894 344.12C147.651 343.508 148.507 342.924 150.07 343.038C148.6 344.784 147.391 346.303 146.088 347.742C142.632 351.544 140.405 356.283 136.795 359.978C135.173 361.642 133.112 362.671 131.3 364.058C131.26 365.107 130.622 365.716 129.841 366.326C127.485 368.178 124.699 369.314 122.127 370.804C120.846 371.547 120.108 373.328 118.17 372.903L118.183 372.902Z" fill="#6BA270"/>
<path d="M130.95 379.072C130.689 378.965 130.421 378.857 130.157 378.753C127.237 379.094 124.291 379.381 122.342 381.91C121.873 382.52 121.405 383.143 121.033 383.819C120.53 384.728 120.161 385.735 120.965 386.688C121.727 387.587 122.852 387.759 123.825 387.379C125.492 386.724 126.712 386.787 127.341 388.777C127.426 389.043 127.846 389.473 127.975 389.435C130.108 388.8 131.777 390.518 133.654 390.7C135.393 390.87 136.12 389.225 136.21 387.632C136.362 384.94 135.271 382.681 133.187 380.877C132.464 380.254 131.702 379.677 130.954 379.075L130.95 379.072Z" fill="#EF7FA0"/>
<path d="M149.784 363.03C149.636 362.97 149.481 362.911 149.333 362.851C146.782 362.753 144.24 362.6 142.123 364.335C140.898 365.343 139.437 366.333 139.964 368.147C140.471 369.889 142.031 369.936 143.542 369.608C143.692 369.576 143.991 369.58 143.997 369.61C144.647 372.39 147.739 371.744 149.186 373.363C150.861 375.234 152.405 375.008 153.242 372.725C154.256 369.947 153.567 367.48 151.638 365.204C151.022 364.475 150.059 364.034 149.78 363.026L149.784 363.03Z" fill="#EF7FA0"/>
<path d="M161.552 325.076C161.431 324.731 161.315 324.389 161.198 324.047C159.247 321.119 156.524 319.984 153.141 320.38C152.16 320.494 151.229 320.751 150.899 321.803C150.584 322.808 150.855 323.679 151.802 324.305C152.45 324.733 152.976 325.212 152.573 326.066C152.092 327.076 152.424 327.913 153.266 328.608C153.847 329.084 153.82 329.674 153.87 330.331C154.073 332.853 155.601 333.626 157.771 332.339C160.497 330.72 161.682 328.255 161.556 325.086L161.552 325.076Z" fill="#EF7FA0"/>
<path d="M169.036 338.317C166.699 340.455 166.207 343.545 165.098 346.316C163.862 349.399 162.692 352.512 161.396 355.567C160.941 356.637 160.659 357.649 161.058 358.796C167.853 353.69 169.684 346.521 169.033 338.321L169.036 338.317Z" fill="#8AB696"/>
<path d="M122.866 355.168C124.533 355.335 125.691 354.191 127.038 353.605C131.686 351.589 136.645 350.223 140.982 347.557C142.165 346.829 143.929 346.559 143.892 344.598C136.789 346.138 129.807 347.945 124.456 353.163C123.842 353.761 123.15 354.298 122.866 355.162L122.866 355.168Z" fill="#8AB696"/>
<path d="M190.39 326.822C187.656 327.487 186.35 329.858 184.863 331.777C182.286 335.11 179.346 338.035 176.181 340.772C177.176 341.801 177.946 340.894 178.755 340.543C184.896 337.894 187.917 332.588 190.39 326.822Z" fill="#8AB696"/>
<path d="M118.119 373.662C120.062 374.088 120.803 372.302 122.087 371.557C124.665 370.062 127.455 368.92 129.822 367.066C130.601 366.451 131.24 365.84 131.285 364.791C125.702 366.043 120.735 368.178 118.122 373.665L118.119 373.662Z" fill="#8AB696"/>
<path d="M163.207 314.438C163.917 315.377 165.006 315.523 165.994 315.631C169.266 315.988 172.349 316.993 175.33 318.397C176.606 318.999 177.917 319.177 179.271 318.956C174.562 314.862 169.334 312.854 163.206 314.431L163.207 314.438Z" fill="#8AB696"/>
<path d="M106.386 345.377C105.282 344.727 104.034 344.919 103.238 345.454C102.225 346.135 102.452 347.387 103.259 348.346C104.136 349.382 105.158 349.453 106.195 348.626C107.411 347.654 106.573 346.507 106.386 345.377Z" fill="#EF9AB3"/>
<path d="M123.006 338.131C123.798 338.785 124.613 339.45 125.582 338.764C126.467 338.135 126.97 337.269 126.19 336.166C125.545 335.254 124.662 334.921 123.717 335.527C122.767 336.135 122.483 337.051 123.006 338.131Z" fill="#EF9AB3"/>
<path d="M114.868 361.151C114.099 360.401 113.219 360.02 112.328 360.737C111.45 361.443 111.183 362.389 111.992 363.398C112.691 364.264 113.568 364.619 114.423 363.767C115.127 363.065 115.852 362.241 114.87 361.146L114.868 361.151Z" fill="#EF9AB3"/>
<path d="M150.578 27.33C149.982 26.1279 149.602 24.8889 150.23 23.2831C152.651 26.4314 156.104 28.4407 158.73 31.3184C161.442 34.2934 161.724 38.4834 163.848 42.0466C164.823 40.927 164.479 40.0555 164.379 39.2595C163.915 35.7243 163.779 32.1607 163.701 28.5972C163.683 27.7444 163.505 26.8427 164.091 26.0532C164.378 26.0318 164.667 26.0041 164.954 25.9828C165.457 27.023 165.331 28.1509 165.354 29.2608C165.609 43.0933 168.597 56.1696 175.725 68.0845C176.72 69.7448 177.648 71.4967 179.839 73.1333C179.975 63.8268 178.894 55.1855 177.693 46.5547C177.859 46.5395 178.022 46.5306 178.183 46.5174C180.151 50.6721 180.232 55.2293 180.674 59.6864C181 62.981 181.424 66.3777 180.934 69.6287C180.056 75.4645 183.482 78.6933 187.365 81.8579C187.483 81.9565 187.645 82.0054 187.789 82.0772C187.941 82.3013 188.048 82.3481 188.071 82.0064C186.834 76.7036 184.742 71.6129 184.388 66.0863C184.092 61.4569 184.874 56.9535 185.923 52.5415C187.068 52.2911 187.31 52.9061 187.588 53.4796C186.864 54.4588 186.837 55.5069 186.955 56.6633C187.29 59.9645 187.482 63.2862 187.755 66.5937C187.999 69.5661 187.55 72.6646 189.15 75.3988C187.873 80.3975 189.578 84.2832 193.598 87.2688C196.355 89.312 199.13 91.3367 201.947 93.2965C202.684 93.8101 203.435 94.4935 205.052 94.3122C199.764 88.6969 196.473 82.5013 196.789 74.8631C198.989 78.3927 200.919 82.03 202.388 85.9562C203.238 88.2191 203.782 90.8538 206.18 92.2862C208.564 98.1565 214.166 99.3537 219.566 100.867C221.051 101.282 222.747 101.232 224.031 102.419C223.132 103.184 222.324 102.738 221.592 102.617C217.727 101.979 213.9 101.087 210.458 99.311C206.522 97.2792 202.306 96.3953 197.935 95.8074C196.018 95.5492 194.438 96.5541 192.673 96.7898C191.415 96.1667 190.088 95.9414 188.663 96.1427C185.334 96.6088 182.029 96.6604 178.731 96.0143C177.736 95.8207 176.626 95.6356 175.655 96.3336C173.849 95.0733 175.177 94.7227 176.319 94.5878C179.984 94.1514 183.651 93.9421 187.314 94.512C189.037 94.7822 190.791 94.8629 192.6 94.7637C187.231 92.1794 181.432 90.5295 176.69 86.9152C176.905 86.6192 177.125 86.3213 177.34 86.0253C184.526 90.1295 192.198 93.0936 200.31 95.2648C200.676 93.8975 199.755 93.7389 199.245 93.3964C190.177 87.2411 182.156 80.0696 175.886 71.1244C173.395 67.571 169.577 65.3317 166.305 62.5541C166.924 60.6931 165.317 59.9113 164.399 58.8599C161.042 55.0256 156.703 52.2465 152.853 48.9332C151.738 47.9729 150.969 46.5352 149.325 46.1995C148.701 44.7095 149.399 44.2753 150.638 44.9641C156.654 48.3286 162.881 51.4611 166.169 57.9328C167.133 59.8295 168.332 61.6088 169.512 63.3852C170.055 64.1956 170.701 65.0078 172.23 65.3627C171.341 63.2568 170.635 61.4446 169.815 59.6818C167.636 55.0181 166.91 49.8244 164.551 45.2182C163.493 43.1445 161.826 41.549 160.504 39.6838C160.776 38.6684 160.347 37.8965 159.78 37.0809C158.075 34.6104 155.747 32.6967 153.729 30.5077C152.724 29.4166 152.545 27.4937 150.565 27.3252L150.578 27.33Z" fill="#6BA270"/>
<path d="M164.618 25.2189C164.337 25.2442 164.049 25.2672 163.765 25.2883C161.073 24.0955 158.34 22.9457 157.226 19.9488C156.957 19.2258 156.694 18.4904 156.538 17.7336C156.327 16.7146 156.273 15.6422 157.324 14.969C158.319 14.3358 159.447 14.5052 160.264 15.1578C161.665 16.2787 162.851 16.5814 164.041 14.8642C164.202 14.6354 164.731 14.3486 164.843 14.4226C166.696 15.6642 168.801 14.5165 170.65 14.8991C172.364 15.2534 172.572 17.0423 172.186 18.593C171.534 21.2125 169.82 23.0497 167.293 24.1561C166.417 24.5377 165.516 24.8634 164.623 25.2169L164.618 25.2189Z" fill="#EF7FA0"/>
<path d="M177.879 46.1555C177.72 46.1685 177.555 46.1792 177.396 46.1922C174.927 45.5289 172.45 44.9203 170.939 42.6325C170.065 41.3046 168.962 39.9237 170.003 38.3446C171.004 36.8295 172.51 37.2474 173.859 38.0101C173.992 38.0848 174.279 38.1695 174.294 38.1426C175.739 35.6766 178.505 37.213 180.37 36.0937C182.526 34.8016 183.937 35.4758 184.06 37.9078C184.207 40.8668 182.817 43.0222 180.298 44.626C179.492 45.1408 178.441 45.2766 177.875 46.1574L177.879 46.1555Z" fill="#EF7FA0"/>
<path d="M177.89 85.9533C177.673 86.2478 177.46 86.5404 177.247 86.833C174.513 89.0543 171.572 89.3311 168.454 87.9479C167.549 87.5477 166.735 87.0259 166.731 85.9208C166.727 84.8665 167.245 84.1133 168.336 83.7967C169.082 83.5792 169.728 83.2775 169.595 82.3411C169.435 81.2322 170 80.5295 171.012 80.1146C171.708 79.8317 171.857 79.2594 172.1 78.6462C173.041 76.2939 174.732 76.0082 176.426 77.8839C178.554 80.2417 178.957 82.9516 177.897 85.9451L177.89 85.9533Z" fill="#EF7FA0"/>
<path d="M149.803 45.6829C151.447 46.0186 152.215 47.4562 153.33 48.4165C157.179 51.7252 161.517 54.5042 164.876 58.3427C165.792 59.3897 167.399 60.1715 166.782 62.0368C160.445 58.4549 154.302 54.6533 150.729 48.0727C150.319 47.3187 149.816 46.5997 149.8 45.6892L149.803 45.6829Z" fill="#8AB696"/>
<path d="M150.742 26.5834C152.727 26.7522 152.906 28.6808 153.914 29.775C155.937 31.9702 158.267 33.8913 159.982 36.3669C160.545 37.1868 160.975 37.961 160.707 38.9774C155.738 36.1222 151.619 32.6053 150.746 26.5814L150.742 26.5834Z" fill="#8AB696"/>
<path d="M176.321 96.6202C177.279 95.9332 178.364 96.1168 179.34 96.3068C182.576 96.9369 185.823 96.8906 189.09 96.4331C190.489 96.2355 191.796 96.4548 193.026 97.0684C187.308 99.586 181.712 99.954 176.319 96.6264L176.321 96.6202Z" fill="#8AB696"/>
<path d="M131.138 50.1558C129.89 50.4494 128.752 49.8951 128.149 49.1476C127.382 48.1946 127.97 47.0647 129.027 46.3869C130.173 45.6566 131.172 45.8922 131.918 46.9913C132.793 48.2821 131.652 49.1301 131.138 50.1558Z" fill="#EF9AB3"/>
<path d="M144.888 62.0208C145.84 61.6309 146.816 61.2361 147.54 62.1804C148.2 63.0451 148.425 64.0221 147.351 64.8461C146.465 65.5272 145.522 65.5828 144.797 64.7233C144.068 63.8591 144.068 62.8989 144.888 62.0208Z" fill="#EF9AB3"/>
<path d="M143.926 37.5861C142.968 38.075 142.013 38.1778 141.373 37.2278C140.742 36.2918 140.767 35.3075 141.84 34.5821C142.765 33.9617 143.709 33.8825 144.275 34.9509C144.74 35.8319 145.189 36.8355 143.925 37.5908L143.926 37.5861Z" fill="#EF9AB3"/>
<path d="M25.2094 222.391L36.718 226.669L38.7126 221.807L39.7823 225.861L44.2506 230.371L35.5323 229.421L23.8045 228.452L14.5197 239.844L14.7092 228.143C9.40767 227.374 -0.511894 225.115 2.2218 222.226C4.9555 219.336 13.3398 220.194 17.1903 220.985L26.5539 210.926L25.2094 222.391Z" fill="#FFC1D3"/>
</svg>
