<svg width="98" height="274" viewBox="0 0 98 274" fill="none" xmlns="http://www.w3.org/2000/svg">
<path d="M68.8025 150.01C71.1521 146.388 72.3366 146.061 77.567 147.744C78.3067 147.982 78.7048 147.807 78.9937 147.357C80.5932 144.877 82.1714 142.379 83.9597 139.563C81.8141 139.265 80.3969 139.8 78.9336 140.139C71.8597 141.774 64.3241 141.359 56.6264 140.19C55.4792 140.015 54.2387 139.569 53.1694 138.966C51.0047 137.738 49.7786 135.869 49.9428 133.744C50.0885 131.787 51.9063 131.538 53.6879 131.562C58.9902 131.637 64.3535 132.282 69.7654 133.584C73.7286 134.54 77.6931 135.589 81.533 137.313C83.9179 138.381 85.6105 138.414 86.4669 136.239C86.7535 135.508 87.6592 135.157 87.6332 133.944C83.1006 132.438 78.5401 130.952 74.0602 129.08C68.8889 126.923 64.1629 124.032 60.1264 119.963C59.6819 119.514 59.2413 119.057 58.8484 118.578C57.626 117.083 56.434 115.432 57.3555 113.893C58.2466 112.401 60.0454 113.537 61.4631 114.028C69.6134 116.823 76.5476 121.798 82.9094 127.756C84.7453 129.475 86.5773 131.202 88.4279 132.94C89.8781 132.221 90.4727 130.92 91.3855 129.91C92.0683 129.151 91.4959 128.381 90.8962 127.533C86.6732 121.589 84.3307 115.188 82.2019 108.736C81.6916 107.187 82.0015 105.945 83.2328 105.371C84.5033 104.779 85.8624 105.683 86.9217 106.76C91.9197 111.847 93.9567 117.56 94.2213 123.637C94.2533 124.349 93.7344 125.12 95.0126 126.052C96.7842 123.15 99.272 120.854 101.528 118.358C101.912 117.935 101.62 117.317 101.464 116.765C100.024 111.704 100.358 106.953 101.044 102.275C101.138 101.613 101.42 100.997 101.707 100.408C102.073 99.6532 102.612 99.0934 103.741 99.34C104.829 99.5723 105.438 100.318 105.846 101.21C106.989 103.708 107.084 106.135 106.872 108.532C106.783 109.518 106.671 110.502 106.562 111.563C108.092 112.227 108.721 111.359 109.437 110.712C116.123 104.71 123.145 99.0729 130.799 94.1134C131.17 93.8715 131.517 93.5944 131.911 93.3809C132.65 92.9762 133.457 92.5207 134.269 93.6893C134.961 94.6785 134.573 95.2983 133.757 95.784C129.848 98.0974 126.191 100.714 122.728 103.534C117.687 107.633 112.573 111.663 107.984 116.221C107.74 116.463 107.553 116.759 106.992 117.458C109.712 117.187 111.888 116.984 114.051 116.747C117.884 116.325 121.782 116.192 125.807 116.62C128.09 116.863 130.269 117.813 132.416 118.871C133.598 119.455 134.113 120.482 134.184 121.57C134.25 122.598 133.445 123.025 132.552 123.113C123.554 124.001 114.513 124.654 104.872 121.177C104.124 120.908 103.535 120.755 103.081 121.243C100.581 123.945 97.8872 126.49 95.8344 129.612C97.0422 130.492 97.9777 130.154 98.9069 130.102C103.205 129.862 107.377 129.179 111.781 129.303C114.96 129.393 118.123 129.835 121.303 131.225C123.738 132.288 125.512 134.261 125.346 135.925C125.109 138.323 123.091 138.478 120.988 138.083C112.672 136.533 104.309 135.563 96.1203 131.746C94.189 130.846 92.6472 132.092 91.8893 135.11C94.6849 136.098 97.4924 137.026 100.264 138.086C106.454 140.444 112.326 143.454 117.154 148.409C117.908 149.18 118.646 149.983 119.295 150.83C120.363 152.233 121.771 153.757 120.632 155.223C119.49 156.697 117.544 156.089 115.836 155.298C110.591 152.868 105.84 149.55 101.493 145.652C97.9992 142.519 94.6162 139.263 91.0546 135.942C89.4943 136.758 88.7406 138.194 87.9248 139.884C93.1761 142.981 97.2729 147.086 100.713 151.803C103.443 155.545 106.018 159.341 107.585 163.51C107.865 164.259 108.515 165.126 107.652 165.656C106.817 166.166 105.863 166.075 104.825 165.47C103.864 164.916 103.104 164.156 102.359 163.369C96.682 157.352 91.9777 150.839 88.4582 143.725C88.0883 142.974 87.8842 142.123 86.832 141.438C84.5353 143.751 83.0598 146.667 81.4175 149.458C81.0426 150.101 81.5556 150.606 82.0939 151.157C85.9403 155.087 86.2432 156.436 84.2364 160.314C79.7276 155.851 74.5019 152.56 68.8132 150.037L68.8025 150.01Z" fill="#8AB979"/>
<path d="M65.5258 155.792C70.9188 158.115 75.8727 161.146 80.1469 165.256C83.1205 168.414 85.9785 171.618 88.027 175.314C90.3984 179.601 91.5301 183.929 91.9407 188.318C92.1291 190.319 90.9634 191.327 88.7099 191.296C86.1403 188.222 84.1062 185.004 83.9535 181.155C82.0732 181.707 83.0238 183.855 81.3849 184.208C81.2945 183.832 81.1816 183.597 81.2072 183.406C81.3644 182.117 81.0229 181.144 79.2981 180.64C77.4455 180.095 77.2686 181.246 76.8997 182.28C76.6487 182.98 76.7656 183.954 75.5236 184.153C74.852 181.12 78.3334 178.31 73.8212 175.259C71.793 176.983 72.0889 180.041 70.0617 181.653C70.5854 178.741 71.476 176.029 72.3453 173.313C72.5072 172.806 72.8199 172.241 72.1586 171.693C71.5445 171.186 70.9413 171.428 70.3751 171.587C69.2716 171.895 68.5052 172.525 68.0336 173.481C67.3429 174.878 66.6389 176.267 65.8644 177.616C65.5296 178.201 65.428 179.109 64.2706 178.915C63.7406 178.204 64.1957 177.774 64.4092 177.311C64.8939 176.264 65.4623 175.265 65.9602 174.226C66.3589 173.387 66.6128 172.473 65.31 171.712C64.067 170.99 63.1271 171.271 62.5315 172.179C62.0905 172.857 61.7647 173.611 61.3211 174.283C60.8619 174.974 60.7944 176.015 59.3686 176.159C59.1971 174.125 60.5539 172.96 61.1772 171.472C61.5714 170.532 61.9353 169.551 60.6349 168.73C59.1885 167.816 59.0798 169.198 58.4737 169.72C57.4703 170.583 57.2606 172.203 55.2567 172.584C56.139 169.064 60.8882 167.225 57.4577 162.337C54.6748 163.998 53.0523 166.737 49.9567 167.864C50.3443 165.981 52.64 165.427 52.8197 163.381C48.9796 162.142 47.4126 165.049 44.6914 166.066C44.3851 164.498 45.8575 164.287 45.4507 162.868C42.9839 161.751 40.0242 161.586 37.6094 159.71C38.9093 156.545 42.1214 155.48 45.3335 154.547C50.8967 152.932 56.8891 153.242 63.1697 155.231C63.9428 155.478 64.7198 155.948 65.5145 155.781L65.5258 155.792Z" fill="#EF7FA0"/>
<path d="M36.6315 161.445C39.0498 163.321 42.0072 163.483 44.4782 164.608C44.8853 166.029 43.4076 166.238 43.7185 167.81C46.4372 166.79 48.0096 163.881 51.8524 165.122C51.6726 167.171 49.3753 167.726 48.9875 169.611C52.0852 168.482 53.7089 165.74 56.4936 164.076C59.9266 168.971 55.1741 170.813 54.2912 174.338C56.299 173.963 56.5108 172.337 57.5105 171.47C58.1188 170.944 58.2213 169.56 59.6732 170.479C60.9789 171.303 60.6103 172.283 60.2158 173.225C59.5921 174.715 58.2388 175.884 58.406 177.919C59.8303 177.768 59.9003 176.732 60.3599 176.04C60.8057 175.363 61.1317 174.608 61.5711 173.932C62.1672 173.023 63.1096 172.739 64.3515 173.465C65.6572 174.223 65.4031 175.138 65.0023 175.982C64.504 177.023 63.9352 178.023 63.4502 179.072C63.2384 179.532 62.783 179.963 63.3115 180.679C64.4672 180.866 64.5714 179.963 64.9064 179.377C65.6814 178.027 66.3859 176.636 67.0771 175.236C67.549 174.279 68.3159 173.648 69.4201 173.34C69.9849 173.184 70.5904 172.938 71.2049 173.446C71.8668 173.995 71.5537 174.56 71.3918 175.068C70.5201 177.792 69.6307 180.505 69.1067 183.421C71.1334 181.81 70.8391 178.743 72.8688 177.017C77.3841 180.073 73.9003 182.887 74.5724 185.924C75.8127 185.718 75.7002 184.746 75.9495 184.049C76.3186 183.013 76.4912 181.858 78.3495 182.406C80.0799 182.913 80.4154 183.889 80.26 185.176C80.2344 185.368 80.3492 185.599 80.4378 185.98C82.0779 185.625 81.1247 183.478 83.0082 182.922C83.1673 186.776 85.201 190.002 87.768 193.078C85.3636 193.002 83.1854 191.878 81.0901 190.562C79.831 189.769 79.0343 189.687 78.5281 190.897C77.1387 194.237 73.8659 194.766 70.0897 193.893C66.2316 193.001 63.309 190.65 61.873 186.961C61.7328 186.603 61.6027 186.236 61.4373 185.881C61.3755 185.746 61.2318 185.625 61.0729 185.434C59.8646 185.028 58.8417 185.478 57.7449 185.607C55.4328 185.871 53.0988 185.672 50.6966 184.723C45.9747 182.854 43.4867 178.846 45.0109 175.04C45.72 173.266 45.0566 172.401 43.2546 171.546C40.8333 170.403 38.7113 168.874 37.2096 166.708C35.94 164.88 35.1357 163.031 36.6454 161.463L36.6315 161.445Z" fill="#EF9AB3"/>
<path d="M46.9306 196.739C47.5396 195.872 48.415 195.636 49.5806 196.369C50.6779 197.061 51.1927 197.975 50.7584 199C50.3209 200.044 49.4362 200.17 48.2154 199.534C46.829 198.814 46.6435 197.837 46.928 196.733L46.9306 196.739Z" fill="#EF9AB3"/>
<path d="M50.2599 216.597C49.2252 215.901 48.6918 215.029 49.1917 214.142C49.67 213.298 50.4975 212.786 51.778 213.608C52.8035 214.263 53.2754 215.069 52.8273 216.042C52.344 217.083 51.4362 217.168 50.2599 216.597Z" fill="#EF9AB3"/>
<path d="M64.908 200.834C64.363 201.681 63.6472 201.961 62.5025 201.254C61.4814 200.621 60.8874 199.911 61.5226 198.993C62.0024 198.297 62.5567 197.491 63.7701 198.239C64.8298 198.89 65.3764 199.821 64.908 200.834Z" fill="#EF9AB3"/>
<path d="M84.9071 120.614C85.5004 122.584 85.2992 124.429 85.0766 126.246C84.6604 129.652 83.5755 132.71 80.999 134.925C80.4565 135.393 79.8407 135.774 79.1567 136.045C77.4437 136.728 75.4847 135.918 74.1431 134.032C73.9101 133.702 73.7723 133.186 73.2703 133.195C72.8404 133.202 72.912 133.673 72.8201 133.979C71.6481 137.968 69.9137 141.6 66.7643 144.319C64.8179 145.999 62.6067 147.329 59.8742 147.922C54.7867 149.029 50.5354 146.467 47.8288 141.681C45.7675 138.036 45.2724 134.422 46.1794 130.937C46.2687 130.59 46.2976 130.222 46.3422 129.859C46.3499 129.809 46.2707 129.733 46.2026 129.623C45.4504 129.819 45.0176 130.397 44.4536 130.803C41.713 132.773 38.7769 134.454 35.0431 134.862C32.2832 135.162 29.4503 134.832 26.8285 132.879C23.7135 130.56 22.3986 126.835 23.2836 123.347C23.9467 120.729 25.3357 118.566 27.0686 116.622C27.2728 116.397 27.7188 116.198 27.4488 115.835C27.1814 115.48 26.7723 115.711 26.4378 115.775C23.892 116.246 21.3123 116.391 18.5061 115.178C14.2015 113.319 12.0454 109.594 13.1475 105.81C14.4094 101.484 17.32 98.515 21.318 96.4613C22.3482 95.9315 23.4361 95.4852 24.4955 95.0023C24.9799 95.0622 25.4228 94.9149 25.3083 94.4573C25.1965 94.0061 24.6511 94.0532 24.264 94.0114C24.1628 94.0008 24.0727 94.061 23.9806 94.0903C21.3927 93.5593 18.9609 92.5976 16.8514 90.6967C15.0384 89.0603 14.4321 86.9886 15.1819 85.1478C16.3474 82.2899 18.9263 80.8662 21.7096 79.6673C25.2417 78.1518 29.2389 77.7953 33.3809 77.8255C33.558 77.8267 33.7454 77.8884 33.929 77.9231C33.8326 78.2608 33.4428 78.2125 33.1841 78.3357C31.2923 79.2287 29.8074 80.4712 29.8121 82.7688C29.8149 85.312 31.4795 87.1912 33.7413 88.8072C35.4307 90.0152 37.3823 90.4013 39.1592 91.3353C38.4053 91.8116 37.4722 91.9794 36.5644 92.1672C35.4257 92.4008 34.3156 92.6711 32.9613 92.2291C31.8437 91.8682 31.0729 92.3888 30.6889 93.252C30.3282 94.0698 30.8146 95.1525 31.6443 95.5551C32.7153 96.0759 34.1406 95.8147 34.2567 94.931C34.4226 93.6277 35.4272 93.6897 36.5128 93.7554C36.0516 94.6074 35.1271 95.0468 34.5504 95.8008C33.2124 97.5646 32.0644 99.3966 32.6016 101.995C32.2941 101.798 32.0127 101.838 31.7592 101.94C30.2978 102.525 28.8935 103.08 26.9571 102.076C26.1663 101.667 25.2342 102.364 25.0894 103.142C24.9381 103.955 25.5433 105.222 26.2855 105.622C27.1931 106.115 28.3454 106.097 28.6978 105.353C29.4484 103.764 31.1954 103.649 32.7353 103.199C32.8632 103.388 33.0105 103.574 33.1151 103.775C34.4461 106.315 36.6538 107.632 39.3281 108.422C40.506 108.769 41.5992 108.509 42.7584 108.904C41.9749 109.876 40.7528 110.411 39.8922 111.302C39.3614 111.852 38.7091 112.003 37.8056 111.814C36.6984 111.582 35.9977 112.07 35.9204 112.947C35.8477 113.793 36.6167 114.717 37.7207 115.07C38.8046 115.416 39.3419 114.9 39.5029 114.102C39.6309 113.472 39.9808 113.067 40.4183 112.7C41.152 112.078 41.9578 111.524 42.6591 110.874C43.4038 110.184 44.4956 109.834 44.9354 108.851L44.9315 108.859C45.1228 108.913 45.1357 108.842 45.028 108.694C47.2496 108.45 49.2953 107.846 51.2611 107.085C52.0093 106.793 52.7796 106.539 53.457 106.131C53.6379 106.021 53.9154 105.919 54.16 106.157C54.3767 106.37 54.1531 106.528 54.1189 106.71C53.9546 107.526 53.5193 108.201 53.2396 108.953C52.6666 110.484 52.0158 111.994 52.0552 113.774C51.7366 113.575 51.5817 113.75 51.4171 113.909C49.7327 115.517 47.9723 117.066 46.3988 118.769C45.8758 119.338 45.4868 119.472 44.6344 119.16C43.424 118.714 42.6538 119.038 42.4702 119.961C42.2724 120.934 43.0308 121.452 43.8878 121.906C44.8894 122.435 45.8044 122.325 46.2163 121.558C47.5384 119.098 49.7786 117.435 51.7943 115.574C51.995 116.117 52.2373 116.66 52.39 117.205C52.8391 118.833 54.0065 119.87 55.7167 120.103C56.8692 120.258 57.8223 119.924 58.7741 119.57C59.2267 119.404 59.5701 118.965 60.2285 119.252C60.5428 119.862 60.0877 120.229 59.935 120.642C59.3581 122.181 59.3917 124.042 57.8963 125.12C57.1735 125.639 57.7973 126.547 58.3184 127.216C58.7851 127.818 59.4206 127.745 59.9419 127.526C60.6991 127.205 61.1073 126.583 60.6573 125.729C60.2989 125.043 60.2992 124.5 60.4617 123.93C60.8745 122.492 61.3457 121.078 61.6872 119.617C61.8056 119.11 62.3799 118.661 61.7822 117.956C62.3157 117.586 62.8797 117.249 63.3716 116.845C64.2369 116.128 65.0555 115.365 65.9046 114.634C66.0887 114.471 66.2837 114.207 66.6204 114.416C66.8819 114.576 66.8399 114.877 66.8329 115.11C66.8196 115.62 66.7817 116.121 66.7418 116.625C66.4426 120.391 66.7251 124.2 68.5985 128.083C70.6784 132.395 73.419 133.47 76.7768 132.098C79.4019 131.023 81.295 129.089 82.5898 126.649C83.5984 124.754 84.4882 122.813 84.9012 120.625L84.9071 120.614Z" fill="#EF9AB3"/>
<path d="M85.7982 118.104C85.3885 120.263 84.506 122.177 83.5058 124.046C82.2216 126.453 80.3487 128.363 77.7408 129.421C74.4154 130.777 71.6975 129.716 69.6306 125.46C67.7709 121.634 67.4928 117.872 67.7896 114.158C67.8292 113.66 67.8624 113.164 67.8801 112.663C67.887 112.434 67.9332 112.14 67.6694 111.979C67.331 111.77 67.142 112.034 66.9595 112.194C66.1174 112.915 65.3056 113.668 64.4475 114.374C63.9576 114.777 63.3983 115.11 62.8712 115.471C62.2733 115.81 61.759 116.237 61.3349 116.751C60.6819 116.469 60.3413 116.901 59.8925 117.065C58.9486 117.414 58.0015 117.747 56.8605 117.591C55.1644 117.361 54.0068 116.338 53.5615 114.732C53.412 114.191 53.1698 113.659 52.9708 113.123C53.3017 112.607 53.1572 111.943 53.2295 111.348C53.1906 109.592 53.836 108.103 54.4043 106.593C54.6817 105.851 55.1135 105.185 55.2763 104.381C55.3103 104.201 55.5321 104.044 55.3172 103.835C55.0746 103.6 54.7975 103.704 54.62 103.809C53.9482 104.211 53.1888 104.465 52.4423 104.75C50.4909 105.504 48.4622 106.1 46.2609 106.337C46.2275 106.39 46.1941 106.443 46.1607 106.497L46.169 106.492C45.3907 106.281 44.6807 106.36 44.0036 106.545C42.8586 106.157 41.77 106.412 40.6019 106.069C37.9543 105.293 35.765 103.993 34.4406 101.485C34.3369 101.288 34.1889 101.108 34.064 100.917C34.3159 100.555 33.9394 100.124 33.936 99.7321C33.4032 97.1692 34.5418 95.3623 35.8688 93.6225C36.4427 92.8751 37.355 92.4391 37.815 91.605C38.9267 91.2378 39.8267 90.5754 40.8264 90.0497C41.0907 89.9133 41.6496 89.9116 41.4435 89.4689C41.2529 89.0645 40.7848 89.2658 40.4388 89.2079C38.6812 88.2892 36.7458 87.9083 35.0659 86.7141C32.823 85.12 31.1723 83.2664 31.1695 80.7577C31.1669 78.4877 32.6376 77.2659 34.5138 76.3852C34.7703 76.2637 35.1568 76.3114 35.2525 75.9783C35.3534 75.9647 35.4525 75.9549 35.5534 75.9414C41.184 74.8875 46.9689 75.9349 52.8157 78.4208C57.2036 80.2856 61.454 82.4734 65.2863 85.5053C65.7451 85.8681 66.1286 86.3424 66.705 86.5457C66.8327 87.1856 67.521 87.4451 67.8943 87.9279C69.831 90.4222 72.2163 92.514 74.7931 94.4168C75.5961 95.0116 76.0462 95.9145 76.9539 96.386C78.3969 98.278 79.9782 100.096 81.2373 102.093C84.5396 107.335 86.2734 112.645 85.7905 118.085L85.7982 118.104ZM75.5745 106.258C76.17 105.173 76.77 104.091 76.9159 102.784C76.9562 102.399 77.1302 101.937 76.5294 101.69C75.944 101.448 75.9417 101.987 75.8107 102.274C75.3226 103.345 74.8795 104.442 74.3958 105.515C74.094 106.18 73.7162 106.809 73.4323 107.484C73.3122 107.773 73.3054 108.173 73.7583 108.411C74.1958 108.644 74.4503 108.424 74.6109 108.125C74.9398 107.51 75.2507 106.885 75.5725 106.262L75.5745 106.258ZM78.0457 107.865C77.9706 108.147 77.8975 108.425 77.8269 108.71C77.5241 109.968 77.2193 111.229 76.9255 112.492C76.8402 112.851 76.9568 113.182 77.3923 113.385C77.7275 113.544 78.0072 113.446 78.0894 113.173C78.583 111.58 79.0875 109.988 79.3277 108.294C79.3719 107.97 79.2347 107.656 78.8519 107.498C78.3959 107.312 78.1812 107.546 78.0502 107.868L78.0457 107.865ZM69.3518 101.258C69.6755 100.393 70.2289 99.8327 70.3532 99.0346C70.3942 98.7618 70.4139 98.496 70.0402 98.3098C69.7314 98.1571 69.5385 98.2917 69.3958 98.4657C68.4203 99.6726 67.6056 100.989 67.0277 102.449C66.8973 102.782 66.857 103.201 67.353 103.469C67.8066 103.716 68.0148 103.416 68.1857 103.141C68.6065 102.474 69.0139 101.799 69.3518 101.258ZM61.4995 98.4135C61.3988 98.8361 60.9025 99.1375 61.4475 99.5609C62.0085 99.9985 62.3266 99.5872 62.612 99.3075C63.5691 98.3867 64.5165 97.4504 65.4414 96.5009C65.6773 96.2602 65.9768 95.9304 65.572 95.5312C65.2226 95.1842 64.8561 95.4161 64.5977 95.5754C63.3447 96.3414 62.3684 97.3677 61.4969 98.4071L61.4995 98.4135ZM74.1711 100.763C74.5718 99.646 74.8347 98.4428 74.9826 97.2009C75.0325 96.763 75.0277 96.249 74.4101 96.0458C73.7836 95.8373 73.7743 96.4014 73.6858 96.7435C73.3938 97.8664 73.1662 99.0125 72.8922 100.146C72.7928 100.555 72.5377 100.935 73.2505 101.272C73.9208 101.589 73.9185 101.048 74.1692 100.767L74.1711 100.763ZM69.7472 92.2568C69.6455 92.2261 69.5362 92.1762 69.4313 92.1632C67.7095 91.9032 66.1127 92.0723 64.572 92.44C64.3245 92.4985 64.1445 92.6651 64.2604 92.9525C64.3918 93.2782 64.7064 93.3856 65.0035 93.3903C66.5901 93.4002 68.1715 93.3973 69.7485 93.3918C70.0842 93.39 70.2352 93.1771 70.2228 92.8826C70.2085 92.6259 69.9923 92.4304 69.7452 92.2605L69.7472 92.2568ZM53.5263 82.5049C53.5302 82.6338 53.493 82.8651 53.5465 83.0913C53.6052 83.3303 53.8277 83.3203 53.9917 83.2757C55.3317 82.8872 56.7872 83.0486 58.2646 83.2814C58.6061 83.3366 59.0486 83.31 59.0194 82.8547C58.9954 82.4463 58.6441 82.2052 58.2478 82.1081C56.8739 81.7659 55.5271 81.6101 54.2719 81.9366C53.9736 82.014 53.7042 82.1376 53.5217 82.5023L53.5263 82.5049ZM63.083 85.6092C61.8177 85.1363 60.4722 85.103 59.1249 85.0393C58.7814 85.0219 58.4277 85.0472 58.5161 85.4789C58.5896 85.8484 58.928 86.0235 59.2811 86.0903C60.5379 86.3294 61.7934 86.5483 63.0522 86.7837C63.4008 86.8479 63.6181 86.7569 63.6881 86.4622C63.7714 86.1073 63.5308 85.8681 63.0875 85.6118L63.083 85.6092ZM61.4368 89.1274C61.5094 89.1459 61.5866 89.1671 61.6567 89.1792C63.0576 89.4009 64.4591 89.6328 65.8593 89.8444C66.1481 89.888 66.339 89.7571 66.3517 89.4822C66.3721 89.1243 66.132 88.827 65.7789 88.7261C64.3361 88.3239 62.9012 88.1113 61.5167 88.2788C61.2909 88.3065 61.1579 88.4277 61.178 88.6732C61.1916 88.8516 61.2302 89.0155 61.4348 89.1312L61.4368 89.1274Z" fill="#EF7FA0"/>
<path d="M78.7008 91.6065C77.7745 91.1202 77.3126 90.1824 76.4958 89.5755C73.8663 87.613 71.4323 85.4555 69.456 82.8828C69.0751 82.3849 68.3681 82.1145 68.2424 81.4572C70.5209 81.4785 72.7409 82.3537 74.9379 83.2503C75.7866 83.5951 76.4836 83.6386 77.16 83.2882C83.7702 79.8741 90.9796 77.5047 98.5312 75.7207C98.7576 75.6647 99.0588 75.7085 99.2619 75.1466C98.1366 75.3903 97.1121 75.2019 96.1041 75.2393C90.9402 75.4227 85.9736 76.2407 80.8156 76.4477C76.535 76.6149 72.2313 76.6629 67.7828 75.8915C66.5043 75.6724 65.2153 75.427 64.0027 74.6798C62.5348 73.7755 62.011 72.5598 62.6579 71.3284C63.6897 69.3671 65.715 68.5347 67.871 67.9157C71.3275 66.9214 75.097 66.957 78.935 67.2693C87.4417 67.957 95.97 69.5763 104.413 72.6658C106.977 73.6056 109.111 73.7569 111.34 73.2312C112.91 72.8662 114.54 72.6319 116.147 72.3382C116.59 72.256 117.113 71.9949 117.483 72.5265C117.884 73.1018 117.514 73.6394 117.087 73.8172C115.779 74.3733 115.314 75.5879 114.592 76.6141C113.08 78.7764 111.99 81.2048 110.782 83.5582C108.663 87.6836 106.684 91.8978 104.044 95.6931C102.266 98.2488 100.476 100.803 97.9785 102.77C97.1743 103.406 96.3425 103.99 95.2126 104.161C93.3818 104.436 91.6559 103.368 91.0352 101.533C90.36 99.5338 90.7041 97.7454 91.1584 95.9875C92.2989 91.5605 94.7681 88.005 97.9477 84.9479C101.235 81.7846 104.777 78.8876 108.675 76.3591C108.881 76.2257 109.369 76.1043 109.128 75.7302C108.861 75.3149 108.425 75.5823 108.152 75.6356C103.945 76.4443 99.785 77.361 95.7163 78.4627C89.4718 80.1516 83.659 82.5443 78.0274 85.2508C77.1221 85.6857 76.9938 86.2068 77.6244 87.1547C78.0375 87.7773 78.3844 88.4358 78.6828 89.0954C79.0869 89.9938 79.22 90.8714 78.7099 91.612L78.7008 91.6065Z" fill="#6BB194"/>
<path d="M26.0598 95.4629C26.1524 95.4333 26.2476 95.3755 26.3449 95.3835C26.7299 95.4231 27.2812 95.3824 27.3959 95.8336C27.5112 96.2952 27.0657 96.4435 26.5782 96.3828C26.553 96.0246 26.3322 95.7342 26.0618 95.4591L26.0598 95.4629Z" fill="#FFC1D3"/>
<path d="M52.0739 113.558C51.9896 114.203 52.1484 114.926 51.7971 115.48C49.6629 117.466 47.2911 119.242 45.8909 121.868C45.4545 122.688 44.486 122.804 43.426 122.239C42.5239 121.757 41.7214 121.203 41.9263 120.16C42.123 119.171 42.9363 118.83 44.2173 119.306C45.1194 119.64 45.5312 119.497 46.085 118.89C47.7511 117.071 49.6149 115.418 51.3985 113.702C51.5728 113.532 51.7368 113.346 52.0739 113.558Z" fill="#FFC1D3"/>
<path d="M41.4384 91.1588C41.796 91.2195 42.2798 91.0085 42.4767 91.4324C42.6897 91.8964 42.1141 91.8942 41.839 92.0411C40.8059 92.592 39.8758 93.2862 38.7269 93.6711C37.6162 93.5992 36.5867 93.535 36.4147 94.8863C36.3002 95.8026 34.8368 96.0659 33.7372 95.5312C32.8823 95.1122 32.3865 93.9995 32.7582 93.1502C33.1492 92.2512 33.9438 91.7158 35.0871 92.093C36.4771 92.5461 37.6128 92.2707 38.7798 92.0292C39.7101 91.8352 40.6664 91.6618 41.4391 91.1694L41.4384 91.1588Z" fill="#FFC1D3"/>
<path d="M43.2432 109.302C43.96 109.1 44.7047 109.013 45.5289 109.246C45.0684 110.285 43.9206 110.652 43.1456 111.383C42.4114 112.071 41.5678 112.657 40.7996 113.313C40.3416 113.702 39.9731 114.134 39.841 114.796C39.6723 115.639 39.105 116.182 37.9752 115.818C36.8197 115.445 36.0128 114.471 36.0912 113.574C36.1675 112.643 36.9011 112.128 38.0648 112.375C39.0105 112.576 39.6934 112.416 40.2491 111.836C41.1503 110.893 42.4277 110.332 43.25 109.301L43.2432 109.302Z" fill="#FFC1D3"/>
<path d="M33.8691 103.438C33.8727 103.846 34.2619 104.291 34.0009 104.673C32.4254 105.133 30.6432 105.251 29.8775 106.884C29.5181 107.649 28.3425 107.667 27.4167 107.16C26.6643 106.752 26.0423 105.447 26.1966 104.611C26.347 103.818 27.2952 103.095 28.1019 103.516C30.0752 104.552 31.5144 103.98 33.0005 103.376C33.2591 103.271 33.5462 103.23 33.8599 103.432L33.8691 103.438Z" fill="#FFC1D3"/>
<path d="M59.354 117.608C59.8163 117.042 60.3767 116.573 61.0282 116.2C61.6685 116.962 61.0548 117.449 60.9245 118.003C60.5526 119.593 60.0426 121.127 59.5978 122.684C59.4199 123.307 59.4192 123.896 59.808 124.637C60.2886 125.562 59.8472 126.236 59.034 126.587C58.4708 126.825 57.7843 126.903 57.2806 126.249C56.7202 125.518 56.0449 124.537 56.8259 123.973C58.442 122.804 58.4048 120.788 59.0311 119.114C59.1985 118.662 59.693 118.271 59.3491 117.605L59.354 117.608Z" fill="#FFC1D3"/>
<path d="M45.5189 108.563C45.554 108.506 45.5892 108.45 45.6243 108.393C45.7394 108.55 45.7263 108.625 45.5189 108.563Z" fill="#FFC1D3"/>
<path d="M75.2458 104.476C74.8869 105.17 74.5331 105.867 74.1671 106.562C73.992 106.901 73.7017 107.144 73.2122 106.881C72.7126 106.613 72.7157 106.162 72.8483 105.842C73.1668 105.085 73.5883 104.385 73.9292 103.636C74.4719 102.434 74.9692 101.205 75.5169 100.006C75.6639 99.683 75.6721 99.0817 76.3222 99.3519C76.9924 99.6339 76.7992 100.148 76.7537 100.579C76.5889 102.043 75.921 103.259 75.248 104.472L75.2458 104.476Z" fill="#C7386C"/>
<path d="M77.1599 105.771C77.3023 105.418 77.5355 105.162 78.0306 105.366C78.446 105.539 78.5969 105.881 78.5466 106.241C78.2898 108.103 77.7412 109.85 77.1995 111.596C77.1081 111.899 76.8064 112.003 76.4427 111.828C75.9748 111.608 75.8436 111.241 75.9364 110.847C76.2561 109.461 76.5876 108.076 76.917 106.696C76.9917 106.387 77.0734 106.078 77.155 105.768L77.1599 105.771Z" fill="#C7386C"/>
<path d="M69.4533 99.8936C69.0821 100.5 68.6236 101.25 68.1551 101.994C67.9649 102.299 67.7282 102.632 67.2293 102.358C66.6803 102.054 66.7233 101.59 66.8686 101.219C67.5124 99.5902 68.4193 98.1224 69.5049 96.7769C69.6637 96.583 69.8732 96.43 70.2213 96.6039C70.6366 96.8123 70.6193 97.1119 70.5685 97.4133C70.4295 98.3039 69.8138 98.928 69.4533 99.8936Z" fill="#C7386C"/>
<path d="M61.6768 97.4818C62.6144 96.3518 63.6691 95.228 65.0199 94.3928C65.2985 94.2191 65.6935 93.9661 66.0699 94.3452C66.506 94.7813 66.1782 95.1382 65.9287 95.4037C64.9315 96.4396 63.9101 97.461 62.8782 98.4655C62.5677 98.7637 62.2275 99.2195 61.623 98.7413C61.0379 98.2747 61.5709 97.95 61.6796 97.4887L61.6768 97.4818Z" fill="#C7386C"/>
<path d="M74.4531 98.6568C74.1822 98.9636 74.1844 99.5559 73.4605 99.2087C72.6908 98.8393 72.9665 98.4236 73.0741 97.9767C73.3733 96.7444 73.6218 95.487 73.9328 94.2564C74.0286 93.8823 74.0389 93.2655 74.7155 93.494C75.3824 93.7167 75.3874 94.2788 75.3333 94.7576C75.173 96.1156 74.8884 97.4312 74.4551 98.6527L74.4531 98.6568Z" fill="#C7386C"/>
<path d="M70.5884 90.3257C70.8379 90.4984 71.0563 90.6971 71.0708 90.9581C71.0833 91.2574 70.9308 91.4738 70.5917 91.4756C68.9969 91.4851 67.3969 91.4816 65.7989 91.4743C65.4923 91.4707 65.1791 91.3642 65.0483 91.0293C64.9312 90.7373 65.113 90.5679 65.3631 90.5084C66.9193 90.1346 68.5322 89.9627 70.2713 90.2268C70.3818 90.2428 70.4922 90.2934 70.5903 90.3219L70.5884 90.3257Z" fill="#C7386C"/>
<path d="M55.2567 81.1777C55.4432 80.8024 55.7157 80.6764 56.0155 80.6014C57.2851 80.2688 58.6519 80.4301 60.0371 80.7759C60.4314 80.8759 60.7886 81.1177 60.8175 81.5364C60.8452 82.004 60.3996 82.0272 60.0541 81.971C58.5532 81.7351 57.083 81.567 55.7321 81.9655C55.5662 82.0109 55.3412 82.0211 55.2818 81.7777C55.2251 81.5407 55.2607 81.309 55.2613 81.1804L55.2567 81.1777Z" fill="#C7386C"/>
<path d="M64.559 83.905C65.0007 84.1597 65.2424 84.3936 65.1574 84.7499C65.0877 85.0427 64.8692 85.1368 64.5238 85.0693C63.2697 84.8354 62.0188 84.6179 60.7666 84.3803C60.4148 84.3139 60.0776 84.14 60.0044 83.7729C59.9208 83.3466 60.2732 83.3215 60.6109 83.3361C61.9534 83.3994 63.2939 83.4326 64.5545 83.9024L64.559 83.905Z" fill="#C7386C"/>
<path d="M62.6166 87.3362C62.4101 87.2243 62.3779 87.0594 62.3598 86.8785C62.3397 86.6332 62.4727 86.5121 62.6984 86.4844C64.0823 86.317 65.5148 86.5332 66.9589 86.9314C67.3119 87.0323 67.5518 87.3293 67.5315 87.687C67.5143 87.959 67.3234 88.0898 67.0393 88.0489C65.6396 87.8374 64.2368 87.6095 62.8384 87.3842C62.7638 87.3694 62.6911 87.3509 62.6185 87.3325L62.6166 87.3362Z" fill="#C7386C"/>
<path d="M38.2656 44.2674C36.8086 43.6628 35.5141 42.8588 34.8302 40.9495C39.4103 41.8664 44.025 40.9757 48.5775 41.4943C53.2813 42.0329 56.7681 45.5292 61.4046 47.0443C61.4044 45.2973 60.4265 44.7905 59.7225 44.1627C56.58 41.3877 53.7054 38.3347 50.8834 35.2358C50.209 34.4935 49.3536 33.8326 49.2637 32.6791C49.5016 32.4382 49.7369 32.1897 49.9748 31.9488C51.2249 32.4813 51.9846 33.5786 52.8618 34.5452C63.775 46.6095 76.5283 55.8883 92.0553 60.9343C94.2208 61.6358 96.3972 62.4709 99.605 62.226C92.5352 53.8714 84.9 47.0481 77.1672 40.3264C77.3023 40.1847 77.4401 40.0507 77.5728 39.9142C82.528 42.0744 86.1209 46.0511 89.956 49.6605C92.7906 52.3286 95.7915 55.0109 97.8688 58.2719C101.599 64.1245 107.132 64.3354 113.02 64.1361C113.202 64.1318 113.382 64.0502 113.566 64.0021C113.874 64.0832 114.005 64.0422 113.761 63.7216C108.567 59.978 102.779 57.084 98.1948 52.4593C94.3556 48.5847 91.5701 43.9874 89.0912 39.2651C89.9135 38.157 90.6033 38.5149 91.2927 38.8083C91.4069 40.2367 92.1934 41.1861 93.1915 42.1198C96.0386 44.7874 98.7757 47.5828 101.573 50.3038C104.086 52.7495 106.082 55.8435 109.613 57.0294C112.343 62.4482 116.857 64.5735 122.729 64.1094C126.752 63.7873 130.778 63.4342 134.791 62.9914C135.841 62.877 137.035 62.9014 138.329 61.4894C129.3 60.6041 121.595 57.6588 115.974 50.6435C120.653 52.0694 125.174 53.8002 129.511 56.1435C132.013 57.4919 134.53 59.4067 137.764 58.8207C144.414 62.1794 150.307 58.9059 156.266 56.0679C157.903 55.2871 159.369 53.9305 161.425 53.9894C161.219 55.3628 160.157 55.5936 159.414 56.052C155.494 58.478 151.411 60.6473 146.986 61.7369C141.925 62.9821 137.503 65.4605 133.172 68.322C131.273 69.5765 130.648 71.6898 129.264 73.265C127.667 73.686 126.317 74.5127 125.208 75.794C122.616 78.783 119.724 81.3866 116.3 83.366C115.268 83.9642 114.141 84.6587 113.819 86.0288C111.244 86.309 112.15 84.971 113.059 83.9678C115.972 80.745 119.063 77.7217 122.752 75.392C124.489 74.2983 126.106 73.0132 127.634 71.5254C120.876 73.3886 114.458 76.414 107.46 76.8794C107.422 76.4505 107.387 76.0164 107.349 75.5875C116.893 73.6654 125.987 70.3559 134.859 66.0036C134.127 64.5084 133.188 65.0798 132.471 65.1713C119.673 66.732 107.019 66.5814 94.5467 63.5045C89.592 62.2823 84.4765 63.2511 79.4286 63.3208C78.5395 61.1925 76.5098 61.7433 74.8837 61.5213C68.9441 60.7202 62.9489 61.6141 56.9739 61.6569C55.2434 61.6682 53.4508 60.9887 51.7335 61.9632C50.0282 61.1257 50.3125 60.2002 51.9428 59.8526C59.8781 58.1794 67.8213 56.1374 75.7374 59.3297C78.0579 60.265 80.4952 60.915 82.9148 61.576C84.0225 61.8743 85.2228 62.0943 86.8526 61.2262C84.4374 60.0472 82.4109 58.9874 80.3222 58.0588C74.7859 55.6114 70.1296 51.5692 64.4786 49.3116C61.9384 48.2919 59.2271 48.1676 56.6137 47.5371C56.0706 46.4265 55.0936 46.0743 53.9609 45.7898C50.5399 44.9193 46.9962 45.0249 43.5151 44.6462C41.7809 44.4566 40.1368 42.8903 38.2506 44.2731L38.2656 44.2674Z" fill="#6BA270"/>
<path d="M49.0866 31.5311C48.8565 31.7715 48.6189 32.0147 48.3838 32.2527C45.074 33.2792 41.7621 34.3744 38.4584 32.5802C37.6618 32.1471 36.8601 31.6989 36.1375 31.1484C35.1624 30.4089 34.2859 29.5002 34.6984 28.0896C35.0914 26.7587 36.2224 26.0362 37.4518 25.982C39.5597 25.892 40.8454 25.2426 40.5748 22.7989C40.5406 22.4718 40.7882 21.8082 40.9449 21.787C43.5467 21.4543 44.5271 18.8079 46.4625 17.7164C48.2564 16.7041 49.8229 18.1288 50.679 19.8019C52.1242 22.6288 52.0244 25.5829 50.6374 28.5195C50.1554 29.5357 49.6085 30.5211 49.0891 31.5259L49.0866 31.5311Z" fill="#EF7FA0"/>
<path d="M77.0244 39.8284C76.8934 39.9631 76.755 40.1005 76.624 40.2351C73.9218 41.5578 71.2546 42.9351 68.1469 42.0765C66.3465 41.5751 64.3007 41.2051 64.0045 38.9993C63.7212 36.8821 65.3798 36.087 67.1653 35.7194C67.3416 35.6823 67.6614 35.5354 67.6538 35.5001C67.0305 32.1957 70.6707 31.4171 71.4596 28.9821C72.3731 26.1687 74.1453 25.6745 76.1338 27.7348C78.55 30.2442 78.9825 33.2304 77.9877 36.6012C77.6708 37.681 76.8433 38.6149 77.022 39.8336L77.0244 39.8284Z" fill="#EF7FA0"/>
<path d="M107.782 75.0978C107.817 75.527 107.854 75.951 107.891 76.375C107.182 80.46 104.788 82.9809 100.954 84.168C99.8421 84.5132 98.717 84.6807 97.8594 83.7044C97.0419 82.7724 96.9186 81.7046 97.642 80.5793C98.1358 79.8091 98.4751 79.0422 97.6339 78.3149C96.6349 77.456 96.5939 76.3953 97.1702 75.245C97.5692 74.4554 97.2591 73.8329 97.0008 73.1013C96.0179 70.288 97.2968 68.7264 100.248 69.0782C103.958 69.5211 106.409 71.6114 107.782 75.0851L107.782 75.0978Z" fill="#EF7FA0"/>
<path d="M109.542 57.2649C106.005 56.0768 104.003 52.9826 101.488 50.5272C98.6889 47.7961 95.9447 45.0009 93.0927 42.3285C92.093 41.3931 91.3077 40.4367 91.1908 39.0111C100.946 41.2705 106.334 48.1192 109.537 57.2625L109.542 57.2649Z" fill="#8AB696"/>
<path d="M51.7578 61.1353C53.475 60.1609 55.2675 60.8404 56.998 60.8291C62.9677 60.7839 68.9626 59.89 74.9071 60.6935C76.5281 60.9131 78.5577 60.3623 79.4519 62.4929C71.0638 64.2218 62.6787 65.6054 54.4261 62.5367C53.4794 62.1859 52.4779 61.9378 51.7604 61.143L51.7578 61.1353Z" fill="#8AB696"/>
<path d="M37.834 43.4795C39.7253 42.0927 41.374 43.6638 43.1131 43.854C46.6037 44.234 50.1547 44.1337 53.5877 45.0017C54.7211 45.2923 55.7007 45.6456 56.2479 46.7543C49.6351 48.0686 43.2649 48.1383 37.8365 43.4742L37.834 43.4795Z" fill="#8AB696"/>
<path d="M38.6599 79.5437C37.7795 80.77 36.3426 81.1587 35.2303 80.9627C33.8139 80.7114 33.4622 79.2549 33.876 77.8362C34.3277 76.3024 35.3956 75.7384 36.9063 76.1354C38.6804 76.6019 38.3228 78.237 38.6599 79.5437Z" fill="#EF9AB3"/>
<path d="M60.0221 79.4208C60.565 78.3387 61.1258 77.2334 62.4968 77.5107C63.7508 77.7661 64.7048 78.4584 64.3894 80.0194C64.1295 81.309 63.3357 82.0884 62.0295 81.8868C60.7153 81.6848 59.9734 80.8337 60.0221 79.4208Z" fill="#EF9AB3"/>
<path d="M40.2898 58.5062C39.8179 59.6809 39.0511 60.5103 37.7492 60.1637C36.4666 59.8221 35.728 58.9305 36.1191 57.4573C36.4602 56.1915 37.2363 55.3908 38.5636 55.9C39.6568 56.321 40.8306 56.8629 40.2934 58.5104L40.2898 58.5062Z" fill="#EF9AB3"/>
<path d="M68.2322 186.232C82.9068 208.911 86.9091 239.262 59.5601 250.602" stroke="#EF9AB3" stroke-linecap="round" stroke-linejoin="round" stroke-dasharray="8 8"/>
<path d="M34.9347 265.554L42.2595 260.246L44.5726 263.392L44.5726 260.246L46.8857 256.117L40.9102 258.477L32.8143 261.426L24.1402 254.938L26.4533 263.392C22.8551 264.965 16.2756 268.504 18.7429 270.076C21.2102 271.649 26.9673 269.421 29.5374 268.11L38.0188 273.615L34.9347 265.554Z" fill="#FFC1D3"/>
</svg>
