<svg width="193" height="471" viewBox="0 0 193 471" fill="none" xmlns="http://www.w3.org/2000/svg">
<path d="M65.628 167.902C64.5096 165.003 64.5804 162.213 64.6864 159.463C64.8834 154.309 66.1114 149.609 69.6468 146.03C70.391 145.274 71.2543 144.642 72.2318 144.168C74.6792 142.973 77.6733 143.996 79.8872 146.694C80.2721 147.167 80.539 147.928 81.2796 147.866C81.9141 147.813 81.7504 147.112 81.8487 146.644C83.0909 140.539 85.2083 134.916 89.5284 130.522C92.1985 127.808 95.3027 125.593 99.2677 124.434C106.65 122.269 113.246 125.697 117.833 132.616C121.326 137.884 122.501 143.262 121.588 148.584C121.499 149.113 121.501 149.668 121.48 150.219C121.475 150.294 121.601 150.401 121.715 150.559C122.803 150.19 123.371 149.28 124.155 148.615C127.963 145.387 132.095 142.574 137.563 141.592C141.604 140.87 145.831 141.087 149.944 143.76C154.832 146.934 157.232 152.397 156.352 157.721C155.694 161.717 153.906 165.101 151.584 168.191C151.31 168.549 150.676 168.892 151.119 169.41C151.558 169.917 152.134 169.53 152.621 169.401C156.325 168.443 160.119 167.971 164.414 169.516C171.003 171.882 174.646 177.261 173.482 183.051C172.148 189.67 168.212 194.415 162.556 197.893C161.099 198.79 159.546 199.567 158.04 200.397C157.316 200.355 156.68 200.619 156.905 201.295C157.126 201.962 157.926 201.837 158.503 201.862C158.654 201.868 158.78 201.768 158.912 201.715C162.801 202.257 166.513 203.461 169.863 206.107C172.743 208.385 173.893 211.436 173.011 214.274C171.64 218.679 168.004 221.071 164.038 223.146C159.004 225.769 153.142 226.699 147.017 227.062C146.756 227.077 146.471 227.003 146.196 226.969C146.297 226.453 146.878 226.487 147.246 226.276C149.931 224.749 151.973 222.737 151.684 219.288C151.368 215.47 148.678 212.813 145.137 210.61C142.493 208.963 139.561 208.576 136.821 207.348C137.877 206.559 139.235 206.215 140.554 205.844C142.207 205.381 143.815 204.865 145.87 205.395C147.566 205.827 148.641 204.969 149.102 203.635C149.535 202.372 148.683 200.795 147.408 200.272C145.762 199.596 143.688 200.128 143.624 201.466C143.539 203.44 142.047 203.446 140.435 203.454C141.012 202.129 142.324 201.378 143.084 200.19C144.844 197.409 146.316 194.546 145.203 190.698C145.682 190.963 146.093 190.875 146.455 190.697C148.542 189.674 150.549 188.702 153.534 190.019C154.753 190.555 156.045 189.417 156.163 188.235C156.287 186.999 155.237 185.157 154.091 184.63C152.69 183.979 150.989 184.12 150.56 185.271C149.646 187.73 147.078 188.075 144.858 188.903C144.646 188.631 144.405 188.367 144.226 188.076C141.948 184.394 138.524 182.633 134.475 181.712C132.692 181.307 131.108 181.806 129.347 181.326C130.385 179.79 132.126 178.866 133.288 177.443C134.005 176.566 134.95 176.274 136.309 176.469C137.973 176.708 138.949 175.906 138.955 174.581C138.959 173.305 137.709 171.993 136.035 171.572C134.39 171.16 133.66 171.987 133.52 173.201C133.408 174.159 132.941 174.801 132.339 175.397C131.331 176.402 130.209 177.314 129.252 178.359C128.236 179.467 126.666 180.101 126.137 181.62L126.141 181.609C125.852 181.546 125.842 181.654 126.019 181.866C122.766 182.45 119.817 183.56 117.006 184.895C115.936 185.407 114.829 185.865 113.878 186.545C113.624 186.728 113.227 186.909 112.836 186.574C112.49 186.277 112.801 186.017 112.829 185.74C112.972 184.499 113.532 183.443 113.853 182.286C114.512 179.931 115.288 177.6 115.012 174.931C115.507 175.198 115.714 174.92 115.938 174.665C118.23 172.085 120.641 169.587 122.757 166.874C123.46 165.969 124.019 165.728 125.316 166.113C127.16 166.663 128.258 166.101 128.416 164.698C128.589 163.217 127.405 162.513 126.083 161.917C124.538 161.222 123.199 161.476 122.685 162.669C121.033 166.492 117.927 169.211 115.176 172.204C114.813 171.408 114.389 170.616 114.096 169.814C113.233 167.413 111.38 165.972 108.825 165.79C107.103 165.672 105.735 166.267 104.372 166.892C103.724 167.187 103.27 167.878 102.262 167.513C101.723 166.628 102.35 166.032 102.525 165.397C103.189 163.03 102.911 160.239 104.988 158.473C105.993 157.622 104.96 156.321 104.107 155.368C103.344 154.51 102.414 154.682 101.67 155.062C100.591 155.62 100.064 156.594 100.834 157.831C101.447 158.826 101.514 159.64 101.344 160.512C100.91 162.712 100.387 164.881 100.062 167.108C99.9491 167.882 99.1556 168.613 100.125 169.612C99.3823 170.22 98.5903 170.781 97.9129 171.437C96.7222 172.598 95.6063 173.825 94.4413 175.006C94.1892 175.268 93.9335 175.685 93.4102 175.404C93.0043 175.189 93.0294 174.734 93.0112 174.383C92.9682 173.616 92.9628 172.861 92.9599 172.099C92.9399 166.416 92.055 160.724 88.8103 155.079C85.2078 148.811 81.0261 147.467 76.2328 149.858C72.4856 151.731 69.9255 154.821 68.3116 158.613C67.0539 161.557 65.9771 164.559 65.6353 167.885L65.628 167.902Z" fill="#EF9AB3"/>
<path d="M64.0832 171.469C64.4206 168.186 65.4858 165.224 66.7303 162.318C68.3271 158.574 70.8542 155.52 74.571 153.673C79.3097 151.307 83.4509 152.632 87.0272 158.82C90.2445 164.384 91.1203 170.006 91.142 175.615C91.1452 176.366 91.1577 177.115 91.1935 177.869C91.2117 178.215 91.18 178.661 91.589 178.876C92.1142 179.156 92.3603 178.742 92.6099 178.483C93.7631 177.317 94.8676 176.105 96.0464 174.959C96.7192 174.306 97.5033 173.751 98.2364 173.156C99.0766 172.588 99.7825 171.895 100.345 171.081C101.343 171.44 101.792 170.758 102.434 170.467C103.783 169.849 105.14 169.255 106.842 169.377C109.373 169.555 111.208 170.977 112.064 173.345C112.351 174.143 112.774 174.918 113.134 175.703C112.71 176.511 113.005 177.494 112.972 178.395C113.247 181.029 112.479 183.33 111.827 185.654C111.51 186.796 110.955 187.839 110.814 189.063C110.787 189.337 110.479 189.594 110.822 189.887C111.209 190.217 111.605 190.032 111.854 189.857C112.795 189.186 113.884 188.73 114.95 188.227C117.736 186.902 120.656 185.806 123.874 185.233C123.917 185.15 123.959 185.067 124.002 184.983L123.99 184.991C125.165 185.23 126.203 185.042 127.179 184.697C128.916 185.166 130.491 184.676 132.257 185.075C136.259 185.979 139.65 187.715 141.915 191.352C142.092 191.638 142.333 191.893 142.54 192.167C142.214 192.737 142.822 193.347 142.876 193.935C143.979 197.732 142.523 200.558 140.78 203.303C140.026 204.482 138.734 205.228 138.158 206.526C136.564 207.188 135.318 208.272 133.908 209.16C133.535 209.391 132.71 209.449 133.069 210.094C133.4 210.682 134.066 210.334 134.584 210.386C137.291 211.592 140.193 211.973 142.82 213.601C146.326 215.773 148.991 218.394 149.306 222.162C149.59 225.572 147.572 227.552 144.913 229.061C144.549 229.269 143.973 229.235 143.873 229.745C143.726 229.776 143.581 229.8 143.434 229.83C135.256 231.971 126.592 230.969 117.657 227.814C110.953 225.447 104.411 222.581 98.3812 218.406C97.6594 217.906 97.0348 217.232 96.1592 216.984C95.8916 216.035 94.8439 215.713 94.2334 215.025C91.0674 211.47 87.2892 208.564 83.2517 205.961C81.9934 205.147 81.2176 203.835 79.8199 203.216C77.4568 200.517 74.8988 197.944 72.7938 195.067C67.2729 187.521 64.0576 179.716 64.097 171.497L64.0832 171.469ZM80.6335 188.251C79.8891 189.94 79.1378 191.625 79.0842 193.602C79.0725 194.184 78.8729 194.896 79.7899 195.207C80.6837 195.514 80.6203 194.704 80.778 194.258C81.3657 192.602 81.8837 190.91 82.4645 189.25C82.8277 188.223 83.3072 187.24 83.6425 186.198C83.7839 185.752 83.7444 185.15 83.0468 184.838C82.3725 184.531 82.0242 184.886 81.8243 185.352C81.415 186.307 81.0336 187.277 80.6359 188.245L80.6335 188.251ZM76.7886 186.082C76.8645 185.651 76.938 185.226 77.0069 184.791C77.298 182.872 77.5916 180.947 77.8688 179.021C77.9503 178.474 77.7372 177.988 77.0695 177.726C76.5554 177.521 76.1548 177.696 76.0674 178.114C75.5362 180.555 74.9887 182.996 74.844 185.564C74.8189 186.055 75.0602 186.514 75.6444 186.713C76.3404 186.947 76.6282 186.575 76.7816 186.078L76.7886 186.082ZM90.4333 195.146C90.063 196.478 89.3158 197.374 89.2311 198.585C89.2044 198.999 89.2081 199.4 89.7826 199.643C90.2571 199.842 90.525 199.62 90.714 199.345C92.004 197.436 93.0432 195.378 93.7151 193.127C93.8664 192.615 93.8739 191.981 93.1089 191.628C92.4091 191.301 92.1391 191.773 91.9209 192.202C91.3825 193.246 90.8651 194.3 90.4333 195.146ZM102.371 198.642C102.467 197.997 103.162 197.495 102.306 196.914C101.424 196.312 101.005 196.961 100.619 197.409C99.3208 198.887 98.0388 200.387 96.7917 201.905C96.4734 202.29 96.0723 202.815 96.7189 203.374C97.2774 203.861 97.7894 203.476 98.151 203.212C99.9049 201.937 101.218 200.299 102.376 198.651L102.371 198.642ZM83.3841 196.366C82.9312 198.084 82.6921 199.917 82.6277 201.797C82.6082 202.46 82.6789 203.232 83.6152 203.476C84.5654 203.727 84.5093 202.879 84.5976 202.356C84.8894 200.641 85.0835 198.896 85.3474 197.167C85.4435 196.543 85.7728 195.947 84.6794 195.511C83.6512 195.101 83.7215 195.914 83.3865 196.36L83.3841 196.366ZM90.964 208.706C91.1177 208.742 91.2853 208.806 91.4416 208.815C94.0141 209.035 96.3491 208.624 98.5769 207.919C98.9349 207.806 99.1798 207.538 98.9732 207.118C98.739 206.642 98.2616 206.512 97.8227 206.534C95.4805 206.676 93.1476 206.837 90.8216 207.001C90.3265 207.037 90.13 207.372 90.1848 207.813C90.2376 208.197 90.5808 208.469 90.9664 208.7L90.964 208.706ZM116.104 221.749C116.082 221.556 116.108 221.205 116.001 220.871C115.885 220.517 115.558 220.555 115.321 220.638C113.392 221.354 111.225 221.255 109.016 221.052C108.506 221.003 107.856 221.086 107.956 221.767C108.042 222.379 108.59 222.706 109.186 222.813C111.256 223.191 113.262 223.291 115.074 222.677C115.504 222.531 115.887 222.319 116.111 221.753L116.104 221.749ZM101.619 218.032C103.545 218.617 105.534 218.534 107.53 218.496C108.038 218.489 108.557 218.416 108.373 217.776C108.219 217.228 107.698 216.999 107.169 216.933C105.285 216.698 103.406 216.494 101.519 216.265C100.997 216.203 100.688 216.361 100.621 216.811C100.542 217.352 100.926 217.687 101.612 218.028L101.619 218.032ZM103.613 212.584C103.503 212.564 103.387 212.54 103.282 212.528C101.187 212.334 99.0909 212.124 96.9988 211.945C96.5673 211.908 96.3018 212.124 96.317 212.538C96.3313 213.077 96.7223 213.5 97.2558 213.617C99.4343 214.078 101.578 214.256 103.6 213.867C103.929 213.803 104.111 213.608 104.051 213.241C104.009 212.975 103.931 212.732 103.615 212.579L103.613 212.584Z" fill="#EF7FA0"/>
<path d="M76.7533 210.027C78.1844 210.666 78.9826 212.028 80.2661 212.858C84.3993 215.545 88.2668 218.542 91.5068 222.208C92.1316 222.918 93.2115 223.254 93.4777 224.228C90.1005 224.42 86.7061 223.325 83.3431 222.195C82.0442 221.761 81.0066 221.765 80.0475 222.357C70.6729 228.128 60.2838 232.391 49.3165 235.809C48.988 235.916 48.5365 235.879 48.3041 236.742C49.9411 236.266 51.4814 236.448 52.9697 236.293C60.5954 235.511 67.8517 233.796 75.4657 232.979C81.7852 232.308 88.1532 231.813 94.8356 232.534C96.7558 232.737 98.6947 232.979 100.582 233.981C102.866 235.193 103.789 236.966 102.981 238.877C101.692 241.921 98.7933 243.369 95.6754 244.509C90.6772 246.34 85.09 246.657 79.3678 246.565C66.6853 246.369 53.8575 244.777 40.9776 240.97C37.0651 239.812 33.8858 239.795 30.6495 240.802C28.3675 241.504 25.9819 242.016 23.6386 242.614C22.9917 242.781 22.2491 243.224 21.6367 242.463C20.9723 241.639 21.4555 240.796 22.0655 240.487C23.9363 239.524 24.4765 237.657 25.4208 236.046C27.397 232.653 28.7165 228.903 30.2193 225.253C32.8557 218.855 35.2733 212.338 38.721 206.385C41.0446 202.375 43.3848 198.368 46.8437 195.171C47.9574 194.138 49.1182 193.18 50.7709 192.813C53.4489 192.22 56.135 193.653 57.2776 196.346C58.5208 199.279 58.2289 201.996 57.7699 204.678C56.6195 211.432 53.3951 217.009 49.058 221.908C44.5735 226.977 39.6812 231.671 34.215 235.848C33.9262 236.068 33.2189 236.298 33.6205 236.836C34.067 237.432 34.6806 236.988 35.0783 236.882C41.2103 235.255 47.2599 233.471 53.1518 231.419C62.1947 228.272 70.5127 224.111 78.5239 219.497C79.8119 218.756 79.9385 217.961 78.8892 216.601C78.2015 215.708 77.6076 214.754 77.0855 213.793C76.3776 212.485 76.0737 211.181 76.7391 210.02L76.7533 210.027Z" fill="#6BB194"/>
<path d="M155.279 199.76C155.145 199.813 155.012 199.91 154.867 199.907C154.293 199.886 153.483 200.002 153.259 199.336C153.032 198.654 153.673 198.388 154.401 198.43C154.481 198.966 154.843 199.38 155.276 199.766L155.279 199.76Z" fill="#FFC1D3"/>
<path d="M114.985 175.258C115.033 174.284 114.707 173.218 115.166 172.354C118.12 169.176 121.454 166.289 123.232 162.224C123.786 160.955 125.221 160.687 126.876 161.432C128.284 162.065 129.553 162.817 129.372 164.397C129.197 165.897 128.022 166.486 126.047 165.896C124.656 165.483 124.057 165.738 123.302 166.7C121.029 169.583 118.439 172.236 115.978 174.977C115.738 175.248 115.515 175.543 114.985 175.258Z" fill="#FFC1D3"/>
<path d="M132.84 207.608C132.301 207.552 131.609 207.915 131.265 207.299C130.892 206.624 131.747 206.571 132.138 206.324C133.606 205.397 134.903 204.265 136.562 203.576C138.22 203.575 139.757 203.571 139.848 201.528C139.908 200.143 142.049 199.605 143.746 200.299C145.067 200.844 145.937 202.464 145.488 203.773C145.017 205.16 143.901 206.04 142.158 205.586C140.039 205.043 138.386 205.567 136.682 206.043C135.324 206.425 133.925 206.778 132.837 207.592L132.84 207.608Z" fill="#FFC1D3"/>
<path d="M128.504 180.768C127.459 181.14 126.358 181.342 125.1 181.074C125.662 179.473 127.33 178.812 128.398 177.642C129.411 176.541 130.599 175.582 131.666 174.524C132.303 173.898 132.8 173.215 132.918 172.211C133.067 170.932 133.848 170.064 135.578 170.499C137.348 170.946 138.669 172.326 138.661 173.678C138.659 175.078 137.627 175.922 135.861 175.663C134.425 175.454 133.425 175.76 132.666 176.683C131.435 178.182 129.597 179.146 128.494 180.77L128.504 180.768Z" fill="#FFC1D3"/>
<path d="M142.989 188.648C142.934 188.036 142.302 187.406 142.643 186.808C144.925 185.964 147.554 185.613 148.492 183.088C148.933 181.907 150.674 181.764 152.109 182.433C153.275 182.972 154.356 184.868 154.228 186.138C154.101 187.342 152.782 188.518 151.535 187.966C148.482 186.606 146.416 187.604 144.285 188.656C143.914 188.838 143.493 188.928 143.003 188.655L142.989 188.648Z" fill="#FFC1D3"/>
<path d="M103.831 169.854C103.204 170.744 102.418 171.499 101.482 172.119C100.425 171.04 101.29 170.255 101.419 169.413C101.785 167.001 102.365 164.659 102.845 162.289C103.037 161.341 102.967 160.46 102.291 159.39C101.455 158.054 102.037 157.003 103.219 156.4C104.037 155.991 105.061 155.809 105.899 156.738C106.832 157.777 107.968 159.18 106.861 160.097C104.571 161.999 104.872 165.009 104.134 167.571C103.937 168.263 103.24 168.895 103.839 169.858L103.831 169.854Z" fill="#FFC1D3"/>
<path d="M125.118 182.029C125.072 182.117 125.027 182.205 124.982 182.293C124.792 182.07 124.803 181.957 125.118 182.029Z" fill="#FFC1D3"/>
<path d="M81.1802 190.802C81.6395 189.732 82.0909 188.658 82.561 187.586C82.7852 187.064 83.1961 186.674 83.9723 187.019C84.7646 187.373 84.8158 188.047 84.6539 188.537C84.2634 189.695 83.7097 190.781 83.2843 191.93C82.6086 193.776 82.005 195.657 81.3212 197.499C81.1378 197.994 81.1998 198.892 80.1787 198.55C79.1255 198.193 79.3554 197.408 79.3712 196.759C79.4404 194.558 80.3049 192.681 81.1774 190.808L81.1802 190.802Z" fill="#C7386C"/>
<path d="M78.3552 189.071C78.1841 189.613 77.8647 190.019 77.0954 189.76C76.4497 189.541 76.1813 189.045 76.2131 188.502C76.3726 185.693 76.9851 183.029 77.5871 180.368C77.6877 179.905 78.1286 179.722 78.6968 179.947C79.4271 180.232 79.6691 180.768 79.5774 181.366C79.2654 183.469 78.9354 185.571 78.608 187.666C78.5332 188.134 78.448 188.604 78.3629 189.075L78.3552 189.071Z" fill="#C7386C"/>
<path d="M90.2386 197.1C90.7264 196.16 91.3288 194.997 91.9471 193.842C92.1977 193.367 92.5155 192.849 93.3053 193.211C94.1746 193.612 94.1665 194.309 93.9921 194.876C93.217 197.369 92.0235 199.647 90.5441 201.758C90.3274 202.063 90.0287 202.311 89.4798 202.084C88.8248 201.813 88.8141 201.364 88.854 200.909C88.9549 199.566 89.8111 198.576 90.2386 197.1Z" fill="#C7386C"/>
<path d="M102.062 199.964C100.792 201.744 99.3458 203.526 97.4206 204.905C97.0237 205.192 96.4617 205.608 95.8509 205.077C95.1438 204.467 95.5922 203.902 95.9343 203.481C97.3048 201.835 98.7134 200.21 100.14 198.608C100.569 198.132 101.025 197.418 101.989 198.075C102.924 198.717 102.164 199.253 102.057 199.954L102.062 199.964Z" fill="#C7386C"/>
<path d="M82.8666 199.377C83.236 198.893 83.1608 198.007 84.2897 198.457C85.4902 198.935 85.1267 199.583 85.0195 200.262C84.7199 202.133 84.4995 204.037 84.182 205.908C84.0836 206.476 84.143 207.4 83.0994 207.123C82.0711 206.854 81.9955 206.014 82.0186 205.293C82.0943 203.247 82.3618 201.252 82.864 199.384L82.8666 199.377Z" fill="#C7386C"/>
<path d="M89.4955 211.467C89.1054 211.232 88.7583 210.955 88.7049 210.565C88.6497 210.117 88.8487 209.777 89.3497 209.741C91.7058 209.569 94.0712 209.417 96.4343 209.27C96.8879 209.245 97.3639 209.374 97.5982 209.864C97.8071 210.291 97.5592 210.563 97.1969 210.677C94.9423 211.392 92.5794 211.809 89.9763 211.584C89.811 211.571 89.6416 211.505 89.4931 211.472L89.4955 211.467Z" fill="#C7386C"/>
<path d="M113.083 223.644C112.854 224.226 112.466 224.442 112.032 224.584C110.196 225.208 108.155 225.101 106.065 224.718C105.469 224.607 104.912 224.279 104.818 223.653C104.719 222.954 105.375 222.875 105.893 222.926C108.141 223.132 110.335 223.24 112.284 222.508C112.524 222.424 112.855 222.386 112.973 222.746C113.086 223.096 113.061 223.447 113.076 223.641L113.083 223.644Z" fill="#C7386C"/>
<path d="M99.043 220.466C98.3602 220.127 97.9747 219.8 98.0557 219.256C98.1221 218.809 98.4325 218.646 98.9502 218.713C100.828 218.941 102.7 219.143 104.576 219.376C105.103 219.441 105.621 219.669 105.775 220.213C105.951 220.846 105.435 220.918 104.935 220.93C102.948 220.968 100.967 221.051 99.0499 220.47L99.043 220.466Z" fill="#C7386C"/>
<path d="M101.551 215.144C101.869 215.291 101.937 215.536 101.986 215.806C102.046 216.172 101.865 216.367 101.536 216.431C99.5144 216.82 97.3744 216.637 95.1945 216.181C94.6613 216.065 94.2705 215.642 94.2562 215.103C94.2479 214.693 94.5133 214.477 94.9376 214.511C97.0287 214.69 99.1266 214.893 101.218 215.093C101.329 215.108 101.439 215.129 101.548 215.149L101.551 215.144Z" fill="#C7386C"/>
<path d="M65.8103 144.737C67.9664 144.416 69.7625 143.327 71.5246 142.228C74.8266 140.17 77.5828 137.58 79.0509 133.837C79.3619 133.048 79.5631 132.224 79.634 131.382C79.8162 129.27 78.4245 127.614 76.1333 127.114C75.7323 127.028 75.1729 127.131 75.0337 126.603C74.914 126.152 75.4095 126.001 75.69 125.76C79.3563 122.635 82.4971 119.095 84.3038 114.514C85.4196 111.683 86.1061 108.743 85.8968 105.611C85.5115 99.7779 81.682 96.5671 76.0713 96.0275C71.7994 95.616 68.0186 96.8236 64.7814 99.4314C64.4589 99.6899 64.0976 99.8955 63.7452 100.115C63.6975 100.147 63.5972 100.101 63.4671 100.082C63.4426 99.2043 63.896 98.4775 64.1383 97.6957C65.3113 93.8987 66.1367 90.0355 65.4478 85.9471C64.9362 82.9263 63.7689 80.13 61.0328 78.3274C57.7832 76.1853 53.6497 76.5907 50.4028 79.177C47.9658 81.1168 46.1999 83.5968 44.7551 86.3311C44.5894 86.6511 44.52 87.2114 44.0762 87.1026C43.6396 86.9935 43.7518 86.4566 43.717 86.0774C43.4407 83.1982 42.8264 80.4392 40.7798 78.0916C37.6422 74.4895 33.2611 74.0177 29.7807 76.9715C25.8023 80.3504 23.6739 84.8015 22.7866 89.9498C22.5573 91.2767 22.4291 92.6239 22.2556 93.9589C22.4586 94.4354 22.4409 94.9675 21.947 95.0664C21.4603 95.165 21.347 94.5738 21.1909 94.1901C21.1505 94.0896 21.1844 93.967 21.1868 93.857C19.8903 91.4117 18.2067 89.3346 15.6735 88.0416C13.4937 86.9316 11.2318 87.2873 9.60156 88.9471C7.07093 91.5254 6.39908 94.8935 6.01343 98.3675C5.53017 102.773 6.34929 107.111 7.60011 111.416C7.65351 111.6 7.77077 111.766 7.85974 111.941C8.17093 111.679 8.00754 111.296 8.05516 110.967C8.39578 108.569 9.20777 106.428 11.5197 105.337C14.0781 104.127 16.4583 104.967 18.7498 106.554C20.4623 107.74 21.4256 109.591 22.8884 110.998C23.1452 109.985 23.0391 108.932 22.9604 107.896C22.8599 106.597 22.8046 105.31 21.9612 104.109C21.2689 103.116 21.5654 102.064 22.3203 101.252C23.0364 100.486 24.2684 100.476 24.9178 101.15C25.7571 102.018 25.9143 103.629 25.0599 104.171C23.7981 104.966 24.1565 105.984 24.5424 107.084C25.2633 106.197 25.4328 105.024 26.0211 104.063C27.4006 101.826 28.9047 99.7555 31.6758 99.0766C31.3872 98.8498 31.3451 98.537 31.3725 98.2243C31.5305 96.4213 31.6748 94.6923 30.0948 93.1519C29.4503 92.5224 29.8761 91.2183 30.6157 90.6964C31.3892 90.1507 32.8412 90.1777 33.4622 90.7607C34.2255 91.4719 34.5468 92.6822 33.9026 93.4043C32.5262 94.9447 32.9252 96.8212 32.9264 98.6416C33.1544 98.6846 33.3848 98.7496 33.6168 98.7632C36.5636 98.9395 38.539 100.613 40.1209 103.025C40.8172 104.088 40.8773 105.352 41.6164 106.372C42.3631 105.092 42.5406 103.562 43.1838 102.24C43.5798 101.424 43.54 100.672 43.083 99.8201C42.5242 98.776 42.8085 97.8125 43.6678 97.3137C44.4963 96.8347 45.6525 97.1958 46.3326 98.1787C46.9998 99.1439 46.6394 99.9501 45.8844 100.499C45.2887 100.932 44.9849 101.49 44.7441 102.122C44.3353 103.183 44.0154 104.288 43.5677 105.329C43.0943 106.434 43.0638 107.74 42.2047 108.667L42.2111 108.66C42.3219 108.833 42.254 108.881 42.0737 108.839C42.4834 111.272 42.4782 113.693 42.2928 116.106C42.2195 117.025 42.1906 117.95 41.9798 118.851C41.9225 119.092 41.9015 119.43 42.2136 119.571C42.4909 119.696 42.5846 119.387 42.7576 119.264C43.5295 118.704 44.0799 117.928 44.754 117.278C46.1248 115.95 47.4511 114.552 49.253 113.744C48.9595 113.506 49.0895 113.261 49.2011 113.014C50.3218 110.49 51.3601 107.916 52.6093 105.463C53.0271 104.647 53.048 104.177 52.4828 103.437C51.6781 102.387 51.7765 101.43 52.6503 100.799C53.571 100.128 54.3157 100.672 55.024 101.349C55.8512 102.141 56.0107 103.147 55.3601 103.943C53.2765 106.495 52.2635 109.624 50.986 112.613C51.5915 112.563 52.2091 112.557 52.8017 112.457C54.5713 112.148 55.9579 112.871 56.6964 114.543C57.1915 115.671 57.1367 116.824 57.061 117.986C57.0272 118.537 56.6878 119.104 57.1697 119.654C57.8763 119.69 58.1114 119.041 58.4816 118.684C59.8589 117.349 61.7399 116.497 62.3838 114.423C62.6932 113.422 63.7895 113.64 64.6157 113.864C65.3587 114.063 65.4729 114.761 65.4059 115.409C65.3059 116.352 64.8008 117.074 63.8096 117.012C63.0141 116.965 62.4685 117.224 61.9431 117.666C60.6183 118.782 59.3356 119.948 57.9671 121C57.4919 121.366 57.2091 122.179 56.3246 121.892C56.1097 122.624 55.9369 123.373 55.6751 124.079C55.2097 125.323 54.6829 126.541 54.1981 127.775C54.089 128.044 53.8805 128.374 54.1902 128.625C54.428 128.821 54.7181 128.634 54.9501 128.516C55.4594 128.259 55.9517 127.98 56.4472 127.698C60.1461 125.59 64.0602 124.068 68.5172 124.169C73.4656 124.282 75.3547 126.627 74.9643 130.782C74.6563 134.033 73.2696 136.929 71.1966 139.443C69.5882 141.398 67.899 143.252 65.82 144.726L65.8103 144.737Z" fill="#EF9AB3"/>
<path d="M65.0949 145.116C67.1672 143.646 68.851 141.799 70.4541 139.85C72.5206 137.343 73.9067 134.46 74.2097 131.217C74.6027 127.078 72.7196 124.741 67.7828 124.625C63.3432 124.521 59.4384 126.042 55.7513 128.143C55.2573 128.425 54.7626 128.699 54.259 128.959C54.0277 129.077 53.7425 129.267 53.5015 129.067C53.1888 128.814 53.4006 128.489 53.5094 128.22C53.9926 126.99 54.5177 125.776 54.9815 124.536C55.2457 123.829 55.4179 123.082 55.6289 122.356C55.7963 121.566 56.0782 120.821 56.4753 120.128C55.9948 119.58 56.3332 119.015 56.3669 118.466C56.4423 117.308 56.5 116.155 56.0033 115.034C55.2671 113.368 53.8849 112.647 52.1209 112.955C51.527 113.058 50.9146 113.061 50.311 113.111C49.8848 113.706 49.1668 113.875 48.5835 114.238C46.7874 115.043 45.4653 116.437 44.0989 117.761C43.427 118.409 42.8784 119.182 42.1089 119.741C41.9365 119.863 41.8431 120.171 41.5667 120.047C41.2556 119.906 41.2797 119.565 41.3336 119.328C41.5437 118.43 41.5765 117.512 41.6456 116.592C41.8335 114.184 41.8385 111.77 41.4269 109.349C41.4712 109.288 41.5155 109.228 41.5598 109.167L41.5574 109.178C41.1132 108.464 40.9824 107.682 40.9702 106.883C40.2374 105.87 40.1734 104.606 39.4792 103.547C37.9064 101.146 35.9372 99.478 32.9957 99.2989C32.7644 99.2853 32.538 99.2168 32.3075 99.1777C32.0135 99.6165 31.4638 99.4297 31.0649 99.6148C28.3026 100.292 26.8034 102.356 25.4284 104.585C24.8387 105.547 24.6658 106.713 23.9544 107.597C23.9104 108.939 23.5038 110.202 23.2656 111.503C23.2052 111.846 23.369 112.432 22.8581 112.43C22.3907 112.425 22.4566 111.837 22.2953 111.502C20.8412 110.103 19.8809 108.258 18.1697 107.073C15.8855 105.491 13.5128 104.654 10.9625 105.86C8.65481 106.952 7.84869 109.082 7.50923 111.473C7.46177 111.8 7.62465 112.182 7.31446 112.443C7.3306 112.555 7.34996 112.664 7.36611 112.776C7.96249 119.185 10.7402 124.744 14.998 129.674C18.1926 133.374 21.6749 136.774 25.891 139.329C26.3956 139.635 26.9912 139.809 27.3685 140.315C28.0566 140.14 28.5242 140.736 29.1254 140.895C32.2339 141.723 35.0661 143.214 37.763 144.998C38.6052 145.553 39.6561 145.59 40.4041 146.314C42.7542 146.914 45.0697 147.695 47.4729 148.052C53.7774 148.987 59.6875 148.245 65.0731 145.117L65.0949 145.116ZM50.0286 140.11C49.1022 141.257 48.1798 142.408 46.8954 143.19C46.5159 143.418 46.0978 143.823 45.6689 143.312C45.2489 142.816 45.796 142.554 46.0498 142.278C46.9932 141.25 47.9769 140.257 48.9244 139.233C49.5101 138.596 50.0377 137.897 50.6396 137.274C50.8982 137.009 51.3027 136.809 51.6783 137.169C52.0451 137.515 51.8969 137.888 51.6399 138.2C51.113 138.841 50.57 139.468 50.0319 140.106L50.0286 140.11ZM52.3935 141.925C52.6578 141.711 52.9189 141.5 53.1872 141.289C54.3756 140.365 55.5672 139.438 56.7637 138.522C57.1029 138.259 57.4744 138.222 57.8097 138.58C58.0701 138.855 58.0533 139.196 57.8003 139.413C56.3275 140.698 54.8595 141.994 53.2094 143.062C52.8927 143.265 52.5325 143.273 52.2592 142.947C51.9352 142.559 52.1091 142.221 52.3976 141.929L52.3935 141.925ZM43.1044 135.998C42.3204 136.754 41.9153 137.604 41.141 138.119C40.8759 138.294 40.6116 138.442 40.3118 138.14C40.0651 137.89 40.1448 137.623 40.2793 137.39C41.217 135.786 42.3134 134.298 43.6266 132.988C43.9255 132.691 44.3397 132.447 44.7588 132.838C45.1449 133.194 44.9008 133.557 44.6728 133.868C44.1194 134.631 43.5539 135.383 43.1044 135.998ZM37.8878 129.139C38.2874 128.83 38.4468 128.164 39.0384 128.532C39.6494 128.909 39.3256 129.44 39.1258 129.874C38.4734 131.321 37.8025 132.765 37.1115 134.192C36.9367 134.556 36.6902 135.028 36.1647 134.797C35.7085 134.598 35.8357 134.102 35.9211 133.754C36.3284 132.072 37.0823 130.554 37.8806 129.139L37.8878 129.139ZM44.0284 141.287C43.0117 142.246 41.8668 143.101 40.6485 143.855C40.2182 144.118 39.6945 144.361 39.3051 143.812C38.9077 143.255 39.4781 142.974 39.7996 142.716C40.8543 141.869 41.9517 141.078 43.0224 140.245C43.4084 139.943 43.7193 139.493 44.2731 140.077C44.7939 140.627 44.2427 140.886 44.0317 141.284L44.0284 141.287ZM34.0734 140.751C34.0121 140.659 33.9291 140.568 33.8848 140.465C33.1107 138.785 32.8096 137.03 32.727 135.238C32.7132 134.951 32.8292 134.682 33.1556 134.665C33.5254 134.645 33.7278 134.923 33.8205 135.233C34.3005 136.891 34.7659 138.55 35.2273 140.205C35.3249 140.558 35.1533 140.819 34.8503 140.947C34.5852 141.056 34.3225 140.924 34.0766 140.747L34.0734 140.751ZM19.3591 128.45C19.4912 128.392 19.7152 128.241 19.961 128.188C20.2213 128.135 20.277 128.373 20.2802 128.566C20.2822 130.158 20.8773 131.606 21.5514 133.042C21.7087 133.373 21.8127 133.85 21.3414 134.038C20.9191 134.21 20.5701 133.958 20.354 133.59C19.5994 132.315 19.0422 130.978 19.0024 129.505C18.9926 129.155 19.0384 128.813 19.355 128.446L19.3591 128.45ZM25.3441 136.97C24.4887 135.872 24.0564 134.478 23.5927 133.096C23.4733 132.745 23.3943 132.362 23.8592 132.246C24.2565 132.145 24.5346 132.415 24.7071 132.753C25.3223 133.955 25.9166 135.166 26.5285 136.372C26.697 136.706 26.6689 136.978 26.3901 137.193C26.0542 137.451 25.7398 137.314 25.3481 136.973L25.3441 136.97ZM28.4321 133.549C28.4724 133.616 28.5167 133.687 28.5498 133.754C29.19 135.116 29.8407 136.473 30.4704 137.838C30.6002 138.12 30.5237 138.383 30.2482 138.529C29.8904 138.723 29.5173 138.615 29.3101 138.293C28.4741 136.975 27.833 135.573 27.5933 134.042C27.5545 133.792 27.6383 133.594 27.8937 133.497C28.0791 133.425 28.2571 133.386 28.4353 133.545L28.4321 133.549Z" fill="#EF7FA0"/>
<path d="M39.0894 146.987C38.3358 146.258 37.2698 146.221 36.4285 145.662C33.7115 143.864 30.8582 142.361 27.7264 141.527C27.1207 141.367 26.6457 140.763 25.9564 140.942C26.6437 143.29 28.1615 145.175 29.6939 147.027C30.2843 147.743 30.5313 148.444 30.3812 149.308C28.9246 157.756 28.6801 166.331 29.1169 174.986C29.1275 175.246 29.2591 175.537 28.7607 176.012C28.6736 174.733 28.1871 173.761 27.9295 172.701C26.6018 167.271 25.9618 161.746 24.6593 156.311C23.5738 151.803 22.3632 147.327 20.2969 143.086C19.7056 141.866 19.0851 140.648 17.9888 139.745C16.6619 138.652 15.302 138.682 14.2686 139.931C12.6233 141.922 12.3891 144.409 12.405 146.932C12.4284 150.977 13.5658 154.861 14.998 158.685C18.1676 167.164 22.2685 175.228 27.8038 182.51C29.4865 184.721 30.2607 186.859 30.3902 189.412C30.4872 191.209 30.7311 193.006 30.9092 194.807C30.9572 195.305 30.851 195.968 31.4867 196.101C32.1753 196.245 32.6006 195.609 32.6525 195.084C32.8219 193.468 33.8918 192.415 34.6994 191.185C36.404 188.603 38.4958 186.332 40.4789 183.974C43.9548 179.839 47.5598 175.808 50.5557 171.29C52.5728 168.246 54.5849 165.192 55.8078 161.682C56.2039 160.55 56.5406 159.415 56.3796 158.165C56.1178 156.141 54.553 154.857 52.5492 155.079C50.3677 155.321 48.6929 156.519 47.0807 157.817C43.0192 161.081 40.2116 165.309 38.1064 170.039C35.9273 174.93 34.0868 179.958 32.7164 185.183C32.6442 185.458 32.6662 186.02 32.2245 185.947C31.7341 185.866 31.872 185.289 31.8452 184.981C31.4181 180.248 31.1119 175.511 31.016 170.782C30.8669 163.525 31.5428 156.384 32.5831 149.282C32.7502 148.141 33.23 147.763 34.3553 147.969C35.0942 148.103 35.8493 148.153 36.5914 148.151C37.6014 148.146 38.5115 147.871 39.0975 146.994L39.0894 146.987Z" fill="#6BB194"/>
<path d="M21.5675 94.6924C21.565 94.8027 21.5351 94.929 21.5716 95.0262C21.7239 95.4073 21.8448 95.9993 22.3292 95.9044C22.8242 95.8052 22.8419 95.2721 22.6384 94.7946C22.2731 94.9384 21.9183 94.8467 21.5642 94.6963L21.5675 94.6924Z" fill="#FFC1D3"/>
<path d="M49.2159 113.764C49.8113 113.387 50.5491 113.218 50.9815 112.614C52.2833 109.573 53.3158 106.39 55.4387 103.794C56.1016 102.985 55.9394 101.961 55.0968 101.155C54.3795 100.469 53.621 99.9157 52.6789 100.594C51.7854 101.24 51.6883 102.211 52.5078 103.279C53.0835 104.031 53.0621 104.51 52.6364 105.34C51.3633 107.836 50.3052 110.454 49.1631 113.021C49.0495 113.273 48.9169 113.522 49.2159 113.764Z" fill="#FFC1D3"/>
<path d="M22.8485 111.914C23.0116 112.253 22.9448 112.847 23.4178 112.852C23.9348 112.855 23.7659 112.265 23.8303 111.915C24.0714 110.599 24.483 109.321 24.5277 107.964C24.1353 106.857 23.7739 105.831 25.05 105.026C25.9159 104.483 25.7501 102.859 24.9068 101.979C24.2479 101.297 23.0125 101.305 22.2869 102.082C21.518 102.901 21.223 103.965 21.9244 104.963C22.7718 106.178 22.8307 107.472 22.932 108.781C23.0113 109.826 23.1182 110.888 22.8591 111.91L22.8485 111.914Z" fill="#FFC1D3"/>
<path d="M41.7392 106.576C41.7483 107.393 41.8773 108.185 42.337 108.912C43.2095 107.971 43.2365 106.643 43.7215 105.526C44.1762 104.469 44.5012 103.349 44.9165 102.272C45.161 101.631 45.4729 101.061 46.0746 100.625C46.8412 100.069 47.2032 99.2475 46.53 98.2717C45.8395 97.2744 44.6689 96.9039 43.8243 97.3935C42.9477 97.896 42.6588 98.8733 43.2302 99.9362C43.6941 100.8 43.7344 101.564 43.3322 102.391C42.6789 103.733 42.5017 105.28 41.7401 106.583L41.7392 106.576Z" fill="#FFC1D3"/>
<path d="M32.0946 99.5869C32.4976 99.4 33.0497 99.5926 33.35 99.1455C33.3448 97.3092 32.9432 95.4196 34.3294 93.8688C34.9782 93.1418 34.6548 91.9231 33.8861 91.2069C33.2648 90.6233 31.7985 90.5924 31.0194 91.1418C30.2819 91.6669 29.8457 92.9804 30.4947 93.6142C32.0891 95.1615 31.9444 96.9098 31.7811 98.7217C31.7534 99.0366 31.7958 99.3516 32.0865 99.5799L32.0946 99.5869Z" fill="#FFC1D3"/>
<path d="M56.7052 119.354C56.2969 120.064 56.0071 120.828 55.8348 121.638C56.7366 121.928 57.0273 121.105 57.5175 120.727C58.9228 119.648 60.237 118.457 61.591 117.32C62.1326 116.865 62.6915 116.6 63.5031 116.652C64.5142 116.712 65.0318 115.974 65.1386 115.014C65.2073 114.351 65.0906 113.638 64.3295 113.434C63.4799 113.208 62.3603 112.982 62.0431 114.005C61.3831 116.125 59.4594 116.992 58.045 118.36C57.6624 118.728 57.4289 119.392 56.701 119.35L56.7052 119.354Z" fill="#FFC1D3"/>
<path d="M42.1235 108.9C42.0784 108.962 42.0334 109.024 41.9883 109.085C42.1718 109.128 42.2407 109.08 42.1235 108.9Z" fill="#FFC1D3"/>
<path d="M49.5452 139.951C50.0989 139.298 50.6567 138.648 51.2095 137.987C51.4797 137.668 51.6289 137.28 51.2496 136.923C50.8619 136.559 50.4392 136.761 50.1749 137.031C49.552 137.673 49.0092 138.39 48.3997 139.05C47.4192 140.106 46.4011 141.129 45.4248 142.189C45.1621 142.473 44.6002 142.747 45.0303 143.256C45.4772 143.778 45.9066 143.365 46.2993 143.13C47.6283 142.324 48.5872 141.141 49.5419 139.955L49.5452 139.951Z" fill="#C7386C"/>
<path d="M51.8211 141.591C51.5249 141.89 51.3461 142.236 51.6787 142.634C51.9592 142.968 52.3257 142.964 52.6542 142.752C54.3528 141.662 55.8602 140.334 57.3684 139.015C57.6315 138.788 57.6456 138.443 57.3783 138.161C57.0383 137.797 56.6528 137.832 56.3044 138.1C55.0758 139.039 53.8522 139.989 52.6318 140.935C52.3596 141.147 52.0883 141.367 51.8169 141.587L51.8211 141.591Z" fill="#C7386C"/>
<path d="M42.737 136.023C43.2057 135.393 43.7858 134.615 44.3577 133.83C44.5932 133.51 44.8413 133.132 44.4468 132.769C44.0106 132.37 43.5861 132.618 43.2773 132.923C41.9206 134.271 40.7877 135.804 39.8189 137.455C39.6799 137.695 39.5933 137.967 39.8521 138.228C40.1617 138.539 40.4389 138.389 40.7086 138.206C41.5085 137.676 41.9272 136.801 42.737 136.023Z" fill="#C7386C"/>
<path d="M37.6164 129.217C36.8014 130.66 36.0253 132.217 35.6075 133.938C35.52 134.293 35.3896 134.801 35.8569 135.004C36.3953 135.242 36.6438 134.754 36.8271 134.386C37.5356 132.927 38.2233 131.45 38.8921 129.97C39.0895 129.526 39.4288 128.982 38.8029 128.596C38.1935 128.224 38.0334 128.901 37.6238 129.217L37.6164 129.217Z" fill="#C7386C"/>
<path d="M43.4511 141.376C43.6675 140.969 44.2327 140.704 43.6989 140.141C43.1313 139.543 42.8124 140.004 42.4166 140.312C41.326 141.164 40.1974 141.977 39.1118 142.841C38.7822 143.104 38.1972 143.392 38.6045 143.962C39.0036 144.524 39.5407 144.276 39.9819 144.006C41.2311 143.236 42.4051 142.36 43.4478 141.38L43.4511 141.376Z" fill="#C7386C"/>
<path d="M33.5447 141.095C33.7914 141.273 34.0552 141.406 34.3213 141.297C34.6255 141.167 34.7977 140.905 34.6997 140.551C34.2399 138.886 33.7655 137.221 33.2878 135.56C33.1939 135.242 32.9949 134.966 32.6203 134.99C32.2927 135.007 32.1763 135.276 32.1901 135.565C32.273 137.364 32.5751 139.126 33.3521 140.812C33.4006 140.919 33.484 141.01 33.5414 141.099L33.5447 141.095Z" fill="#C7386C"/>
<path d="M18.9873 129.163C18.6661 129.535 18.62 129.879 18.633 130.226C18.673 131.706 19.2366 133.051 19.9904 134.329C20.2066 134.691 20.5539 134.948 20.982 134.78C21.4587 134.586 21.3509 134.111 21.193 133.778C20.5153 132.329 19.9144 130.878 19.9165 129.283C19.9132 129.089 19.8573 128.85 19.5959 128.904C19.3418 128.957 19.12 129.105 18.9914 129.166L18.9873 129.163Z" fill="#C7386C"/>
<path d="M24.8731 137.576C25.2643 137.916 25.5749 138.057 25.9136 137.795C26.192 137.58 26.2233 137.305 26.0518 136.975C25.4407 135.771 24.8473 134.562 24.233 133.362C24.0607 133.025 23.783 132.755 23.3863 132.856C22.9261 132.975 23.005 133.357 23.1202 133.705C23.5833 135.084 24.015 136.476 24.8691 137.572L24.8731 137.576Z" fill="#C7386C"/>
<path d="M27.9368 134.033C27.7619 133.871 27.5847 133.917 27.3953 133.985C27.1399 134.082 27.0562 134.28 27.0949 134.53C27.3346 136.061 27.9788 137.459 28.8115 138.781C29.0186 139.102 29.3917 139.21 29.7494 139.017C30.0209 138.867 30.0974 138.604 29.9716 138.326C29.342 136.961 28.6946 135.6 28.0513 134.243C28.0142 134.172 27.9739 134.104 27.9336 134.037L27.9368 134.033Z" fill="#C7386C"/>
<path d="M19.3586 220.478C17.8457 226.682 16.4227 227.673 8.76135 227.586C7.67779 227.574 7.22826 227.999 7.04397 228.768C6.02028 233.011 5.03256 237.271 3.90701 242.077C6.87718 241.553 8.51667 240.164 10.3033 239.034C18.942 233.574 29.0945 230.833 39.7939 229.096C41.3891 228.839 43.2265 228.926 44.9071 229.313C48.3116 230.106 50.7573 232.229 51.476 235.331C52.1452 238.186 49.8501 239.346 47.4821 240.099C40.4344 242.338 33.054 243.788 25.3204 244.325C19.6558 244.715 13.9485 244.972 8.10891 244.213C4.48314 243.744 2.22929 244.446 2.05421 247.926C1.9971 249.095 0.953485 249.996 1.52237 251.714C8.18236 251.857 14.8708 251.959 21.6224 252.647C29.4145 253.436 36.9404 255.468 44.0731 259.484C44.8591 259.928 45.6434 260.385 46.3743 260.895C48.6502 262.486 50.9543 264.312 50.4132 266.915C49.8912 269.435 47.0109 268.611 44.9192 268.539C32.9046 268.157 21.5391 264.13 10.4978 258.448C7.31145 256.809 4.12696 255.156 0.91297 253.497C-0.689018 255.163 -0.902342 257.282 -1.66546 259.125C-2.23434 260.509 -1.13775 261.354 0.0291072 262.298C8.23486 268.906 14.1536 276.997 19.812 285.255C21.1693 287.237 21.3065 289.146 19.9304 290.509C18.5103 291.915 16.3139 291.227 14.4383 290.16C5.58482 285.117 0.372932 277.871 -2.65381 269.324C-3.01 268.322 -2.66303 266.993 -4.76465 266.23C-5.83003 271.152 -8.11016 275.525 -9.99551 280.082C-10.318 280.854 -9.65927 281.606 -9.20978 282.325C-5.07378 288.905 -3.42375 295.826 -2.27021 302.799C-2.10294 303.785 -2.20559 304.789 -2.32584 305.754C-2.47676 306.993 -2.94327 308.029 -4.5461 308.177C-6.08811 308.327 -7.22237 307.533 -8.15462 306.442C-10.7675 303.386 -11.9614 299.967 -12.7373 296.456C-13.054 295.01 -13.3394 293.558 -13.6628 291.996C-15.9788 291.726 -16.4286 293.241 -17.0918 294.481C-23.2938 305.995 -30.1011 317.139 -38.0424 327.595C-38.4272 328.104 -38.7641 328.653 -39.1905 329.131C-39.9899 330.035 -40.8573 331.041 -42.447 329.734C-43.7976 328.63 -43.5578 327.575 -42.6914 326.521C-38.5388 321.494 -34.8531 316.145 -31.5134 310.594C-26.6503 302.52 -21.6589 294.512 -17.5957 285.984C-17.3793 285.531 -17.2626 285.026 -16.8279 283.781C-20.3069 285.37 -23.0966 286.623 -25.8539 287.917C-30.7391 290.213 -35.838 292.126 -41.3524 293.297C-44.4798 293.96 -47.7801 293.569 -51.0873 293.009C-52.9087 292.699 -54.0421 291.463 -54.6161 289.943C-55.1557 288.506 -54.279 287.542 -53.1359 287.021C-41.623 281.776 -29.9481 276.846 -15.6615 277.541C-14.553 277.593 -13.7063 277.551 -13.3206 276.654C-11.2031 271.696 -8.76092 266.876 -7.42017 261.517C-9.40559 260.797 -10.4944 261.693 -11.7011 262.177C-17.2821 264.42 -22.5004 267.239 -28.3819 269.01C-32.6273 270.288 -37.0075 271.056 -41.8258 270.48C-45.5169 270.041 -48.7327 268.013 -49.2453 265.566C-49.9889 262.043 -47.3869 260.93 -44.4311 260.563C-32.7451 259.094 -21.2538 256.779 -8.73821 258.601C-5.78697 259.029 -4.29559 256.572 -4.62264 251.933C-8.75631 251.761 -12.8796 251.679 -17.0126 251.394C-26.2416 250.768 -35.3359 249.074 -43.9071 244.144C-45.244 243.377 -46.5736 242.559 -47.8049 241.638C-49.8374 240.11 -52.3712 238.559 -51.5103 235.966C-50.6477 233.359 -47.8053 233.365 -45.1978 233.737C-37.1884 234.884 -29.4408 237.514 -21.9718 241.149C-15.9695 244.071 -10.0598 247.217 -3.88463 250.378C-2.1799 248.524 -1.81516 246.143 -1.47992 243.374C-9.79196 241.28 -17.0205 237.238 -23.6501 232.034C-28.9099 227.906 -33.9885 223.631 -37.8984 218.38C-38.599 217.436 -39.8414 216.487 -38.9329 215.35C-38.0528 214.253 -36.7507 213.961 -35.1106 214.365C-33.595 214.729 -32.2554 215.477 -30.9222 216.269C-20.7607 222.34 -11.6681 229.545 -3.8778 238.132C-3.05747 239.04 -2.4126 240.163 -0.718832 240.674C1.30069 236.36 1.9683 231.55 2.91166 226.844C3.12468 225.762 2.22334 225.268 1.26842 224.72C-5.55161 220.818 -6.54634 219.029 -5.59968 212.612C2.33171 216.982 10.6951 219.364 19.3327 220.445L19.3586 220.478Z" fill="#8AB979"/>
<path d="M23.4775 213.282C15.2644 212.305 7.31074 210.141 -0.234021 206.163C-5.61935 202.973 -10.8719 199.67 -15.2758 195.325C-20.3777 190.284 -23.8541 184.655 -26.4015 178.632C-27.5648 175.886 -26.4792 173.963 -23.476 173.045C-18.6652 176.288 -14.4984 179.964 -12.5392 185.335C-10.297 183.752 -12.5382 181.125 -10.5259 179.925C-10.2343 180.418 -9.97748 180.701 -9.92393 180.983C-9.54415 182.87 -8.64721 184.098 -6.12973 184.072C-3.4239 184.05 -3.71456 182.35 -3.69746 180.731C-3.68378 179.636 -4.28321 178.31 -2.72681 177.498C-0.451894 181.495 -3.7869 186.951 3.5902 189.332C5.49353 186.031 3.70496 181.837 5.6579 178.694C6.29241 183.03 6.34922 187.242 6.4358 191.45C6.45257 192.235 6.29553 193.166 7.42289 193.658C8.46865 194.111 9.15858 193.512 9.8367 193.045C11.1598 192.139 11.8887 190.922 12.0777 189.37C12.3562 187.101 12.6557 184.838 13.0675 182.603C13.2446 181.634 12.9649 180.308 14.5881 180.086C15.6158 180.864 15.2086 181.667 15.1368 182.412C14.9719 184.098 14.6737 185.751 14.4878 187.432C14.3418 188.787 14.4221 190.186 16.4973 190.704C18.4753 191.192 19.5937 190.394 19.9694 188.857C20.2448 187.711 20.3326 186.506 20.6141 185.368C20.9079 184.195 20.5224 182.697 22.3478 181.884C23.5034 184.683 22.2357 186.909 22.0881 189.276C21.9944 190.773 21.9595 192.314 24.0587 192.917C26.3947 193.591 25.9076 191.592 26.4735 190.596C27.4103 188.948 26.9491 186.57 29.4328 185.176C29.8694 190.525 24.4099 195.152 31.1907 200.589C34.1233 197.054 35.0254 192.492 38.6163 189.577C38.9617 192.402 36.17 194.166 36.8654 197.132C42.5238 197.24 43.2753 192.465 46.4206 189.867C47.5421 191.95 45.6857 192.877 46.8729 194.707C50.6546 195.231 54.6551 194.199 58.7139 195.816C58.4346 200.842 54.6604 203.719 50.826 206.409C44.1849 211.068 36.0957 213.191 26.858 213.066C25.72 213.048 24.475 212.716 23.4977 213.293L23.4775 213.282Z" fill="#EF7FA0"/>
<path d="M59.8123 193.262C55.7504 191.647 51.7547 192.683 47.9648 192.15C46.7769 190.316 48.6414 189.389 47.5123 187.3C44.3722 189.905 43.6131 194.689 37.9516 194.58C37.2559 191.607 40.0492 189.84 39.7037 187.009C36.1107 189.93 35.208 194.501 32.2736 198.044C25.4892 192.595 30.9519 187.959 30.5152 182.599C28.0239 183.988 28.4844 186.377 27.5541 188.03C26.987 189.033 27.4822 191.033 25.1379 190.356C23.0305 189.749 23.0725 188.207 23.1663 186.707C23.3141 184.335 24.5754 182.103 23.4263 179.3C21.6061 180.122 21.9855 181.616 21.6916 182.791C21.409 183.938 21.3212 185.145 21.0464 186.288C20.6705 187.827 19.5505 188.633 17.5724 188.138C15.4951 187.624 15.4149 186.223 15.5618 184.859C15.7479 183.175 16.0462 181.518 16.2113 179.828C16.2823 179.088 16.6897 178.283 15.6624 177.498C14.0444 177.728 14.318 179.049 14.1408 180.02C13.7288 182.26 13.429 184.528 13.1503 186.8C12.9612 188.356 12.2318 189.576 10.908 190.484C10.2303 190.946 9.53912 191.552 8.49279 191.098C7.36481 190.605 7.52197 189.671 7.50522 188.885C7.41956 184.663 7.36196 180.448 6.7272 176.103C4.77395 179.246 6.56254 183.455 4.65807 186.763C-2.72308 184.376 0.613932 178.909 -1.66215 174.904C-3.21328 175.726 -2.62056 177.052 -2.63342 178.143C-2.65057 179.766 -2.35278 181.472 -5.06713 181.492C-7.59304 181.516 -8.48256 180.281 -8.86336 178.395C-8.91693 178.113 -9.17471 177.836 -9.46568 177.336C-11.4791 178.538 -9.23589 181.165 -11.4803 182.756C-13.4482 177.379 -17.6164 173.689 -22.4228 170.441C-19.1997 169.519 -15.7985 170.176 -12.4199 171.139C-10.3888 171.721 -9.29489 171.496 -9.17538 169.569C-8.85552 164.255 -4.75672 162.107 0.648889 161.724C6.17192 161.334 11.1198 163.407 14.7056 168.004C15.0551 168.451 15.3951 168.914 15.7761 169.345C15.9195 169.509 16.1653 169.618 16.4631 169.82C18.2504 169.877 19.4019 168.804 20.7976 168.152C23.7431 166.789 26.9292 166.072 30.5474 166.385C37.6613 167.006 42.7879 171.605 42.5021 177.636C42.3708 180.447 43.6449 181.386 46.424 181.822C50.1563 182.401 53.6673 183.654 56.6461 186.072C59.1634 188.112 61.0732 190.382 59.786 193.243L59.8123 193.262Z" fill="#EF9AB3"/>
<path d="M31.1803 148.394C30.7591 149.9 29.7066 150.623 27.8421 150.091C26.0859 149.586 25.0017 148.509 25.1219 146.853C25.2385 145.17 26.3518 144.601 28.2466 144.971C30.397 145.387 31.0739 146.699 31.1866 148.402L31.1803 148.394Z" fill="#EF9AB3"/>
<path d="M18.0666 122.325C19.741 122.862 20.8309 123.872 20.5622 125.358C20.3033 126.775 19.4361 127.871 17.3813 127.262C15.7369 126.779 14.7576 125.837 14.9201 124.251C15.0986 122.551 16.2606 122.03 18.0666 122.325Z" fill="#EF9AB3"/>
<path d="M4.79439 150.426C5.14062 148.977 5.96286 148.262 7.78726 148.765C9.41572 149.218 10.5137 149.968 10.0799 151.559C9.75297 152.764 9.37669 154.16 7.44342 153.628C5.75601 153.167 4.62274 152.079 4.79439 150.426Z" fill="#EF9AB3"/>
<path d="M40.8062 255.47C37.0427 259.096 36.7223 260.403 38.597 265.089C38.8622 265.752 38.686 266.214 38.2192 266.661C35.6423 269.135 33.0462 271.593 30.1199 274.373C29.7632 272.315 30.2973 270.701 30.6246 269.108C32.2036 261.412 31.617 253.962 30.2336 246.611C30.0258 245.516 29.5323 244.421 28.8763 243.553C27.5422 241.797 25.5512 241.211 23.3196 242.115C21.2638 242.942 21.0378 244.86 21.0993 246.647C21.2831 251.964 22.0696 257.145 23.5471 262.146C24.632 265.808 25.8144 269.439 27.7042 272.71C28.8755 274.742 28.9436 276.436 26.6731 278.055C25.9098 278.597 25.5587 279.632 24.2818 280.027C22.6077 275.983 20.953 271.903 18.8948 268.039C16.5223 263.577 13.3876 259.819 9.02698 257.165C8.5456 256.873 8.05608 256.587 7.54391 256.358C5.94677 255.646 4.187 255.018 2.58608 256.481C1.0351 257.897 2.26606 259.315 2.81014 260.573C5.91352 267.816 11.2847 273.075 17.6789 277.416C19.5239 278.669 21.3769 279.916 23.2421 281.177C22.5149 282.888 21.1577 283.939 20.1142 285.21C19.329 286.162 18.5074 285.852 17.6037 285.543C11.2666 283.352 4.4869 283.215 -2.34193 283.311C-3.98125 283.335 -5.28176 284.078 -5.86133 285.519C-6.45843 287.005 -5.48045 288.06 -4.32693 288.754C1.12386 292.023 7.17459 292.091 13.5719 290.247C14.3219 290.032 15.1223 289.241 16.1282 290.205C13.1106 292.999 10.7451 296.303 8.16498 299.444C7.72796 299.978 7.07199 299.898 6.48823 299.933C1.13514 300.239 -3.85487 302.227 -8.76188 304.543C-9.45692 304.868 -10.0994 305.367 -10.7124 305.86C-11.4996 306.491 -12.0777 307.228 -11.7957 308.281C-11.5297 309.296 -10.7326 309.651 -9.78701 309.752C-7.13657 310.037 -4.58184 309.289 -2.06472 308.243C-1.0286 307.81 0.00359847 307.356 1.11802 306.877C1.84716 308.188 0.946628 309.123 0.280039 310.07C-5.89949 318.893 -11.6893 327.928 -16.7533 337.363C-17.0004 337.822 -17.2849 338.267 -17.5016 338.738C-17.9125 339.623 -18.3756 340.595 -17.1302 341.008C-16.0758 341.361 -15.4316 340.755 -14.937 339.764C-12.5816 335.021 -9.90199 330.426 -7.00536 325.957C-2.7939 319.454 1.34291 312.9 6.04585 306.692C6.29515 306.362 6.60297 306.071 7.32743 305.262C7.09655 308.097 6.92606 310.361 6.72012 312.623C6.35308 316.632 6.29119 320.606 6.82137 324.515C7.12227 326.731 8.16497 328.596 9.32157 330.392C9.95958 331.38 11.0496 331.543 12.1954 331.237C13.2782 330.946 13.7108 329.987 13.7857 329.056C14.5406 319.68 15.0471 310.342 11.1971 301.834C10.8994 301.173 10.7266 300.633 11.231 300.006C14.0229 296.548 16.6465 292.95 19.8893 289.797C20.8389 290.708 20.5018 291.768 20.4663 292.723C20.2993 297.138 19.6641 301.579 19.8821 305.974C20.0402 309.146 20.5688 312.181 22.0944 314.901C23.2613 316.987 25.3716 318.089 27.1189 317.343C29.6361 316.272 29.7589 314.184 29.3015 312.203C27.5058 304.36 26.3185 296.269 22.1393 289.344C21.1549 287.71 22.4339 285.723 25.5942 283.911C26.6887 286.385 27.7212 288.892 28.891 291.316C31.4955 296.735 34.7781 301.607 40.0869 304.752C40.9135 305.243 41.7726 305.708 42.676 306.067C44.1736 306.657 45.8051 307.546 47.3242 305.889C48.8514 304.226 48.1737 302.476 47.3077 301.03C44.6463 296.589 41.0609 292.954 36.8739 289.927C33.5088 287.495 30.0171 285.216 26.4524 282.781C27.2798 280.925 28.7751 279.667 30.5357 278.258C33.8985 282.474 38.2983 285.176 43.3288 287.005C47.3192 288.456 51.3644 289.731 55.7806 289.862C56.5737 289.885 57.4994 290.238 58.0391 289.185C58.5592 288.166 58.4446 287.236 57.7874 286.4C57.1855 285.624 56.3712 285.123 55.5283 284.645C49.085 281.015 42.1409 278.536 34.5871 277.461C33.7895 277.349 32.8903 277.439 32.1489 276.617C34.5364 273.499 37.5745 270.999 40.4775 268.374C41.146 267.773 41.6878 268.114 42.2782 268.465C46.4888 270.976 47.9132 270.813 51.9527 267.444C47.1677 264.45 43.6017 260.328 40.8346 255.471L40.8062 255.47Z" fill="#799E6D"/>
<path d="M38.8129 256.981C41.6519 261.952 45.31 266.17 50.2176 269.233C53.9817 271.247 57.7964 273.119 62.1704 273.919C67.2439 274.842 72.3382 274.401 77.4873 273.151C79.8355 272.583 80.9915 270.924 80.9057 268.484C77.2493 266.877 73.4353 265.907 68.9236 267.229C69.5286 264.97 72.0653 265.174 72.4438 263.254C72.0009 263.301 71.7237 263.269 71.4998 263.371C69.9934 264.04 68.8465 264.044 68.2189 262.362C67.5401 260.557 68.8842 259.92 70.088 259.118C70.9016 258.575 72.0449 258.326 72.251 256.897C68.6839 257.339 65.4688 262.213 61.7964 258.483C63.7712 255.609 67.3606 254.749 69.2043 251.92C65.8051 253.615 62.647 255.633 59.4849 257.629C58.8946 258.001 58.2398 258.56 57.5832 258.052C56.9763 257.58 57.2458 256.83 57.4203 256.152C57.7567 254.832 58.478 253.755 59.5877 252.872C61.209 251.581 62.821 250.277 64.3836 248.914C65.0614 248.323 66.1229 247.862 65.8714 246.677C65.0266 246.375 64.5322 247.037 63.9946 247.448C62.7786 248.38 61.6214 249.385 60.4147 250.328C59.4408 251.086 58.3762 251.716 57.4564 250.592C56.5841 249.519 56.8923 248.387 57.9425 247.389C58.7272 246.646 59.6038 246 60.3813 245.258C61.1807 244.491 62.3981 244.015 62.5357 242.408C60.1499 243.008 58.8146 244.935 57.0854 246.188C55.9929 246.98 54.8516 247.755 53.862 246.658C52.7589 245.437 54.3763 244.785 54.9737 243.924C55.9632 242.498 57.8561 241.644 58.2589 239.316C54.1546 241.637 52.1042 247.515 46.3039 245.672C48.1891 242.002 51.3615 239.177 52.6148 235.373C50.4178 236.523 49.8184 239.235 47.426 240.221C45.8914 236.522 49.2622 233.693 50.3933 230.339C48.5507 230.612 48.3358 232.295 46.6646 232.401C45.3019 230.149 45.0448 226.992 42.7948 225.089C39.1156 227.727 37.9385 231.634 36.9155 235.49C35.1449 242.168 35.6387 248.569 38.1053 254.634C38.4113 255.38 38.9787 256.044 38.7995 256.973L38.8129 256.981Z" fill="#EF7FA0"/>
<path d="M42.2218 225.604C44.4667 227.51 44.7205 230.662 46.0899 232.914C47.7604 232.808 47.9722 231.121 49.8171 230.852C48.6833 234.201 45.317 237.033 46.851 240.731C49.2423 239.745 49.8415 237.034 52.0376 235.885C50.7848 239.687 47.6137 242.511 45.7293 246.18C51.5271 248.022 53.5767 242.146 57.6792 239.826C57.2839 242.153 55.3876 243.011 54.3955 244.432C53.7941 245.296 52.1785 245.941 53.2842 247.165C54.2765 248.266 55.4142 247.487 56.5063 246.695C58.2347 245.443 59.5725 243.52 61.9543 242.917C61.8094 244.523 60.5998 244.999 59.8007 245.766C59.0194 246.511 58.1432 247.157 57.3629 247.896C56.3132 248.894 56.0009 250.028 56.877 251.098C57.7923 252.225 58.8564 251.596 59.8341 250.834C61.0403 249.891 62.197 248.887 63.4125 247.955C63.9457 247.547 64.4399 246.886 65.2885 247.184C65.5326 248.368 64.4789 248.83 63.8013 249.42C62.2394 250.784 60.6281 252.086 59.0075 253.377C57.8982 254.26 57.1772 255.337 56.8409 256.656C56.6707 257.33 56.3971 258.083 57.0038 258.555C57.6601 259.063 58.3146 258.504 58.9046 258.132C62.0696 256.134 65.2222 254.12 68.62 252.426C66.7812 255.25 63.1892 256.114 61.2151 258.986C64.8861 262.715 68.0998 257.842 71.6654 257.401C71.4521 258.828 70.3124 259.082 69.5032 259.621C68.3 260.422 66.9534 261.056 67.6349 262.864C68.2653 264.549 69.4129 264.538 70.9144 263.872C71.1383 263.77 71.4112 263.806 71.858 263.755C71.4797 265.675 68.9482 265.467 68.3393 267.729C72.848 266.415 76.6646 267.381 80.3163 268.984C80.1754 266.4 78.8133 264.466 77.2291 262.696C76.2751 261.633 76.1618 260.799 77.5658 259.782C81.4397 256.983 81.9871 253.221 80.8845 249.453C79.7575 245.604 76.9448 243.334 72.6018 243.197C72.1792 243.183 71.7472 243.183 71.329 243.14C71.1702 243.125 71.0255 243.015 70.7987 242.916C70.298 241.759 70.8012 240.474 70.9282 239.232C71.1872 236.617 70.9032 234.157 69.7415 231.912C67.4538 227.5 62.7141 226.342 58.2972 229.468C56.2384 230.923 55.2127 230.535 54.1749 228.906C52.7853 226.716 50.9516 224.999 48.3874 224.202C46.2222 223.528 44.0424 223.367 42.2425 225.613L42.2218 225.604Z" fill="#EF9AB3"/>
<path d="M78.8873 227.426C77.9585 228.367 77.7205 229.358 78.5404 230.302C79.3148 231.19 80.3171 231.395 81.4218 230.577C82.5459 229.75 82.6643 228.789 81.948 227.753C81.1377 226.576 80.0739 226.735 78.8802 227.426L78.8873 227.426Z" fill="#EF9AB3"/>
<path d="M99.9314 226.412C99.1586 225.594 98.2057 225.355 97.2583 226.187C96.356 226.981 95.8202 228.017 96.7345 229.044C97.4634 229.867 98.3432 230.066 99.3842 229.257C100.499 228.387 100.571 227.421 99.9314 226.412Z" fill="#EF9AB3"/>
<path d="M86.2265 244.772C87.1277 243.91 87.4142 243.074 86.6293 242.148C85.9263 241.323 85.15 240.964 84.1736 241.945C83.4342 242.686 82.5768 243.543 83.4073 244.526C84.1305 245.384 85.145 245.615 86.2265 244.772Z" fill="#EF9AB3"/>
<path d="M17.7764 316.371C17.7509 314.784 18.3134 313.366 18.8865 311.971C19.9595 309.357 21.4744 307.073 23.9589 305.579C24.4825 305.262 25.0435 305.021 25.6333 304.871C27.1111 304.492 28.4505 305.297 29.0746 306.884C29.1823 307.162 29.1754 307.576 29.5662 307.614C29.9009 307.647 29.9494 307.274 30.088 307.044C31.8753 304.043 34.0196 301.371 37.0593 299.535C38.9378 298.4 40.9444 297.562 43.1923 297.344C47.3784 296.935 50.1078 299.309 51.1501 303.276C51.9442 306.297 51.5312 309.154 50.0603 311.786C49.9147 312.048 49.8112 312.332 49.6966 312.611C49.6796 312.649 49.7241 312.716 49.7528 312.807C50.3788 312.721 50.8415 312.31 51.368 312.044C53.9257 310.756 56.5712 309.709 59.5546 309.723C61.7592 309.736 63.8814 310.246 65.4826 311.999C67.3852 314.082 67.583 317.099 66.1285 319.735C65.0378 321.714 63.4847 323.274 61.7134 324.633C61.5057 324.79 61.1161 324.905 61.2455 325.211C61.3743 325.512 61.7422 325.369 62.0155 325.349C64.0919 325.209 66.1227 325.326 68.0298 326.521C70.9556 328.351 71.8053 331.443 70.1174 334.29C68.1862 337.545 65.2764 339.597 61.7258 340.84C60.8108 341.16 59.8695 341.411 58.9422 341.692C58.58 341.602 58.2044 341.677 58.1922 342.044C58.1794 342.405 58.6124 342.417 58.9032 342.484C58.9793 342.501 59.0623 342.463 59.1401 342.448C61.0284 343.092 62.7007 344.057 63.9163 345.725C64.9605 347.16 64.9737 348.827 63.987 350.193C62.454 352.314 60.1419 353.193 57.721 353.878C54.6501 354.743 51.4742 354.664 48.2714 354.271C48.1345 354.254 48.0028 354.19 47.8682 354.146C48.0174 353.892 48.3088 353.964 48.5363 353.892C50.199 353.365 51.6235 352.53 52.1263 350.741C52.6846 348.761 51.8089 347.15 50.4126 345.69C49.3697 344.6 47.9426 344.125 46.7717 343.24C47.4608 342.936 48.2208 342.889 48.9656 342.823C49.8994 342.743 50.8191 342.632 51.7712 343.096C52.5576 343.477 53.2696 343.14 53.7574 342.503C54.2171 341.898 54.0788 341.012 53.5247 340.625C52.8096 340.124 51.6476 340.2 51.3629 340.878C50.9471 341.877 50.1824 341.739 49.3556 341.592C49.9008 340.969 50.714 340.71 51.327 340.174C52.7526 338.921 54.0459 337.597 54.2022 335.526C54.3971 335.707 54.6241 335.701 54.8429 335.644C56.1043 335.319 57.3148 335.012 58.594 335.966C59.1165 336.355 59.9923 335.896 60.2759 335.303C60.5724 334.683 60.3826 333.644 59.8958 333.266C59.3012 332.801 58.4042 332.713 57.9673 333.26C57.0355 334.43 55.6565 334.364 54.3641 334.577C54.3067 334.418 54.2335 334.26 54.1966 334.095C53.7252 331.999 52.3049 330.777 50.4067 329.924C49.5705 329.548 48.666 329.654 47.855 329.243C48.6763 328.556 49.7411 328.249 50.6045 327.631C51.1369 327.251 51.6757 327.191 52.334 327.419C53.1409 327.698 53.7914 327.381 54.0446 326.705C54.2873 326.053 53.8951 325.265 53.1174 324.892C52.3538 324.526 51.8238 324.88 51.5232 325.487C51.2852 325.965 50.9248 326.249 50.5048 326.496C49.7993 326.915 49.0528 327.274 48.366 327.718C47.6371 328.188 46.7139 328.364 46.1565 329.09L46.1611 329.084C46.0248 329.025 45.9991 329.079 46.05 329.204C44.2749 329.196 42.5565 329.484 40.8657 329.9C40.2216 330.061 39.5687 330.191 38.9538 330.448C38.7894 330.517 38.5519 330.572 38.4149 330.365C38.2938 330.18 38.502 330.076 38.5687 329.938C38.8757 329.317 39.3618 328.831 39.7443 328.27C40.5257 327.129 41.3628 326.012 41.7246 324.623C41.9277 324.806 42.0862 324.684 42.2488 324.575C43.9085 323.473 45.6137 322.425 47.2084 321.239C47.739 320.843 48.0701 320.773 48.6617 321.092C49.5014 321.547 50.1695 321.363 50.5152 320.661C50.883 319.921 50.4096 319.45 49.8455 319.021C49.186 318.52 48.4529 318.523 47.9644 319.084C46.398 320.881 44.2954 321.976 42.3234 323.245C42.2876 322.804 42.2197 322.36 42.2213 321.923C42.2321 320.615 41.5562 319.704 40.2824 319.37C39.4234 319.147 38.6113 319.322 37.7958 319.513C37.4085 319.602 37.0458 319.912 36.5987 319.63C36.4898 319.127 36.9233 318.882 37.1327 318.574C37.9188 317.428 38.3028 315.977 39.6993 315.27C40.3738 314.93 40.0904 314.168 39.834 313.601C39.6052 313.091 39.0967 313.091 38.6445 313.215C37.9869 313.398 37.5336 313.845 37.694 314.55C37.8205 315.116 37.7007 315.539 37.4492 315.968C36.8123 317.051 36.1356 318.109 35.549 319.216C35.3455 319.6 34.8014 319.899 35.1093 320.501C34.6144 320.741 34.1031 320.953 33.6327 321.224C32.8043 321.705 32.0017 322.226 31.1827 322.719C31.0043 322.829 30.7949 323.018 30.5801 322.825C30.4127 322.677 30.5116 322.447 30.5683 322.266C30.6911 321.87 30.8308 321.484 30.9729 321.095C32.0348 318.19 32.6554 315.199 32.0597 312.01C31.3983 308.468 29.5118 307.387 26.6076 308.155C24.3364 308.758 22.4434 310.095 20.9021 311.88C19.703 313.265 18.5858 314.696 17.7835 316.363L17.7764 316.371Z" fill="#EF9AB3"/>
<path d="M17.5045 316.876C18.3043 315.214 19.4178 313.788 20.6131 312.407C22.1494 310.628 24.0335 309.293 26.3003 308.694C29.1923 307.926 31.0729 309.003 31.7352 312.536C32.3315 315.713 31.7106 318.696 30.6522 321.592C30.5106 321.98 30.3742 322.367 30.2489 322.76C30.1924 322.94 30.0909 323.167 30.2607 323.317C30.4777 323.511 30.6835 323.321 30.8614 323.211C31.6778 322.72 32.4778 322.2 33.3036 321.721C33.7747 321.448 34.2844 321.236 34.7754 321C35.3166 320.786 35.8123 320.496 36.2572 320.13C36.7028 320.41 37.0644 320.101 37.4504 320.012C38.2634 319.822 39.0752 319.645 39.9291 319.87C41.1989 320.203 41.8727 321.111 41.862 322.414C41.858 322.853 41.9281 323.293 41.9638 323.733C41.5912 324.109 41.5558 324.644 41.3669 325.106C41.0063 326.491 40.172 327.604 39.3931 328.741C39.0118 329.3 38.5272 329.785 38.2212 330.404C38.1548 330.542 37.9472 330.645 38.0679 330.829C38.2045 331.036 38.4436 330.979 38.6051 330.912C39.218 330.656 39.8659 330.524 40.5109 330.366C42.1987 329.948 43.9115 329.661 45.6787 329.672C45.7166 329.633 45.7545 329.594 45.7924 329.555L45.7848 329.558C46.3442 329.793 46.9146 329.795 47.4832 329.71C48.2888 330.117 49.1933 330.015 50.0268 330.389C51.9161 331.236 53.3319 332.455 53.8049 334.547C53.8417 334.711 53.9169 334.866 53.9718 335.027C53.6948 335.29 53.8921 335.662 53.8076 335.971C53.6518 338.035 52.3626 339.354 50.9416 340.604C50.3282 341.141 49.5205 341.402 48.9765 342.017C48.0288 342.206 47.1804 342.647 46.2846 342.971C46.0484 343.054 45.6128 343.006 45.6747 343.372C45.7331 343.708 46.1425 343.591 46.3991 343.668C47.5635 344.548 48.9861 345.021 50.0286 346.11C51.4205 347.565 52.2934 349.171 51.737 351.145C51.2335 352.931 49.8159 353.76 48.1585 354.285C47.9317 354.358 47.6412 354.286 47.4925 354.539C47.4109 354.541 47.3316 354.54 47.2499 354.541C42.6297 354.866 38.3572 353.525 34.3568 351.046C31.3545 349.186 28.5312 347.084 26.2215 344.356C25.9449 344.03 25.7518 343.622 25.3481 343.411C25.3912 342.896 24.9129 342.63 24.7296 342.217C23.7767 340.081 22.3846 338.222 20.8013 336.495C20.3083 335.955 20.1588 335.204 19.5568 334.752C18.8542 333.135 18.0274 331.563 17.4915 329.879C16.0866 325.46 15.9186 321.128 17.5063 316.891L17.5045 316.876ZM22.8297 327.109C22.1242 327.91 21.4157 328.708 21.0112 329.722C20.8941 330.022 20.6556 330.37 21.0686 330.618C21.4705 330.861 21.5923 330.437 21.7585 330.222C22.3771 329.424 22.9665 328.6 23.5822 327.8C23.9652 327.304 24.3996 326.843 24.771 326.337C24.929 326.12 25.0234 325.806 24.7236 325.579C24.4348 325.356 24.1876 325.506 23.9957 325.728C23.6028 326.181 23.2215 326.645 22.832 327.107L22.8297 327.109ZM21.2627 325.624C21.384 325.409 21.5029 325.197 21.6212 324.979C22.1371 324.017 22.6554 323.052 23.1655 322.085C23.3118 321.81 23.2948 321.539 23.0008 321.34C22.775 321.186 22.5354 321.238 22.4106 321.445C21.6714 322.654 20.924 323.861 20.3598 325.172C20.2531 325.423 20.2899 325.683 20.553 325.841C20.8668 326.028 21.0861 325.863 21.2598 325.622L21.2627 325.624ZM26.5629 331.6C26.118 332.252 25.5623 332.643 25.2878 333.26C25.1951 333.47 25.1205 333.678 25.3702 333.858C25.5767 334.005 25.7569 333.917 25.9067 333.793C26.9353 332.931 27.863 331.968 28.6384 330.871C28.8139 330.621 28.9386 330.295 28.6119 330.04C28.3138 329.804 28.0847 330.022 27.8905 330.223C27.4141 330.71 26.9465 331.205 26.5629 331.6ZM32.0453 334.541C32.2179 334.217 32.6716 334.025 32.3414 333.643C32.0019 333.248 31.6625 333.543 31.3779 333.738C30.4274 334.377 29.481 335.028 28.5492 335.692C28.3119 335.861 28.0052 336.093 28.2316 336.443C28.4264 336.748 28.7635 336.598 29.0003 336.496C30.1467 336.006 31.1357 335.286 32.0459 334.546L32.0453 334.541ZM22.699 331.558C22.1381 332.401 21.6654 333.324 21.2737 334.288C21.1373 334.628 21.0266 335.032 21.4623 335.248C21.9039 335.468 22.0368 335.025 22.1819 334.764C22.6594 333.906 23.0919 333.025 23.5577 332.158C23.7261 331.845 24.0095 331.569 23.5294 331.24C23.0779 330.93 22.9591 331.357 22.7013 331.555L22.699 331.558ZM24.2504 338.646C24.3228 338.679 24.3969 338.728 24.4756 338.748C25.7588 339.106 27.0401 339.116 28.322 338.965C28.5279 338.941 28.7052 338.826 28.6789 338.59C28.649 338.322 28.428 338.209 28.1976 338.179C26.964 338.029 25.7316 337.889 24.5022 337.753C24.2403 337.724 24.0753 337.878 24.0194 338.111C23.9733 338.314 24.0982 338.487 24.2528 338.643L24.2504 338.646ZM34.7129 347.769C34.7386 347.667 34.819 347.489 34.8277 347.306C34.8352 347.113 34.6597 347.101 34.522 347.121C33.3918 347.307 32.2941 347.049 31.1952 346.734C30.9415 346.66 30.591 346.641 30.5123 347.002C30.4401 347.326 30.66 347.547 30.947 347.659C31.9409 348.051 32.9552 348.294 34.0056 348.149C34.2552 348.115 34.4925 348.042 34.7158 347.772L34.7129 347.769ZM27.9607 344.472C28.8409 344.957 29.8814 345.104 30.9167 345.274C31.1803 345.319 31.4614 345.33 31.4887 344.983C31.5137 344.686 31.2892 344.518 31.029 344.433C30.1034 344.133 29.1742 343.848 28.2462 343.55C27.989 343.469 27.7995 343.521 27.6794 343.746C27.5354 344.018 27.6696 344.228 27.9578 344.469L27.9607 344.472ZM30.0264 341.851C29.9739 341.83 29.9185 341.807 29.8665 341.791C28.8248 341.491 27.7849 341.183 26.7414 340.891C26.5262 340.831 26.3483 340.917 26.2772 341.132C26.1816 341.412 26.3024 341.667 26.555 341.778C27.5892 342.224 28.6595 342.52 29.7752 342.512C29.9571 342.51 30.0878 342.427 30.1268 342.232C30.1559 342.09 30.1623 341.958 30.0287 341.849L30.0264 341.851Z" fill="#EF7FA0"/>
<path d="M19.0556 335.69C19.6621 336.146 19.8132 336.907 20.3093 337.446C21.9043 339.186 23.3067 341.059 24.2666 343.211C24.4512 343.627 24.936 343.898 24.8897 344.414C23.1422 344.196 21.6254 343.327 20.131 342.444C19.5533 342.104 19.0268 342.008 18.4304 342.218C12.6041 344.256 6.54442 345.439 0.348889 346.141C0.162623 346.164 -0.0595033 346.104 -0.337951 346.518C0.580453 346.43 1.32734 346.665 2.11062 346.726C6.12165 347.042 10.1191 346.853 14.1307 347.15C17.4589 347.401 20.7789 347.745 24.032 348.731C24.9675 349.012 25.9054 349.315 26.6753 349.997C27.6074 350.821 27.7456 351.802 26.9802 352.691C25.76 354.106 24.0214 354.567 22.2286 354.852C19.3542 355.31 16.4631 354.949 13.5796 354.369C7.18749 353.088 0.981473 351.089 -4.8387 347.968C-6.60638 347.019 -8.2147 346.714 -10.0427 346.921C-11.3301 347.062 -12.6346 347.098 -13.9337 347.181C-14.2928 347.205 -14.7516 347.36 -14.9204 346.919C-15.1038 346.441 -14.7019 346.061 -14.3353 345.962C-13.2077 345.65 -12.5862 344.758 -11.8078 344.034C-10.1745 342.506 -8.80752 340.737 -7.36644 339.035C-4.83913 336.053 -2.40057 332.99 0.455264 330.307C2.37932 328.501 4.31161 326.697 6.66001 325.406C7.41676 324.989 8.18351 324.614 9.08959 324.583C10.5574 324.533 11.6523 325.506 11.7301 326.972C11.8144 328.567 11.1607 329.911 10.4288 331.221C8.58844 334.522 5.9159 337.035 2.80552 339.103C-0.411198 341.243 -3.76487 343.155 -7.3131 344.753C-7.50052 344.837 -7.90185 344.887 -7.79837 345.196C-7.68314 345.539 -7.28948 345.372 -7.06796 345.355C-3.65698 345.106 -0.25836 344.77 3.11027 344.283C8.27984 343.538 13.2707 342.214 18.1904 340.633C18.9812 340.379 19.1933 339.99 18.9146 339.206C18.7324 338.691 18.6089 338.154 18.523 337.621C18.4077 336.895 18.4963 336.209 19.0497 335.685L19.0556 335.69Z" fill="#6BB194"/>
<path d="M58.5279 342.178C58.4499 342.193 58.3637 342.229 58.2904 342.214C58.0018 342.149 57.5672 342.132 57.5775 341.773C57.5896 341.405 57.9661 341.33 58.3292 341.42C58.2702 341.7 58.377 341.944 58.5256 342.181L58.5279 342.178Z" fill="#FFC1D3"/>
<path d="M41.7115 324.661C41.9099 324.189 41.9432 323.64 42.3217 323.259C44.3307 321.969 46.4727 320.854 48.0687 319.027C48.5664 318.457 49.3132 318.453 49.9849 318.963C50.5565 319.397 51.0387 319.877 50.6668 320.632C50.3122 321.349 49.634 321.533 48.7787 321.07C48.1761 320.745 47.8388 320.816 47.2982 321.219C45.6736 322.425 43.9363 323.491 42.2455 324.611C42.0798 324.723 41.9183 324.847 41.7115 324.661Z" fill="#FFC1D3"/>
<path d="M46.0999 343.273C45.8403 343.196 45.426 343.314 45.3669 342.974C45.3043 342.603 45.7428 342.656 45.9842 342.568C46.8906 342.241 47.7492 341.795 48.7081 341.604C49.5397 341.756 50.311 341.895 50.7328 340.884C51.0171 340.198 52.1897 340.127 52.9133 340.629C53.4752 341.022 53.614 341.91 53.1479 342.523C52.6564 343.171 51.9353 343.508 51.1444 343.121C50.1819 342.655 49.2565 342.765 48.3147 342.846C47.5634 342.911 46.7969 342.959 46.1017 343.265L46.0999 343.273Z" fill="#FFC1D3"/>
<path d="M47.7072 329.16C47.1256 329.25 46.5476 329.25 45.9772 329.005C46.5433 328.269 47.4838 328.094 48.221 327.614C48.9184 327.164 49.6764 326.799 50.3928 326.375C50.8193 326.124 51.1877 325.834 51.427 325.351C51.7323 324.735 52.2735 324.379 53.0458 324.748C53.8354 325.127 54.2359 325.923 53.987 326.587C53.7328 327.275 53.0722 327.597 52.25 327.312C51.5816 327.08 51.0345 327.141 50.4939 327.526C49.6171 328.153 48.5383 328.461 47.7019 329.161L47.7072 329.16Z" fill="#FFC1D3"/>
<path d="M53.827 335.232C53.9124 334.92 53.7108 334.546 53.993 334.278C55.2975 334.066 56.6863 334.133 57.6248 332.955C58.0648 332.404 58.9681 332.493 59.5669 332.961C60.0542 333.339 60.2482 334.389 59.9496 335.013C59.6633 335.604 58.7819 336.072 58.2557 335.68C56.9698 334.716 55.7455 335.025 54.4781 335.355C54.2577 335.412 54.0291 335.419 53.8329 335.237L53.827 335.232Z" fill="#FFC1D3"/>
<path d="M36.8274 319.961C36.3701 320.337 35.8607 320.634 35.3046 320.853C34.9923 320.24 35.5443 319.935 35.7552 319.54C36.3588 318.406 37.0522 317.324 37.7024 316.22C37.9625 315.778 38.0854 315.347 37.9535 314.771C37.7923 314.053 38.2568 313.595 38.9274 313.406C39.3907 313.279 39.9115 313.28 40.1458 313.801C40.4059 314.384 40.6984 315.16 40.0074 315.508C38.5768 316.229 38.1855 317.71 37.3776 318.884C37.1607 319.201 36.716 319.447 36.8304 319.964L36.8274 319.961Z" fill="#FFC1D3"/>
<path d="M45.9858 329.148C45.9473 329.187 45.9089 329.227 45.8704 329.266C45.8181 329.139 45.844 329.084 45.9858 329.148Z" fill="#FFC1D3"/>
<path d="M22.9414 327.46C23.3421 326.987 23.7397 326.512 24.1459 326.039C24.3414 325.808 24.6002 325.656 24.8989 325.886C25.2036 326.121 25.1089 326.447 24.9477 326.668C24.5633 327.189 24.1162 327.662 23.7173 328.175C23.0801 329.001 22.47 329.85 21.8298 330.673C21.6578 330.894 21.5286 331.329 21.1159 331.08C20.6911 330.821 20.9355 330.465 21.0568 330.157C21.4757 329.111 22.2058 328.286 22.939 327.463L22.9414 327.46Z" fill="#C7386C"/>
<path d="M21.5117 326.037C21.3333 326.284 21.1081 326.453 20.786 326.261C20.516 326.099 20.4758 325.836 20.5878 325.575C21.1644 324.23 21.932 322.993 22.6942 321.757C22.8248 321.542 23.0685 321.491 23.3002 321.65C23.599 321.851 23.6194 322.132 23.4691 322.413C22.9451 323.404 22.4128 324.393 21.8829 325.379C21.7638 325.599 21.6392 325.819 21.5147 326.039L21.5117 326.037Z" fill="#C7386C"/>
<path d="M26.5422 331.868C26.9356 331.458 27.4217 330.952 27.9139 330.45C28.1145 330.244 28.3542 330.022 28.659 330.262C28.9939 330.528 28.8674 330.861 28.6861 331.118C27.8849 332.247 26.9265 333.238 25.8639 334.126C25.7091 334.253 25.5259 334.347 25.3097 334.192C25.0519 334.007 25.126 333.791 25.2248 333.576C25.5085 332.941 26.0826 332.539 26.5422 331.868Z" fill="#C7386C"/>
<path d="M31.9904 334.731C31.06 335.484 30.0441 336.223 28.8693 336.725C28.6266 336.829 28.2812 336.982 28.0816 336.671C27.8497 336.312 28.1671 336.077 28.4073 335.903C29.3622 335.223 30.3321 334.557 31.3062 333.904C31.5984 333.71 31.9456 333.403 32.2934 333.807C32.6292 334.2 32.1667 334.395 31.9898 334.725L31.9904 334.731Z" fill="#C7386C"/>
<path d="M22.6308 331.975C22.8951 331.772 23.017 331.336 23.4799 331.652C23.972 331.989 23.6814 332.272 23.5086 332.592C23.0303 333.474 22.5842 334.379 22.0975 335.259C21.9486 335.526 21.8123 335.979 21.3596 335.754C20.9129 335.533 21.0266 335.119 21.1665 334.771C21.5683 333.785 22.0532 332.84 22.6284 331.978L22.6308 331.975Z" fill="#C7386C"/>
<path d="M24.0015 339.028C23.8463 338.871 23.721 338.697 23.7672 338.493C23.8234 338.26 23.989 338.105 24.2519 338.134C25.4884 338.269 26.7261 338.414 27.9614 338.562C28.1979 338.592 28.4169 338.702 28.4445 338.974C28.4709 339.212 28.2929 339.327 28.0863 339.351C26.7995 339.503 25.5133 339.493 24.2252 339.133C24.1432 339.11 24.0689 339.061 23.9992 339.03L24.0015 339.028Z" fill="#C7386C"/>
<path d="M34.1968 348.035C33.9702 348.31 33.7318 348.383 33.4835 348.415C32.4286 348.56 31.407 348.313 30.4117 347.922C30.1287 347.809 29.9055 347.59 29.9752 347.262C30.0565 346.897 30.4062 346.919 30.661 346.993C31.7699 347.31 32.87 347.571 34.0022 347.382C34.1405 347.362 34.3168 347.374 34.3092 347.568C34.301 347.757 34.2226 347.933 34.1939 348.033L34.1968 348.035Z" fill="#C7386C"/>
<path d="M27.5219 344.811C27.2341 344.57 27.0978 344.363 27.2439 344.089C27.3638 343.864 27.5554 343.809 27.8099 343.893C28.7365 344.191 29.6643 344.475 30.5887 344.775C30.8484 344.859 31.0727 345.027 31.0477 345.323C31.0175 345.668 30.7368 345.656 30.4765 345.614C29.4427 345.444 28.4037 345.298 27.5248 344.813L27.5219 344.811Z" fill="#C7386C"/>
<path d="M29.6759 342.208C29.8118 342.315 29.8002 342.447 29.774 342.591C29.735 342.786 29.6044 342.87 29.4224 342.871C28.3069 342.879 27.2391 342.581 26.2028 342.138C25.9503 342.027 25.8295 341.772 25.925 341.492C25.999 341.279 26.1769 341.193 26.3892 341.251C27.4325 341.543 28.4746 341.848 29.5138 342.15C29.5686 342.169 29.6211 342.19 29.6736 342.211L29.6759 342.208Z" fill="#C7386C"/>
<path d="M74.6626 431.654C75.7325 432.777 76.5769 434.015 76.4328 436.003C72.6788 433.357 68.175 432.322 64.2874 430.045C60.2718 427.69 58.5263 423.161 54.9595 419.955C54.2651 421.525 54.943 422.369 55.3264 423.214C57.049 426.958 58.4202 430.845 59.7258 434.753C60.0371 435.688 60.5435 436.622 60.1658 437.695C59.8561 437.817 59.5456 437.947 59.236 438.068C58.3236 437.093 58.0767 435.804 57.6721 434.586C52.6551 419.403 44.8759 405.99 32.9197 395.279C31.2513 393.787 29.6263 392.171 26.6443 391.115C29.6802 401.436 33.8332 410.605 38.1145 419.723C37.9366 419.796 37.7594 419.862 37.5858 419.932C33.9889 416.019 32.339 411.016 30.3253 406.246C28.8371 402.721 27.2051 399.116 26.6336 395.359C25.6063 388.616 20.7146 386.225 15.3403 384.062C15.1755 383.994 14.9805 383.995 14.7962 383.965C14.5517 383.77 14.4178 383.755 14.5095 384.14C17.6915 389.57 21.7459 394.474 24.0295 400.454C25.9414 405.463 26.6184 410.703 26.9701 415.933C25.7901 416.602 25.3121 416.006 24.8088 415.468C25.274 414.139 24.9442 412.973 24.418 411.737C22.9183 408.207 21.5684 404.605 20.135 401.047C18.8473 397.849 18.2827 394.275 15.5789 391.804C15.2785 385.848 12.0642 382.143 6.59967 380.224C2.8535 378.913 -0.907103 377.629 -4.69157 376.431C-5.68104 376.116 -6.74516 375.619 -8.47017 376.373C-0.703446 380.76 5.05468 386.473 7.32021 395.014C3.67985 391.871 0.301773 388.517 -2.66614 384.686C-4.37975 382.479 -5.88255 379.756 -9.02323 378.997C-13.6678 373.333 -20.2683 373.931 -26.7547 374.111C-28.5379 374.162 -30.3952 374.798 -32.2206 373.927C-31.4892 372.775 -30.4428 372.99 -29.5925 372.873C-25.1026 372.252 -20.5683 371.927 -16.1564 372.707C-11.1103 373.602 -6.14906 373.133 -1.1168 372.284C1.09008 371.912 2.49218 370.261 4.36273 369.396C5.96633 369.653 7.50928 369.447 9.01539 368.736C12.5347 367.081 16.17 365.891 20.0363 365.474C21.2019 365.347 22.4915 365.171 23.3257 364.068C25.7529 364.84 24.4058 365.682 23.19 366.223C19.289 367.96 15.3078 369.448 11.064 370.074C9.06747 370.367 7.10231 370.878 5.13689 371.608C11.9544 372.621 18.9289 372.455 25.4065 374.82C25.27 375.221 25.1291 375.625 24.9926 376.026C15.6466 373.957 6.15281 373.314 -3.55526 373.697C-3.49167 375.331 -2.42032 375.191 -1.73883 375.394C10.3898 379.082 21.7089 384.251 31.7012 391.978C35.6706 395.047 40.6559 396.211 45.2227 398.156C45.1761 400.423 47.2202 400.735 48.5942 401.582C53.6168 404.664 59.3632 406.246 64.7531 408.584C66.3138 409.262 67.6555 410.586 69.5872 410.393C70.7877 411.824 70.1642 412.543 68.56 412.207C60.7591 410.554 52.8045 409.23 46.9553 403.212C45.2404 401.448 43.3072 399.894 41.3941 398.338C40.5167 397.629 39.5248 396.954 37.7141 397.086C39.4172 399.106 40.8182 400.865 42.3272 402.53C46.3326 406.932 48.9127 412.417 53.0967 416.694C54.9754 418.621 57.3641 419.811 59.4635 421.417C59.5103 422.632 60.2488 423.337 61.1543 424.043C63.8845 426.186 67.1131 427.501 70.0928 429.226C71.5769 430.086 72.4326 432.148 74.6785 431.655L74.6626 431.654Z" fill="#6BA270"/>
<path d="M59.8683 438.797C60.1707 438.673 60.4811 438.549 60.7871 438.428C64.1715 438.822 67.5851 439.155 69.8426 442.082C70.3867 442.788 70.9294 443.51 71.3603 444.292C71.9432 445.344 72.3701 446.51 71.4383 447.614C70.5557 448.653 69.2515 448.853 68.1245 448.413C66.1932 447.655 64.7789 447.727 64.0506 450.031C63.9514 450.339 63.4649 450.837 63.3156 450.793C60.8436 450.057 58.9099 452.046 56.7357 452.257C54.7201 452.453 53.8778 450.55 53.7732 448.706C53.5975 445.59 54.8617 442.975 57.2764 440.887C58.1138 440.165 58.9974 439.497 59.864 438.801L59.8683 438.797Z" fill="#EF7FA0"/>
<path d="M38.0453 420.227C38.2166 420.158 38.3958 420.09 38.5671 420.021C41.5229 419.907 44.4688 419.73 46.922 421.738C48.3416 422.905 50.0342 424.051 49.4236 426.151C48.8366 428.167 47.029 428.222 45.2774 427.842C45.104 427.805 44.758 427.81 44.7509 427.845C43.9976 431.063 40.4147 430.314 38.7373 432.189C36.7973 434.354 35.0071 434.094 34.0382 431.451C32.8631 428.234 33.6614 425.378 35.8961 422.745C36.6104 421.9 37.7257 421.39 38.0496 420.224L38.0453 420.227Z" fill="#EF7FA0"/>
<path d="M24.409 376.294C24.5482 375.894 24.6832 375.498 24.8182 375.103C27.0796 371.713 30.2349 370.4 34.1549 370.858C35.2917 370.99 36.3699 371.287 36.753 372.506C37.1176 373.668 36.8039 374.677 35.706 375.401C34.9558 375.897 34.3458 376.451 34.8131 377.439C35.3699 378.608 34.9851 379.578 34.0096 380.383C33.3369 380.934 33.3682 381.617 33.3096 382.377C33.075 385.296 31.3041 386.191 28.7899 384.701C25.6303 382.827 24.2574 379.974 24.404 376.306L24.409 376.294Z" fill="#EF7FA0"/>
<path d="M15.7361 391.621C18.4444 394.096 19.0141 397.673 20.2995 400.88C21.7309 404.448 23.0873 408.052 24.5894 411.588C25.1165 412.827 25.4424 413.999 24.9808 415.327C17.1066 409.415 14.985 401.117 15.7397 391.625L15.7361 391.621Z" fill="#8AB696"/>
<path d="M69.2361 411.128C67.3045 411.32 65.9628 409.997 64.4023 409.318C59.0162 406.985 53.27 405.403 48.2439 402.317C46.8736 401.474 44.8296 401.162 44.8726 398.892C53.1027 400.674 61.1929 402.766 67.3939 408.807C68.1057 409.499 68.9076 410.12 69.2369 411.12L69.2361 411.128Z" fill="#8AB696"/>
<path d="M-9.00805 378.315C-5.84022 379.084 -4.32638 381.829 -2.60372 384.05C0.3825 387.909 3.78927 391.295 7.45669 394.463C6.30414 395.655 5.41118 394.604 4.47461 394.198C-2.6417 391.131 -6.14217 384.989 -9.00805 378.315Z" fill="#8AB696"/>
<path d="M74.7374 432.535C72.4854 433.029 71.6274 430.961 70.1393 430.098C67.1514 428.368 63.9184 427.046 61.1765 424.9C60.2728 424.188 59.5323 423.481 59.4811 422.267C65.9501 423.716 71.706 426.187 74.7331 432.538L74.7374 432.535Z" fill="#8AB696"/>
<path d="M22.4913 363.98C21.6682 365.067 20.4066 365.236 19.2623 365.36C15.4705 365.774 11.8984 366.937 8.44368 368.562C6.96522 369.26 5.44633 369.465 3.8764 369.21C9.3339 364.471 15.3921 362.147 22.492 363.972L22.4913 363.98Z" fill="#8AB696"/>
<path d="M88.3328 399.793C89.612 399.041 91.0587 399.263 91.9809 399.882C93.1547 400.671 92.8919 402.12 91.9558 403.23C90.9399 404.429 89.7553 404.511 88.5547 403.554C87.1448 402.429 88.1164 401.101 88.3328 399.793Z" fill="#EF9AB3"/>
<path d="M69.0745 391.406C68.1562 392.162 67.2124 392.933 66.0898 392.138C65.0638 391.41 64.4811 390.408 65.3854 389.131C66.1317 388.075 67.1554 387.69 68.2499 388.391C69.3513 389.095 69.6801 390.155 69.0745 391.406Z" fill="#EF9AB3"/>
<path d="M78.5035 418.052C79.3948 417.184 80.4141 416.744 81.447 417.573C82.4645 418.39 82.7742 419.486 81.8369 420.654C81.0269 421.656 80.0107 422.067 79.0196 421.081C78.2039 420.268 77.3639 419.314 78.5019 418.047L78.5035 418.052Z" fill="#EF9AB3"/>
<path d="M37.1251 31.6364C37.8154 30.2449 38.2561 28.8107 37.5285 26.9519C34.7225 30.5962 30.7215 32.9222 27.6783 36.2532C24.5357 39.697 24.2096 44.5471 21.7487 48.6717C20.6188 47.3757 21.0167 46.3669 21.133 45.4456C21.6703 41.3534 21.8288 37.2283 21.9186 33.1033C21.9389 32.1161 22.1463 31.0723 21.4668 30.1585C21.1344 30.1337 20.799 30.1017 20.4666 30.077C19.8834 31.281 20.0294 32.5867 20.0036 33.8714C19.7082 49.8833 16.2454 65.02 7.98596 78.8121C6.8326 80.7339 5.75758 82.7619 3.21844 84.6564C3.06108 73.8835 4.31384 63.8807 5.70481 53.8901C5.51283 53.8725 5.32388 53.8622 5.13714 53.8469C2.85698 58.6563 2.76284 63.9314 2.25136 69.0909C1.87353 72.9044 1.38152 76.8363 1.94924 80.5996C2.96684 87.3549 -1.00316 91.0924 -5.50222 94.7555C-5.63957 94.8697 -5.82658 94.9263 -5.994 95.0094C-6.16996 95.2688 -6.29354 95.323 -6.32005 94.9275C-4.88709 88.7892 -2.46333 82.8964 -2.05263 76.499C-1.7097 71.1402 -2.61627 65.9273 -3.83122 60.8202C-5.15827 60.5303 -5.43873 61.2422 -5.76057 61.9061C-4.92138 63.0395 -4.89093 64.2528 -5.02762 65.5914C-5.4151 69.4128 -5.63819 73.2577 -5.95395 77.0864C-6.2372 80.5271 -5.71694 84.1138 -7.57053 87.2788C-6.09128 93.065 -8.06666 97.563 -12.7246 101.019C-15.9191 103.384 -19.1354 105.728 -22.3999 107.996C-23.253 108.591 -24.1235 109.382 -25.9972 109.172C-19.8694 102.672 -16.0558 95.5004 -16.4221 86.6586C-18.972 90.7445 -21.2084 94.9548 -22.911 99.4996C-23.8955 102.119 -24.5255 105.169 -27.3043 106.827C-30.067 113.622 -36.5581 115.008 -42.816 116.759C-44.5366 117.24 -46.5019 117.182 -47.9896 118.557C-46.9483 119.442 -46.0111 118.926 -45.1632 118.785C-40.6843 118.047 -36.2506 117.014 -32.262 114.958C-27.7005 112.607 -22.8158 111.583 -17.7505 110.903C-15.5293 110.604 -13.6985 111.767 -11.6526 112.04C-10.1949 111.319 -8.65795 111.058 -7.00652 111.291C-3.14923 111.831 0.68099 111.89 4.50286 111.142C5.65554 110.918 6.94118 110.704 8.06638 111.512C10.159 110.053 8.62063 109.647 7.29745 109.491C3.05068 108.986 -1.19882 108.744 -5.44382 109.403C-7.44027 109.716 -9.47177 109.81 -11.5681 109.695C-5.34752 106.703 1.37298 104.793 6.86746 100.61C6.61808 100.267 6.36346 99.9222 6.11407 99.5796C-2.21206 104.33 -11.1024 107.762 -20.502 110.275C-20.9261 108.692 -19.8597 108.508 -19.2681 108.112C-8.76063 100.987 0.533365 92.6855 7.79953 82.331C10.686 78.2177 15.1093 75.6256 18.9006 72.4103C18.1838 70.2561 20.0464 69.3511 21.1097 68.134C24.9996 63.6957 30.0272 60.4787 34.4893 56.6434C35.7809 55.5318 36.6717 53.8676 38.5766 53.479C39.3005 51.7542 38.4909 51.2516 37.0561 52.0489C30.0845 55.9435 22.8684 59.5696 19.0585 67.0609C17.9413 69.2565 16.5529 71.3161 15.1847 73.3724C14.5556 74.3105 13.8071 75.2506 12.036 75.6614C13.0657 73.2237 13.8842 71.1261 14.8337 69.0854C17.3593 63.687 18.2004 57.675 20.9339 52.3431C22.1595 49.9427 24.0913 48.0957 25.6231 45.9366C25.3077 44.7613 25.8049 43.8677 26.4616 42.9236C28.4374 40.0639 31.1357 37.8487 33.4743 35.3149C34.6387 34.0518 34.8457 31.8259 37.14 31.6309L37.1251 31.6364Z" fill="#6BA270"/>
<path d="M20.8554 29.1926C21.1817 29.222 21.5153 29.2486 21.8437 29.273C24.9641 27.8923 28.1306 26.5613 29.4218 23.0922C29.7329 22.2553 30.0379 21.404 30.2181 20.528C30.4634 19.3484 30.5262 18.1071 29.3076 17.3277C28.1549 16.5949 26.8482 16.7909 25.9008 17.5464C24.2781 18.8439 22.9038 19.1942 21.5239 17.2065C21.3378 16.9417 20.7248 16.6097 20.5947 16.6954C18.4485 18.1325 16.0091 16.804 13.8667 17.2469C11.8805 17.657 11.6395 19.7277 12.0864 21.5228C12.8424 24.5551 14.8274 26.6817 17.7564 27.9624C18.7714 28.4041 19.8148 28.7812 20.8502 29.1903L20.8554 29.1926Z" fill="#EF7FA0"/>
<path d="M5.48898 53.428C5.67327 53.4431 5.86492 53.4555 6.04921 53.4706C8.9103 52.7028 11.7806 51.9982 13.5316 49.35C14.5435 47.8129 15.8225 46.2144 14.6155 44.3865C13.4562 42.6327 11.7109 43.1164 10.1481 43.9993C9.99316 44.0858 9.66077 44.1839 9.64363 44.1527C7.96871 41.2982 4.7635 43.0766 2.6029 41.781C0.105019 40.2853 -1.52997 41.0657 -1.67297 43.8809C-1.84293 47.3061 -0.232246 49.8011 2.68648 51.6576C3.62019 52.2535 4.83839 52.4107 5.49415 53.4303L5.48898 53.428Z" fill="#EF7FA0"/>
<path d="M5.47619 99.4961C5.72794 99.837 5.97451 100.176 6.22108 100.514C9.38945 103.086 12.7971 103.406 16.4108 101.805C17.4591 101.342 18.4023 100.738 18.4073 99.4585C18.4112 98.2381 17.8119 97.3662 16.5471 96.9997C15.6825 96.7479 14.9345 96.3987 15.0884 95.3148C15.2742 94.0312 14.6185 93.2178 13.4467 92.7375C12.6399 92.4101 12.4673 91.7476 12.1858 91.0378C11.0954 88.3148 9.1361 87.9841 7.17318 90.1554C4.7067 92.8846 4.23987 96.0214 5.46801 99.4866L5.47619 99.4961Z" fill="#EF7FA0"/>
<path d="M-7.36567 87.4078C-5.50916 84.2373 -6.02522 80.6467 -5.74692 77.1976C-5.43607 73.36 -5.20756 69.5106 -4.81963 65.6825C-4.68277 64.3417 -4.71859 63.124 -5.55397 61.9908C-11.3326 69.9806 -10.9007 78.5474 -7.36346 87.4027L-7.36567 87.4078Z" fill="#8AB696"/>
<path d="M38.023 52.8806C36.1182 53.2692 35.2274 54.9334 33.9358 56.0449C29.4761 59.875 24.4487 63.0919 20.5567 67.5351C19.4957 68.7471 17.6332 69.6521 18.3478 71.8112C25.6914 67.6649 32.8095 63.2644 36.9492 55.647C37.4249 54.7742 38.0076 53.942 38.026 52.888L38.023 52.8806Z" fill="#8AB696"/>
<path d="M36.9356 30.7725C34.6349 30.9679 34.4276 33.2004 33.26 34.467C30.9152 37.008 28.2149 39.2318 26.2286 42.0975C25.5754 43.0466 25.0769 43.9427 25.388 45.1192C31.1459 41.8142 35.9187 37.7432 36.9304 30.7702L36.9356 30.7725Z" fill="#8AB696"/>
<path d="M7.29436 111.844C6.1847 111.048 4.92781 111.261 3.79628 111.481C0.0467319 112.21 -3.71532 112.157 -7.50178 111.627C-9.12288 111.398 -10.6367 111.652 -12.0626 112.363C-5.43668 115.277 1.04744 115.703 7.29734 111.851L7.29436 111.844Z" fill="#8AB696"/>
<path d="M59.6513 58.0586C61.098 58.3985 62.4159 57.7568 63.1145 56.8916C64.0032 55.7884 63.3221 54.4804 62.0973 53.6959C60.7699 52.8505 59.6125 53.1233 58.7482 54.3955C57.7333 55.8897 59.0563 56.8712 59.6513 58.0586Z" fill="#EF9AB3"/>
<path d="M43.7179 71.7931C42.6151 71.3418 41.4838 70.8848 40.6458 71.9778C39.8803 72.9789 39.6201 74.1098 40.8639 75.0636C41.891 75.852 42.9843 75.9163 43.8233 74.9214C44.668 73.9211 44.668 72.8096 43.7179 71.7931Z" fill="#EF9AB3"/>
<path d="M44.8335 43.5082C45.9436 44.0742 47.0492 44.1932 47.7912 43.0935C48.5221 42.01 48.4935 40.8706 47.2504 40.031C46.1784 39.3127 45.0845 39.2211 44.4288 40.4579C43.8898 41.4777 43.3692 42.6393 44.8336 43.5137L44.8335 43.5082Z" fill="#EF9AB3"/>
</svg>
