<svg width="17" height="18" viewBox="0 0 17 18" fill="none" xmlns="http://www.w3.org/2000/svg">
<path d="M8.3303 0.352539C3.7294 0.352539 0 4.08265 0 8.68284C0 13.2837 3.7294 17.0131 8.3303 17.0131C12.9305 17.0131 16.6606 13.283 16.6606 8.68284C16.6606 4.08265 12.9305 0.352539 8.3303 0.352539ZM6.28953 10.9198C6.28953 11.37 5.92471 11.7341 5.4752 11.7341C5.02499 11.7341 4.66087 11.37 4.66087 10.9198V7.44793C4.66087 6.99772 5.02499 6.6329 5.4752 6.6329C5.92471 6.6329 6.28953 6.99772 6.28953 7.44793V10.9198ZM12.0421 10.8612C12.0421 11.4977 11.6702 11.7256 11.0337 11.7256H8.10519C7.46869 11.7256 6.95285 11.2098 6.95285 10.5733V7.6928C6.95285 7.6928 6.89569 7.21366 7.42635 6.76345C7.72625 6.5087 8.17152 6.0225 8.48272 5.43257C9.10088 4.26048 9.47064 3.91894 9.7522 4.01067C10.7952 4.34868 10.2737 5.89478 9.93708 6.54046H10.8897C11.5255 6.54046 12.0421 7.05629 12.0421 7.6928V10.8612Z" fill="#A81955"/>
</svg>
