<svg width="33" height="32" viewBox="0 0 33 32" fill="none" xmlns="http://www.w3.org/2000/svg">
<rect x="0.5" width="32" height="32" rx="16" fill="white"/>
<path d="M28.0302 10.1854C27.8945 9.67482 27.6271 9.20883 27.2547 8.83407C26.8823 8.4593 26.4181 8.18891 25.9083 8.04996C24.032 7.54541 16.532 7.54541 16.532 7.54541C16.532 7.54541 9.03198 7.54541 7.15562 8.04996C6.64591 8.18891 6.18164 8.4593 5.80927 8.83407C5.4369 9.20883 5.16949 9.67482 5.0338 10.1854C4.53198 12.07 4.53198 16 4.53198 16C4.53198 16 4.53198 19.93 5.0338 21.8145C5.16949 22.3251 5.4369 22.7911 5.80927 23.1658C6.18164 23.5406 6.64591 23.811 7.15562 23.95C9.03198 24.4545 16.532 24.4545 16.532 24.4545C16.532 24.4545 24.032 24.4545 25.9083 23.95C26.4181 23.811 26.8823 23.5406 27.2547 23.1658C27.6271 22.7911 27.8945 22.3251 28.0302 21.8145C28.532 19.93 28.532 16 28.532 16C28.532 16 28.532 12.07 28.0302 10.1854Z" fill="#FF0302"/>
<path d="M14.0774 19.5687V12.4314L20.3501 16L14.0774 19.5687Z" fill="#FEFEFE"/>
</svg>
