<svg width="25" height="25" viewBox="0 0 25 25" fill="none" xmlns="http://www.w3.org/2000/svg">
<path d="M23.4791 6.6875C23.3554 6.19313 23.1034 5.74018 22.7485 5.37438C22.3937 5.00858 21.9486 4.7429 21.4583 4.60417C19.6666 4.16667 12.4999 4.16667 12.4999 4.16667C12.4999 4.16667 5.33328 4.16667 3.54161 4.64583C3.05124 4.78457 2.60617 5.05025 2.25135 5.41605C1.89652 5.78185 1.64452 6.2348 1.52078 6.72917C1.19288 8.54745 1.03248 10.392 1.04161 12.2396C1.02992 14.1011 1.19033 15.9597 1.52078 17.7917C1.65719 18.2707 1.91485 18.7064 2.26884 19.0567C2.62284 19.4071 3.06122 19.6602 3.54161 19.7917C5.33328 20.2708 12.4999 20.2708 12.4999 20.2708C12.4999 20.2708 19.6666 20.2708 21.4583 19.7917C21.9486 19.6529 22.3937 19.3872 22.7485 19.0215C23.1034 18.6557 23.3554 18.2027 23.4791 17.7083C23.8045 15.9037 23.9649 14.0733 23.9583 12.2396C23.97 10.3781 23.8096 8.51948 23.4791 6.6875V6.6875Z" stroke="#A81955" stroke-width="2" stroke-linecap="round" stroke-linejoin="round"/>
<path d="M10.1562 15.6458L16.1458 12.2396L10.1562 8.83333V15.6458Z" stroke="#A81955" stroke-width="2" stroke-linecap="round" stroke-linejoin="round"/>
</svg>
